M48
;GenerationSoftware,Autodesk,EAGLE,9.1.1*%
;CreationDate,2018-08-10T13:45:32Z*%
FMAT,2
ICI,OFF
METRIC,TZ,000.000
T15C0.350
T14C0.450
T13C0.610
T12C0.650
T11C0.813
T10C0.900
T9C0.914
T8C1.000
T7C1.016
T6C1.100
T5C1.194
T4C1.200
T3C1.321
T2C1.400
T1C3.200
%
G90
M71
T1
X4486Y6133
X94656Y6133
X4486Y95033
X94656Y95033
T2
X2878Y30346
X2878Y35846
X7078Y35846
X7078Y30346
T3
X3810Y78765
X3810Y43205
X3810Y48235
X3810Y58395
X3810Y53365
X3810Y83795
T4
X34290Y38100
X41910Y38100
X17170Y66523
X33020Y29210
X30480Y29210
X27940Y29210
X80010Y80010
X80010Y74930
X80010Y72390
X80010Y69850
X80010Y67310
X12090Y66523
X80010Y77470
X59690Y85090
X57150Y85090
X35560Y29210
X14630Y66523
X67310Y71120
X67310Y73660
X35560Y52070
X35560Y54610
X35560Y57150
X35560Y59690
X39370Y38100
X67310Y76200
X59690Y71120
X59690Y73660
X59690Y76200
X49530Y5080
X35560Y62230
X49530Y7620
X29439Y73787
X29439Y71247
X15240Y53340
X17780Y53340
X36830Y38100
T5
X22987Y46787
X22987Y36779
T6
X17780Y30480
X12700Y30480
X15240Y30480
T7
X26670Y67310
X40640Y25400
X43180Y8890
X6172Y69037
X6172Y71577
X92710Y12700
X90170Y12700
X43180Y13970
X11557Y43815
X43180Y6350
X43180Y3810
X87630Y12700
X82550Y12700
X11430Y81280
X13970Y81280
X16510Y81280
X11557Y41275
X11557Y46355
X43180Y11430
X11430Y76200
X13970Y76200
X16510Y76200
X6172Y66497
X85090Y12700
T8
X75910Y91619
X71410Y98119
X71410Y91619
X83530Y98119
X83530Y91619
X79030Y98119
X79030Y91619
X8970Y90620
X13970Y94170
X33147Y86182
X92365Y82729
X41910Y48260
X36830Y48260
X36830Y43180
X41910Y43180
X7823Y60325
X25171Y70028
X13970Y87170
X22350Y86360
X25820Y58420
X68290Y98119
X68290Y91619
X63790Y98119
X58980Y8600
X65480Y8600
X63790Y91619
X75910Y98119
X65480Y4100
X71680Y8600
X78180Y8600
X71680Y4100
X78180Y4100
X96865Y89229
X58980Y4100
X92365Y89229
X19431Y94110
X29591Y92964
X48641Y92964
X43180Y93980
X91440Y20320
X34290Y73660
X96865Y82729
T9
X57150Y33020
X54610Y30480
X54610Y33020
X52070Y30480
X93345Y69088
X49530Y30480
X49530Y33020
X46990Y30480
X46990Y33020
X44450Y30480
X44450Y33020
X95885Y69088
X95885Y71628
X93345Y71628
X95885Y74168
X93345Y74168
X93980Y58420
X91440Y58420
X93980Y55880
X91440Y55880
X93980Y53340
X91440Y53340
X93980Y50800
X91440Y50800
X93980Y48260
X91440Y48260
X93980Y45720
X91440Y45720
X93980Y43180
X91440Y43180
X93980Y40640
X91440Y40640
X93980Y38100
X91440Y38100
X52070Y33020
X93980Y35560
X91440Y35560
X93980Y33020
X91440Y33020
X93980Y30480
X91440Y30480
X93980Y27940
X91440Y27940
X59690Y30480
X59690Y33020
X57150Y30480
T10
X44958Y88036
X26936Y84696
X17440Y7620
X23012Y83439
X37846Y81124
X37440Y82677
X13040Y7620
X30649Y82871
X23343Y81331
X33020Y69850
T11
X38100Y8890
X68707Y27686
X71247Y27686
X71247Y35306
X68707Y35306
X66167Y35306
X75652Y12700
X22987Y72161
X73152Y12700
X68301Y83566
X65761Y83566
X24867Y78486
X27407Y78486
X43409Y77927
X45949Y77927
X20447Y72161
X70841Y83566
X48260Y54610
X48260Y57150
X48260Y69850
X48260Y72390
X48260Y59690
X48260Y62230
X48260Y67310
X48260Y64770
X40640Y72390
X40640Y69850
X32842Y82855
X25222Y82855
X51003Y83591
X43383Y83591
X40640Y64770
X38100Y3810
X38100Y6350
X40640Y62230
X38100Y11430
X30480Y11430
X30480Y8890
X30480Y6350
X30480Y3810
X38100Y13970
X38100Y16510
X38100Y19050
X38100Y21590
X30480Y21590
X30480Y19050
X30480Y16510
X30480Y13970
X40640Y59690
X40640Y57150
X57952Y12700
X62952Y12700
X40640Y67310
X60452Y12700
X40640Y54610
X54610Y63500
X52070Y63500
X54610Y55880
X52070Y55880
X70652Y12700
X66167Y27686
T12
X19690Y7620
X15240Y4620
X60452Y10516
X76733Y11430
X10790Y7620
T13
X36830Y96520
X55880Y96520
X55880Y93980
X55880Y91440
X36830Y93980
X36830Y91440
T14
X37211Y44628
X62255Y51841
X71653Y51206
X61976Y59182
X67310Y63500
X64897Y57683
X23622Y15367
X66345Y41554
X77775Y38329
X61747Y39497
X66878Y58522
X70485Y59868
X55245Y52680
X64262Y30607
X83820Y68580
X21082Y18542
X22352Y22352
X25527Y21844
X13970Y20320
X65151Y41783
X74955Y45441
X55474Y17602
X68174Y23343
X68580Y42012
X42240Y20574
X11049Y24130
X12573Y20828
T15
X32614Y17450
X65608Y26670
X76581Y35966
X57455Y62586
X58903Y20701
X57150Y20320
X48260Y15240
X50800Y12700
X73025Y41859
X63779Y57988
X63398Y49860
X78740Y50800
X63094Y41656
X76200Y16510
X71552Y52375
X53975Y21234
X55118Y28067
X72390Y60960
X73127Y60376
X73762Y72365
X62890Y46304
X65405Y38964
X55448Y23292
X74930Y20320
X74447Y49886
X63957Y41961
X63500Y43307
X70587Y20066
X71171Y42062
X70180Y41986
X61798Y21133
X82550Y58420
X71298Y61062
X62763Y19126
X60056Y8600
X56518Y8600
X61722Y18313
X50089Y22581
X48412Y21565
X49301Y21819
X50800Y24130
X57937Y19787
X55880Y26670
X63652Y23749
X55474Y29693
X65862Y21514
X61900Y22327
X63627Y24790
X68148Y10541
X86589Y24181
X86360Y22860
X57861Y44615
X83820Y58420
X68123Y17653
X68936Y54864
X66904Y18466
X65080Y54706
X53315Y10643
X47625Y25756
X47625Y24079
X67158Y25984
X55753Y21336
X64313Y54204
X57277Y21768
X56439Y53188
X69774Y18009
X63017Y23165
M30