G04 EAGLE Gerber X2 export*
%TF.Part,Single*%
%TF.FileFunction,Other,Solder Mask top*%
%TF.FilePolarity,Positive*%
%TF.GenerationSoftware,Autodesk,EAGLE,9.1.1*%
%TF.CreationDate,2018-08-10T13:45:34Z*%
G75*
%MOMM*%
%FSLAX34Y34*%
%LPD*%
%AMOC8*
5,1,8,0,0,1.08239X$1,22.5*%
G01*
%ADD10C,0.000000*%
%ADD11R,1.270000X1.270000*%
%ADD12R,2.030000X4.320000*%
%ADD13R,4.320000X2.030000*%
%ADD14R,1.500000X1.300000*%
%ADD15R,1.300000X1.500000*%
%ADD16C,1.676400*%
%ADD17R,1.200000X1.200000*%
%ADD18R,2.000000X2.500000*%
%ADD19R,2.000000X3.300000*%
%ADD20R,0.500000X3.100000*%
%ADD21C,0.900000*%
%ADD22C,1.800000*%
%ADD23R,0.400000X1.500000*%
%ADD24C,1.219200*%
%ADD25R,2.050000X0.760000*%
%ADD26P,1.319650X8X202.500000*%
%ADD27C,1.524000*%
%ADD28R,0.558800X1.270000*%
%ADD29R,1.270000X0.558800*%
%ADD30P,1.484606X8X202.500000*%
%ADD31C,1.524000*%
%ADD32P,1.319650X8X22.500000*%
%ADD33C,1.500000*%
%ADD34C,1.650000*%
%ADD35P,2.749271X8X292.500000*%
%ADD36C,0.914400*%
%ADD37R,1.130000X2.440000*%
%ADD38C,1.981200*%
%ADD39P,1.484606X8X112.500000*%
%ADD40P,1.484606X8X292.500000*%
%ADD41R,0.350000X1.500000*%
%ADD42R,1.500000X0.350000*%
%ADD43C,0.300000*%
%ADD44C,2.000000*%
%ADD45P,2.336880X8X22.500000*%
%ADD46R,5.080000X2.540000*%
%ADD47P,1.732040X8X22.500000*%
%ADD48C,1.600200*%
%ADD49R,2.100000X2.100000*%
%ADD50C,1.219200*%
%ADD51C,6.451600*%


D10*
X0Y12700D02*
X990400Y12700D01*
X990400Y1000000D01*
X0Y1000000D01*
X0Y12700D01*
D11*
X269200Y883900D03*
D12*
X223500Y895300D03*
X223500Y941100D03*
D13*
X234900Y975400D03*
D11*
X269200Y975400D03*
X315000Y975400D03*
X315000Y929700D03*
X315000Y906800D03*
X315000Y883900D03*
X292100Y883900D03*
X292100Y975400D03*
X315000Y952500D03*
X459700Y883900D03*
D12*
X414000Y895300D03*
X414000Y941100D03*
D13*
X425400Y975400D03*
D11*
X459700Y975400D03*
X505500Y975400D03*
X505500Y929700D03*
X505500Y906800D03*
X505500Y883900D03*
X482600Y883900D03*
X482600Y975400D03*
X505500Y952500D03*
D14*
X374904Y854066D03*
X374904Y837066D03*
D15*
X433950Y852170D03*
X416950Y852170D03*
X201812Y834136D03*
X218812Y834136D03*
X245500Y848614D03*
X262500Y848614D03*
D16*
X419100Y482600D03*
X368300Y482600D03*
X368300Y431800D03*
X419100Y431800D03*
D17*
X114300Y162900D03*
X114300Y141900D03*
D15*
X613800Y647700D03*
X630800Y647700D03*
D14*
X88900Y160900D03*
X88900Y143900D03*
X88900Y182000D03*
X88900Y199000D03*
X114300Y199000D03*
X114300Y182000D03*
X165100Y160900D03*
X165100Y143900D03*
X139700Y160900D03*
X139700Y143900D03*
D15*
X613800Y609600D03*
X630800Y609600D03*
D14*
X254000Y29600D03*
X254000Y46600D03*
X279400Y29600D03*
X279400Y46600D03*
D18*
X196900Y46200D03*
X107900Y46200D03*
D19*
X196900Y105200D03*
X107900Y105200D03*
D20*
X136400Y106200D03*
X144400Y106200D03*
X152400Y106200D03*
X160400Y106200D03*
X168400Y106200D03*
D10*
X125900Y76200D02*
X125902Y76334D01*
X125908Y76468D01*
X125918Y76601D01*
X125932Y76735D01*
X125950Y76868D01*
X125972Y77000D01*
X125997Y77131D01*
X126027Y77262D01*
X126061Y77392D01*
X126098Y77520D01*
X126139Y77648D01*
X126184Y77774D01*
X126233Y77899D01*
X126285Y78022D01*
X126341Y78144D01*
X126401Y78264D01*
X126464Y78382D01*
X126531Y78498D01*
X126601Y78612D01*
X126675Y78724D01*
X126752Y78834D01*
X126832Y78942D01*
X126915Y79047D01*
X127001Y79149D01*
X127090Y79249D01*
X127183Y79346D01*
X127278Y79441D01*
X127376Y79532D01*
X127476Y79621D01*
X127579Y79706D01*
X127685Y79789D01*
X127793Y79868D01*
X127903Y79944D01*
X128016Y80017D01*
X128131Y80086D01*
X128247Y80152D01*
X128366Y80214D01*
X128486Y80273D01*
X128609Y80328D01*
X128732Y80380D01*
X128857Y80427D01*
X128984Y80471D01*
X129112Y80512D01*
X129241Y80548D01*
X129371Y80581D01*
X129502Y80609D01*
X129633Y80634D01*
X129766Y80655D01*
X129899Y80672D01*
X130032Y80685D01*
X130166Y80694D01*
X130300Y80699D01*
X130434Y80700D01*
X130567Y80697D01*
X130701Y80690D01*
X130835Y80679D01*
X130968Y80664D01*
X131101Y80645D01*
X131233Y80622D01*
X131364Y80596D01*
X131494Y80565D01*
X131624Y80530D01*
X131752Y80492D01*
X131879Y80450D01*
X132005Y80404D01*
X132130Y80354D01*
X132253Y80301D01*
X132374Y80244D01*
X132494Y80183D01*
X132611Y80119D01*
X132727Y80052D01*
X132841Y79981D01*
X132952Y79906D01*
X133061Y79829D01*
X133168Y79748D01*
X133273Y79664D01*
X133374Y79577D01*
X133474Y79487D01*
X133570Y79394D01*
X133664Y79298D01*
X133755Y79199D01*
X133842Y79098D01*
X133927Y78994D01*
X134009Y78888D01*
X134087Y78780D01*
X134162Y78669D01*
X134234Y78556D01*
X134303Y78440D01*
X134368Y78323D01*
X134429Y78204D01*
X134487Y78083D01*
X134541Y77961D01*
X134592Y77837D01*
X134639Y77711D01*
X134682Y77584D01*
X134721Y77456D01*
X134757Y77327D01*
X134788Y77197D01*
X134816Y77066D01*
X134840Y76934D01*
X134860Y76801D01*
X134876Y76668D01*
X134888Y76535D01*
X134896Y76401D01*
X134900Y76267D01*
X134900Y76133D01*
X134896Y75999D01*
X134888Y75865D01*
X134876Y75732D01*
X134860Y75599D01*
X134840Y75466D01*
X134816Y75334D01*
X134788Y75203D01*
X134757Y75073D01*
X134721Y74944D01*
X134682Y74816D01*
X134639Y74689D01*
X134592Y74563D01*
X134541Y74439D01*
X134487Y74317D01*
X134429Y74196D01*
X134368Y74077D01*
X134303Y73960D01*
X134234Y73844D01*
X134162Y73731D01*
X134087Y73620D01*
X134009Y73512D01*
X133927Y73406D01*
X133842Y73302D01*
X133755Y73201D01*
X133664Y73102D01*
X133570Y73006D01*
X133474Y72913D01*
X133374Y72823D01*
X133273Y72736D01*
X133168Y72652D01*
X133061Y72571D01*
X132952Y72494D01*
X132841Y72419D01*
X132727Y72348D01*
X132611Y72281D01*
X132494Y72217D01*
X132374Y72156D01*
X132253Y72099D01*
X132130Y72046D01*
X132005Y71996D01*
X131879Y71950D01*
X131752Y71908D01*
X131624Y71870D01*
X131494Y71835D01*
X131364Y71804D01*
X131233Y71778D01*
X131101Y71755D01*
X130968Y71736D01*
X130835Y71721D01*
X130701Y71710D01*
X130567Y71703D01*
X130434Y71700D01*
X130300Y71701D01*
X130166Y71706D01*
X130032Y71715D01*
X129899Y71728D01*
X129766Y71745D01*
X129633Y71766D01*
X129502Y71791D01*
X129371Y71819D01*
X129241Y71852D01*
X129112Y71888D01*
X128984Y71929D01*
X128857Y71973D01*
X128732Y72020D01*
X128609Y72072D01*
X128486Y72127D01*
X128366Y72186D01*
X128247Y72248D01*
X128131Y72314D01*
X128016Y72383D01*
X127903Y72456D01*
X127793Y72532D01*
X127685Y72611D01*
X127579Y72694D01*
X127476Y72779D01*
X127376Y72868D01*
X127278Y72959D01*
X127183Y73054D01*
X127090Y73151D01*
X127001Y73251D01*
X126915Y73353D01*
X126832Y73458D01*
X126752Y73566D01*
X126675Y73676D01*
X126601Y73788D01*
X126531Y73902D01*
X126464Y74018D01*
X126401Y74136D01*
X126341Y74256D01*
X126285Y74378D01*
X126233Y74501D01*
X126184Y74626D01*
X126139Y74752D01*
X126098Y74880D01*
X126061Y75008D01*
X126027Y75138D01*
X125997Y75269D01*
X125972Y75400D01*
X125950Y75532D01*
X125932Y75665D01*
X125918Y75799D01*
X125908Y75932D01*
X125902Y76066D01*
X125900Y76200D01*
D21*
X130400Y76200D03*
D10*
X169900Y76200D02*
X169902Y76334D01*
X169908Y76468D01*
X169918Y76601D01*
X169932Y76735D01*
X169950Y76868D01*
X169972Y77000D01*
X169997Y77131D01*
X170027Y77262D01*
X170061Y77392D01*
X170098Y77520D01*
X170139Y77648D01*
X170184Y77774D01*
X170233Y77899D01*
X170285Y78022D01*
X170341Y78144D01*
X170401Y78264D01*
X170464Y78382D01*
X170531Y78498D01*
X170601Y78612D01*
X170675Y78724D01*
X170752Y78834D01*
X170832Y78942D01*
X170915Y79047D01*
X171001Y79149D01*
X171090Y79249D01*
X171183Y79346D01*
X171278Y79441D01*
X171376Y79532D01*
X171476Y79621D01*
X171579Y79706D01*
X171685Y79789D01*
X171793Y79868D01*
X171903Y79944D01*
X172016Y80017D01*
X172131Y80086D01*
X172247Y80152D01*
X172366Y80214D01*
X172486Y80273D01*
X172609Y80328D01*
X172732Y80380D01*
X172857Y80427D01*
X172984Y80471D01*
X173112Y80512D01*
X173241Y80548D01*
X173371Y80581D01*
X173502Y80609D01*
X173633Y80634D01*
X173766Y80655D01*
X173899Y80672D01*
X174032Y80685D01*
X174166Y80694D01*
X174300Y80699D01*
X174434Y80700D01*
X174567Y80697D01*
X174701Y80690D01*
X174835Y80679D01*
X174968Y80664D01*
X175101Y80645D01*
X175233Y80622D01*
X175364Y80596D01*
X175494Y80565D01*
X175624Y80530D01*
X175752Y80492D01*
X175879Y80450D01*
X176005Y80404D01*
X176130Y80354D01*
X176253Y80301D01*
X176374Y80244D01*
X176494Y80183D01*
X176611Y80119D01*
X176727Y80052D01*
X176841Y79981D01*
X176952Y79906D01*
X177061Y79829D01*
X177168Y79748D01*
X177273Y79664D01*
X177374Y79577D01*
X177474Y79487D01*
X177570Y79394D01*
X177664Y79298D01*
X177755Y79199D01*
X177842Y79098D01*
X177927Y78994D01*
X178009Y78888D01*
X178087Y78780D01*
X178162Y78669D01*
X178234Y78556D01*
X178303Y78440D01*
X178368Y78323D01*
X178429Y78204D01*
X178487Y78083D01*
X178541Y77961D01*
X178592Y77837D01*
X178639Y77711D01*
X178682Y77584D01*
X178721Y77456D01*
X178757Y77327D01*
X178788Y77197D01*
X178816Y77066D01*
X178840Y76934D01*
X178860Y76801D01*
X178876Y76668D01*
X178888Y76535D01*
X178896Y76401D01*
X178900Y76267D01*
X178900Y76133D01*
X178896Y75999D01*
X178888Y75865D01*
X178876Y75732D01*
X178860Y75599D01*
X178840Y75466D01*
X178816Y75334D01*
X178788Y75203D01*
X178757Y75073D01*
X178721Y74944D01*
X178682Y74816D01*
X178639Y74689D01*
X178592Y74563D01*
X178541Y74439D01*
X178487Y74317D01*
X178429Y74196D01*
X178368Y74077D01*
X178303Y73960D01*
X178234Y73844D01*
X178162Y73731D01*
X178087Y73620D01*
X178009Y73512D01*
X177927Y73406D01*
X177842Y73302D01*
X177755Y73201D01*
X177664Y73102D01*
X177570Y73006D01*
X177474Y72913D01*
X177374Y72823D01*
X177273Y72736D01*
X177168Y72652D01*
X177061Y72571D01*
X176952Y72494D01*
X176841Y72419D01*
X176727Y72348D01*
X176611Y72281D01*
X176494Y72217D01*
X176374Y72156D01*
X176253Y72099D01*
X176130Y72046D01*
X176005Y71996D01*
X175879Y71950D01*
X175752Y71908D01*
X175624Y71870D01*
X175494Y71835D01*
X175364Y71804D01*
X175233Y71778D01*
X175101Y71755D01*
X174968Y71736D01*
X174835Y71721D01*
X174701Y71710D01*
X174567Y71703D01*
X174434Y71700D01*
X174300Y71701D01*
X174166Y71706D01*
X174032Y71715D01*
X173899Y71728D01*
X173766Y71745D01*
X173633Y71766D01*
X173502Y71791D01*
X173371Y71819D01*
X173241Y71852D01*
X173112Y71888D01*
X172984Y71929D01*
X172857Y71973D01*
X172732Y72020D01*
X172609Y72072D01*
X172486Y72127D01*
X172366Y72186D01*
X172247Y72248D01*
X172131Y72314D01*
X172016Y72383D01*
X171903Y72456D01*
X171793Y72532D01*
X171685Y72611D01*
X171579Y72694D01*
X171476Y72779D01*
X171376Y72868D01*
X171278Y72959D01*
X171183Y73054D01*
X171090Y73151D01*
X171001Y73251D01*
X170915Y73353D01*
X170832Y73458D01*
X170752Y73566D01*
X170675Y73676D01*
X170601Y73788D01*
X170531Y73902D01*
X170464Y74018D01*
X170401Y74136D01*
X170341Y74256D01*
X170285Y74378D01*
X170233Y74501D01*
X170184Y74626D01*
X170139Y74752D01*
X170098Y74880D01*
X170061Y75008D01*
X170027Y75138D01*
X169997Y75269D01*
X169972Y75400D01*
X169950Y75532D01*
X169932Y75665D01*
X169918Y75799D01*
X169908Y75932D01*
X169902Y76066D01*
X169900Y76200D01*
D21*
X174400Y76200D03*
D22*
X355600Y292100D03*
X330200Y292100D03*
X304800Y292100D03*
X279400Y292100D03*
D23*
X191430Y166950D03*
X197930Y166950D03*
X204430Y166950D03*
X210930Y166950D03*
X217430Y166950D03*
X223930Y166950D03*
X230430Y166950D03*
X236930Y166950D03*
X243430Y166950D03*
X249930Y166950D03*
X256430Y166950D03*
X262930Y166950D03*
X269430Y166950D03*
X275930Y166950D03*
X275930Y239450D03*
X269430Y239450D03*
X262930Y239450D03*
X256430Y239450D03*
X249930Y239450D03*
X243430Y239450D03*
X236930Y239450D03*
X230430Y239450D03*
X223930Y239450D03*
X217430Y239450D03*
X210930Y239450D03*
X204430Y239450D03*
X197930Y239450D03*
X191430Y239450D03*
D24*
X482600Y546100D03*
X482600Y571500D03*
X482600Y698500D03*
X482600Y723900D03*
X482600Y596900D03*
X482600Y622300D03*
X482600Y673100D03*
X482600Y647700D03*
X406400Y723900D03*
X406400Y698500D03*
X406400Y673100D03*
X406400Y647700D03*
X406400Y622300D03*
X406400Y596900D03*
X406400Y571500D03*
X406400Y546100D03*
D15*
X275200Y546100D03*
X258200Y546100D03*
X275200Y571500D03*
X258200Y571500D03*
X275200Y596900D03*
X258200Y596900D03*
X275200Y622300D03*
X258200Y622300D03*
D22*
X355600Y520700D03*
X355600Y546100D03*
X355600Y571500D03*
X355600Y596900D03*
X355600Y622300D03*
D25*
X537484Y371348D03*
X501884Y371348D03*
X537484Y384048D03*
X501884Y384048D03*
X537484Y396748D03*
X501884Y396748D03*
X537484Y409448D03*
X501884Y409448D03*
X537484Y422148D03*
X501884Y422148D03*
D26*
X546100Y635000D03*
X520700Y635000D03*
X546100Y558800D03*
X520700Y558800D03*
D17*
X279400Y78400D03*
X279400Y99400D03*
X254000Y78400D03*
X254000Y99400D03*
D27*
X825500Y127000D03*
X850900Y127000D03*
X876300Y127000D03*
X901700Y127000D03*
X927100Y127000D03*
D14*
X565150Y85970D03*
X565150Y68970D03*
X692150Y85970D03*
X692150Y68970D03*
X135890Y352180D03*
X135890Y369180D03*
D22*
X152400Y533400D03*
X177800Y533400D03*
D28*
X530800Y160274D03*
X538800Y160274D03*
X546800Y160274D03*
X554800Y160274D03*
X562800Y160274D03*
X570800Y160274D03*
X578800Y160274D03*
X586800Y160274D03*
D29*
X601726Y175200D03*
X601726Y183200D03*
X601726Y191200D03*
X601726Y199200D03*
X601726Y207200D03*
X601726Y215200D03*
X601726Y223200D03*
X601726Y231200D03*
D28*
X586800Y246126D03*
X578800Y246126D03*
X570800Y246126D03*
X562800Y246126D03*
X554800Y246126D03*
X546800Y246126D03*
X538800Y246126D03*
X530800Y246126D03*
D29*
X515874Y231200D03*
X515874Y223200D03*
X515874Y215200D03*
X515874Y207200D03*
X515874Y199200D03*
X515874Y191200D03*
X515874Y183200D03*
X515874Y175200D03*
D14*
X444500Y250800D03*
X444500Y231800D03*
D28*
X657800Y160274D03*
X665800Y160274D03*
X673800Y160274D03*
X681800Y160274D03*
X689800Y160274D03*
X697800Y160274D03*
X705800Y160274D03*
X713800Y160274D03*
D29*
X728726Y175200D03*
X728726Y183200D03*
X728726Y191200D03*
X728726Y199200D03*
X728726Y207200D03*
X728726Y215200D03*
X728726Y223200D03*
X728726Y231200D03*
D28*
X713800Y246126D03*
X705800Y246126D03*
X697800Y246126D03*
X689800Y246126D03*
X681800Y246126D03*
X673800Y246126D03*
X665800Y246126D03*
X657800Y246126D03*
D29*
X642874Y231200D03*
X642874Y223200D03*
X642874Y215200D03*
X642874Y207200D03*
X642874Y199200D03*
X642874Y191200D03*
X642874Y183200D03*
X642874Y175200D03*
D14*
X762000Y181000D03*
X762000Y200000D03*
D30*
X596900Y304800D03*
X596900Y330200D03*
X571500Y304800D03*
X571500Y330200D03*
X546100Y304800D03*
X546100Y330200D03*
X520700Y304800D03*
X520700Y330200D03*
X495300Y304800D03*
X495300Y330200D03*
X469900Y304800D03*
X469900Y330200D03*
X444500Y304800D03*
X444500Y330200D03*
D24*
X604520Y127000D03*
X629520Y127000D03*
X579520Y127000D03*
X731520Y127000D03*
X756520Y127000D03*
X706520Y127000D03*
D31*
X114300Y805180D02*
X114300Y820420D01*
X139700Y820420D02*
X139700Y805180D01*
X165100Y805180D02*
X165100Y820420D01*
X123190Y412750D02*
X107950Y412750D01*
X107950Y438150D02*
X123190Y438150D01*
X123190Y463550D02*
X107950Y463550D01*
X114300Y754380D02*
X114300Y769620D01*
X139700Y769620D02*
X139700Y754380D01*
X165100Y754380D02*
X165100Y769620D01*
D15*
X478400Y457200D03*
X461400Y457200D03*
X478400Y482600D03*
X461400Y482600D03*
X478400Y508000D03*
X461400Y508000D03*
D32*
X433832Y835914D03*
X510032Y835914D03*
X252222Y828548D03*
X328422Y828548D03*
D33*
X589800Y86000D03*
X654800Y86000D03*
X589800Y41000D03*
X654800Y41000D03*
X716800Y86000D03*
X781800Y86000D03*
X716800Y41000D03*
X781800Y41000D03*
X968650Y892290D03*
X968650Y827290D03*
X923650Y892290D03*
X923650Y827290D03*
D24*
X381000Y38100D03*
X381000Y63500D03*
X381000Y88900D03*
X381000Y114300D03*
X304800Y114300D03*
X304800Y88900D03*
X304800Y63500D03*
X304800Y38100D03*
X381000Y139700D03*
X381000Y165100D03*
X381000Y190500D03*
X381000Y215900D03*
X304800Y215900D03*
X304800Y190500D03*
X304800Y165100D03*
X304800Y139700D03*
D34*
X177800Y296550D02*
X177800Y313050D01*
X152400Y313050D02*
X152400Y296550D01*
X127000Y296550D02*
X127000Y313050D01*
D35*
X229870Y467868D03*
X229870Y367792D03*
D14*
X354330Y837066D03*
X354330Y854066D03*
D15*
X218812Y813562D03*
X201812Y813562D03*
D36*
X558800Y965200D03*
X558800Y939800D03*
X558800Y914400D03*
X368300Y965200D03*
X368300Y939800D03*
X368300Y914400D03*
D37*
X368300Y792300D03*
X342900Y792300D03*
X342900Y706300D03*
X368300Y706300D03*
D22*
X800100Y800100D03*
X800100Y774700D03*
X800100Y749300D03*
X800100Y723900D03*
X800100Y698500D03*
X800100Y673100D03*
D24*
X661670Y276860D03*
X687070Y276860D03*
X712470Y276860D03*
X712470Y353060D03*
X687070Y353060D03*
X661670Y353060D03*
D17*
X315300Y546100D03*
X294300Y546100D03*
X315300Y571500D03*
X294300Y571500D03*
X315300Y596900D03*
X294300Y596900D03*
X315300Y622300D03*
X294300Y622300D03*
D22*
X120904Y665226D03*
X146304Y665226D03*
X171704Y665226D03*
D38*
X48006Y482346D02*
X28194Y482346D01*
X28194Y432054D02*
X48006Y432054D01*
X48006Y583946D02*
X28194Y583946D01*
X28194Y533654D02*
X48006Y533654D01*
X48006Y837946D02*
X28194Y837946D01*
X28194Y787654D02*
X48006Y787654D01*
D39*
X958850Y690880D03*
X933450Y690880D03*
X958850Y716280D03*
X933450Y716280D03*
X958850Y741680D03*
X933450Y741680D03*
D40*
X939800Y584200D03*
X914400Y584200D03*
X939800Y558800D03*
X914400Y558800D03*
X939800Y533400D03*
X914400Y533400D03*
X939800Y508000D03*
X914400Y508000D03*
X939800Y482600D03*
X914400Y482600D03*
X939800Y457200D03*
X914400Y457200D03*
X939800Y431800D03*
X914400Y431800D03*
X939800Y406400D03*
X914400Y406400D03*
X939800Y381000D03*
X914400Y381000D03*
X939800Y355600D03*
X914400Y355600D03*
X939800Y330200D03*
X914400Y330200D03*
X939800Y304800D03*
X914400Y304800D03*
X939800Y279400D03*
X914400Y279400D03*
D22*
X673100Y711200D03*
X673100Y736600D03*
X673100Y762000D03*
X596900Y711200D03*
X596900Y736600D03*
X596900Y762000D03*
X495300Y50800D03*
X495300Y76200D03*
D27*
X431800Y38100D03*
X431800Y63500D03*
X431800Y88900D03*
X431800Y114300D03*
X431800Y139700D03*
D41*
X625800Y402600D03*
X630800Y402600D03*
X635800Y402600D03*
X640800Y402600D03*
X645800Y402600D03*
X650800Y402600D03*
X655800Y402600D03*
X660800Y402600D03*
X665800Y402600D03*
X670800Y402600D03*
X675800Y402600D03*
X680800Y402600D03*
X685800Y402600D03*
X690800Y402600D03*
X695800Y402600D03*
X700800Y402600D03*
X705800Y402600D03*
X710800Y402600D03*
X715800Y402600D03*
X720800Y402600D03*
X725800Y402600D03*
X730800Y402600D03*
X735800Y402600D03*
X740800Y402600D03*
X745800Y402600D03*
D42*
X765800Y422600D03*
X765800Y427600D03*
X765800Y432600D03*
X765800Y437600D03*
X765800Y442600D03*
X765800Y447600D03*
X765800Y452600D03*
X765800Y457600D03*
X765800Y462600D03*
X765800Y467600D03*
X765800Y472600D03*
X765800Y477600D03*
X765800Y482600D03*
X765800Y487600D03*
X765800Y492600D03*
X765800Y497600D03*
X765800Y502600D03*
X765800Y507600D03*
X765800Y512600D03*
X765800Y517600D03*
X765800Y522600D03*
X765800Y527600D03*
X765800Y532600D03*
X765800Y537600D03*
X765800Y542600D03*
D41*
X745800Y562600D03*
X740800Y562600D03*
X735800Y562600D03*
X730800Y562600D03*
X725800Y562600D03*
X720800Y562600D03*
X715800Y562600D03*
X710800Y562600D03*
X705800Y562600D03*
X700800Y562600D03*
X695800Y562600D03*
X690800Y562600D03*
X685800Y562600D03*
X680800Y562600D03*
X675800Y562600D03*
X670800Y562600D03*
X665800Y562600D03*
X660800Y562600D03*
X655800Y562600D03*
X650800Y562600D03*
X645800Y562600D03*
X640800Y562600D03*
X635800Y562600D03*
X630800Y562600D03*
X625800Y562600D03*
D42*
X605800Y542600D03*
X605800Y537600D03*
X605800Y532600D03*
X605800Y527600D03*
X605800Y522600D03*
X605800Y517600D03*
X605800Y512600D03*
X605800Y507600D03*
X605800Y502600D03*
X605800Y497600D03*
X605800Y492600D03*
X605800Y487600D03*
X605800Y482600D03*
X605800Y477600D03*
X605800Y472600D03*
X605800Y467600D03*
X605800Y462600D03*
X605800Y457600D03*
X605800Y452600D03*
X605800Y447600D03*
X605800Y442600D03*
X605800Y437600D03*
X605800Y432600D03*
X605800Y427600D03*
X605800Y422600D03*
D43*
X668250Y602350D02*
X668250Y618450D01*
X668250Y602350D02*
X665250Y602350D01*
X665250Y618450D01*
X668250Y618450D01*
X668250Y605200D02*
X665250Y605200D01*
X665250Y608050D02*
X668250Y608050D01*
X668250Y610900D02*
X665250Y610900D01*
X665250Y613750D02*
X668250Y613750D01*
X668250Y616600D02*
X665250Y616600D01*
X680950Y618450D02*
X680950Y602350D01*
X677950Y602350D01*
X677950Y618450D01*
X680950Y618450D01*
X680950Y605200D02*
X677950Y605200D01*
X677950Y608050D02*
X680950Y608050D01*
X680950Y610900D02*
X677950Y610900D01*
X677950Y613750D02*
X680950Y613750D01*
X680950Y616600D02*
X677950Y616600D01*
X693650Y618450D02*
X693650Y602350D01*
X690650Y602350D01*
X690650Y618450D01*
X693650Y618450D01*
X693650Y605200D02*
X690650Y605200D01*
X690650Y608050D02*
X693650Y608050D01*
X693650Y610900D02*
X690650Y610900D01*
X690650Y613750D02*
X693650Y613750D01*
X693650Y616600D02*
X690650Y616600D01*
X706350Y618450D02*
X706350Y602350D01*
X703350Y602350D01*
X703350Y618450D01*
X706350Y618450D01*
X706350Y605200D02*
X703350Y605200D01*
X703350Y608050D02*
X706350Y608050D01*
X706350Y610900D02*
X703350Y610900D01*
X703350Y613750D02*
X706350Y613750D01*
X706350Y616600D02*
X703350Y616600D01*
X706350Y651550D02*
X706350Y667650D01*
X706350Y651550D02*
X703350Y651550D01*
X703350Y667650D01*
X706350Y667650D01*
X706350Y654400D02*
X703350Y654400D01*
X703350Y657250D02*
X706350Y657250D01*
X706350Y660100D02*
X703350Y660100D01*
X703350Y662950D02*
X706350Y662950D01*
X706350Y665800D02*
X703350Y665800D01*
X693650Y667650D02*
X693650Y651550D01*
X690650Y651550D01*
X690650Y667650D01*
X693650Y667650D01*
X693650Y654400D02*
X690650Y654400D01*
X690650Y657250D02*
X693650Y657250D01*
X693650Y660100D02*
X690650Y660100D01*
X690650Y662950D02*
X693650Y662950D01*
X693650Y665800D02*
X690650Y665800D01*
X680950Y667650D02*
X680950Y651550D01*
X677950Y651550D01*
X677950Y667650D01*
X680950Y667650D01*
X680950Y654400D02*
X677950Y654400D01*
X677950Y657250D02*
X680950Y657250D01*
X680950Y660100D02*
X677950Y660100D01*
X677950Y662950D02*
X680950Y662950D01*
X680950Y665800D02*
X677950Y665800D01*
X668250Y667650D02*
X668250Y651550D01*
X665250Y651550D01*
X665250Y667650D01*
X668250Y667650D01*
X668250Y654400D02*
X665250Y654400D01*
X665250Y657250D02*
X668250Y657250D01*
X668250Y660100D02*
X665250Y660100D01*
X665250Y662950D02*
X668250Y662950D01*
X668250Y665800D02*
X665250Y665800D01*
D22*
X294386Y737870D03*
X294386Y712470D03*
X596900Y850900D03*
X571500Y850900D03*
D15*
X968874Y800608D03*
X951874Y800608D03*
D10*
X149700Y936700D02*
X149840Y936702D01*
X149980Y936708D01*
X150120Y936718D01*
X150260Y936731D01*
X150399Y936749D01*
X150538Y936771D01*
X150675Y936796D01*
X150813Y936825D01*
X150949Y936858D01*
X151084Y936895D01*
X151218Y936936D01*
X151351Y936981D01*
X151483Y937029D01*
X151613Y937081D01*
X151742Y937136D01*
X151869Y937195D01*
X151995Y937258D01*
X152119Y937324D01*
X152240Y937393D01*
X152360Y937466D01*
X152478Y937543D01*
X152593Y937622D01*
X152707Y937705D01*
X152817Y937791D01*
X152926Y937880D01*
X153032Y937972D01*
X153135Y938067D01*
X153236Y938164D01*
X153333Y938265D01*
X153428Y938368D01*
X153520Y938474D01*
X153609Y938583D01*
X153695Y938693D01*
X153778Y938807D01*
X153857Y938922D01*
X153934Y939040D01*
X154007Y939160D01*
X154076Y939281D01*
X154142Y939405D01*
X154205Y939531D01*
X154264Y939658D01*
X154319Y939787D01*
X154371Y939917D01*
X154419Y940049D01*
X154464Y940182D01*
X154505Y940316D01*
X154542Y940451D01*
X154575Y940587D01*
X154604Y940725D01*
X154629Y940862D01*
X154651Y941001D01*
X154669Y941140D01*
X154682Y941280D01*
X154692Y941420D01*
X154698Y941560D01*
X154700Y941700D01*
X154698Y941840D01*
X154692Y941980D01*
X154682Y942120D01*
X154669Y942260D01*
X154651Y942399D01*
X154629Y942538D01*
X154604Y942675D01*
X154575Y942813D01*
X154542Y942949D01*
X154505Y943084D01*
X154464Y943218D01*
X154419Y943351D01*
X154371Y943483D01*
X154319Y943613D01*
X154264Y943742D01*
X154205Y943869D01*
X154142Y943995D01*
X154076Y944119D01*
X154007Y944240D01*
X153934Y944360D01*
X153857Y944478D01*
X153778Y944593D01*
X153695Y944707D01*
X153609Y944817D01*
X153520Y944926D01*
X153428Y945032D01*
X153333Y945135D01*
X153236Y945236D01*
X153135Y945333D01*
X153032Y945428D01*
X152926Y945520D01*
X152817Y945609D01*
X152707Y945695D01*
X152593Y945778D01*
X152478Y945857D01*
X152360Y945934D01*
X152240Y946007D01*
X152119Y946076D01*
X151995Y946142D01*
X151869Y946205D01*
X151742Y946264D01*
X151613Y946319D01*
X151483Y946371D01*
X151351Y946419D01*
X151218Y946464D01*
X151084Y946505D01*
X150949Y946542D01*
X150813Y946575D01*
X150675Y946604D01*
X150538Y946629D01*
X150399Y946651D01*
X150260Y946669D01*
X150120Y946682D01*
X149980Y946692D01*
X149840Y946698D01*
X149700Y946700D01*
X129700Y946700D02*
X129560Y946698D01*
X129420Y946692D01*
X129280Y946682D01*
X129140Y946669D01*
X129001Y946651D01*
X128862Y946629D01*
X128725Y946604D01*
X128587Y946575D01*
X128451Y946542D01*
X128316Y946505D01*
X128182Y946464D01*
X128049Y946419D01*
X127917Y946371D01*
X127787Y946319D01*
X127658Y946264D01*
X127531Y946205D01*
X127405Y946142D01*
X127281Y946076D01*
X127160Y946007D01*
X127040Y945934D01*
X126922Y945857D01*
X126807Y945778D01*
X126693Y945695D01*
X126583Y945609D01*
X126474Y945520D01*
X126368Y945428D01*
X126265Y945333D01*
X126164Y945236D01*
X126067Y945135D01*
X125972Y945032D01*
X125880Y944926D01*
X125791Y944817D01*
X125705Y944707D01*
X125622Y944593D01*
X125543Y944478D01*
X125466Y944360D01*
X125393Y944240D01*
X125324Y944119D01*
X125258Y943995D01*
X125195Y943869D01*
X125136Y943742D01*
X125081Y943613D01*
X125029Y943483D01*
X124981Y943351D01*
X124936Y943218D01*
X124895Y943084D01*
X124858Y942949D01*
X124825Y942813D01*
X124796Y942675D01*
X124771Y942538D01*
X124749Y942399D01*
X124731Y942260D01*
X124718Y942120D01*
X124708Y941980D01*
X124702Y941840D01*
X124700Y941700D01*
X124702Y941560D01*
X124708Y941420D01*
X124718Y941280D01*
X124731Y941140D01*
X124749Y941001D01*
X124771Y940862D01*
X124796Y940725D01*
X124825Y940587D01*
X124858Y940451D01*
X124895Y940316D01*
X124936Y940182D01*
X124981Y940049D01*
X125029Y939917D01*
X125081Y939787D01*
X125136Y939658D01*
X125195Y939531D01*
X125258Y939405D01*
X125324Y939281D01*
X125393Y939160D01*
X125466Y939040D01*
X125543Y938922D01*
X125622Y938807D01*
X125705Y938693D01*
X125791Y938583D01*
X125880Y938474D01*
X125972Y938368D01*
X126067Y938265D01*
X126164Y938164D01*
X126265Y938067D01*
X126368Y937972D01*
X126474Y937880D01*
X126583Y937791D01*
X126693Y937705D01*
X126807Y937622D01*
X126922Y937543D01*
X127040Y937466D01*
X127160Y937393D01*
X127281Y937324D01*
X127405Y937258D01*
X127531Y937195D01*
X127658Y937136D01*
X127787Y937081D01*
X127917Y937029D01*
X128049Y936981D01*
X128182Y936936D01*
X128316Y936895D01*
X128451Y936858D01*
X128587Y936825D01*
X128725Y936796D01*
X128862Y936771D01*
X129001Y936749D01*
X129140Y936731D01*
X129280Y936718D01*
X129420Y936708D01*
X129560Y936702D01*
X129700Y936700D01*
X149700Y936700D01*
X149700Y946700D02*
X129700Y946700D01*
X94700Y894700D02*
X94698Y894560D01*
X94692Y894420D01*
X94682Y894280D01*
X94669Y894140D01*
X94651Y894001D01*
X94629Y893862D01*
X94604Y893725D01*
X94575Y893587D01*
X94542Y893451D01*
X94505Y893316D01*
X94464Y893182D01*
X94419Y893049D01*
X94371Y892917D01*
X94319Y892787D01*
X94264Y892658D01*
X94205Y892531D01*
X94142Y892405D01*
X94076Y892281D01*
X94007Y892160D01*
X93934Y892040D01*
X93857Y891922D01*
X93778Y891807D01*
X93695Y891693D01*
X93609Y891583D01*
X93520Y891474D01*
X93428Y891368D01*
X93333Y891265D01*
X93236Y891164D01*
X93135Y891067D01*
X93032Y890972D01*
X92926Y890880D01*
X92817Y890791D01*
X92707Y890705D01*
X92593Y890622D01*
X92478Y890543D01*
X92360Y890466D01*
X92240Y890393D01*
X92119Y890324D01*
X91995Y890258D01*
X91869Y890195D01*
X91742Y890136D01*
X91613Y890081D01*
X91483Y890029D01*
X91351Y889981D01*
X91218Y889936D01*
X91084Y889895D01*
X90949Y889858D01*
X90813Y889825D01*
X90675Y889796D01*
X90538Y889771D01*
X90399Y889749D01*
X90260Y889731D01*
X90120Y889718D01*
X89980Y889708D01*
X89840Y889702D01*
X89700Y889700D01*
X89560Y889702D01*
X89420Y889708D01*
X89280Y889718D01*
X89140Y889731D01*
X89001Y889749D01*
X88862Y889771D01*
X88725Y889796D01*
X88587Y889825D01*
X88451Y889858D01*
X88316Y889895D01*
X88182Y889936D01*
X88049Y889981D01*
X87917Y890029D01*
X87787Y890081D01*
X87658Y890136D01*
X87531Y890195D01*
X87405Y890258D01*
X87281Y890324D01*
X87160Y890393D01*
X87040Y890466D01*
X86922Y890543D01*
X86807Y890622D01*
X86693Y890705D01*
X86583Y890791D01*
X86474Y890880D01*
X86368Y890972D01*
X86265Y891067D01*
X86164Y891164D01*
X86067Y891265D01*
X85972Y891368D01*
X85880Y891474D01*
X85791Y891583D01*
X85705Y891693D01*
X85622Y891807D01*
X85543Y891922D01*
X85466Y892040D01*
X85393Y892160D01*
X85324Y892281D01*
X85258Y892405D01*
X85195Y892531D01*
X85136Y892658D01*
X85081Y892787D01*
X85029Y892917D01*
X84981Y893049D01*
X84936Y893182D01*
X84895Y893316D01*
X84858Y893451D01*
X84825Y893587D01*
X84796Y893725D01*
X84771Y893862D01*
X84749Y894001D01*
X84731Y894140D01*
X84718Y894280D01*
X84708Y894420D01*
X84702Y894560D01*
X84700Y894700D01*
X84700Y917700D02*
X84702Y917840D01*
X84708Y917980D01*
X84718Y918120D01*
X84731Y918260D01*
X84749Y918399D01*
X84771Y918538D01*
X84796Y918675D01*
X84825Y918813D01*
X84858Y918949D01*
X84895Y919084D01*
X84936Y919218D01*
X84981Y919351D01*
X85029Y919483D01*
X85081Y919613D01*
X85136Y919742D01*
X85195Y919869D01*
X85258Y919995D01*
X85324Y920119D01*
X85393Y920240D01*
X85466Y920360D01*
X85543Y920478D01*
X85622Y920593D01*
X85705Y920707D01*
X85791Y920817D01*
X85880Y920926D01*
X85972Y921032D01*
X86067Y921135D01*
X86164Y921236D01*
X86265Y921333D01*
X86368Y921428D01*
X86474Y921520D01*
X86583Y921609D01*
X86693Y921695D01*
X86807Y921778D01*
X86922Y921857D01*
X87040Y921934D01*
X87160Y922007D01*
X87281Y922076D01*
X87405Y922142D01*
X87531Y922205D01*
X87658Y922264D01*
X87787Y922319D01*
X87917Y922371D01*
X88049Y922419D01*
X88182Y922464D01*
X88316Y922505D01*
X88451Y922542D01*
X88587Y922575D01*
X88725Y922604D01*
X88862Y922629D01*
X89001Y922651D01*
X89140Y922669D01*
X89280Y922682D01*
X89420Y922692D01*
X89560Y922698D01*
X89700Y922700D01*
X89840Y922698D01*
X89980Y922692D01*
X90120Y922682D01*
X90260Y922669D01*
X90399Y922651D01*
X90538Y922629D01*
X90675Y922604D01*
X90813Y922575D01*
X90949Y922542D01*
X91084Y922505D01*
X91218Y922464D01*
X91351Y922419D01*
X91483Y922371D01*
X91613Y922319D01*
X91742Y922264D01*
X91869Y922205D01*
X91995Y922142D01*
X92119Y922076D01*
X92240Y922007D01*
X92360Y921934D01*
X92478Y921857D01*
X92593Y921778D01*
X92707Y921695D01*
X92817Y921609D01*
X92926Y921520D01*
X93032Y921428D01*
X93135Y921333D01*
X93236Y921236D01*
X93333Y921135D01*
X93428Y921032D01*
X93520Y920926D01*
X93609Y920817D01*
X93695Y920707D01*
X93778Y920593D01*
X93857Y920478D01*
X93934Y920360D01*
X94007Y920240D01*
X94076Y920119D01*
X94142Y919995D01*
X94205Y919869D01*
X94264Y919742D01*
X94319Y919613D01*
X94371Y919483D01*
X94419Y919351D01*
X94464Y919218D01*
X94505Y919084D01*
X94542Y918949D01*
X94575Y918813D01*
X94604Y918675D01*
X94629Y918538D01*
X94651Y918399D01*
X94669Y918260D01*
X94682Y918120D01*
X94692Y917980D01*
X94698Y917840D01*
X94700Y917700D01*
X84700Y917700D02*
X84700Y894700D01*
X94700Y894700D02*
X94700Y917700D01*
X150700Y876700D02*
X150840Y876698D01*
X150980Y876692D01*
X151120Y876682D01*
X151260Y876669D01*
X151399Y876651D01*
X151538Y876629D01*
X151675Y876604D01*
X151813Y876575D01*
X151949Y876542D01*
X152084Y876505D01*
X152218Y876464D01*
X152351Y876419D01*
X152483Y876371D01*
X152613Y876319D01*
X152742Y876264D01*
X152869Y876205D01*
X152995Y876142D01*
X153119Y876076D01*
X153240Y876007D01*
X153360Y875934D01*
X153478Y875857D01*
X153593Y875778D01*
X153707Y875695D01*
X153817Y875609D01*
X153926Y875520D01*
X154032Y875428D01*
X154135Y875333D01*
X154236Y875236D01*
X154333Y875135D01*
X154428Y875032D01*
X154520Y874926D01*
X154609Y874817D01*
X154695Y874707D01*
X154778Y874593D01*
X154857Y874478D01*
X154934Y874360D01*
X155007Y874240D01*
X155076Y874119D01*
X155142Y873995D01*
X155205Y873869D01*
X155264Y873742D01*
X155319Y873613D01*
X155371Y873483D01*
X155419Y873351D01*
X155464Y873218D01*
X155505Y873084D01*
X155542Y872949D01*
X155575Y872813D01*
X155604Y872675D01*
X155629Y872538D01*
X155651Y872399D01*
X155669Y872260D01*
X155682Y872120D01*
X155692Y871980D01*
X155698Y871840D01*
X155700Y871700D01*
X155698Y871560D01*
X155692Y871420D01*
X155682Y871280D01*
X155669Y871140D01*
X155651Y871001D01*
X155629Y870862D01*
X155604Y870725D01*
X155575Y870587D01*
X155542Y870451D01*
X155505Y870316D01*
X155464Y870182D01*
X155419Y870049D01*
X155371Y869917D01*
X155319Y869787D01*
X155264Y869658D01*
X155205Y869531D01*
X155142Y869405D01*
X155076Y869281D01*
X155007Y869160D01*
X154934Y869040D01*
X154857Y868922D01*
X154778Y868807D01*
X154695Y868693D01*
X154609Y868583D01*
X154520Y868474D01*
X154428Y868368D01*
X154333Y868265D01*
X154236Y868164D01*
X154135Y868067D01*
X154032Y867972D01*
X153926Y867880D01*
X153817Y867791D01*
X153707Y867705D01*
X153593Y867622D01*
X153478Y867543D01*
X153360Y867466D01*
X153240Y867393D01*
X153119Y867324D01*
X152995Y867258D01*
X152869Y867195D01*
X152742Y867136D01*
X152613Y867081D01*
X152483Y867029D01*
X152351Y866981D01*
X152218Y866936D01*
X152084Y866895D01*
X151949Y866858D01*
X151813Y866825D01*
X151675Y866796D01*
X151538Y866771D01*
X151399Y866749D01*
X151260Y866731D01*
X151120Y866718D01*
X150980Y866708D01*
X150840Y866702D01*
X150700Y866700D01*
X128700Y866700D02*
X128560Y866702D01*
X128420Y866708D01*
X128280Y866718D01*
X128140Y866731D01*
X128001Y866749D01*
X127862Y866771D01*
X127725Y866796D01*
X127587Y866825D01*
X127451Y866858D01*
X127316Y866895D01*
X127182Y866936D01*
X127049Y866981D01*
X126917Y867029D01*
X126787Y867081D01*
X126658Y867136D01*
X126531Y867195D01*
X126405Y867258D01*
X126281Y867324D01*
X126160Y867393D01*
X126040Y867466D01*
X125922Y867543D01*
X125807Y867622D01*
X125693Y867705D01*
X125583Y867791D01*
X125474Y867880D01*
X125368Y867972D01*
X125265Y868067D01*
X125164Y868164D01*
X125067Y868265D01*
X124972Y868368D01*
X124880Y868474D01*
X124791Y868583D01*
X124705Y868693D01*
X124622Y868807D01*
X124543Y868922D01*
X124466Y869040D01*
X124393Y869160D01*
X124324Y869281D01*
X124258Y869405D01*
X124195Y869531D01*
X124136Y869658D01*
X124081Y869787D01*
X124029Y869917D01*
X123981Y870049D01*
X123936Y870182D01*
X123895Y870316D01*
X123858Y870451D01*
X123825Y870587D01*
X123796Y870725D01*
X123771Y870862D01*
X123749Y871001D01*
X123731Y871140D01*
X123718Y871280D01*
X123708Y871420D01*
X123702Y871560D01*
X123700Y871700D01*
X123702Y871840D01*
X123708Y871980D01*
X123718Y872120D01*
X123731Y872260D01*
X123749Y872399D01*
X123771Y872538D01*
X123796Y872675D01*
X123825Y872813D01*
X123858Y872949D01*
X123895Y873084D01*
X123936Y873218D01*
X123981Y873351D01*
X124029Y873483D01*
X124081Y873613D01*
X124136Y873742D01*
X124195Y873869D01*
X124258Y873995D01*
X124324Y874119D01*
X124393Y874240D01*
X124466Y874360D01*
X124543Y874478D01*
X124622Y874593D01*
X124705Y874707D01*
X124791Y874817D01*
X124880Y874926D01*
X124972Y875032D01*
X125067Y875135D01*
X125164Y875236D01*
X125265Y875333D01*
X125368Y875428D01*
X125474Y875520D01*
X125583Y875609D01*
X125693Y875695D01*
X125807Y875778D01*
X125922Y875857D01*
X126040Y875934D01*
X126160Y876007D01*
X126281Y876076D01*
X126405Y876142D01*
X126531Y876205D01*
X126658Y876264D01*
X126787Y876319D01*
X126917Y876371D01*
X127049Y876419D01*
X127182Y876464D01*
X127316Y876505D01*
X127451Y876542D01*
X127587Y876575D01*
X127725Y876604D01*
X127862Y876629D01*
X128001Y876651D01*
X128140Y876669D01*
X128280Y876682D01*
X128420Y876692D01*
X128560Y876698D01*
X128700Y876700D01*
X150700Y876700D01*
X150700Y866700D02*
X128700Y866700D01*
D44*
X129700Y941700D02*
X149700Y941700D01*
X149700Y871700D02*
X129700Y871700D01*
X89700Y896200D02*
X89700Y916200D01*
D15*
X746658Y370078D03*
X765658Y370078D03*
D33*
X790300Y916190D03*
X790300Y981190D03*
X835300Y916190D03*
X835300Y981190D03*
X714100Y916190D03*
X714100Y981190D03*
X759100Y916190D03*
X759100Y981190D03*
X637900Y916190D03*
X637900Y981190D03*
X682900Y916190D03*
X682900Y981190D03*
D45*
X406400Y254000D03*
D46*
X139700Y241300D03*
D45*
X266700Y673100D03*
D22*
X419100Y381000D03*
X393700Y381000D03*
X368300Y381000D03*
X342900Y381000D03*
D14*
X749300Y321700D03*
X749300Y338700D03*
X622300Y309000D03*
X622300Y326000D03*
D15*
X593700Y609600D03*
X574700Y609600D03*
D17*
X545084Y833460D03*
X545084Y812460D03*
D14*
X545084Y872354D03*
X545084Y855354D03*
D47*
X229870Y721614D03*
D48*
X204470Y721614D03*
D15*
X201828Y760476D03*
X220828Y760476D03*
D47*
X459486Y779272D03*
D48*
X434086Y779272D03*
D15*
X433934Y818642D03*
X414934Y818642D03*
D47*
X274066Y784860D03*
D48*
X248666Y784860D03*
D15*
X255930Y743204D03*
X274930Y743204D03*
D27*
X61722Y664972D03*
X61722Y690372D03*
X61722Y715772D03*
D49*
X70784Y358462D03*
X28784Y358462D03*
X28784Y303462D03*
X70784Y303462D03*
D50*
X657606Y829564D02*
X657606Y841756D01*
X683006Y841756D02*
X683006Y829564D01*
X708406Y829564D02*
X708406Y841756D01*
D51*
X44864Y61331D03*
X44864Y950331D03*
X946564Y61331D03*
X946564Y950331D03*
M02*
