G04 EAGLE Gerber X2 export*
%TF.Part,Single*%
%TF.FileFunction,Other,Solder Mask bottom*%
%TF.FilePolarity,Positive*%
%TF.GenerationSoftware,Autodesk,EAGLE,9.2.1*%
%TF.CreationDate,2019-04-01T06:43:25Z*%
G75*
%MOMM*%
%FSLAX34Y34*%
%LPD*%
%INSolder Mask bottom*%
%IPPOS*%
%AMOC8*
5,1,8,0,0,1.08239X$1,22.5*%
G01*
%ADD10C,0.000000*%
%ADD11C,1.676400*%
%ADD12R,1.500000X1.300000*%
%ADD13C,1.800000*%
%ADD14C,1.219200*%
%ADD15P,1.319650X8X202.500000*%
%ADD16P,1.484606X8X202.500000*%
%ADD17C,1.524000*%
%ADD18R,1.300000X1.500000*%
%ADD19P,1.319650X8X22.500000*%
%ADD20C,1.650000*%
%ADD21P,2.749271X8X292.500000*%
%ADD22C,0.914400*%
%ADD23C,1.981200*%
%ADD24P,1.484606X8X292.500000*%
%ADD25C,1.524000*%
%ADD26C,2.000000*%
%ADD27C,1.500000*%
%ADD28P,2.336880X8X22.500000*%
%ADD29R,2.100000X2.100000*%
%ADD30C,1.219200*%
%ADD31C,1.270000*%
%ADD32C,1.600000*%
%ADD33C,1.200000*%
%ADD34R,1.350000X1.350000*%
%ADD35C,1.350000*%
%ADD36C,6.451600*%


D10*
X0Y12700D02*
X990400Y12700D01*
X990400Y1000000D01*
X0Y1000000D01*
X0Y12700D01*
D11*
X393700Y479425D03*
X342900Y479425D03*
X342900Y428625D03*
X393700Y428625D03*
D12*
X241300Y601100D03*
X241300Y618100D03*
X241300Y524900D03*
X241300Y541900D03*
D13*
X381000Y330200D03*
X355600Y330200D03*
X330200Y330200D03*
X304800Y330200D03*
D14*
X482600Y546100D03*
X482600Y571500D03*
X482600Y698500D03*
X482600Y723900D03*
X482600Y596900D03*
X482600Y622300D03*
X482600Y673100D03*
X482600Y647700D03*
X406400Y723900D03*
X406400Y698500D03*
X406400Y673100D03*
X406400Y647700D03*
X406400Y622300D03*
X406400Y596900D03*
X406400Y571500D03*
X406400Y546100D03*
D13*
X368300Y520700D03*
X368300Y546100D03*
X368300Y571500D03*
X368300Y596900D03*
X368300Y622300D03*
D15*
X266700Y635000D03*
X241300Y635000D03*
X266700Y558800D03*
X241300Y558800D03*
D13*
X127000Y533400D03*
X152400Y533400D03*
D16*
X596900Y304800D03*
X596900Y330200D03*
X571500Y304800D03*
X571500Y330200D03*
X546100Y304800D03*
X546100Y330200D03*
X520700Y304800D03*
X520700Y330200D03*
X495300Y304800D03*
X495300Y330200D03*
X469900Y304800D03*
X469900Y330200D03*
X444500Y304800D03*
X444500Y330200D03*
D17*
X114300Y805180D02*
X114300Y820420D01*
X139700Y820420D02*
X139700Y805180D01*
X165100Y805180D02*
X165100Y820420D01*
X123190Y412750D02*
X107950Y412750D01*
X107950Y438150D02*
X123190Y438150D01*
X123190Y463550D02*
X107950Y463550D01*
X114300Y754380D02*
X114300Y769620D01*
X139700Y769620D02*
X139700Y754380D01*
X165100Y754380D02*
X165100Y769620D01*
D18*
X440300Y444500D03*
X423300Y444500D03*
X440300Y469900D03*
X423300Y469900D03*
X440300Y495300D03*
X423300Y495300D03*
D19*
X433832Y835914D03*
X510032Y835914D03*
X252222Y828548D03*
X328422Y828548D03*
D20*
X177800Y313050D02*
X177800Y296550D01*
X152400Y296550D02*
X152400Y313050D01*
X127000Y313050D02*
X127000Y296550D01*
D21*
X236728Y482346D03*
X236728Y382270D03*
D18*
X524900Y965200D03*
X541900Y965200D03*
X334400Y965200D03*
X351400Y965200D03*
D22*
X558800Y965200D03*
X558800Y939800D03*
X558800Y914400D03*
X368300Y965200D03*
X368300Y939800D03*
X368300Y914400D03*
D13*
X723900Y762000D03*
X723900Y736600D03*
X723900Y711200D03*
X723900Y685800D03*
X723900Y660400D03*
X723900Y635000D03*
X109792Y657162D03*
X135192Y657162D03*
X160592Y657162D03*
D23*
X48006Y482346D02*
X28194Y482346D01*
X28194Y432054D02*
X48006Y432054D01*
X48006Y583946D02*
X28194Y583946D01*
X28194Y533654D02*
X48006Y533654D01*
X48006Y837946D02*
X28194Y837946D01*
X28194Y787654D02*
X48006Y787654D01*
D24*
X925513Y517525D03*
X900113Y517525D03*
X925513Y492125D03*
X900113Y492125D03*
X925513Y466725D03*
X900113Y466725D03*
X925513Y441325D03*
X900113Y441325D03*
X925513Y415925D03*
X900113Y415925D03*
X925513Y390525D03*
X900113Y390525D03*
X925513Y365125D03*
X900113Y365125D03*
X925513Y339725D03*
X900113Y339725D03*
X925513Y314325D03*
X900113Y314325D03*
X925513Y288925D03*
X900113Y288925D03*
X925513Y263525D03*
X900113Y263525D03*
X925513Y238125D03*
X900113Y238125D03*
X925513Y212725D03*
X900113Y212725D03*
D12*
X361823Y121911D03*
X361823Y104911D03*
X450596Y121784D03*
X450596Y104784D03*
X539750Y121784D03*
X539750Y104784D03*
D13*
X635000Y711200D03*
X635000Y736600D03*
X635000Y762000D03*
X571500Y711200D03*
X571500Y736600D03*
X571500Y762000D03*
X368300Y177800D03*
X368300Y203200D03*
D25*
X235966Y282956D03*
X261366Y282956D03*
X286766Y282956D03*
X312166Y282956D03*
X337566Y282956D03*
D13*
X253111Y726758D03*
X253111Y701358D03*
X571500Y863600D03*
X546100Y863600D03*
D12*
X236728Y438794D03*
X236728Y455794D03*
D10*
X149700Y936700D02*
X149840Y936702D01*
X149980Y936708D01*
X150120Y936718D01*
X150260Y936731D01*
X150399Y936749D01*
X150538Y936771D01*
X150675Y936796D01*
X150813Y936825D01*
X150949Y936858D01*
X151084Y936895D01*
X151218Y936936D01*
X151351Y936981D01*
X151483Y937029D01*
X151613Y937081D01*
X151742Y937136D01*
X151869Y937195D01*
X151995Y937258D01*
X152119Y937324D01*
X152240Y937393D01*
X152360Y937466D01*
X152478Y937543D01*
X152593Y937622D01*
X152707Y937705D01*
X152817Y937791D01*
X152926Y937880D01*
X153032Y937972D01*
X153135Y938067D01*
X153236Y938164D01*
X153333Y938265D01*
X153428Y938368D01*
X153520Y938474D01*
X153609Y938583D01*
X153695Y938693D01*
X153778Y938807D01*
X153857Y938922D01*
X153934Y939040D01*
X154007Y939160D01*
X154076Y939281D01*
X154142Y939405D01*
X154205Y939531D01*
X154264Y939658D01*
X154319Y939787D01*
X154371Y939917D01*
X154419Y940049D01*
X154464Y940182D01*
X154505Y940316D01*
X154542Y940451D01*
X154575Y940587D01*
X154604Y940725D01*
X154629Y940862D01*
X154651Y941001D01*
X154669Y941140D01*
X154682Y941280D01*
X154692Y941420D01*
X154698Y941560D01*
X154700Y941700D01*
X154698Y941840D01*
X154692Y941980D01*
X154682Y942120D01*
X154669Y942260D01*
X154651Y942399D01*
X154629Y942538D01*
X154604Y942675D01*
X154575Y942813D01*
X154542Y942949D01*
X154505Y943084D01*
X154464Y943218D01*
X154419Y943351D01*
X154371Y943483D01*
X154319Y943613D01*
X154264Y943742D01*
X154205Y943869D01*
X154142Y943995D01*
X154076Y944119D01*
X154007Y944240D01*
X153934Y944360D01*
X153857Y944478D01*
X153778Y944593D01*
X153695Y944707D01*
X153609Y944817D01*
X153520Y944926D01*
X153428Y945032D01*
X153333Y945135D01*
X153236Y945236D01*
X153135Y945333D01*
X153032Y945428D01*
X152926Y945520D01*
X152817Y945609D01*
X152707Y945695D01*
X152593Y945778D01*
X152478Y945857D01*
X152360Y945934D01*
X152240Y946007D01*
X152119Y946076D01*
X151995Y946142D01*
X151869Y946205D01*
X151742Y946264D01*
X151613Y946319D01*
X151483Y946371D01*
X151351Y946419D01*
X151218Y946464D01*
X151084Y946505D01*
X150949Y946542D01*
X150813Y946575D01*
X150675Y946604D01*
X150538Y946629D01*
X150399Y946651D01*
X150260Y946669D01*
X150120Y946682D01*
X149980Y946692D01*
X149840Y946698D01*
X149700Y946700D01*
X129700Y946700D02*
X129560Y946698D01*
X129420Y946692D01*
X129280Y946682D01*
X129140Y946669D01*
X129001Y946651D01*
X128862Y946629D01*
X128725Y946604D01*
X128587Y946575D01*
X128451Y946542D01*
X128316Y946505D01*
X128182Y946464D01*
X128049Y946419D01*
X127917Y946371D01*
X127787Y946319D01*
X127658Y946264D01*
X127531Y946205D01*
X127405Y946142D01*
X127281Y946076D01*
X127160Y946007D01*
X127040Y945934D01*
X126922Y945857D01*
X126807Y945778D01*
X126693Y945695D01*
X126583Y945609D01*
X126474Y945520D01*
X126368Y945428D01*
X126265Y945333D01*
X126164Y945236D01*
X126067Y945135D01*
X125972Y945032D01*
X125880Y944926D01*
X125791Y944817D01*
X125705Y944707D01*
X125622Y944593D01*
X125543Y944478D01*
X125466Y944360D01*
X125393Y944240D01*
X125324Y944119D01*
X125258Y943995D01*
X125195Y943869D01*
X125136Y943742D01*
X125081Y943613D01*
X125029Y943483D01*
X124981Y943351D01*
X124936Y943218D01*
X124895Y943084D01*
X124858Y942949D01*
X124825Y942813D01*
X124796Y942675D01*
X124771Y942538D01*
X124749Y942399D01*
X124731Y942260D01*
X124718Y942120D01*
X124708Y941980D01*
X124702Y941840D01*
X124700Y941700D01*
X124702Y941560D01*
X124708Y941420D01*
X124718Y941280D01*
X124731Y941140D01*
X124749Y941001D01*
X124771Y940862D01*
X124796Y940725D01*
X124825Y940587D01*
X124858Y940451D01*
X124895Y940316D01*
X124936Y940182D01*
X124981Y940049D01*
X125029Y939917D01*
X125081Y939787D01*
X125136Y939658D01*
X125195Y939531D01*
X125258Y939405D01*
X125324Y939281D01*
X125393Y939160D01*
X125466Y939040D01*
X125543Y938922D01*
X125622Y938807D01*
X125705Y938693D01*
X125791Y938583D01*
X125880Y938474D01*
X125972Y938368D01*
X126067Y938265D01*
X126164Y938164D01*
X126265Y938067D01*
X126368Y937972D01*
X126474Y937880D01*
X126583Y937791D01*
X126693Y937705D01*
X126807Y937622D01*
X126922Y937543D01*
X127040Y937466D01*
X127160Y937393D01*
X127281Y937324D01*
X127405Y937258D01*
X127531Y937195D01*
X127658Y937136D01*
X127787Y937081D01*
X127917Y937029D01*
X128049Y936981D01*
X128182Y936936D01*
X128316Y936895D01*
X128451Y936858D01*
X128587Y936825D01*
X128725Y936796D01*
X128862Y936771D01*
X129001Y936749D01*
X129140Y936731D01*
X129280Y936718D01*
X129420Y936708D01*
X129560Y936702D01*
X129700Y936700D01*
X149700Y936700D01*
X149700Y946700D02*
X129700Y946700D01*
X94700Y894700D02*
X94698Y894560D01*
X94692Y894420D01*
X94682Y894280D01*
X94669Y894140D01*
X94651Y894001D01*
X94629Y893862D01*
X94604Y893725D01*
X94575Y893587D01*
X94542Y893451D01*
X94505Y893316D01*
X94464Y893182D01*
X94419Y893049D01*
X94371Y892917D01*
X94319Y892787D01*
X94264Y892658D01*
X94205Y892531D01*
X94142Y892405D01*
X94076Y892281D01*
X94007Y892160D01*
X93934Y892040D01*
X93857Y891922D01*
X93778Y891807D01*
X93695Y891693D01*
X93609Y891583D01*
X93520Y891474D01*
X93428Y891368D01*
X93333Y891265D01*
X93236Y891164D01*
X93135Y891067D01*
X93032Y890972D01*
X92926Y890880D01*
X92817Y890791D01*
X92707Y890705D01*
X92593Y890622D01*
X92478Y890543D01*
X92360Y890466D01*
X92240Y890393D01*
X92119Y890324D01*
X91995Y890258D01*
X91869Y890195D01*
X91742Y890136D01*
X91613Y890081D01*
X91483Y890029D01*
X91351Y889981D01*
X91218Y889936D01*
X91084Y889895D01*
X90949Y889858D01*
X90813Y889825D01*
X90675Y889796D01*
X90538Y889771D01*
X90399Y889749D01*
X90260Y889731D01*
X90120Y889718D01*
X89980Y889708D01*
X89840Y889702D01*
X89700Y889700D01*
X89560Y889702D01*
X89420Y889708D01*
X89280Y889718D01*
X89140Y889731D01*
X89001Y889749D01*
X88862Y889771D01*
X88725Y889796D01*
X88587Y889825D01*
X88451Y889858D01*
X88316Y889895D01*
X88182Y889936D01*
X88049Y889981D01*
X87917Y890029D01*
X87787Y890081D01*
X87658Y890136D01*
X87531Y890195D01*
X87405Y890258D01*
X87281Y890324D01*
X87160Y890393D01*
X87040Y890466D01*
X86922Y890543D01*
X86807Y890622D01*
X86693Y890705D01*
X86583Y890791D01*
X86474Y890880D01*
X86368Y890972D01*
X86265Y891067D01*
X86164Y891164D01*
X86067Y891265D01*
X85972Y891368D01*
X85880Y891474D01*
X85791Y891583D01*
X85705Y891693D01*
X85622Y891807D01*
X85543Y891922D01*
X85466Y892040D01*
X85393Y892160D01*
X85324Y892281D01*
X85258Y892405D01*
X85195Y892531D01*
X85136Y892658D01*
X85081Y892787D01*
X85029Y892917D01*
X84981Y893049D01*
X84936Y893182D01*
X84895Y893316D01*
X84858Y893451D01*
X84825Y893587D01*
X84796Y893725D01*
X84771Y893862D01*
X84749Y894001D01*
X84731Y894140D01*
X84718Y894280D01*
X84708Y894420D01*
X84702Y894560D01*
X84700Y894700D01*
X84700Y917700D02*
X84702Y917840D01*
X84708Y917980D01*
X84718Y918120D01*
X84731Y918260D01*
X84749Y918399D01*
X84771Y918538D01*
X84796Y918675D01*
X84825Y918813D01*
X84858Y918949D01*
X84895Y919084D01*
X84936Y919218D01*
X84981Y919351D01*
X85029Y919483D01*
X85081Y919613D01*
X85136Y919742D01*
X85195Y919869D01*
X85258Y919995D01*
X85324Y920119D01*
X85393Y920240D01*
X85466Y920360D01*
X85543Y920478D01*
X85622Y920593D01*
X85705Y920707D01*
X85791Y920817D01*
X85880Y920926D01*
X85972Y921032D01*
X86067Y921135D01*
X86164Y921236D01*
X86265Y921333D01*
X86368Y921428D01*
X86474Y921520D01*
X86583Y921609D01*
X86693Y921695D01*
X86807Y921778D01*
X86922Y921857D01*
X87040Y921934D01*
X87160Y922007D01*
X87281Y922076D01*
X87405Y922142D01*
X87531Y922205D01*
X87658Y922264D01*
X87787Y922319D01*
X87917Y922371D01*
X88049Y922419D01*
X88182Y922464D01*
X88316Y922505D01*
X88451Y922542D01*
X88587Y922575D01*
X88725Y922604D01*
X88862Y922629D01*
X89001Y922651D01*
X89140Y922669D01*
X89280Y922682D01*
X89420Y922692D01*
X89560Y922698D01*
X89700Y922700D01*
X89840Y922698D01*
X89980Y922692D01*
X90120Y922682D01*
X90260Y922669D01*
X90399Y922651D01*
X90538Y922629D01*
X90675Y922604D01*
X90813Y922575D01*
X90949Y922542D01*
X91084Y922505D01*
X91218Y922464D01*
X91351Y922419D01*
X91483Y922371D01*
X91613Y922319D01*
X91742Y922264D01*
X91869Y922205D01*
X91995Y922142D01*
X92119Y922076D01*
X92240Y922007D01*
X92360Y921934D01*
X92478Y921857D01*
X92593Y921778D01*
X92707Y921695D01*
X92817Y921609D01*
X92926Y921520D01*
X93032Y921428D01*
X93135Y921333D01*
X93236Y921236D01*
X93333Y921135D01*
X93428Y921032D01*
X93520Y920926D01*
X93609Y920817D01*
X93695Y920707D01*
X93778Y920593D01*
X93857Y920478D01*
X93934Y920360D01*
X94007Y920240D01*
X94076Y920119D01*
X94142Y919995D01*
X94205Y919869D01*
X94264Y919742D01*
X94319Y919613D01*
X94371Y919483D01*
X94419Y919351D01*
X94464Y919218D01*
X94505Y919084D01*
X94542Y918949D01*
X94575Y918813D01*
X94604Y918675D01*
X94629Y918538D01*
X94651Y918399D01*
X94669Y918260D01*
X94682Y918120D01*
X94692Y917980D01*
X94698Y917840D01*
X94700Y917700D01*
X84700Y917700D02*
X84700Y894700D01*
X94700Y894700D02*
X94700Y917700D01*
X150700Y876700D02*
X150840Y876698D01*
X150980Y876692D01*
X151120Y876682D01*
X151260Y876669D01*
X151399Y876651D01*
X151538Y876629D01*
X151675Y876604D01*
X151813Y876575D01*
X151949Y876542D01*
X152084Y876505D01*
X152218Y876464D01*
X152351Y876419D01*
X152483Y876371D01*
X152613Y876319D01*
X152742Y876264D01*
X152869Y876205D01*
X152995Y876142D01*
X153119Y876076D01*
X153240Y876007D01*
X153360Y875934D01*
X153478Y875857D01*
X153593Y875778D01*
X153707Y875695D01*
X153817Y875609D01*
X153926Y875520D01*
X154032Y875428D01*
X154135Y875333D01*
X154236Y875236D01*
X154333Y875135D01*
X154428Y875032D01*
X154520Y874926D01*
X154609Y874817D01*
X154695Y874707D01*
X154778Y874593D01*
X154857Y874478D01*
X154934Y874360D01*
X155007Y874240D01*
X155076Y874119D01*
X155142Y873995D01*
X155205Y873869D01*
X155264Y873742D01*
X155319Y873613D01*
X155371Y873483D01*
X155419Y873351D01*
X155464Y873218D01*
X155505Y873084D01*
X155542Y872949D01*
X155575Y872813D01*
X155604Y872675D01*
X155629Y872538D01*
X155651Y872399D01*
X155669Y872260D01*
X155682Y872120D01*
X155692Y871980D01*
X155698Y871840D01*
X155700Y871700D01*
X155698Y871560D01*
X155692Y871420D01*
X155682Y871280D01*
X155669Y871140D01*
X155651Y871001D01*
X155629Y870862D01*
X155604Y870725D01*
X155575Y870587D01*
X155542Y870451D01*
X155505Y870316D01*
X155464Y870182D01*
X155419Y870049D01*
X155371Y869917D01*
X155319Y869787D01*
X155264Y869658D01*
X155205Y869531D01*
X155142Y869405D01*
X155076Y869281D01*
X155007Y869160D01*
X154934Y869040D01*
X154857Y868922D01*
X154778Y868807D01*
X154695Y868693D01*
X154609Y868583D01*
X154520Y868474D01*
X154428Y868368D01*
X154333Y868265D01*
X154236Y868164D01*
X154135Y868067D01*
X154032Y867972D01*
X153926Y867880D01*
X153817Y867791D01*
X153707Y867705D01*
X153593Y867622D01*
X153478Y867543D01*
X153360Y867466D01*
X153240Y867393D01*
X153119Y867324D01*
X152995Y867258D01*
X152869Y867195D01*
X152742Y867136D01*
X152613Y867081D01*
X152483Y867029D01*
X152351Y866981D01*
X152218Y866936D01*
X152084Y866895D01*
X151949Y866858D01*
X151813Y866825D01*
X151675Y866796D01*
X151538Y866771D01*
X151399Y866749D01*
X151260Y866731D01*
X151120Y866718D01*
X150980Y866708D01*
X150840Y866702D01*
X150700Y866700D01*
X128700Y866700D02*
X128560Y866702D01*
X128420Y866708D01*
X128280Y866718D01*
X128140Y866731D01*
X128001Y866749D01*
X127862Y866771D01*
X127725Y866796D01*
X127587Y866825D01*
X127451Y866858D01*
X127316Y866895D01*
X127182Y866936D01*
X127049Y866981D01*
X126917Y867029D01*
X126787Y867081D01*
X126658Y867136D01*
X126531Y867195D01*
X126405Y867258D01*
X126281Y867324D01*
X126160Y867393D01*
X126040Y867466D01*
X125922Y867543D01*
X125807Y867622D01*
X125693Y867705D01*
X125583Y867791D01*
X125474Y867880D01*
X125368Y867972D01*
X125265Y868067D01*
X125164Y868164D01*
X125067Y868265D01*
X124972Y868368D01*
X124880Y868474D01*
X124791Y868583D01*
X124705Y868693D01*
X124622Y868807D01*
X124543Y868922D01*
X124466Y869040D01*
X124393Y869160D01*
X124324Y869281D01*
X124258Y869405D01*
X124195Y869531D01*
X124136Y869658D01*
X124081Y869787D01*
X124029Y869917D01*
X123981Y870049D01*
X123936Y870182D01*
X123895Y870316D01*
X123858Y870451D01*
X123825Y870587D01*
X123796Y870725D01*
X123771Y870862D01*
X123749Y871001D01*
X123731Y871140D01*
X123718Y871280D01*
X123708Y871420D01*
X123702Y871560D01*
X123700Y871700D01*
X123702Y871840D01*
X123708Y871980D01*
X123718Y872120D01*
X123731Y872260D01*
X123749Y872399D01*
X123771Y872538D01*
X123796Y872675D01*
X123825Y872813D01*
X123858Y872949D01*
X123895Y873084D01*
X123936Y873218D01*
X123981Y873351D01*
X124029Y873483D01*
X124081Y873613D01*
X124136Y873742D01*
X124195Y873869D01*
X124258Y873995D01*
X124324Y874119D01*
X124393Y874240D01*
X124466Y874360D01*
X124543Y874478D01*
X124622Y874593D01*
X124705Y874707D01*
X124791Y874817D01*
X124880Y874926D01*
X124972Y875032D01*
X125067Y875135D01*
X125164Y875236D01*
X125265Y875333D01*
X125368Y875428D01*
X125474Y875520D01*
X125583Y875609D01*
X125693Y875695D01*
X125807Y875778D01*
X125922Y875857D01*
X126040Y875934D01*
X126160Y876007D01*
X126281Y876076D01*
X126405Y876142D01*
X126531Y876205D01*
X126658Y876264D01*
X126787Y876319D01*
X126917Y876371D01*
X127049Y876419D01*
X127182Y876464D01*
X127316Y876505D01*
X127451Y876542D01*
X127587Y876575D01*
X127725Y876604D01*
X127862Y876629D01*
X128001Y876651D01*
X128140Y876669D01*
X128280Y876682D01*
X128420Y876692D01*
X128560Y876698D01*
X128700Y876700D01*
X150700Y876700D01*
X150700Y866700D02*
X128700Y866700D01*
D26*
X129700Y941700D02*
X149700Y941700D01*
X149700Y871700D02*
X129700Y871700D01*
X89700Y896200D02*
X89700Y916200D01*
D27*
X426835Y37825D03*
X361835Y37825D03*
X426835Y82825D03*
X361835Y82825D03*
X515735Y37825D03*
X450735Y37825D03*
X515735Y82825D03*
X450735Y82825D03*
X604635Y37825D03*
X539635Y37825D03*
X604635Y82825D03*
X539635Y82825D03*
D28*
X355600Y254000D03*
X292100Y673100D03*
D13*
X427038Y387350D03*
X401638Y387350D03*
X376238Y387350D03*
X350838Y387350D03*
D25*
X61722Y664972D03*
X61722Y690372D03*
X61722Y715772D03*
D29*
X70784Y358462D03*
X28784Y358462D03*
X28784Y303462D03*
X70784Y303462D03*
D30*
X650494Y796544D02*
X650494Y808736D01*
X625094Y808736D02*
X625094Y796544D01*
X599694Y796544D02*
X599694Y808736D01*
D27*
X477000Y136250D03*
X412000Y136250D03*
X477000Y181250D03*
X412000Y181250D03*
D13*
X733425Y344488D03*
X758825Y344488D03*
X784225Y344488D03*
X809625Y344488D03*
X733425Y290513D03*
X758825Y290513D03*
X784225Y290513D03*
X809625Y290513D03*
D31*
X75100Y29700D03*
X95100Y29700D03*
X115100Y29700D03*
X135100Y29700D03*
X155100Y29700D03*
X175100Y29700D03*
X195100Y29700D03*
X215100Y29700D03*
X235100Y29700D03*
X255100Y29700D03*
X255100Y249700D03*
X235100Y249700D03*
X215100Y249700D03*
X195100Y249700D03*
X175100Y249700D03*
X155100Y249700D03*
X135100Y249700D03*
X115100Y249700D03*
X95100Y249700D03*
X75100Y249700D03*
D27*
X477000Y212450D03*
X412000Y212450D03*
X477000Y257450D03*
X412000Y257450D03*
D25*
X520700Y127000D03*
X520700Y152400D03*
X520700Y177800D03*
X520700Y203200D03*
X520700Y228600D03*
X520700Y254000D03*
D30*
X514096Y673100D02*
X501904Y673100D01*
X501904Y647700D02*
X514096Y647700D01*
X514096Y622300D02*
X501904Y622300D01*
X501904Y596900D02*
X514096Y596900D01*
X578104Y596900D02*
X590296Y596900D01*
X590296Y622300D02*
X578104Y622300D01*
X578104Y647700D02*
X590296Y647700D01*
X590296Y673100D02*
X578104Y673100D01*
X628904Y254000D02*
X641096Y254000D01*
X641096Y228600D02*
X628904Y228600D01*
X628904Y203200D02*
X641096Y203200D01*
X641096Y177800D02*
X628904Y177800D01*
X628904Y152400D02*
X641096Y152400D01*
X641096Y127000D02*
X628904Y127000D01*
X628904Y101600D02*
X641096Y101600D01*
X641096Y76200D02*
X628904Y76200D01*
X628904Y50800D02*
X641096Y50800D01*
D17*
X617728Y890016D02*
X617728Y905256D01*
X643128Y905256D02*
X643128Y890016D01*
X668528Y890016D02*
X668528Y905256D01*
D23*
X670052Y954024D02*
X670052Y973836D01*
X619760Y973836D02*
X619760Y954024D01*
D17*
X884047Y963232D02*
X884047Y978472D01*
X858647Y978472D02*
X858647Y963232D01*
X833247Y963232D02*
X833247Y978472D01*
D23*
X773303Y973709D02*
X773303Y953897D01*
X723011Y953897D02*
X723011Y973709D01*
D18*
X561950Y403225D03*
X542950Y403225D03*
D32*
X642620Y579438D03*
X690880Y579438D03*
D33*
X868363Y592138D03*
X842963Y592138D03*
X817563Y592138D03*
X893763Y592138D03*
X919163Y592138D03*
D34*
X847725Y30163D03*
D35*
X847725Y55563D03*
X847725Y80963D03*
X847725Y106363D03*
X847725Y131763D03*
X695325Y131763D03*
X695325Y106363D03*
X695325Y80963D03*
X695325Y55563D03*
X695325Y30163D03*
D34*
X847725Y161925D03*
D35*
X847725Y187325D03*
X847725Y212725D03*
X847725Y238125D03*
X847725Y263525D03*
X695325Y263525D03*
X695325Y238125D03*
X695325Y212725D03*
X695325Y187325D03*
X695325Y161925D03*
D36*
X44864Y61331D03*
X44864Y950331D03*
X946564Y61331D03*
X946564Y950331D03*
M02*
