M48
;GenerationSoftware,Autodesk,EAGLE,9.2.1*%
;CreationDate,2019-04-01T06:43:22Z*%
FMAT,2
ICI,OFF
METRIC,TZ,000.000
T17C0.305
T16C0.350
T15C0.600
T14C0.610
T13C0.800
T12C0.813
T11C0.850
T10C0.900
T9C0.914
T8C1.000
T7C1.016
T6C1.100
T5C1.194
T4C1.200
T3C1.321
T2C1.400
T1C3.200
%
G90
M71
T1
X4486Y6133
X94656Y6133
X4486Y95033
X94656Y95033
T2
X7078Y30346
X2878Y30346
X2878Y35846
X7078Y35846
T3
X3810Y53365
X3810Y58395
X3810Y43205
X3810Y48235
X77330Y96380
X72301Y96380
X61976Y96393
X67005Y96393
X3810Y78765
X3810Y83795
T4
X57150Y76200
X72390Y68580
X63500Y73660
X72390Y71120
X72390Y73660
X63500Y71120
X30480Y33020
X72390Y76200
X36830Y57150
X33020Y33020
X35560Y33020
X40164Y38735
X13519Y65716
X73343Y29051
X38100Y33020
X36830Y59690
X36830Y54610
X36830Y52070
X73343Y34449
X35084Y38735
X75883Y34449
X78423Y34449
X80963Y34449
X54610Y86360
X75883Y29051
X78423Y29051
X36830Y20320
X36830Y17780
X80963Y29051
X57150Y73660
X57150Y71120
X63500Y76200
X15240Y53340
X12700Y53340
X57150Y86360
X25311Y70136
X25311Y72676
X36830Y62230
X16059Y65716
X10979Y65716
X37624Y38735
X42704Y38735
X72390Y63500
X72390Y66040
T5
X23673Y48235
X23673Y38227
T6
X17780Y30480
X15240Y30480
X12700Y30480
T7
X6172Y66497
X13970Y81280
X11430Y81280
X31217Y28296
X28677Y28296
X35560Y25400
X61773Y89764
X6172Y71577
X6172Y69037
X23597Y28296
X52070Y25400
X52070Y12700
X52070Y15240
X52070Y17780
X52070Y20320
X52070Y22860
X64313Y89764
X26137Y28296
X66853Y89764
X29210Y67310
X33757Y28296
X88405Y97085
X85865Y97085
X83325Y97085
X16510Y76200
X13970Y76200
X11430Y76200
X11557Y46355
X11557Y43815
X11557Y41275
X16510Y81280
T8
X41200Y13625
X47700Y13625
X43180Y93980
X39370Y47942
X29630Y58420
X19431Y94110
X22350Y86360
X33147Y86182
X8970Y90620
X13970Y87170
X13970Y94170
X34290Y73660
X29591Y92964
X36184Y8283
X42684Y8283
X36184Y3782
X42684Y3782
X51573Y8283
X41200Y21245
X7823Y60325
X41200Y25745
X53963Y3782
X34290Y47942
X47700Y18125
X41200Y18125
X45073Y3782
X47700Y21245
X60463Y8283
X51573Y3782
X34290Y42863
X39370Y42863
X60463Y3782
X53963Y8283
X45073Y8283
X48641Y92964
X47700Y25745
T9
X49530Y33020
X49530Y30480
X52070Y33020
X52070Y30480
X54610Y33020
X54610Y30480
X57150Y33020
X57150Y30480
X59690Y33020
X59690Y30480
X90011Y44132
X90011Y21273
X92551Y21273
X90011Y23812
X92551Y23812
X90011Y26352
X92551Y26352
X90011Y28892
X92551Y28892
X90011Y31432
X92551Y31432
X90011Y33973
X92551Y33973
X90011Y36513
X92551Y36513
X90011Y39053
X92551Y39053
X90011Y41593
X92551Y41593
X92551Y44132
X90011Y46672
X92551Y46672
X90011Y49212
X92551Y49212
X90011Y51752
X92551Y51752
X44450Y33020
X44450Y30480
X46990Y33020
X46990Y30480
T10
X37846Y81124
X44958Y88036
X69533Y21273
X84773Y16192
X69533Y3016
X23343Y81331
X69533Y5556
X30649Y82871
X42863Y90805
X69533Y23812
X69533Y8096
X84773Y21273
X69533Y10636
X29766Y71199
X84773Y18733
X69533Y18733
X84773Y13176
X84773Y10636
X23012Y83439
X84773Y8096
X69533Y26352
X26936Y84696
X84773Y5556
X84773Y3016
X69533Y13176
X69533Y16192
X37440Y82677
X33020Y69850
X84773Y26352
X84773Y23812
T11
X82709Y71914
X33020Y22860
X25082Y35243
X74930Y53657
X54610Y56197
T12
X48260Y57150
X48260Y62230
X48260Y69850
X48260Y72390
X65049Y80264
X62509Y80264
X59969Y80264
X48260Y59690
X48260Y67310
X48260Y64770
X40640Y72390
X40640Y69850
X40640Y67310
X40640Y64770
X40640Y62230
X40640Y59690
X40640Y57150
X40640Y54610
X26670Y63500
X24130Y63500
X26670Y55880
X24130Y55880
X63500Y17780
X50800Y67310
X50800Y64770
X50800Y62230
X50800Y59690
X58420Y59690
X58420Y62230
X58420Y64770
X58420Y67310
X63500Y25400
X63500Y22860
X63500Y20320
X63500Y15240
X63500Y12700
X63500Y10160
X63500Y7620
X63500Y5080
X43383Y83591
X51003Y83591
X25222Y82855
X32842Y82855
X48260Y54610
T13
X9510Y24970
X7510Y24970
X11510Y24970
X9510Y2970
X7510Y2970
X57744Y53149
X13510Y24970
X19510Y24970
X64262Y57944
X69088Y57944
X86836Y59214
X84296Y59214
X81756Y59214
X89376Y59214
X91916Y59214
X15510Y24970
X17510Y24970
X21510Y24970
X25510Y24970
X25510Y2970
X23510Y24970
X23510Y2970
X21510Y2970
X19510Y2970
X17510Y2970
X15510Y2970
X13510Y2970
X11510Y2970
T14
X55880Y96520
X55880Y93980
X55880Y91440
X36830Y93980
X36830Y91440
X36830Y96520
T15
X54585Y52591
T16
X12382Y17939
X11112Y16669
X11112Y17939
X14922Y16669
X14922Y17939
X13652Y16669
X13652Y17939
X17463Y16669
X17463Y17939
X16192Y16669
X16192Y17939
X20003Y16669
X20003Y17939
X18733Y16669
X18733Y17939
X12382Y23177
X14922Y21907
X13652Y21907
X17463Y20638
X16192Y20638
X20003Y20638
X18733Y20638
X22542Y20638
X21273Y20638
X25082Y20638
X23812Y20638
X26352Y20638
X30162Y20638
X14922Y20638
X12382Y21907
X14922Y23177
X13652Y23177
X17463Y23177
X16192Y23177
X17463Y21907
X16192Y21907
X20003Y21907
X18733Y21907
X18733Y23177
X31432Y20638
X32702Y20638
X23654Y14129
X24924Y14129
X26194Y14129
X27464Y14129
X28734Y14129
X30004Y14129
X30004Y15399
X28734Y15399
X27464Y15399
X26194Y15399
X24924Y15399
X26194Y16669
X27464Y16669
X28734Y16669
X30004Y16669
X27464Y17939
X28734Y17939
X30004Y17939
X31274Y17939
X22384Y7461
X61912Y41275
X21114Y7461
X21114Y8731
X22384Y10001
X14922Y12859
X16192Y12859
X17463Y12859
X18733Y12859
X17463Y11589
X16351Y11589
X21114Y11271
X19844Y11271
X19844Y10001
X18574Y10001
X21114Y12541
X22384Y12541
X22384Y13811
X14605Y9049
X14605Y10319
X10795Y4445
X12065Y5556
X13335Y6826
X17304Y7461
X16034Y7461
X16034Y6191
X14764Y6191
X14764Y4921
X13494Y4921
X32544Y3969
X32544Y5239
X31274Y3969
X31274Y5239
X27464Y3969
X27464Y5239
X26194Y3969
X26194Y5239
X30004Y3969
X30004Y5239
X28734Y3969
X28734Y5239
X24924Y5239
X23654Y5239
X22384Y3969
X22384Y5239
X21114Y5239
X32544Y2699
X31274Y2699
X30004Y2699
X28734Y2699
X27464Y2699
X19844Y5239
X18574Y5239
X18574Y3969
X6667Y10160
X6667Y11430
X6667Y12700
X6667Y13970
X6667Y15240
X6667Y16510
X2857Y20320
X4128Y20320
X4921Y22701
X9843Y17939
X8573Y19209
X21273Y17939
X21273Y16669
X22542Y17939
X22542Y16828
X21273Y15399
X23812Y17939
X28892Y24130
X27622Y24130
X30162Y24130
X27622Y25400
X28892Y25400
X30162Y25400
X31432Y25400
X26352Y24130
X32702Y24130
X32861Y16669
X32861Y15399
X32861Y14129
X68804Y36309
X68765Y31994
X69662Y35961
X69623Y32274
X67101Y31224
X70172Y36671
X70208Y32902
X31274Y14820
X83185Y32702
X36830Y22701
X42386Y32067
X39846Y35084
X61215Y40523
X67457Y33302
X67339Y34160
X50482Y25241
X13335Y19526
X16669Y19682
X19844Y8573
X22083Y78111
X37941Y10990
X24606Y32226
X49689Y23597
X63341Y42863
X68263Y42228
X71120Y46990
X66516Y44609
X68898Y46990
X70009Y46990
X72231Y46990
X72390Y49054
X68263Y41275
X69374Y41275
X65246Y41275
X64135Y41275
X63024Y41275
X64452Y42863
X65564Y42863
X64452Y43656
X67151Y43815
X65723Y45402
X70009Y46037
X71120Y46037
X72231Y46037
X72231Y44926
X71279Y49054
X70168Y49054
X69056Y49054
X72390Y50006
X71279Y50006
X70168Y50006
X32544Y7461
X32544Y8731
X31274Y7461
X31274Y8731
X4128Y19050
X5398Y17780
X4128Y17780
X2857Y19050
X1587Y19050
X2857Y17780
X22384Y8731
X1587Y17780
X2857Y16510
X1587Y16510
X2857Y15240
X1587Y15240
X5398Y16510
X4128Y16510
X5398Y15240
X4128Y15240
X5398Y13970
X4128Y13970
X5398Y12700
X4128Y12700
X2857Y13970
X1587Y13970
X2857Y12700
X1587Y12700
X2857Y11430
X1587Y11430
X2857Y10160
X1587Y10160
X5398Y11430
X4128Y11430
X5398Y10160
X4128Y10160
X9525Y7779
X10795Y7779
X9525Y9049
X10795Y9049
X9525Y6509
X12065Y9049
X13335Y9049
X12065Y10319
X13335Y10319
X12065Y11589
X13335Y11589
X9525Y10319
X10795Y10319
X9525Y11589
X10795Y11589
X9525Y12859
X10795Y12859
X9525Y14129
X10795Y14129
X12065Y12859
X27464Y7461
X27464Y8731
X26194Y7461
X26194Y8731
X30004Y7461
X30004Y8731
X28734Y7461
X28734Y8731
X32544Y10001
X32544Y11271
X31274Y10001
X31274Y11271
X30004Y10001
X30004Y11271
X28734Y10001
X28734Y11271
X27464Y10001
X27464Y11271
X26194Y10001
X26194Y11271
X24924Y10001
X24924Y11271
X23654Y10001
X23654Y11271
X24924Y7461
X24924Y8731
X23654Y7461
X23654Y8731
X20003Y14129
X20003Y15399
X18733Y14129
X18733Y15399
X17463Y14129
X17463Y15399
X16192Y14129
X16192Y15399
X14922Y14129
X14922Y15399
X13652Y14129
X13652Y15399
X12382Y15399
X12382Y16669
T17
X95656Y38100
X95656Y35560
X95656Y33814
X93980Y58420
X93980Y55880
X93980Y53340
X93980Y50800
X93980Y48260
X93980Y45720
X93980Y43180
X93980Y40640
X93980Y38100
X93980Y35560
X93980Y33814
X61595Y54927
X68580Y66040
X67547Y54373
X57150Y51110
X61773Y85104
X74930Y55560
X57150Y36195
X95656Y32067
X95656Y30162
X56195Y40323
X77788Y58737
X77788Y55880
X76518Y58737
X77153Y56540
X48260Y42228
X48260Y43180
X57309Y26194
X61277Y39688
X62547Y39370
X79375Y22384
X60484Y16510
X88424Y33363
X84455Y48577
X79058Y60960
X58420Y57150
X48462Y34315
X61496Y43358
X62105Y42749
X66150Y31750
X61430Y36513
X65540Y30353
X61399Y35682
X61277Y52387
X60703Y51813
X54292Y48895
X54292Y50482
X60243Y57785
X60093Y50341
X58325Y55905
X55880Y57467
X59690Y46990
X67805Y50433
X68462Y51752
X61243Y26545
X63040Y31517
X57785Y56515
X56713Y57587
X60431Y26670
X62465Y30942
X59618Y26670
X61845Y30413
X59690Y45720
X68618Y50482
X69275Y51752
X67650Y51752
X59690Y48153
X66993Y50482
X52705Y63500
X59690Y43815
X53657Y62230
X60642Y43815
X71172Y44343
X64462Y51752
X63650Y51760
X63976Y50006
X60852Y57069
X61922Y50482
X61919Y58420
X63817Y48895
X61962Y49670
X62547Y57150
X61926Y48763
X3492Y22860
X76203Y39529
X58896Y10636
X5874Y26670
X44767Y23915
X54610Y37941
X47625Y36671
X62522Y61685
X72549Y39053
X67984Y34697
X88424Y37122
X62230Y21431
X60325Y20955
X59372Y55086
X78103Y38576
X88443Y91930
X73819Y39053
X95656Y27146
X95656Y28257
X93980Y28257
X93980Y30162
X93980Y32067
X30855Y78200
X66675Y61595
X95656Y58420
X95656Y55880
X95656Y53340
X95656Y50800
X95656Y48260
X95656Y45720
X95656Y43180
X95656Y40640
M30