G04 EAGLE Gerber X2 export*
%TF.Part,Single*%
%TF.FileFunction,Other,Solder Mask top*%
%TF.FilePolarity,Positive*%
%TF.GenerationSoftware,Autodesk,EAGLE,9.2.1*%
%TF.CreationDate,2019-04-01T06:43:25Z*%
G75*
%MOMM*%
%FSLAX34Y34*%
%LPD*%
%INSolder Mask top*%
%IPPOS*%
%AMOC8*
5,1,8,0,0,1.08239X$1,22.5*%
G01*
%ADD10C,0.000000*%
%ADD11R,1.270000X1.270000*%
%ADD12R,2.030000X4.320000*%
%ADD13R,4.320000X2.030000*%
%ADD14R,1.500000X1.300000*%
%ADD15R,1.300000X1.500000*%
%ADD16C,1.676400*%
%ADD17C,1.800000*%
%ADD18C,1.219200*%
%ADD19P,1.319650X8X202.500000*%
%ADD20P,1.484606X8X202.500000*%
%ADD21C,1.524000*%
%ADD22P,1.319650X8X22.500000*%
%ADD23C,1.650000*%
%ADD24P,2.749271X8X292.500000*%
%ADD25C,0.914400*%
%ADD26R,1.130000X2.440000*%
%ADD27R,1.200000X1.200000*%
%ADD28C,1.981200*%
%ADD29P,1.484606X8X292.500000*%
%ADD30C,1.524000*%
%ADD31C,0.300000*%
%ADD32C,2.000000*%
%ADD33C,1.500000*%
%ADD34P,2.336880X8X22.500000*%
%ADD35R,5.080000X2.540000*%
%ADD36R,2.550000X2.700000*%
%ADD37R,2.100000X2.100000*%
%ADD38C,1.219200*%
%ADD39R,0.300000X1.200000*%
%ADD40R,1.200000X0.300000*%
%ADD41C,1.270000*%
%ADD42R,1.100000X1.000000*%
%ADD43R,1.600200X1.168400*%
%ADD44R,1.828800X0.152400*%
%ADD45R,1.050000X0.650000*%
%ADD46C,1.600000*%
%ADD47C,1.200000*%
%ADD48R,1.350000X1.350000*%
%ADD49C,1.350000*%
%ADD50C,6.451600*%


D10*
X0Y12700D02*
X990400Y12700D01*
X990400Y1000000D01*
X0Y1000000D01*
X0Y12700D01*
D11*
X269200Y883900D03*
D12*
X223500Y895300D03*
X223500Y941100D03*
D13*
X234900Y975400D03*
D11*
X269200Y975400D03*
X315000Y975400D03*
X315000Y929700D03*
X315000Y906800D03*
X315000Y883900D03*
X292100Y883900D03*
X292100Y975400D03*
X315000Y952500D03*
X459700Y883900D03*
D12*
X414000Y895300D03*
X414000Y941100D03*
D13*
X425400Y975400D03*
D11*
X459700Y975400D03*
X505500Y975400D03*
X505500Y929700D03*
X505500Y906800D03*
X505500Y883900D03*
X482600Y883900D03*
X482600Y975400D03*
X505500Y952500D03*
D14*
X374904Y854066D03*
X374904Y837066D03*
D15*
X433950Y852170D03*
X416950Y852170D03*
X201812Y834136D03*
X218812Y834136D03*
X245500Y848614D03*
X262500Y848614D03*
D16*
X393700Y479425D03*
X342900Y479425D03*
X342900Y428625D03*
X393700Y428625D03*
D15*
X621275Y685800D03*
X604275Y685800D03*
D14*
X628396Y649723D03*
X628396Y632723D03*
D17*
X381000Y330200D03*
X355600Y330200D03*
X330200Y330200D03*
X304800Y330200D03*
D18*
X482600Y546100D03*
X482600Y571500D03*
X482600Y698500D03*
X482600Y723900D03*
X482600Y596900D03*
X482600Y622300D03*
X482600Y673100D03*
X482600Y647700D03*
X406400Y723900D03*
X406400Y698500D03*
X406400Y673100D03*
X406400Y647700D03*
X406400Y622300D03*
X406400Y596900D03*
X406400Y571500D03*
X406400Y546100D03*
D15*
X313300Y546100D03*
X296300Y546100D03*
X313300Y571500D03*
X296300Y571500D03*
X313300Y596900D03*
X296300Y596900D03*
X313300Y622300D03*
X296300Y622300D03*
D17*
X368300Y520700D03*
X368300Y546100D03*
X368300Y571500D03*
X368300Y596900D03*
X368300Y622300D03*
D19*
X266700Y635000D03*
X241300Y635000D03*
X266700Y558800D03*
X241300Y558800D03*
D14*
X135890Y352180D03*
X135890Y369180D03*
D15*
X113275Y725488D03*
X96275Y725488D03*
D17*
X127000Y533400D03*
X152400Y533400D03*
D20*
X596900Y304800D03*
X596900Y330200D03*
X571500Y304800D03*
X571500Y330200D03*
X546100Y304800D03*
X546100Y330200D03*
X520700Y304800D03*
X520700Y330200D03*
X495300Y304800D03*
X495300Y330200D03*
X469900Y304800D03*
X469900Y330200D03*
X444500Y304800D03*
X444500Y330200D03*
D21*
X114300Y805180D02*
X114300Y820420D01*
X139700Y820420D02*
X139700Y805180D01*
X165100Y805180D02*
X165100Y820420D01*
X123190Y412750D02*
X107950Y412750D01*
X107950Y438150D02*
X123190Y438150D01*
X123190Y463550D02*
X107950Y463550D01*
X114300Y754380D02*
X114300Y769620D01*
X139700Y769620D02*
X139700Y754380D01*
X165100Y754380D02*
X165100Y769620D01*
D22*
X433832Y835914D03*
X510032Y835914D03*
X252222Y828548D03*
X328422Y828548D03*
D23*
X177800Y313050D02*
X177800Y296550D01*
X152400Y296550D02*
X152400Y313050D01*
X127000Y313050D02*
X127000Y296550D01*
D24*
X236728Y482346D03*
X236728Y382270D03*
D14*
X354330Y837066D03*
X354330Y854066D03*
D15*
X218812Y813562D03*
X201812Y813562D03*
D25*
X558800Y965200D03*
X558800Y939800D03*
X558800Y914400D03*
X368300Y965200D03*
X368300Y939800D03*
X368300Y914400D03*
D26*
X368300Y792300D03*
X342900Y792300D03*
X342900Y706300D03*
X368300Y706300D03*
D17*
X723900Y762000D03*
X723900Y736600D03*
X723900Y711200D03*
X723900Y685800D03*
X723900Y660400D03*
X723900Y635000D03*
D27*
X353400Y546100D03*
X332400Y546100D03*
X353400Y571500D03*
X332400Y571500D03*
X353400Y596900D03*
X332400Y596900D03*
X353400Y622300D03*
X332400Y622300D03*
D17*
X109792Y657162D03*
X135192Y657162D03*
X160592Y657162D03*
D28*
X48006Y482346D02*
X28194Y482346D01*
X28194Y432054D02*
X48006Y432054D01*
X48006Y583946D02*
X28194Y583946D01*
X28194Y533654D02*
X48006Y533654D01*
X48006Y837946D02*
X28194Y837946D01*
X28194Y787654D02*
X48006Y787654D01*
D29*
X925513Y517525D03*
X900113Y517525D03*
X925513Y492125D03*
X900113Y492125D03*
X925513Y466725D03*
X900113Y466725D03*
X925513Y441325D03*
X900113Y441325D03*
X925513Y415925D03*
X900113Y415925D03*
X925513Y390525D03*
X900113Y390525D03*
X925513Y365125D03*
X900113Y365125D03*
X925513Y339725D03*
X900113Y339725D03*
X925513Y314325D03*
X900113Y314325D03*
X925513Y288925D03*
X900113Y288925D03*
X925513Y263525D03*
X900113Y263525D03*
X925513Y238125D03*
X900113Y238125D03*
X925513Y212725D03*
X900113Y212725D03*
D17*
X635000Y711200D03*
X635000Y736600D03*
X635000Y762000D03*
X571500Y711200D03*
X571500Y736600D03*
X571500Y762000D03*
X368300Y177800D03*
X368300Y203200D03*
D30*
X235966Y282956D03*
X261366Y282956D03*
X286766Y282956D03*
X312166Y282956D03*
X337566Y282956D03*
D31*
X649200Y637275D02*
X649200Y653375D01*
X649200Y637275D02*
X646200Y637275D01*
X646200Y653375D01*
X649200Y653375D01*
X649200Y640125D02*
X646200Y640125D01*
X646200Y642975D02*
X649200Y642975D01*
X649200Y645825D02*
X646200Y645825D01*
X646200Y648675D02*
X649200Y648675D01*
X649200Y651525D02*
X646200Y651525D01*
X661900Y653375D02*
X661900Y637275D01*
X658900Y637275D01*
X658900Y653375D01*
X661900Y653375D01*
X661900Y640125D02*
X658900Y640125D01*
X658900Y642975D02*
X661900Y642975D01*
X661900Y645825D02*
X658900Y645825D01*
X658900Y648675D02*
X661900Y648675D01*
X661900Y651525D02*
X658900Y651525D01*
X674600Y653375D02*
X674600Y637275D01*
X671600Y637275D01*
X671600Y653375D01*
X674600Y653375D01*
X674600Y640125D02*
X671600Y640125D01*
X671600Y642975D02*
X674600Y642975D01*
X674600Y645825D02*
X671600Y645825D01*
X671600Y648675D02*
X674600Y648675D01*
X674600Y651525D02*
X671600Y651525D01*
X687300Y653375D02*
X687300Y637275D01*
X684300Y637275D01*
X684300Y653375D01*
X687300Y653375D01*
X687300Y640125D02*
X684300Y640125D01*
X684300Y642975D02*
X687300Y642975D01*
X687300Y645825D02*
X684300Y645825D01*
X684300Y648675D02*
X687300Y648675D01*
X687300Y651525D02*
X684300Y651525D01*
X687300Y686475D02*
X687300Y702575D01*
X687300Y686475D02*
X684300Y686475D01*
X684300Y702575D01*
X687300Y702575D01*
X687300Y689325D02*
X684300Y689325D01*
X684300Y692175D02*
X687300Y692175D01*
X687300Y695025D02*
X684300Y695025D01*
X684300Y697875D02*
X687300Y697875D01*
X687300Y700725D02*
X684300Y700725D01*
X674600Y702575D02*
X674600Y686475D01*
X671600Y686475D01*
X671600Y702575D01*
X674600Y702575D01*
X674600Y689325D02*
X671600Y689325D01*
X671600Y692175D02*
X674600Y692175D01*
X674600Y695025D02*
X671600Y695025D01*
X671600Y697875D02*
X674600Y697875D01*
X674600Y700725D02*
X671600Y700725D01*
X661900Y702575D02*
X661900Y686475D01*
X658900Y686475D01*
X658900Y702575D01*
X661900Y702575D01*
X661900Y689325D02*
X658900Y689325D01*
X658900Y692175D02*
X661900Y692175D01*
X661900Y695025D02*
X658900Y695025D01*
X658900Y697875D02*
X661900Y697875D01*
X661900Y700725D02*
X658900Y700725D01*
X649200Y702575D02*
X649200Y686475D01*
X646200Y686475D01*
X646200Y702575D01*
X649200Y702575D01*
X649200Y689325D02*
X646200Y689325D01*
X646200Y692175D02*
X649200Y692175D01*
X649200Y695025D02*
X646200Y695025D01*
X646200Y697875D02*
X649200Y697875D01*
X649200Y700725D02*
X646200Y700725D01*
D17*
X253111Y726758D03*
X253111Y701358D03*
X571500Y863600D03*
X546100Y863600D03*
D10*
X149700Y936700D02*
X149840Y936702D01*
X149980Y936708D01*
X150120Y936718D01*
X150260Y936731D01*
X150399Y936749D01*
X150538Y936771D01*
X150675Y936796D01*
X150813Y936825D01*
X150949Y936858D01*
X151084Y936895D01*
X151218Y936936D01*
X151351Y936981D01*
X151483Y937029D01*
X151613Y937081D01*
X151742Y937136D01*
X151869Y937195D01*
X151995Y937258D01*
X152119Y937324D01*
X152240Y937393D01*
X152360Y937466D01*
X152478Y937543D01*
X152593Y937622D01*
X152707Y937705D01*
X152817Y937791D01*
X152926Y937880D01*
X153032Y937972D01*
X153135Y938067D01*
X153236Y938164D01*
X153333Y938265D01*
X153428Y938368D01*
X153520Y938474D01*
X153609Y938583D01*
X153695Y938693D01*
X153778Y938807D01*
X153857Y938922D01*
X153934Y939040D01*
X154007Y939160D01*
X154076Y939281D01*
X154142Y939405D01*
X154205Y939531D01*
X154264Y939658D01*
X154319Y939787D01*
X154371Y939917D01*
X154419Y940049D01*
X154464Y940182D01*
X154505Y940316D01*
X154542Y940451D01*
X154575Y940587D01*
X154604Y940725D01*
X154629Y940862D01*
X154651Y941001D01*
X154669Y941140D01*
X154682Y941280D01*
X154692Y941420D01*
X154698Y941560D01*
X154700Y941700D01*
X154698Y941840D01*
X154692Y941980D01*
X154682Y942120D01*
X154669Y942260D01*
X154651Y942399D01*
X154629Y942538D01*
X154604Y942675D01*
X154575Y942813D01*
X154542Y942949D01*
X154505Y943084D01*
X154464Y943218D01*
X154419Y943351D01*
X154371Y943483D01*
X154319Y943613D01*
X154264Y943742D01*
X154205Y943869D01*
X154142Y943995D01*
X154076Y944119D01*
X154007Y944240D01*
X153934Y944360D01*
X153857Y944478D01*
X153778Y944593D01*
X153695Y944707D01*
X153609Y944817D01*
X153520Y944926D01*
X153428Y945032D01*
X153333Y945135D01*
X153236Y945236D01*
X153135Y945333D01*
X153032Y945428D01*
X152926Y945520D01*
X152817Y945609D01*
X152707Y945695D01*
X152593Y945778D01*
X152478Y945857D01*
X152360Y945934D01*
X152240Y946007D01*
X152119Y946076D01*
X151995Y946142D01*
X151869Y946205D01*
X151742Y946264D01*
X151613Y946319D01*
X151483Y946371D01*
X151351Y946419D01*
X151218Y946464D01*
X151084Y946505D01*
X150949Y946542D01*
X150813Y946575D01*
X150675Y946604D01*
X150538Y946629D01*
X150399Y946651D01*
X150260Y946669D01*
X150120Y946682D01*
X149980Y946692D01*
X149840Y946698D01*
X149700Y946700D01*
X129700Y946700D02*
X129560Y946698D01*
X129420Y946692D01*
X129280Y946682D01*
X129140Y946669D01*
X129001Y946651D01*
X128862Y946629D01*
X128725Y946604D01*
X128587Y946575D01*
X128451Y946542D01*
X128316Y946505D01*
X128182Y946464D01*
X128049Y946419D01*
X127917Y946371D01*
X127787Y946319D01*
X127658Y946264D01*
X127531Y946205D01*
X127405Y946142D01*
X127281Y946076D01*
X127160Y946007D01*
X127040Y945934D01*
X126922Y945857D01*
X126807Y945778D01*
X126693Y945695D01*
X126583Y945609D01*
X126474Y945520D01*
X126368Y945428D01*
X126265Y945333D01*
X126164Y945236D01*
X126067Y945135D01*
X125972Y945032D01*
X125880Y944926D01*
X125791Y944817D01*
X125705Y944707D01*
X125622Y944593D01*
X125543Y944478D01*
X125466Y944360D01*
X125393Y944240D01*
X125324Y944119D01*
X125258Y943995D01*
X125195Y943869D01*
X125136Y943742D01*
X125081Y943613D01*
X125029Y943483D01*
X124981Y943351D01*
X124936Y943218D01*
X124895Y943084D01*
X124858Y942949D01*
X124825Y942813D01*
X124796Y942675D01*
X124771Y942538D01*
X124749Y942399D01*
X124731Y942260D01*
X124718Y942120D01*
X124708Y941980D01*
X124702Y941840D01*
X124700Y941700D01*
X124702Y941560D01*
X124708Y941420D01*
X124718Y941280D01*
X124731Y941140D01*
X124749Y941001D01*
X124771Y940862D01*
X124796Y940725D01*
X124825Y940587D01*
X124858Y940451D01*
X124895Y940316D01*
X124936Y940182D01*
X124981Y940049D01*
X125029Y939917D01*
X125081Y939787D01*
X125136Y939658D01*
X125195Y939531D01*
X125258Y939405D01*
X125324Y939281D01*
X125393Y939160D01*
X125466Y939040D01*
X125543Y938922D01*
X125622Y938807D01*
X125705Y938693D01*
X125791Y938583D01*
X125880Y938474D01*
X125972Y938368D01*
X126067Y938265D01*
X126164Y938164D01*
X126265Y938067D01*
X126368Y937972D01*
X126474Y937880D01*
X126583Y937791D01*
X126693Y937705D01*
X126807Y937622D01*
X126922Y937543D01*
X127040Y937466D01*
X127160Y937393D01*
X127281Y937324D01*
X127405Y937258D01*
X127531Y937195D01*
X127658Y937136D01*
X127787Y937081D01*
X127917Y937029D01*
X128049Y936981D01*
X128182Y936936D01*
X128316Y936895D01*
X128451Y936858D01*
X128587Y936825D01*
X128725Y936796D01*
X128862Y936771D01*
X129001Y936749D01*
X129140Y936731D01*
X129280Y936718D01*
X129420Y936708D01*
X129560Y936702D01*
X129700Y936700D01*
X149700Y936700D01*
X149700Y946700D02*
X129700Y946700D01*
X94700Y894700D02*
X94698Y894560D01*
X94692Y894420D01*
X94682Y894280D01*
X94669Y894140D01*
X94651Y894001D01*
X94629Y893862D01*
X94604Y893725D01*
X94575Y893587D01*
X94542Y893451D01*
X94505Y893316D01*
X94464Y893182D01*
X94419Y893049D01*
X94371Y892917D01*
X94319Y892787D01*
X94264Y892658D01*
X94205Y892531D01*
X94142Y892405D01*
X94076Y892281D01*
X94007Y892160D01*
X93934Y892040D01*
X93857Y891922D01*
X93778Y891807D01*
X93695Y891693D01*
X93609Y891583D01*
X93520Y891474D01*
X93428Y891368D01*
X93333Y891265D01*
X93236Y891164D01*
X93135Y891067D01*
X93032Y890972D01*
X92926Y890880D01*
X92817Y890791D01*
X92707Y890705D01*
X92593Y890622D01*
X92478Y890543D01*
X92360Y890466D01*
X92240Y890393D01*
X92119Y890324D01*
X91995Y890258D01*
X91869Y890195D01*
X91742Y890136D01*
X91613Y890081D01*
X91483Y890029D01*
X91351Y889981D01*
X91218Y889936D01*
X91084Y889895D01*
X90949Y889858D01*
X90813Y889825D01*
X90675Y889796D01*
X90538Y889771D01*
X90399Y889749D01*
X90260Y889731D01*
X90120Y889718D01*
X89980Y889708D01*
X89840Y889702D01*
X89700Y889700D01*
X89560Y889702D01*
X89420Y889708D01*
X89280Y889718D01*
X89140Y889731D01*
X89001Y889749D01*
X88862Y889771D01*
X88725Y889796D01*
X88587Y889825D01*
X88451Y889858D01*
X88316Y889895D01*
X88182Y889936D01*
X88049Y889981D01*
X87917Y890029D01*
X87787Y890081D01*
X87658Y890136D01*
X87531Y890195D01*
X87405Y890258D01*
X87281Y890324D01*
X87160Y890393D01*
X87040Y890466D01*
X86922Y890543D01*
X86807Y890622D01*
X86693Y890705D01*
X86583Y890791D01*
X86474Y890880D01*
X86368Y890972D01*
X86265Y891067D01*
X86164Y891164D01*
X86067Y891265D01*
X85972Y891368D01*
X85880Y891474D01*
X85791Y891583D01*
X85705Y891693D01*
X85622Y891807D01*
X85543Y891922D01*
X85466Y892040D01*
X85393Y892160D01*
X85324Y892281D01*
X85258Y892405D01*
X85195Y892531D01*
X85136Y892658D01*
X85081Y892787D01*
X85029Y892917D01*
X84981Y893049D01*
X84936Y893182D01*
X84895Y893316D01*
X84858Y893451D01*
X84825Y893587D01*
X84796Y893725D01*
X84771Y893862D01*
X84749Y894001D01*
X84731Y894140D01*
X84718Y894280D01*
X84708Y894420D01*
X84702Y894560D01*
X84700Y894700D01*
X84700Y917700D02*
X84702Y917840D01*
X84708Y917980D01*
X84718Y918120D01*
X84731Y918260D01*
X84749Y918399D01*
X84771Y918538D01*
X84796Y918675D01*
X84825Y918813D01*
X84858Y918949D01*
X84895Y919084D01*
X84936Y919218D01*
X84981Y919351D01*
X85029Y919483D01*
X85081Y919613D01*
X85136Y919742D01*
X85195Y919869D01*
X85258Y919995D01*
X85324Y920119D01*
X85393Y920240D01*
X85466Y920360D01*
X85543Y920478D01*
X85622Y920593D01*
X85705Y920707D01*
X85791Y920817D01*
X85880Y920926D01*
X85972Y921032D01*
X86067Y921135D01*
X86164Y921236D01*
X86265Y921333D01*
X86368Y921428D01*
X86474Y921520D01*
X86583Y921609D01*
X86693Y921695D01*
X86807Y921778D01*
X86922Y921857D01*
X87040Y921934D01*
X87160Y922007D01*
X87281Y922076D01*
X87405Y922142D01*
X87531Y922205D01*
X87658Y922264D01*
X87787Y922319D01*
X87917Y922371D01*
X88049Y922419D01*
X88182Y922464D01*
X88316Y922505D01*
X88451Y922542D01*
X88587Y922575D01*
X88725Y922604D01*
X88862Y922629D01*
X89001Y922651D01*
X89140Y922669D01*
X89280Y922682D01*
X89420Y922692D01*
X89560Y922698D01*
X89700Y922700D01*
X89840Y922698D01*
X89980Y922692D01*
X90120Y922682D01*
X90260Y922669D01*
X90399Y922651D01*
X90538Y922629D01*
X90675Y922604D01*
X90813Y922575D01*
X90949Y922542D01*
X91084Y922505D01*
X91218Y922464D01*
X91351Y922419D01*
X91483Y922371D01*
X91613Y922319D01*
X91742Y922264D01*
X91869Y922205D01*
X91995Y922142D01*
X92119Y922076D01*
X92240Y922007D01*
X92360Y921934D01*
X92478Y921857D01*
X92593Y921778D01*
X92707Y921695D01*
X92817Y921609D01*
X92926Y921520D01*
X93032Y921428D01*
X93135Y921333D01*
X93236Y921236D01*
X93333Y921135D01*
X93428Y921032D01*
X93520Y920926D01*
X93609Y920817D01*
X93695Y920707D01*
X93778Y920593D01*
X93857Y920478D01*
X93934Y920360D01*
X94007Y920240D01*
X94076Y920119D01*
X94142Y919995D01*
X94205Y919869D01*
X94264Y919742D01*
X94319Y919613D01*
X94371Y919483D01*
X94419Y919351D01*
X94464Y919218D01*
X94505Y919084D01*
X94542Y918949D01*
X94575Y918813D01*
X94604Y918675D01*
X94629Y918538D01*
X94651Y918399D01*
X94669Y918260D01*
X94682Y918120D01*
X94692Y917980D01*
X94698Y917840D01*
X94700Y917700D01*
X84700Y917700D02*
X84700Y894700D01*
X94700Y894700D02*
X94700Y917700D01*
X150700Y876700D02*
X150840Y876698D01*
X150980Y876692D01*
X151120Y876682D01*
X151260Y876669D01*
X151399Y876651D01*
X151538Y876629D01*
X151675Y876604D01*
X151813Y876575D01*
X151949Y876542D01*
X152084Y876505D01*
X152218Y876464D01*
X152351Y876419D01*
X152483Y876371D01*
X152613Y876319D01*
X152742Y876264D01*
X152869Y876205D01*
X152995Y876142D01*
X153119Y876076D01*
X153240Y876007D01*
X153360Y875934D01*
X153478Y875857D01*
X153593Y875778D01*
X153707Y875695D01*
X153817Y875609D01*
X153926Y875520D01*
X154032Y875428D01*
X154135Y875333D01*
X154236Y875236D01*
X154333Y875135D01*
X154428Y875032D01*
X154520Y874926D01*
X154609Y874817D01*
X154695Y874707D01*
X154778Y874593D01*
X154857Y874478D01*
X154934Y874360D01*
X155007Y874240D01*
X155076Y874119D01*
X155142Y873995D01*
X155205Y873869D01*
X155264Y873742D01*
X155319Y873613D01*
X155371Y873483D01*
X155419Y873351D01*
X155464Y873218D01*
X155505Y873084D01*
X155542Y872949D01*
X155575Y872813D01*
X155604Y872675D01*
X155629Y872538D01*
X155651Y872399D01*
X155669Y872260D01*
X155682Y872120D01*
X155692Y871980D01*
X155698Y871840D01*
X155700Y871700D01*
X155698Y871560D01*
X155692Y871420D01*
X155682Y871280D01*
X155669Y871140D01*
X155651Y871001D01*
X155629Y870862D01*
X155604Y870725D01*
X155575Y870587D01*
X155542Y870451D01*
X155505Y870316D01*
X155464Y870182D01*
X155419Y870049D01*
X155371Y869917D01*
X155319Y869787D01*
X155264Y869658D01*
X155205Y869531D01*
X155142Y869405D01*
X155076Y869281D01*
X155007Y869160D01*
X154934Y869040D01*
X154857Y868922D01*
X154778Y868807D01*
X154695Y868693D01*
X154609Y868583D01*
X154520Y868474D01*
X154428Y868368D01*
X154333Y868265D01*
X154236Y868164D01*
X154135Y868067D01*
X154032Y867972D01*
X153926Y867880D01*
X153817Y867791D01*
X153707Y867705D01*
X153593Y867622D01*
X153478Y867543D01*
X153360Y867466D01*
X153240Y867393D01*
X153119Y867324D01*
X152995Y867258D01*
X152869Y867195D01*
X152742Y867136D01*
X152613Y867081D01*
X152483Y867029D01*
X152351Y866981D01*
X152218Y866936D01*
X152084Y866895D01*
X151949Y866858D01*
X151813Y866825D01*
X151675Y866796D01*
X151538Y866771D01*
X151399Y866749D01*
X151260Y866731D01*
X151120Y866718D01*
X150980Y866708D01*
X150840Y866702D01*
X150700Y866700D01*
X128700Y866700D02*
X128560Y866702D01*
X128420Y866708D01*
X128280Y866718D01*
X128140Y866731D01*
X128001Y866749D01*
X127862Y866771D01*
X127725Y866796D01*
X127587Y866825D01*
X127451Y866858D01*
X127316Y866895D01*
X127182Y866936D01*
X127049Y866981D01*
X126917Y867029D01*
X126787Y867081D01*
X126658Y867136D01*
X126531Y867195D01*
X126405Y867258D01*
X126281Y867324D01*
X126160Y867393D01*
X126040Y867466D01*
X125922Y867543D01*
X125807Y867622D01*
X125693Y867705D01*
X125583Y867791D01*
X125474Y867880D01*
X125368Y867972D01*
X125265Y868067D01*
X125164Y868164D01*
X125067Y868265D01*
X124972Y868368D01*
X124880Y868474D01*
X124791Y868583D01*
X124705Y868693D01*
X124622Y868807D01*
X124543Y868922D01*
X124466Y869040D01*
X124393Y869160D01*
X124324Y869281D01*
X124258Y869405D01*
X124195Y869531D01*
X124136Y869658D01*
X124081Y869787D01*
X124029Y869917D01*
X123981Y870049D01*
X123936Y870182D01*
X123895Y870316D01*
X123858Y870451D01*
X123825Y870587D01*
X123796Y870725D01*
X123771Y870862D01*
X123749Y871001D01*
X123731Y871140D01*
X123718Y871280D01*
X123708Y871420D01*
X123702Y871560D01*
X123700Y871700D01*
X123702Y871840D01*
X123708Y871980D01*
X123718Y872120D01*
X123731Y872260D01*
X123749Y872399D01*
X123771Y872538D01*
X123796Y872675D01*
X123825Y872813D01*
X123858Y872949D01*
X123895Y873084D01*
X123936Y873218D01*
X123981Y873351D01*
X124029Y873483D01*
X124081Y873613D01*
X124136Y873742D01*
X124195Y873869D01*
X124258Y873995D01*
X124324Y874119D01*
X124393Y874240D01*
X124466Y874360D01*
X124543Y874478D01*
X124622Y874593D01*
X124705Y874707D01*
X124791Y874817D01*
X124880Y874926D01*
X124972Y875032D01*
X125067Y875135D01*
X125164Y875236D01*
X125265Y875333D01*
X125368Y875428D01*
X125474Y875520D01*
X125583Y875609D01*
X125693Y875695D01*
X125807Y875778D01*
X125922Y875857D01*
X126040Y875934D01*
X126160Y876007D01*
X126281Y876076D01*
X126405Y876142D01*
X126531Y876205D01*
X126658Y876264D01*
X126787Y876319D01*
X126917Y876371D01*
X127049Y876419D01*
X127182Y876464D01*
X127316Y876505D01*
X127451Y876542D01*
X127587Y876575D01*
X127725Y876604D01*
X127862Y876629D01*
X128001Y876651D01*
X128140Y876669D01*
X128280Y876682D01*
X128420Y876692D01*
X128560Y876698D01*
X128700Y876700D01*
X150700Y876700D01*
X150700Y866700D02*
X128700Y866700D01*
D32*
X129700Y941700D02*
X149700Y941700D01*
X149700Y871700D02*
X129700Y871700D01*
X89700Y896200D02*
X89700Y916200D01*
D33*
X426835Y37825D03*
X361835Y37825D03*
X426835Y82825D03*
X361835Y82825D03*
X515735Y37825D03*
X450735Y37825D03*
X515735Y82825D03*
X450735Y82825D03*
X604635Y37825D03*
X539635Y37825D03*
X604635Y82825D03*
X539635Y82825D03*
D34*
X355600Y254000D03*
D35*
X246063Y309563D03*
D34*
X292100Y673100D03*
D17*
X427038Y387350D03*
X401638Y387350D03*
X376238Y387350D03*
X350838Y387350D03*
D27*
X532384Y795360D03*
X532384Y774360D03*
D14*
X532384Y834254D03*
X532384Y817254D03*
D36*
X152718Y713486D03*
X216218Y713486D03*
D15*
X201828Y781114D03*
X220828Y781114D03*
D36*
X435864Y786003D03*
X499364Y786003D03*
D15*
X433934Y818642D03*
X414934Y818642D03*
D36*
X245047Y782003D03*
X308547Y782003D03*
D15*
X286093Y738442D03*
X305093Y738442D03*
D30*
X61722Y664972D03*
X61722Y690372D03*
X61722Y715772D03*
D37*
X70784Y358462D03*
X28784Y358462D03*
X28784Y303462D03*
X70784Y303462D03*
D38*
X650494Y796544D02*
X650494Y808736D01*
X625094Y808736D02*
X625094Y796544D01*
X599694Y796544D02*
X599694Y808736D01*
D39*
X720400Y534700D03*
X715400Y534700D03*
X710400Y534700D03*
X705400Y534700D03*
X700400Y534700D03*
X695400Y534700D03*
X690400Y534700D03*
X685400Y534700D03*
X680400Y534700D03*
X675400Y534700D03*
X670400Y534700D03*
X665400Y534700D03*
X660400Y534700D03*
X655400Y534700D03*
X650400Y534700D03*
X645400Y534700D03*
X640400Y534700D03*
X635400Y534700D03*
X630400Y534700D03*
X625400Y534700D03*
X620400Y534700D03*
X615400Y534700D03*
X610400Y534700D03*
X605400Y534700D03*
X600400Y534700D03*
D40*
X582900Y517200D03*
X582900Y512200D03*
X582900Y507200D03*
X582900Y502200D03*
X582900Y497200D03*
X582900Y492200D03*
X582900Y487200D03*
X582900Y482200D03*
X582900Y477200D03*
X582900Y472200D03*
X582900Y467200D03*
X582900Y462200D03*
X582900Y457200D03*
X582900Y452200D03*
X582900Y447200D03*
X582900Y442200D03*
X582900Y437200D03*
X582900Y432200D03*
X582900Y427200D03*
X582900Y422200D03*
X582900Y417200D03*
X582900Y412200D03*
X582900Y407200D03*
X582900Y402200D03*
X582900Y397200D03*
D39*
X600400Y379700D03*
X605400Y379700D03*
X610400Y379700D03*
X615400Y379700D03*
X620400Y379700D03*
X625400Y379700D03*
X630400Y379700D03*
X635400Y379700D03*
X640400Y379700D03*
X645400Y379700D03*
X650400Y379700D03*
X655400Y379700D03*
X660400Y379700D03*
X665400Y379700D03*
X670400Y379700D03*
X675400Y379700D03*
X680400Y379700D03*
X685400Y379700D03*
X690400Y379700D03*
X695400Y379700D03*
X700400Y379700D03*
X705400Y379700D03*
X710400Y379700D03*
X715400Y379700D03*
X720400Y379700D03*
D40*
X737900Y397200D03*
X737900Y402200D03*
X737900Y407200D03*
X737900Y412200D03*
X737900Y417200D03*
X737900Y422200D03*
X737900Y427200D03*
X737900Y432200D03*
X737900Y437200D03*
X737900Y442200D03*
X737900Y447200D03*
X737900Y452200D03*
X737900Y457200D03*
X737900Y462200D03*
X737900Y467200D03*
X737900Y472200D03*
X737900Y477200D03*
X737900Y482200D03*
X737900Y487200D03*
X737900Y492200D03*
X737900Y497200D03*
X737900Y502200D03*
X737900Y507200D03*
X737900Y512200D03*
X737900Y517200D03*
D15*
X558444Y531495D03*
X577444Y531495D03*
D14*
X749300Y555600D03*
X749300Y536600D03*
X577850Y361975D03*
X577850Y380975D03*
D15*
X781025Y395288D03*
X762025Y395288D03*
D33*
X477000Y136250D03*
X412000Y136250D03*
X477000Y181250D03*
X412000Y181250D03*
D14*
X495300Y186300D03*
X495300Y169300D03*
D17*
X733425Y344488D03*
X758825Y344488D03*
X784225Y344488D03*
X809625Y344488D03*
X733425Y290513D03*
X758825Y290513D03*
X784225Y290513D03*
X809625Y290513D03*
D41*
X75100Y29700D03*
X95100Y29700D03*
X115100Y29700D03*
X135100Y29700D03*
X155100Y29700D03*
X175100Y29700D03*
X195100Y29700D03*
X215100Y29700D03*
X235100Y29700D03*
X255100Y29700D03*
X255100Y249700D03*
X235100Y249700D03*
X215100Y249700D03*
X195100Y249700D03*
X175100Y249700D03*
X155100Y249700D03*
X135100Y249700D03*
X115100Y249700D03*
X95100Y249700D03*
X75100Y249700D03*
D14*
X496888Y252975D03*
X496888Y235975D03*
D33*
X477000Y212450D03*
X412000Y212450D03*
X477000Y257450D03*
X412000Y257450D03*
D30*
X520700Y127000D03*
X520700Y152400D03*
X520700Y177800D03*
X520700Y203200D03*
X520700Y228600D03*
X520700Y254000D03*
D38*
X514096Y673100D02*
X501904Y673100D01*
X501904Y647700D02*
X514096Y647700D01*
X514096Y622300D02*
X501904Y622300D01*
X501904Y596900D02*
X514096Y596900D01*
X578104Y596900D02*
X590296Y596900D01*
X590296Y622300D02*
X578104Y622300D01*
X578104Y647700D02*
X590296Y647700D01*
X590296Y673100D02*
X578104Y673100D01*
X628904Y254000D02*
X641096Y254000D01*
X641096Y228600D02*
X628904Y228600D01*
X628904Y203200D02*
X641096Y203200D01*
X641096Y177800D02*
X628904Y177800D01*
X628904Y152400D02*
X641096Y152400D01*
X641096Y127000D02*
X628904Y127000D01*
X628904Y101600D02*
X641096Y101600D01*
X641096Y76200D02*
X628904Y76200D01*
X628904Y50800D02*
X641096Y50800D01*
D14*
X617728Y851036D03*
X617728Y868036D03*
D21*
X617728Y890016D02*
X617728Y905256D01*
X643128Y905256D02*
X643128Y890016D01*
X668528Y890016D02*
X668528Y905256D01*
D28*
X670052Y954024D02*
X670052Y973836D01*
X619760Y973836D02*
X619760Y954024D01*
D14*
X638048Y868036D03*
X638048Y851036D03*
X884428Y919299D03*
X884428Y936299D03*
D21*
X884047Y963232D02*
X884047Y978472D01*
X858647Y978472D02*
X858647Y963232D01*
X833247Y963232D02*
X833247Y978472D01*
D28*
X773303Y973709D02*
X773303Y953897D01*
X723011Y953897D02*
X723011Y973709D01*
D14*
X865061Y936299D03*
X865061Y919299D03*
D15*
X762025Y377825D03*
X781025Y377825D03*
D42*
X674125Y615950D03*
X691125Y615950D03*
X659375Y615950D03*
X642375Y615950D03*
D43*
X103188Y209868D03*
X103188Y225108D03*
D44*
X103188Y217488D03*
D43*
X79375Y209868D03*
X79375Y225108D03*
D44*
X79375Y217488D03*
D14*
X312738Y131200D03*
X312738Y148200D03*
D45*
X395400Y109900D03*
X395400Y131400D03*
X353900Y109900D03*
X353900Y131400D03*
D46*
X642620Y579438D03*
X690880Y579438D03*
D47*
X868363Y592138D03*
X842963Y592138D03*
X817563Y592138D03*
X893763Y592138D03*
X919163Y592138D03*
D48*
X847725Y30163D03*
D49*
X847725Y55563D03*
X847725Y80963D03*
X847725Y106363D03*
X847725Y131763D03*
X695325Y131763D03*
X695325Y106363D03*
X695325Y80963D03*
X695325Y55563D03*
X695325Y30163D03*
D48*
X847725Y161925D03*
D49*
X847725Y187325D03*
X847725Y212725D03*
X847725Y238125D03*
X847725Y263525D03*
X695325Y263525D03*
X695325Y238125D03*
X695325Y212725D03*
X695325Y187325D03*
X695325Y161925D03*
D45*
X927213Y116250D03*
X927213Y137750D03*
X885713Y116250D03*
X885713Y137750D03*
D14*
X396875Y291075D03*
X396875Y274075D03*
X376238Y291075D03*
X376238Y274075D03*
D50*
X44864Y61331D03*
X44864Y950331D03*
X946564Y61331D03*
X946564Y950331D03*
M02*
