G04 EAGLE Gerber X2 export*
%TF.Part,Single*%
%TF.FileFunction,Other,Top Layer*%
%TF.FilePolarity,Positive*%
%TF.GenerationSoftware,Autodesk,EAGLE,9.1.1*%
%TF.CreationDate,2018-08-10T14:31:17Z*%
G75*
%MOMM*%
%FSLAX34Y34*%
%LPD*%
%AMOC8*
5,1,8,0,0,1.08239X$1,22.5*%
G01*
%ADD10C,0.001000*%
%ADD11C,1.050000*%
%ADD12C,1.800000*%
%ADD13R,1.500000X1.300000*%
%ADD14P,1.484606X8X202.500000*%
%ADD15R,2.209800X0.609600*%
%ADD16C,1.800000*%
%ADD17C,1.219200*%
%ADD18R,1.130000X2.440000*%
%ADD19R,0.525000X0.500000*%
%ADD20R,0.250000X0.500000*%
%ADD21R,2.100000X2.100000*%
%ADD22P,1.484606X8X22.500000*%
%ADD23C,1.524000*%
%ADD24R,1.300000X1.500000*%
%ADD25R,1.200000X1.200000*%
%ADD26C,1.981200*%
%ADD27C,0.654800*%
%ADD28C,0.609600*%
%ADD29C,0.330200*%
%ADD30C,0.330200*%
%ADD31C,0.609600*%
%ADD32C,0.812800*%
%ADD33C,0.508000*%
%ADD34C,0.812800*%
%ADD35C,0.754800*%
%ADD36C,0.804800*%
%ADD37C,2.286000*%
%ADD38C,2.286000*%
%ADD39C,2.476500*%
%ADD40C,2.667000*%
%ADD41C,8.000000*%


D10*
X-100000Y0D02*
X1400000Y0D01*
X1400000Y1947239D01*
X-100000Y1947239D01*
X-100000Y0D01*
X560000Y973620D02*
X560027Y975829D01*
X560108Y978036D01*
X560244Y980241D01*
X560433Y982442D01*
X560677Y984637D01*
X560974Y986826D01*
X561325Y989007D01*
X561729Y991178D01*
X562187Y993339D01*
X562697Y995488D01*
X563260Y997624D01*
X563875Y999746D01*
X564542Y1001851D01*
X565261Y1003940D01*
X566031Y1006011D01*
X566851Y1008062D01*
X567721Y1010092D01*
X568641Y1012100D01*
X569610Y1014085D01*
X570627Y1016046D01*
X571692Y1017981D01*
X572804Y1019889D01*
X573963Y1021770D01*
X575168Y1023621D01*
X576417Y1025443D01*
X577711Y1027233D01*
X579049Y1028991D01*
X580429Y1030715D01*
X581851Y1032406D01*
X583314Y1034060D01*
X584818Y1035679D01*
X586360Y1037260D01*
X587941Y1038802D01*
X589560Y1040306D01*
X591214Y1041769D01*
X592905Y1043191D01*
X594629Y1044571D01*
X596387Y1045909D01*
X598177Y1047203D01*
X599999Y1048452D01*
X601850Y1049657D01*
X603731Y1050816D01*
X605639Y1051928D01*
X607574Y1052993D01*
X609535Y1054010D01*
X611520Y1054979D01*
X613528Y1055899D01*
X615558Y1056769D01*
X617609Y1057589D01*
X619680Y1058359D01*
X621769Y1059078D01*
X623874Y1059745D01*
X625996Y1060360D01*
X628132Y1060923D01*
X630281Y1061433D01*
X632442Y1061891D01*
X634613Y1062295D01*
X636794Y1062646D01*
X638983Y1062943D01*
X641178Y1063187D01*
X643379Y1063376D01*
X645584Y1063512D01*
X647791Y1063593D01*
X650000Y1063620D01*
X652209Y1063593D01*
X654416Y1063512D01*
X656621Y1063376D01*
X658822Y1063187D01*
X661017Y1062943D01*
X663206Y1062646D01*
X665387Y1062295D01*
X667558Y1061891D01*
X669719Y1061433D01*
X671868Y1060923D01*
X674004Y1060360D01*
X676126Y1059745D01*
X678231Y1059078D01*
X680320Y1058359D01*
X682391Y1057589D01*
X684442Y1056769D01*
X686472Y1055899D01*
X688480Y1054979D01*
X690465Y1054010D01*
X692426Y1052993D01*
X694361Y1051928D01*
X696269Y1050816D01*
X698150Y1049657D01*
X700001Y1048452D01*
X701823Y1047203D01*
X703613Y1045909D01*
X705371Y1044571D01*
X707095Y1043191D01*
X708786Y1041769D01*
X710440Y1040306D01*
X712059Y1038802D01*
X713640Y1037260D01*
X715182Y1035679D01*
X716686Y1034060D01*
X718149Y1032406D01*
X719571Y1030715D01*
X720951Y1028991D01*
X722289Y1027233D01*
X723583Y1025443D01*
X724832Y1023621D01*
X726037Y1021770D01*
X727196Y1019889D01*
X728308Y1017981D01*
X729373Y1016046D01*
X730390Y1014085D01*
X731359Y1012100D01*
X732279Y1010092D01*
X733149Y1008062D01*
X733969Y1006011D01*
X734739Y1003940D01*
X735458Y1001851D01*
X736125Y999746D01*
X736740Y997624D01*
X737303Y995488D01*
X737813Y993339D01*
X738271Y991178D01*
X738675Y989007D01*
X739026Y986826D01*
X739323Y984637D01*
X739567Y982442D01*
X739756Y980241D01*
X739892Y978036D01*
X739973Y975829D01*
X740000Y973620D01*
X739973Y971411D01*
X739892Y969204D01*
X739756Y966999D01*
X739567Y964798D01*
X739323Y962603D01*
X739026Y960414D01*
X738675Y958233D01*
X738271Y956062D01*
X737813Y953901D01*
X737303Y951752D01*
X736740Y949616D01*
X736125Y947494D01*
X735458Y945389D01*
X734739Y943300D01*
X733969Y941229D01*
X733149Y939178D01*
X732279Y937148D01*
X731359Y935140D01*
X730390Y933155D01*
X729373Y931194D01*
X728308Y929259D01*
X727196Y927351D01*
X726037Y925470D01*
X724832Y923619D01*
X723583Y921797D01*
X722289Y920007D01*
X720951Y918249D01*
X719571Y916525D01*
X718149Y914834D01*
X716686Y913180D01*
X715182Y911561D01*
X713640Y909980D01*
X712059Y908438D01*
X710440Y906934D01*
X708786Y905471D01*
X707095Y904049D01*
X705371Y902669D01*
X703613Y901331D01*
X701823Y900037D01*
X700001Y898788D01*
X698150Y897583D01*
X696269Y896424D01*
X694361Y895312D01*
X692426Y894247D01*
X690465Y893230D01*
X688480Y892261D01*
X686472Y891341D01*
X684442Y890471D01*
X682391Y889651D01*
X680320Y888881D01*
X678231Y888162D01*
X676126Y887495D01*
X674004Y886880D01*
X671868Y886317D01*
X669719Y885807D01*
X667558Y885349D01*
X665387Y884945D01*
X663206Y884594D01*
X661017Y884297D01*
X658822Y884053D01*
X656621Y883864D01*
X654416Y883728D01*
X652209Y883647D01*
X650000Y883620D01*
X647791Y883647D01*
X645584Y883728D01*
X643379Y883864D01*
X641178Y884053D01*
X638983Y884297D01*
X636794Y884594D01*
X634613Y884945D01*
X632442Y885349D01*
X630281Y885807D01*
X628132Y886317D01*
X625996Y886880D01*
X623874Y887495D01*
X621769Y888162D01*
X619680Y888881D01*
X617609Y889651D01*
X615558Y890471D01*
X613528Y891341D01*
X611520Y892261D01*
X609535Y893230D01*
X607574Y894247D01*
X605639Y895312D01*
X603731Y896424D01*
X601850Y897583D01*
X599999Y898788D01*
X598177Y900037D01*
X596387Y901331D01*
X594629Y902669D01*
X592905Y904049D01*
X591214Y905471D01*
X589560Y906934D01*
X587941Y908438D01*
X586360Y909980D01*
X584818Y911561D01*
X583314Y913180D01*
X581851Y914834D01*
X580429Y916525D01*
X579049Y918249D01*
X577711Y920007D01*
X576417Y921797D01*
X575168Y923619D01*
X573963Y925470D01*
X572804Y927351D01*
X571692Y929259D01*
X570627Y931194D01*
X569610Y933155D01*
X568641Y935140D01*
X567721Y937148D01*
X566851Y939178D01*
X566031Y941229D01*
X565261Y943300D01*
X564542Y945389D01*
X563875Y947494D01*
X563260Y949616D01*
X562697Y951752D01*
X562187Y953901D01*
X561729Y956062D01*
X561325Y958233D01*
X560974Y960414D01*
X560677Y962603D01*
X560433Y964798D01*
X560244Y966999D01*
X560108Y969204D01*
X560027Y971411D01*
X560000Y973620D01*
X560000Y1677239D02*
X560027Y1679448D01*
X560108Y1681655D01*
X560244Y1683860D01*
X560433Y1686061D01*
X560677Y1688256D01*
X560974Y1690445D01*
X561325Y1692626D01*
X561729Y1694797D01*
X562187Y1696958D01*
X562697Y1699107D01*
X563260Y1701243D01*
X563875Y1703365D01*
X564542Y1705470D01*
X565261Y1707559D01*
X566031Y1709630D01*
X566851Y1711681D01*
X567721Y1713711D01*
X568641Y1715719D01*
X569610Y1717704D01*
X570627Y1719665D01*
X571692Y1721600D01*
X572804Y1723508D01*
X573963Y1725389D01*
X575168Y1727240D01*
X576417Y1729062D01*
X577711Y1730852D01*
X579049Y1732610D01*
X580429Y1734334D01*
X581851Y1736025D01*
X583314Y1737679D01*
X584818Y1739298D01*
X586360Y1740879D01*
X587941Y1742421D01*
X589560Y1743925D01*
X591214Y1745388D01*
X592905Y1746810D01*
X594629Y1748190D01*
X596387Y1749528D01*
X598177Y1750822D01*
X599999Y1752071D01*
X601850Y1753276D01*
X603731Y1754435D01*
X605639Y1755547D01*
X607574Y1756612D01*
X609535Y1757629D01*
X611520Y1758598D01*
X613528Y1759518D01*
X615558Y1760388D01*
X617609Y1761208D01*
X619680Y1761978D01*
X621769Y1762697D01*
X623874Y1763364D01*
X625996Y1763979D01*
X628132Y1764542D01*
X630281Y1765052D01*
X632442Y1765510D01*
X634613Y1765914D01*
X636794Y1766265D01*
X638983Y1766562D01*
X641178Y1766806D01*
X643379Y1766995D01*
X645584Y1767131D01*
X647791Y1767212D01*
X650000Y1767239D01*
X652209Y1767212D01*
X654416Y1767131D01*
X656621Y1766995D01*
X658822Y1766806D01*
X661017Y1766562D01*
X663206Y1766265D01*
X665387Y1765914D01*
X667558Y1765510D01*
X669719Y1765052D01*
X671868Y1764542D01*
X674004Y1763979D01*
X676126Y1763364D01*
X678231Y1762697D01*
X680320Y1761978D01*
X682391Y1761208D01*
X684442Y1760388D01*
X686472Y1759518D01*
X688480Y1758598D01*
X690465Y1757629D01*
X692426Y1756612D01*
X694361Y1755547D01*
X696269Y1754435D01*
X698150Y1753276D01*
X700001Y1752071D01*
X701823Y1750822D01*
X703613Y1749528D01*
X705371Y1748190D01*
X707095Y1746810D01*
X708786Y1745388D01*
X710440Y1743925D01*
X712059Y1742421D01*
X713640Y1740879D01*
X715182Y1739298D01*
X716686Y1737679D01*
X718149Y1736025D01*
X719571Y1734334D01*
X720951Y1732610D01*
X722289Y1730852D01*
X723583Y1729062D01*
X724832Y1727240D01*
X726037Y1725389D01*
X727196Y1723508D01*
X728308Y1721600D01*
X729373Y1719665D01*
X730390Y1717704D01*
X731359Y1715719D01*
X732279Y1713711D01*
X733149Y1711681D01*
X733969Y1709630D01*
X734739Y1707559D01*
X735458Y1705470D01*
X736125Y1703365D01*
X736740Y1701243D01*
X737303Y1699107D01*
X737813Y1696958D01*
X738271Y1694797D01*
X738675Y1692626D01*
X739026Y1690445D01*
X739323Y1688256D01*
X739567Y1686061D01*
X739756Y1683860D01*
X739892Y1681655D01*
X739973Y1679448D01*
X740000Y1677239D01*
X739973Y1675030D01*
X739892Y1672823D01*
X739756Y1670618D01*
X739567Y1668417D01*
X739323Y1666222D01*
X739026Y1664033D01*
X738675Y1661852D01*
X738271Y1659681D01*
X737813Y1657520D01*
X737303Y1655371D01*
X736740Y1653235D01*
X736125Y1651113D01*
X735458Y1649008D01*
X734739Y1646919D01*
X733969Y1644848D01*
X733149Y1642797D01*
X732279Y1640767D01*
X731359Y1638759D01*
X730390Y1636774D01*
X729373Y1634813D01*
X728308Y1632878D01*
X727196Y1630970D01*
X726037Y1629089D01*
X724832Y1627238D01*
X723583Y1625416D01*
X722289Y1623626D01*
X720951Y1621868D01*
X719571Y1620144D01*
X718149Y1618453D01*
X716686Y1616799D01*
X715182Y1615180D01*
X713640Y1613599D01*
X712059Y1612057D01*
X710440Y1610553D01*
X708786Y1609090D01*
X707095Y1607668D01*
X705371Y1606288D01*
X703613Y1604950D01*
X701823Y1603656D01*
X700001Y1602407D01*
X698150Y1601202D01*
X696269Y1600043D01*
X694361Y1598931D01*
X692426Y1597866D01*
X690465Y1596849D01*
X688480Y1595880D01*
X686472Y1594960D01*
X684442Y1594090D01*
X682391Y1593270D01*
X680320Y1592500D01*
X678231Y1591781D01*
X676126Y1591114D01*
X674004Y1590499D01*
X671868Y1589936D01*
X669719Y1589426D01*
X667558Y1588968D01*
X665387Y1588564D01*
X663206Y1588213D01*
X661017Y1587916D01*
X658822Y1587672D01*
X656621Y1587483D01*
X654416Y1587347D01*
X652209Y1587266D01*
X650000Y1587239D01*
X647791Y1587266D01*
X645584Y1587347D01*
X643379Y1587483D01*
X641178Y1587672D01*
X638983Y1587916D01*
X636794Y1588213D01*
X634613Y1588564D01*
X632442Y1588968D01*
X630281Y1589426D01*
X628132Y1589936D01*
X625996Y1590499D01*
X623874Y1591114D01*
X621769Y1591781D01*
X619680Y1592500D01*
X617609Y1593270D01*
X615558Y1594090D01*
X613528Y1594960D01*
X611520Y1595880D01*
X609535Y1596849D01*
X607574Y1597866D01*
X605639Y1598931D01*
X603731Y1600043D01*
X601850Y1601202D01*
X599999Y1602407D01*
X598177Y1603656D01*
X596387Y1604950D01*
X594629Y1606288D01*
X592905Y1607668D01*
X591214Y1609090D01*
X589560Y1610553D01*
X587941Y1612057D01*
X586360Y1613599D01*
X584818Y1615180D01*
X583314Y1616799D01*
X581851Y1618453D01*
X580429Y1620144D01*
X579049Y1621868D01*
X577711Y1623626D01*
X576417Y1625416D01*
X575168Y1627238D01*
X573963Y1629089D01*
X572804Y1630970D01*
X571692Y1632878D01*
X570627Y1634813D01*
X569610Y1636774D01*
X568641Y1638759D01*
X567721Y1640767D01*
X566851Y1642797D01*
X566031Y1644848D01*
X565261Y1646919D01*
X564542Y1649008D01*
X563875Y1651113D01*
X563260Y1653235D01*
X562697Y1655371D01*
X562187Y1657520D01*
X561729Y1659681D01*
X561325Y1661852D01*
X560974Y1664033D01*
X560677Y1666222D01*
X560433Y1668417D01*
X560244Y1670618D01*
X560108Y1672823D01*
X560027Y1675030D01*
X560000Y1677239D01*
D11*
X849433Y1748547D03*
X864433Y1748547D03*
X879433Y1748547D03*
X894433Y1748547D03*
X909433Y1748547D03*
X924433Y1748547D03*
X939433Y1748547D03*
D12*
X1288721Y1613136D03*
X1263321Y1613136D03*
X1237921Y1613136D03*
X1212521Y1613136D03*
D13*
X1238584Y1540799D03*
X1238584Y1557799D03*
X1212850Y1540900D03*
X1212850Y1557900D03*
X999664Y1393536D03*
X999664Y1376536D03*
D14*
X1165800Y1709200D03*
X1165800Y1683800D03*
X1140400Y1709200D03*
X1140400Y1683800D03*
X1115000Y1709200D03*
X1115000Y1683800D03*
X1089600Y1709200D03*
X1089600Y1683800D03*
X1064200Y1709200D03*
X1064200Y1683800D03*
X1038800Y1709200D03*
X1038800Y1683800D03*
X1013400Y1709200D03*
X1013400Y1683800D03*
X988000Y1709200D03*
X988000Y1683800D03*
X962600Y1709200D03*
X962600Y1683800D03*
X937200Y1709200D03*
X937200Y1683800D03*
X911800Y1709200D03*
X911800Y1683800D03*
X886400Y1709200D03*
X886400Y1683800D03*
X861000Y1709200D03*
X861000Y1683800D03*
D11*
X-77700Y1014000D03*
X-77700Y999000D03*
X-77700Y984000D03*
X-77700Y969000D03*
X-77700Y954000D03*
X-77700Y939000D03*
X-77700Y924000D03*
X1157300Y1865800D03*
X1172300Y1865800D03*
X1187300Y1865800D03*
X1202300Y1865800D03*
X1217300Y1865800D03*
X1232300Y1865800D03*
X1247300Y1865800D03*
X1377200Y924100D03*
X1377200Y939100D03*
X1377200Y954100D03*
X1377200Y969100D03*
X1377200Y984100D03*
X1377200Y999100D03*
X1377200Y1014100D03*
D15*
X1011408Y1558450D03*
X1011408Y1545750D03*
X1011408Y1533050D03*
X1011408Y1520350D03*
X1011408Y1507650D03*
X1011408Y1494950D03*
X1011408Y1482250D03*
X1011408Y1469550D03*
X1011408Y1456850D03*
X1011408Y1444150D03*
X1111992Y1456850D03*
X1111992Y1444150D03*
X1111992Y1431450D03*
X1111992Y1418750D03*
X1011408Y1418750D03*
X1011408Y1431450D03*
X1111992Y1469550D03*
X1111992Y1482250D03*
X1111992Y1494950D03*
X1111992Y1507650D03*
X1111992Y1520350D03*
X1111992Y1533050D03*
X1111992Y1545750D03*
X1111992Y1558450D03*
D16*
X-38500Y247200D02*
X-56500Y247200D01*
X-56500Y272600D02*
X-38500Y272600D01*
X-38500Y298000D02*
X-56500Y298000D01*
X-50927Y1491940D02*
X-68927Y1491940D01*
X-68927Y1517340D02*
X-50927Y1517340D01*
X-50927Y1542740D02*
X-68927Y1542740D01*
X254300Y1861000D02*
X254300Y1879000D01*
X279700Y1879000D02*
X279700Y1861000D01*
X305100Y1861000D02*
X305100Y1879000D01*
X1335500Y1544500D02*
X1353500Y1544500D01*
X1353500Y1519100D02*
X1335500Y1519100D01*
X1335500Y1493700D02*
X1353500Y1493700D01*
X1353500Y298000D02*
X1335500Y298000D01*
X1335500Y272600D02*
X1353500Y272600D01*
X1353500Y247200D02*
X1335500Y247200D01*
X1045400Y88210D02*
X1045400Y70210D01*
X1020000Y70210D02*
X1020000Y88210D01*
X994600Y88210D02*
X994600Y70210D01*
D12*
X631050Y1543500D03*
X656450Y1543500D03*
X681850Y1543500D03*
X895900Y301500D03*
X870500Y301500D03*
X845100Y301500D03*
D17*
X-4204Y799300D02*
X-16396Y799300D01*
X-16396Y824700D02*
X-4204Y824700D01*
X-4204Y850100D02*
X-16396Y850100D01*
X-16396Y875500D02*
X-4204Y875500D01*
X1304704Y876500D02*
X1316896Y876500D01*
X1316896Y851100D02*
X1304704Y851100D01*
X1304704Y825700D02*
X1316896Y825700D01*
X1316896Y800300D02*
X1304704Y800300D01*
D18*
X865850Y1431150D03*
X891250Y1431150D03*
X916650Y1431150D03*
X942050Y1431150D03*
X942050Y1517150D03*
X916650Y1517150D03*
X891250Y1517150D03*
X865850Y1517150D03*
D13*
X891206Y1563208D03*
X891206Y1546208D03*
X916606Y1563208D03*
X916606Y1546208D03*
X942072Y1563236D03*
X942072Y1546236D03*
D17*
X18296Y347700D02*
X6104Y347700D01*
X6104Y373100D02*
X18296Y373100D01*
X18296Y398500D02*
X6104Y398500D01*
X6104Y423900D02*
X18296Y423900D01*
X8296Y1373400D02*
X-3896Y1373400D01*
X-3896Y1398800D02*
X8296Y1398800D01*
X8296Y1424200D02*
X-3896Y1424200D01*
X-3896Y1449600D02*
X8296Y1449600D01*
X611400Y1838704D02*
X611400Y1850896D01*
X636800Y1850896D02*
X636800Y1838704D01*
X662200Y1838704D02*
X662200Y1850896D01*
X687600Y1850896D02*
X687600Y1838704D01*
X1278704Y1452900D02*
X1290896Y1452900D01*
X1290896Y1427500D02*
X1278704Y1427500D01*
X1278704Y1402100D02*
X1290896Y1402100D01*
X1290896Y1376700D02*
X1278704Y1376700D01*
X1278704Y427200D02*
X1290896Y427200D01*
X1290896Y401800D02*
X1278704Y401800D01*
X1278704Y376400D02*
X1290896Y376400D01*
X1290896Y351000D02*
X1278704Y351000D01*
X690000Y106796D02*
X690000Y94604D01*
X664600Y94604D02*
X664600Y106796D01*
X639200Y106796D02*
X639200Y94604D01*
X613800Y94604D02*
X613800Y106796D01*
D19*
X1027589Y1577494D03*
D20*
X1033839Y1577494D03*
X1038839Y1577494D03*
D19*
X1045089Y1577494D03*
X1045089Y1586494D03*
D20*
X1038839Y1586494D03*
X1033839Y1586494D03*
D19*
X1027589Y1586494D03*
X1093471Y1400656D03*
D20*
X1087221Y1400656D03*
X1082221Y1400656D03*
D19*
X1075971Y1400656D03*
X1075971Y1391656D03*
D20*
X1082221Y1391656D03*
X1087221Y1391656D03*
D19*
X1093471Y1391656D03*
X1076071Y1577488D03*
D20*
X1082321Y1577488D03*
X1087321Y1577488D03*
D19*
X1093571Y1577488D03*
X1093571Y1586488D03*
D20*
X1087321Y1586488D03*
X1082321Y1586488D03*
D19*
X1076071Y1586488D03*
X1044965Y1400789D03*
D20*
X1038715Y1400789D03*
X1033715Y1400789D03*
D19*
X1027465Y1400789D03*
X1027465Y1391789D03*
D20*
X1033715Y1391789D03*
X1038715Y1391789D03*
D19*
X1044965Y1391789D03*
D21*
X207550Y1675950D03*
X165550Y1675950D03*
X165550Y1730950D03*
X207550Y1730950D03*
D22*
X325300Y1695000D03*
X325300Y1720400D03*
X350700Y1695000D03*
X350700Y1720400D03*
X376100Y1695000D03*
X376100Y1720400D03*
X401500Y1695000D03*
X401500Y1720400D03*
X426900Y1695000D03*
X426900Y1720400D03*
X452300Y1695000D03*
X452300Y1720400D03*
X477700Y1695000D03*
X477700Y1720400D03*
D23*
X477200Y287300D03*
X502600Y287300D03*
X528000Y287300D03*
X553400Y287300D03*
X578800Y287300D03*
X604200Y287300D03*
X629600Y287300D03*
X655000Y287300D03*
X680400Y287300D03*
X705800Y287300D03*
X731200Y287300D03*
X756600Y287300D03*
X782000Y287300D03*
D24*
X147847Y1585283D03*
X130847Y1585283D03*
D25*
X130800Y1609600D03*
X130800Y1630600D03*
D24*
X924932Y1613408D03*
X907932Y1613408D03*
D25*
X892810Y1620180D03*
X892810Y1641180D03*
D24*
X505070Y1623695D03*
X488070Y1623695D03*
D25*
X462407Y1624752D03*
X462407Y1645752D03*
D26*
X336804Y333756D02*
X336804Y313944D01*
X387096Y313944D02*
X387096Y333756D01*
X539496Y1533398D02*
X539496Y1553210D01*
X489204Y1553210D02*
X489204Y1533398D01*
D13*
X1238250Y1412850D03*
X1238250Y1393850D03*
X1135634Y1581125D03*
X1135634Y1562125D03*
D24*
X28550Y1492250D03*
X9550Y1492250D03*
D27*
X876300Y1504950D03*
D28*
X876072Y1505178D02*
X876072Y1531244D01*
X876072Y1505178D02*
X876300Y1504950D01*
X861000Y1674656D02*
X861000Y1683800D01*
X861000Y1674656D02*
X861000Y1546316D01*
X876072Y1531244D01*
X861000Y1674656D02*
X864464Y1682212D01*
X861000Y1683800D01*
X857536Y1682212D02*
X861000Y1674656D01*
X857536Y1682212D02*
X861000Y1683800D01*
D29*
X1232300Y1865800D02*
X1232300Y1872800D01*
X1232300Y1885550D01*
X1225550Y1892300D01*
X1073625Y1892300D01*
X977900Y1796575D01*
X977900Y1689100D01*
X979596Y1687404D01*
X983200Y1683800D01*
X988000Y1683800D01*
X983588Y1681035D02*
X979596Y1687404D01*
X983588Y1681035D02*
X988000Y1683800D01*
X986962Y1688902D02*
X979596Y1687404D01*
X986962Y1688902D02*
X988000Y1683800D01*
X1229213Y1867650D02*
X1232300Y1872800D01*
X1229213Y1867650D02*
X1232300Y1865800D01*
X1235387Y1867650D02*
X1232300Y1872800D01*
X1235387Y1867650D02*
X1232300Y1865800D01*
X1217300Y1865800D02*
X1217300Y1872800D01*
X1217300Y1881500D01*
X1212850Y1885950D01*
X1074100Y1885950D01*
X988000Y1799850D02*
X988000Y1718344D01*
X988000Y1709200D01*
X988000Y1799850D02*
X1074100Y1885950D01*
X988000Y1718344D02*
X983720Y1712165D01*
X988000Y1709200D01*
X992280Y1712165D02*
X988000Y1718344D01*
X992280Y1712165D02*
X988000Y1709200D01*
X1214213Y1867650D02*
X1217300Y1872800D01*
X1214213Y1867650D02*
X1217300Y1865800D01*
X1220387Y1867650D02*
X1217300Y1872800D01*
X1220387Y1867650D02*
X1217300Y1865800D01*
X1202300Y1865800D02*
X1202300Y1872800D01*
X1202300Y1877450D01*
X1198626Y1881124D01*
X1076099Y1881124D01*
X1003300Y1808325D01*
X1012050Y1685150D02*
X1013400Y1683800D01*
X1012050Y1685150D02*
X1006934Y1690266D01*
X1003300Y1693900D01*
X1003300Y1808325D01*
D27*
X957715Y1671737D03*
D28*
X1004987Y1671737D01*
X1012050Y1678800D02*
X1012050Y1685150D01*
X1009022Y1675772D02*
X1004987Y1671737D01*
X1009022Y1675772D02*
X1012050Y1678800D01*
D29*
X1008277Y1682870D02*
X1006934Y1690266D01*
X1008277Y1682870D02*
X1013400Y1683800D01*
X1014330Y1688923D02*
X1006934Y1690266D01*
X1014330Y1688923D02*
X1013400Y1683800D01*
D28*
X1015681Y1680748D02*
X1009022Y1675772D01*
X1015681Y1680748D02*
X1013400Y1683800D01*
X1009599Y1684064D02*
X1009022Y1675772D01*
X1009599Y1684064D02*
X1013400Y1683800D01*
D29*
X1199213Y1867650D02*
X1202300Y1872800D01*
X1199213Y1867650D02*
X1202300Y1865800D01*
X1205387Y1867650D02*
X1202300Y1872800D01*
X1205387Y1867650D02*
X1202300Y1865800D01*
D28*
X1382150Y1019050D02*
X1377200Y1014100D01*
X1382150Y1019050D02*
X1383030Y1019930D01*
X1383030Y1626870D02*
X1338580Y1671320D01*
X1102360Y1730248D02*
X1096264Y1736344D01*
X1383030Y1626870D02*
X1383030Y1019930D01*
X1096264Y1736344D02*
X1052449Y1736344D01*
D27*
X1052449Y1736344D03*
D28*
X1102360Y1730248D02*
X1102360Y1678940D01*
X1109980Y1671320D02*
X1338580Y1671320D01*
X1109980Y1671320D02*
X1102360Y1678940D01*
X1382150Y1019050D02*
X1376212Y1016068D01*
X1377200Y1014100D01*
X1379168Y1013112D02*
X1382150Y1019050D01*
X1379168Y1013112D02*
X1377200Y1014100D01*
D29*
X1247300Y1865800D02*
X1247300Y1872800D01*
X1247300Y1889600D01*
X1238250Y1898650D01*
X1073150Y1898650D01*
X952500Y1778000D01*
D30*
X952500Y1778000D03*
D29*
X952500Y1702701D01*
X962263Y1692938D01*
X962600Y1692601D01*
X962600Y1683800D01*
X958213Y1686605D02*
X962263Y1692938D01*
X958213Y1686605D02*
X962600Y1683800D01*
X966768Y1686921D02*
X962263Y1692938D01*
X966768Y1686921D02*
X962600Y1683800D01*
X1244213Y1867650D02*
X1247300Y1872800D01*
X1244213Y1867650D02*
X1247300Y1865800D01*
X1250387Y1867650D02*
X1247300Y1872800D01*
X1250387Y1867650D02*
X1247300Y1865800D01*
D28*
X-70700Y924000D02*
X-77700Y924000D01*
X-70700Y924000D02*
X233581Y924000D01*
X657355Y1347774D01*
D31*
X657355Y1347774D03*
D28*
X943666Y1702734D02*
X937200Y1709200D01*
X943666Y1702734D02*
X949706Y1696694D01*
X949706Y1668649D01*
D27*
X990600Y1638300D03*
D28*
X965009Y1663891D01*
X954465Y1663891D01*
X949706Y1668649D01*
X943666Y1702734D02*
X940772Y1710527D01*
X937200Y1709200D01*
X935873Y1705628D02*
X943666Y1702734D01*
X935873Y1705628D02*
X937200Y1709200D01*
X-70700Y924000D02*
X-77007Y926090D01*
X-77700Y924000D01*
X-77007Y921910D02*
X-70700Y924000D01*
X-77007Y921910D02*
X-77700Y924000D01*
X911800Y1709200D02*
X918266Y1702734D01*
X925195Y1695805D01*
X1168400Y1612900D02*
X1168400Y1593850D01*
X1168400Y1562100D01*
X1152050Y1545750D01*
X1111992Y1545750D01*
D27*
X1168400Y1593850D03*
D28*
X1229436Y1604651D02*
X1237921Y1613136D01*
X1229436Y1604651D02*
X1212285Y1587500D01*
X1200150Y1587500D01*
X1188720Y1576070D01*
X1195950Y1540900D02*
X1212850Y1540900D01*
X1188720Y1548130D02*
X1188720Y1576070D01*
X1188720Y1548130D02*
X1195950Y1540900D01*
X947420Y1617980D02*
X925195Y1640205D01*
X1163320Y1617980D02*
X1168400Y1612900D01*
X925195Y1640205D02*
X925195Y1695805D01*
X947420Y1617980D02*
X1163320Y1617980D01*
X918266Y1702734D02*
X915372Y1710527D01*
X911800Y1709200D01*
X910473Y1705628D02*
X918266Y1702734D01*
X910473Y1705628D02*
X911800Y1709200D01*
X1229436Y1604651D02*
X1239488Y1607394D01*
X1237921Y1613136D01*
X1232179Y1614703D02*
X1229436Y1604651D01*
X1232179Y1614703D02*
X1237921Y1613136D01*
X1181100Y1625600D02*
X1181100Y1543050D01*
X1171100Y1533050D01*
X1111992Y1533050D01*
X1171100Y1533050D02*
X1186500Y1517650D01*
X1231900Y1517650D01*
X1238584Y1524334D01*
X1238584Y1540799D01*
X1204036Y1621621D02*
X1200057Y1625600D01*
X1204036Y1621621D02*
X1212521Y1613136D01*
X1200057Y1625600D02*
X1181100Y1625600D01*
X937200Y1674656D02*
X937200Y1683800D01*
X937200Y1674656D02*
X937200Y1640900D01*
X952500Y1625600D02*
X1181100Y1625600D01*
X952500Y1625600D02*
X937200Y1640900D01*
X937200Y1674656D02*
X940664Y1682212D01*
X937200Y1683800D01*
X933736Y1682212D02*
X937200Y1674656D01*
X933736Y1682212D02*
X937200Y1683800D01*
X1204036Y1621621D02*
X1206779Y1611569D01*
X1212521Y1613136D01*
X1214088Y1618878D02*
X1204036Y1621621D01*
X1214088Y1618878D02*
X1212521Y1613136D01*
X-47500Y247200D02*
X-69400Y247200D01*
X-76200Y254000D01*
X-76200Y603250D01*
X155791Y835368D02*
X666750Y1346327D01*
X-19050Y835368D02*
X-20815Y835368D01*
D31*
X666750Y1346327D03*
D28*
X155791Y835368D02*
X-19050Y835368D01*
X-20815Y835368D01*
X-76200Y779983D01*
X-76200Y603250D01*
X215700Y1816100D02*
X546100Y1816100D01*
X645487Y1915487D02*
X994737Y1915487D01*
X645487Y1915487D02*
X546100Y1816100D01*
X215700Y1816100D02*
X-19050Y1581350D01*
X-19050Y1511300D01*
X-38410Y1491940D01*
X-59927Y1491940D01*
D27*
X1026287Y1821434D03*
D28*
X1026287Y1696313D02*
X1032334Y1690266D01*
X1038800Y1683800D01*
X1026287Y1696313D02*
X1026287Y1821434D01*
D31*
X994737Y1915487D03*
D27*
X1026033Y1868424D03*
D28*
X1026033Y1884191D01*
X994737Y1915487D01*
X1032334Y1690266D02*
X1035228Y1682473D01*
X1038800Y1683800D01*
X1040127Y1687372D02*
X1032334Y1690266D01*
X1040127Y1687372D02*
X1038800Y1683800D01*
X254300Y1870000D02*
X254300Y1886250D01*
X996950Y1924050D02*
X1041400Y1879600D01*
D27*
X1041400Y1879600D03*
D28*
X292100Y1924050D02*
X254300Y1886250D01*
X292100Y1924050D02*
X996950Y1924050D01*
X1041400Y1711800D02*
X1038800Y1709200D01*
X1041400Y1711800D02*
X1041400Y1717967D01*
D27*
X1041400Y1835150D03*
D28*
X1041400Y1717967D01*
X1035931Y1711707D01*
X1038800Y1709200D01*
X1042572Y1709737D02*
X1041400Y1717967D01*
X1042572Y1709737D02*
X1038800Y1709200D01*
X1344500Y1582850D02*
X1344500Y1544500D01*
X1272667Y1654683D02*
X1089660Y1654683D01*
X1272667Y1654683D02*
X1344500Y1582850D01*
X1089660Y1654683D02*
X1068573Y1675770D01*
X1064200Y1680143D01*
X1064200Y1683800D01*
X1068001Y1684062D02*
X1068573Y1675770D01*
X1068001Y1684062D02*
X1064200Y1683800D01*
X1061918Y1680749D02*
X1068573Y1675770D01*
X1061918Y1680749D02*
X1064200Y1683800D01*
X1371600Y1612900D02*
X1371600Y1485900D01*
X1371600Y1612900D02*
X1320800Y1663700D01*
X1371600Y1485900D02*
X1358900Y1473200D01*
X1358900Y312400D02*
X1344500Y298000D01*
X1358900Y312400D02*
X1358900Y1473200D01*
X1070666Y1702734D02*
X1064200Y1709200D01*
X1070666Y1702734D02*
X1075944Y1697456D01*
X1075944Y1681099D01*
X1093343Y1663700D01*
X1320800Y1663700D01*
X1070666Y1702734D02*
X1067772Y1710527D01*
X1064200Y1709200D01*
X1062873Y1705628D02*
X1070666Y1702734D01*
X1062873Y1705628D02*
X1064200Y1709200D01*
D27*
X1060450Y1399502D03*
D28*
X1060450Y1578648D01*
D27*
X1060450Y1578648D03*
D28*
X1127252Y1733677D02*
X1099820Y1761109D01*
D27*
X1049246Y1761109D03*
D28*
X1099820Y1761109D01*
X1127252Y1696052D02*
X1121466Y1690266D01*
X1115000Y1683800D01*
X1127252Y1696052D02*
X1127252Y1733677D01*
X1121466Y1690266D02*
X1113673Y1687372D01*
X1115000Y1683800D01*
X1118572Y1682473D02*
X1121466Y1690266D01*
X1118572Y1682473D02*
X1115000Y1683800D01*
D27*
X1154144Y1720850D03*
D28*
X1154144Y1697544D01*
X1146866Y1690266D01*
D27*
X914400Y1771650D03*
D28*
X1140400Y1683800D02*
X1146866Y1690266D01*
X914400Y1771650D02*
X909433Y1766683D01*
X909433Y1755547D01*
X909433Y1748547D01*
X1139073Y1687372D02*
X1146866Y1690266D01*
X1139073Y1687372D02*
X1140400Y1683800D01*
X1143972Y1682473D02*
X1146866Y1690266D01*
X1143972Y1682473D02*
X1140400Y1683800D01*
X909433Y1755547D02*
X907343Y1749240D01*
X909433Y1748547D01*
X911523Y1749240D02*
X909433Y1755547D01*
X911523Y1749240D02*
X909433Y1748547D01*
X-70700Y984000D02*
X-77700Y984000D01*
X-70700Y984000D02*
X278929Y984000D01*
X660179Y1365250D01*
X711200Y1365250D01*
D31*
X711200Y1365250D03*
D28*
X-70700Y984000D02*
X-77007Y986090D01*
X-77700Y984000D01*
X-77007Y981910D02*
X-70700Y984000D01*
X-77007Y981910D02*
X-77700Y984000D01*
X1377200Y954100D02*
X1382150Y959050D01*
X1390650Y967550D01*
X1390650Y1638300D01*
X1346200Y1682750D01*
X1143000Y1733550D02*
X1140400Y1730950D01*
X1250950Y1682750D02*
X1346200Y1682750D01*
X1200150Y1733550D02*
X1143000Y1733550D01*
X1200150Y1733550D02*
X1250950Y1682750D01*
X1140400Y1718344D02*
X1140400Y1730950D01*
X1140400Y1718344D02*
X1140400Y1709200D01*
X1136936Y1710788D02*
X1140400Y1718344D01*
X1136936Y1710788D02*
X1140400Y1709200D01*
X1143864Y1710788D02*
X1140400Y1718344D01*
X1143864Y1710788D02*
X1140400Y1709200D01*
X1382150Y959050D02*
X1376212Y956068D01*
X1377200Y954100D01*
X1379168Y953112D02*
X1382150Y959050D01*
X1379168Y953112D02*
X1377200Y954100D01*
D32*
X1344500Y272600D02*
X1282250Y272600D01*
X1136650Y127000D02*
X1047750Y127000D01*
X1020000Y99250D01*
X1020000Y79210D01*
X1136650Y127000D02*
X1282250Y272600D01*
X226000Y1730950D02*
X207550Y1730950D01*
X501650Y1752600D02*
X539750Y1714500D01*
X501650Y1752600D02*
X247650Y1752600D01*
X226000Y1730950D01*
X1172300Y1856650D02*
X1172300Y1865800D01*
X1172300Y1856650D02*
X1181100Y1847850D01*
D27*
X1212850Y1841500D03*
D32*
X1206500Y1847850D01*
X1181100Y1847850D01*
X656450Y1553350D02*
X656450Y1543500D01*
X539750Y1606550D02*
X539750Y1714500D01*
X539750Y1606550D02*
X577850Y1568450D01*
X641350Y1568450D01*
X656450Y1553350D01*
D27*
X501650Y1752600D03*
D33*
X942072Y1546236D02*
X942072Y1517172D01*
X942050Y1517150D01*
D29*
X942050Y1509050D01*
X946150Y1504950D01*
X965200Y1504950D01*
X976122Y1515872D01*
X976122Y1523647D01*
X990600Y1538125D02*
X990600Y1549400D01*
X999650Y1558450D01*
X1011408Y1558450D01*
X990600Y1538125D02*
X976122Y1523647D01*
D33*
X916606Y1520063D02*
X916606Y1546208D01*
X916606Y1520063D02*
X916606Y1517194D01*
X916650Y1517150D01*
D29*
X1004931Y1539273D02*
X1011408Y1545750D01*
X980948Y1521648D02*
X980948Y1502598D01*
X998573Y1539273D02*
X1004931Y1539273D01*
X998573Y1539273D02*
X980948Y1521648D01*
X977585Y1499235D02*
X923163Y1499235D01*
X916606Y1505792D01*
X916606Y1520063D01*
X977585Y1499235D02*
X980948Y1502598D01*
D33*
X891206Y1517194D02*
X891206Y1546208D01*
X891206Y1517194D02*
X891250Y1517150D01*
D28*
X891250Y1502473D01*
X889000Y1500223D01*
D27*
X889000Y1500223D03*
X1109345Y1515496D03*
D29*
X1111992Y1518143D01*
X1111992Y1520030D01*
X1111992Y1520350D01*
X1111992Y1520030D02*
X1108265Y1516708D01*
X1109345Y1515496D01*
X1110931Y1515151D02*
X1111992Y1520030D01*
X1110931Y1515151D02*
X1109345Y1515496D01*
D32*
X165550Y1730950D02*
X130800Y1696200D01*
X130800Y1630600D01*
X2200Y1492250D02*
X2200Y1449600D01*
X2200Y1492250D02*
X2200Y1526200D01*
X106600Y1630600D02*
X130800Y1630600D01*
X106600Y1630600D02*
X2200Y1526200D01*
X2200Y1449600D02*
X-17250Y1449600D01*
X-25400Y1441450D01*
X-25400Y1085850D01*
X-90851Y1020399D02*
X-90851Y908050D01*
X-58301Y875500D01*
X-10300Y875500D01*
X-90851Y1020399D02*
X-25400Y1085850D01*
X165550Y1730950D02*
X199900Y1765300D01*
X507513Y1765300D01*
X687600Y1844800D02*
X687600Y1865100D01*
X615463Y1873250D02*
X507513Y1765300D01*
X615463Y1873250D02*
X679450Y1873250D01*
X687600Y1865100D01*
X12200Y423900D02*
X-7900Y423900D01*
X-19050Y412750D01*
X-19050Y323850D01*
X146050Y158750D01*
X533400Y158750D02*
X571500Y120650D01*
D31*
X571500Y120650D03*
D32*
X533400Y158750D02*
X146050Y158750D01*
X613800Y100700D02*
X613800Y65650D01*
X622300Y57150D01*
X685800Y57150D01*
X723900Y95250D01*
X723900Y120650D01*
X742061Y138811D01*
X1057099Y138811D01*
X1057988Y139700D01*
X1060450Y139700D01*
X1271750Y351000D01*
X1284800Y351000D01*
X1310800Y358300D02*
X1310800Y800300D01*
X1303500Y351000D02*
X1284800Y351000D01*
X1303500Y351000D02*
X1310800Y358300D01*
X939800Y1748180D02*
X939433Y1748547D01*
X939800Y1748180D02*
X939800Y1739900D01*
X927100Y1727200D01*
D28*
X1027465Y1391789D02*
X1033715Y1391789D01*
X1038715Y1391789D01*
X1044965Y1391789D01*
X1045098Y1391656D01*
X1075971Y1391656D01*
X1082221Y1391656D01*
X1087221Y1391656D02*
X1075971Y1391656D01*
X1082221Y1391656D02*
X1093471Y1391656D01*
X1028700Y1586494D02*
X1027589Y1586494D01*
X1028700Y1586494D02*
X1033839Y1586494D01*
X1038839Y1586494D01*
X1033839Y1586494D02*
X1045089Y1586494D01*
X1076071Y1586488D02*
X1082321Y1586488D01*
X1087321Y1586488D01*
X1093571Y1586488D01*
X869950Y1431150D02*
X865850Y1431150D01*
X869950Y1431150D02*
X876300Y1431150D01*
X891250Y1431150D01*
X916650Y1431150D01*
X942050Y1431150D01*
D32*
X687600Y1827000D02*
X687600Y1844800D01*
X687600Y1827000D02*
X742950Y1771650D01*
D34*
X742950Y1771650D03*
D32*
X787400Y1727200D01*
X927100Y1727200D01*
D34*
X787400Y1727200D03*
D28*
X1076065Y1586494D02*
X1076071Y1586488D01*
X1076065Y1586494D02*
X1045089Y1586494D01*
X1111992Y1558450D02*
X1131959Y1558450D01*
X1135634Y1562125D01*
X1143025Y1562125D01*
X1155700Y1574800D01*
X1155700Y1593850D01*
X1149350Y1600200D01*
X1107283Y1600200D02*
X1093571Y1586488D01*
X1107283Y1600200D02*
X1149350Y1600200D01*
D27*
X1155700Y1574800D03*
D28*
X1270000Y1574800D02*
X1289050Y1593850D01*
X1288721Y1594179D01*
X1288721Y1601136D01*
X1288721Y1613136D01*
D27*
X1200150Y1574800D03*
D28*
X1212850Y1574800D01*
X1238250Y1574800D01*
X1270000Y1574800D01*
X1212850Y1574800D02*
X1212850Y1557900D01*
X1238250Y1574800D02*
X1238584Y1574466D01*
X1238584Y1557799D01*
X1238250Y1393850D02*
X1236056Y1391656D01*
X1093471Y1391656D01*
X1238250Y1393850D02*
X1254100Y1393850D01*
X1270000Y1377950D01*
X1283550Y1377950D01*
X956450Y1431150D02*
X942050Y1431150D01*
X994064Y1393536D02*
X999664Y1393536D01*
X994064Y1393536D02*
X956450Y1431150D01*
X999664Y1393536D02*
X1001411Y1391789D01*
X1027465Y1391789D01*
D27*
X1016000Y1581150D03*
D28*
X1021344Y1586494D01*
X1028700Y1586494D01*
X841229Y1492377D02*
X787400Y1546206D01*
X787400Y1727200D01*
X895350Y1492603D02*
X895124Y1492377D01*
D27*
X895350Y1492603D03*
D28*
X844550Y1492377D02*
X841229Y1492377D01*
X844550Y1492377D02*
X895124Y1492377D01*
X850674Y1492377D02*
X844550Y1492377D01*
X850674Y1492377D02*
X850900Y1492603D01*
D27*
X850900Y1492603D03*
X850900Y1441450D03*
D28*
X861200Y1431150D01*
X869950Y1431150D01*
X1283550Y1377950D02*
X1284800Y1376700D01*
D29*
X9550Y1492250D02*
X2200Y1492250D01*
D28*
X1288721Y1601136D02*
X1293889Y1610184D01*
X1288721Y1613136D01*
X1283553Y1610184D02*
X1288721Y1601136D01*
X1283553Y1610184D02*
X1288721Y1613136D01*
D31*
X1316228Y1066038D03*
D28*
X1263650Y1013460D01*
D31*
X1263650Y438150D03*
D28*
X1263650Y774700D02*
X1263650Y1013460D01*
D31*
X1298194Y1087374D03*
D28*
X1263650Y774700D02*
X1263650Y438150D01*
X1235075Y1024255D02*
X1298194Y1087374D01*
X1235075Y1024255D02*
X1235075Y774700D01*
D31*
X1235075Y438150D03*
X1263650Y774700D03*
D28*
X1235075Y774700D02*
X1235075Y438150D01*
D31*
X1235075Y774700D03*
X76200Y406400D03*
D28*
X76200Y596900D01*
D31*
X76200Y596900D03*
X95123Y406400D03*
D28*
X95123Y596900D01*
D31*
X95123Y596900D03*
X151892Y816737D03*
D28*
X546989Y1199134D02*
X696278Y1348423D01*
D31*
X696800Y1347900D03*
X546989Y1199134D03*
X828167Y1494409D03*
X717550Y1382649D03*
D28*
X814061Y1479160D01*
X814333Y1479160D01*
D31*
X814333Y1479160D03*
D28*
X505070Y1623695D02*
X505070Y1679330D01*
X489400Y1695000D02*
X486844Y1695000D01*
X477700Y1695000D01*
X489400Y1695000D02*
X505070Y1679330D01*
D31*
X1257300Y1708150D03*
D28*
X1219200Y1746250D01*
X927100Y1611240D02*
X924932Y1613408D01*
X927100Y1611240D02*
X927100Y1600200D01*
D31*
X927100Y1600200D03*
D28*
X161221Y1585283D02*
X147847Y1585283D01*
X161221Y1585283D02*
X161290Y1585214D01*
D31*
X161290Y1585214D03*
D28*
X891206Y1563208D02*
X908050Y1563208D01*
X916606Y1563208D01*
X942044Y1563208D01*
X942072Y1563236D01*
X38100Y1492250D02*
X28550Y1492250D01*
D31*
X38100Y1492250D03*
X1320800Y1498600D03*
D28*
X1295400Y1524000D01*
D31*
X1295400Y1524000D03*
D28*
X1325700Y1493700D02*
X1344500Y1493700D01*
X1325700Y1493700D02*
X1320800Y1498600D01*
D31*
X696722Y1788922D03*
X729742Y1756156D03*
X761111Y1724533D03*
X761238Y1671193D03*
X761111Y1620520D03*
X761365Y1561465D03*
X798322Y1524254D03*
D28*
X814333Y1483694D02*
X814333Y1479160D01*
X814333Y1483694D02*
X743077Y1554950D01*
X743077Y1644523D02*
X742950Y1644650D01*
D31*
X742950Y1644650D03*
D28*
X743077Y1644523D02*
X743077Y1554950D01*
D31*
X743077Y1555115D03*
X784987Y1512951D03*
D35*
X316611Y1606804D03*
D32*
X316611Y1124204D01*
X349250Y1091565D01*
X349250Y1085850D01*
D35*
X349250Y1085850D03*
X448183Y1606296D03*
X448310Y1190939D03*
X316738Y1124712D03*
X316738Y1226312D03*
X316738Y1353312D03*
X316738Y1473962D03*
X448183Y1474724D03*
X448183Y1354328D03*
X448310Y1257935D03*
X349250Y939800D03*
X649696Y546100D03*
X649696Y679450D03*
X595086Y737997D03*
X523204Y810133D03*
X485104Y848360D03*
X485104Y946023D03*
X349377Y844804D03*
X467995Y725424D03*
X468376Y475488D03*
X468376Y335788D03*
X649986Y431800D03*
D32*
X468376Y475488D02*
X468376Y335788D01*
D28*
X761111Y1724533D02*
X761111Y1724787D01*
X729742Y1756156D01*
D36*
X485267Y1063879D03*
D28*
X761238Y1724406D02*
X761111Y1724533D01*
X761238Y1724406D02*
X761238Y1671193D01*
X761238Y1620647D02*
X761111Y1620520D01*
X761238Y1620647D02*
X761238Y1671193D01*
X761365Y1620520D02*
X761365Y1561465D01*
X761365Y1620520D02*
X761238Y1620647D01*
X761365Y1561465D02*
X798322Y1524508D01*
X798322Y1524254D01*
X729742Y1756156D02*
X696976Y1788922D01*
D32*
X349377Y844804D02*
X468376Y725805D01*
X468376Y475488D01*
X448183Y1474724D02*
X448183Y1606296D01*
X448183Y1474724D02*
X448183Y1354328D01*
X448310Y1354201D02*
X448310Y1257935D01*
X448310Y1354201D02*
X448183Y1354328D01*
X448310Y1257935D02*
X448310Y1190939D01*
D28*
X696722Y1788922D02*
X696976Y1788922D01*
D31*
X307086Y959485D03*
X347091Y999363D03*
X493522Y1145794D03*
D28*
X497078Y1149223D02*
X546989Y1199134D01*
X484378Y1136523D02*
X353568Y1005713D01*
X353441Y1005713D01*
X347091Y999363D02*
X319913Y972185D01*
X319787Y972186D01*
X307086Y959485D02*
X164592Y816991D01*
X152146Y816991D01*
X1174750Y1746250D02*
X1219200Y1746250D01*
D27*
X1174750Y1746250D03*
D32*
X927100Y1797050D02*
X924433Y1794383D01*
D27*
X927100Y1797050D03*
D32*
X924433Y1794383D02*
X924433Y1748547D01*
X349377Y939673D02*
X349377Y844804D01*
X349377Y939673D02*
X349250Y939800D01*
X485104Y946023D02*
X485104Y848360D01*
X485104Y946023D02*
X485104Y1063716D01*
X485267Y1063879D01*
X485104Y848360D02*
X523204Y810260D01*
X523204Y810133D01*
X595086Y738251D01*
X595086Y737997D01*
X649986Y683097D01*
X649986Y431800D01*
D29*
X997882Y1418750D02*
X1011408Y1418750D01*
X997882Y1418750D02*
X992665Y1418750D01*
X992632Y1418717D01*
D27*
X992632Y1418717D03*
X903732Y1563243D03*
X929640Y1563116D03*
D28*
X1271250Y1402100D02*
X1284800Y1402100D01*
X1260500Y1412850D02*
X1238250Y1412850D01*
X1260500Y1412850D02*
X1271250Y1402100D01*
X1135634Y1581125D02*
X1135609Y1581150D01*
X1117600Y1581150D01*
D27*
X1117600Y1581150D03*
D28*
X76200Y717550D02*
X76200Y596900D01*
X76200Y717550D02*
X95250Y736600D01*
D27*
X95250Y736600D03*
D28*
X95123Y706878D02*
X95123Y596900D01*
X95123Y706878D02*
X110048Y721802D01*
D27*
X110048Y721802D03*
D28*
X151892Y816737D02*
X152146Y816991D01*
X307086Y959485D02*
X319787Y972186D01*
X347091Y999363D02*
X353441Y1005713D01*
X484378Y1136523D02*
X493522Y1145794D01*
X497078Y1149223D01*
X696800Y1347900D02*
X696278Y1348423D01*
X224348Y836102D02*
X110048Y721802D01*
D27*
X224348Y836102D03*
D28*
X307622Y919377D01*
D27*
X307622Y919377D03*
D28*
X344998Y956752D01*
D27*
X344998Y956752D03*
D28*
X494223Y1105977D01*
D27*
X494223Y1105977D03*
D28*
X557723Y1169477D01*
D27*
X557723Y1169477D03*
D28*
X618048Y1229802D01*
D27*
X618048Y1229802D03*
D28*
X713298Y1325052D01*
D27*
X713298Y1325052D03*
D28*
X903732Y1563243D02*
X908015Y1563243D01*
X908050Y1563208D01*
X828167Y1494409D02*
X798322Y1524254D01*
X808548Y1420302D02*
X713298Y1325052D01*
D27*
X808548Y1420302D03*
X831850Y1746250D03*
X850900Y1765300D03*
D28*
X831850Y1746250D01*
D29*
X993124Y1420264D02*
X997882Y1418750D01*
X993124Y1420264D02*
X992632Y1418717D01*
X993143Y1417177D02*
X997882Y1418750D01*
X993143Y1417177D02*
X992632Y1418717D01*
D28*
X486844Y1695000D02*
X479288Y1698464D01*
X477700Y1695000D01*
X479288Y1691536D02*
X486844Y1695000D01*
X479288Y1691536D02*
X477700Y1695000D01*
D29*
X999175Y1533050D02*
X1011408Y1533050D01*
X985774Y1500599D02*
X977663Y1492488D01*
X985774Y1500599D02*
X985774Y1519649D01*
X999175Y1533050D01*
X977663Y1492488D02*
X970449Y1492488D01*
X965316Y1492488D01*
X965200Y1492603D01*
D27*
X965200Y1492603D03*
X977900Y1377950D03*
D29*
X979314Y1376536D01*
X982956Y1376536D01*
X999664Y1376536D01*
X970449Y1492488D02*
X965736Y1494135D01*
X965200Y1492603D01*
X965668Y1491049D02*
X970449Y1492488D01*
X965668Y1491049D02*
X965200Y1492603D01*
X978799Y1379301D02*
X982956Y1376536D01*
X978799Y1379301D02*
X977900Y1377950D01*
X977967Y1376328D02*
X982956Y1376536D01*
X977967Y1376328D02*
X977900Y1377950D01*
X12200Y373100D02*
X4800Y373100D01*
X-6350Y361950D02*
X-6350Y342900D01*
X0Y336550D01*
X31750Y336550D01*
X4800Y373100D02*
X-6350Y361950D01*
X31750Y336550D02*
X87376Y392176D01*
X87376Y708251D01*
X831497Y1452372D01*
X994250Y1431450D02*
X1011408Y1431450D01*
X973328Y1452372D02*
X831497Y1452372D01*
X973328Y1452372D02*
X994250Y1431450D01*
X1011408Y1431450D02*
X1024222Y1431450D01*
X1027465Y1428207D02*
X1027465Y1400789D01*
X1027465Y1428207D02*
X1024222Y1431450D01*
X82550Y406400D02*
X82550Y403949D01*
X36075Y347700D02*
X12200Y347700D01*
X82550Y394175D02*
X82550Y403949D01*
X82550Y394175D02*
X36075Y347700D01*
X1009650Y1444150D02*
X1011408Y1444150D01*
X1009650Y1444150D02*
X994250Y1444150D01*
X981202Y1457198D01*
X829498Y1457198D01*
X82550Y710250D01*
X82550Y406400D01*
X1033715Y1400789D02*
X1033715Y1436435D01*
X1026000Y1444150D02*
X1011408Y1444150D01*
X1026000Y1444150D02*
X1033715Y1436435D01*
D27*
X577850Y1371600D03*
D29*
X583100Y1371600D01*
X723425Y1371600D01*
X823501Y1471676D01*
X994725Y1482250D02*
X1011408Y1482250D01*
X984151Y1471676D02*
X823501Y1471676D01*
X984151Y1471676D02*
X994725Y1482250D01*
X1045089Y1502289D02*
X1045089Y1577494D01*
X1025050Y1482250D02*
X1011408Y1482250D01*
X1025050Y1482250D02*
X1045089Y1502289D01*
X583100Y1371600D02*
X578352Y1373143D01*
X577850Y1371600D01*
X578352Y1370057D02*
X583100Y1371600D01*
X578352Y1370057D02*
X577850Y1371600D01*
D27*
X571500Y1378049D03*
D29*
X576750Y1378049D01*
X584101Y1378049D01*
X585724Y1376426D01*
X721426Y1376426D02*
X821502Y1476502D01*
X721426Y1376426D02*
X585724Y1376426D01*
X1000600Y1494950D02*
X1011408Y1494950D01*
X982152Y1476502D02*
X821502Y1476502D01*
X982152Y1476502D02*
X1000600Y1494950D01*
X1038839Y1508739D02*
X1038839Y1577494D01*
X1025050Y1494950D02*
X1011408Y1494950D01*
X1025050Y1494950D02*
X1038839Y1508739D01*
X576750Y1378049D02*
X572002Y1379592D01*
X571500Y1378049D01*
X572002Y1376506D02*
X576750Y1378049D01*
X572002Y1376506D02*
X571500Y1378049D01*
X642874Y1838726D02*
X636800Y1844800D01*
X642874Y1838726D02*
X642874Y1827144D01*
X692145Y1777873D01*
X692277Y1777873D01*
X749300Y1720850D01*
X749300Y1581150D01*
X749300Y1557528D01*
X825500Y1481328D01*
X995426Y1496601D02*
X995426Y1503426D01*
X995426Y1496601D02*
X980153Y1481328D01*
X999650Y1507650D02*
X1011408Y1507650D01*
X980153Y1481328D02*
X825500Y1481328D01*
X995426Y1503426D02*
X999650Y1507650D01*
X1033839Y1516439D02*
X1033839Y1577494D01*
X1025050Y1507650D02*
X1011408Y1507650D01*
X1025050Y1507650D02*
X1033839Y1516439D01*
X611400Y1844800D02*
X611400Y1856000D01*
X621411Y1866011D01*
X642239Y1866011D01*
X647700Y1860550D01*
X694144Y1782699D02*
X694398Y1782699D01*
X694144Y1782699D02*
X647700Y1829143D01*
X647700Y1860550D01*
X754888Y1722209D02*
X754888Y1558765D01*
X827499Y1486154D01*
X754888Y1722209D02*
X694398Y1782699D01*
X990600Y1517650D02*
X990600Y1498600D01*
X990600Y1517650D02*
X993300Y1520350D01*
X1011408Y1520350D01*
X978154Y1486154D02*
X827499Y1486154D01*
X978154Y1486154D02*
X990600Y1498600D01*
X1011408Y1520350D02*
X1025685Y1520350D01*
X1027811Y1522476D01*
X1027811Y1577272D01*
X1027589Y1577494D01*
X1087221Y1423771D02*
X1087221Y1400656D01*
X1094900Y1431450D02*
X1104900Y1431450D01*
X1111992Y1431450D01*
X1094900Y1431450D02*
X1087221Y1423771D01*
X1269433Y1442867D02*
X1284800Y1427500D01*
X1269433Y1442867D02*
X1269433Y1454150D01*
X1261559Y1462024D01*
X1151824Y1462024D01*
X1121250Y1431450D02*
X1111992Y1431450D01*
X1121250Y1431450D02*
X1151824Y1462024D01*
X1284800Y1452900D02*
X1296650Y1452900D01*
X1301750Y1447800D01*
X1301750Y1422400D01*
X1295400Y1416050D01*
X1111992Y1418750D02*
X1097948Y1418750D01*
X1093471Y1414273D02*
X1093471Y1400656D01*
X1093471Y1414273D02*
X1097948Y1418750D01*
X1276350Y1416050D02*
X1295400Y1416050D01*
X1263650Y1428750D02*
X1263650Y1453108D01*
X1259560Y1457198D02*
X1162050Y1457198D01*
X1259560Y1457198D02*
X1263650Y1453108D01*
X1162050Y1457198D02*
X1123602Y1418750D01*
X1111992Y1418750D01*
X1263650Y1428750D02*
X1276350Y1416050D01*
X1271750Y401800D02*
X1284800Y401800D01*
X1271750Y401800D02*
X1271381Y401431D01*
X1255776Y417035D01*
X1322324Y1080935D02*
X1322324Y1081024D01*
X1322578Y1081278D01*
X1322324Y1080935D02*
X1255776Y1014387D01*
X1322578Y1466497D02*
X1302463Y1486613D01*
X1322578Y1466497D02*
X1322578Y1081278D01*
X1255776Y1014387D02*
X1255776Y417035D01*
X1302463Y1486613D02*
X1137363Y1486613D01*
X1133000Y1482250D02*
X1111992Y1482250D01*
X1133000Y1482250D02*
X1137363Y1486613D01*
X1082321Y1495779D02*
X1082321Y1577488D01*
X1095850Y1482250D02*
X1111992Y1482250D01*
X1095850Y1482250D02*
X1082321Y1495779D01*
X1284800Y427200D02*
X1293650Y427200D01*
X1301750Y419100D01*
X1301750Y393700D01*
X1297686Y389636D01*
X1276350Y389636D01*
X1250950Y415036D01*
X1250950Y1016475D02*
X1317752Y1083277D01*
X1317752Y1464498D01*
X1302225Y1480025D01*
X1250950Y1016475D02*
X1250950Y415036D01*
X1302225Y1480025D02*
X1143475Y1480025D01*
X1133000Y1469550D02*
X1117600Y1469550D01*
X1111992Y1469550D01*
X1133000Y1469550D02*
X1143475Y1480025D01*
X1076071Y1489329D02*
X1076071Y1577488D01*
X1095850Y1469550D02*
X1111992Y1469550D01*
X1095850Y1469550D02*
X1076071Y1489329D01*
X664600Y100700D02*
X664600Y84700D01*
X666750Y82550D01*
X698500Y82550D01*
X711200Y95250D02*
X711200Y133350D01*
X730250Y152400D01*
X1062913Y152400D01*
X1246124Y335612D02*
X1246124Y476250D01*
X1246124Y482600D01*
X711200Y95250D02*
X698500Y82550D01*
X1062913Y152400D02*
X1246124Y335612D01*
X1246124Y482600D02*
X1246124Y1018474D01*
X1312926Y1085276D02*
X1312926Y1462499D01*
X1312926Y1085276D02*
X1246124Y1018474D01*
X1133000Y1456850D02*
X1111992Y1456850D01*
X1133000Y1456850D02*
X1149350Y1473200D01*
X1302225Y1473200D02*
X1312926Y1462499D01*
X1302225Y1473200D02*
X1149350Y1473200D01*
X1075971Y1437921D02*
X1075971Y1400656D01*
X1094900Y1456850D02*
X1111992Y1456850D01*
X1094900Y1456850D02*
X1075971Y1437921D01*
X706374Y117074D02*
X690000Y100700D01*
X706374Y117074D02*
X706374Y135349D01*
X728251Y157226D01*
X1060914Y157226D02*
X1241298Y337611D01*
X1060914Y157226D02*
X728251Y157226D01*
X1241298Y1020473D02*
X1294688Y1073863D01*
X1297037Y1076212D01*
X1241298Y1020473D02*
X1241298Y337611D01*
X1297037Y1076212D02*
X1308100Y1087275D01*
X1308100Y1460500D01*
X1301750Y1466850D01*
X1149825Y1466850D01*
X1127125Y1444150D02*
X1111992Y1444150D01*
X1127125Y1444150D02*
X1149825Y1466850D01*
X1082221Y1431471D02*
X1082221Y1400656D01*
X1094900Y1444150D02*
X1111992Y1444150D01*
X1094900Y1444150D02*
X1082221Y1431471D01*
X-10300Y824700D02*
X-19977Y824700D01*
X-28956Y815721D01*
X-28956Y796925D01*
X-19177Y787146D01*
X221Y787146D01*
X18763Y805688D01*
X171163Y805688D02*
X827499Y1462024D01*
X994250Y1456850D02*
X1009650Y1456850D01*
X1011408Y1456850D01*
X171163Y805688D02*
X18763Y805688D01*
X827499Y1462024D02*
X989076Y1462024D01*
X994250Y1456850D01*
X1038715Y1444135D02*
X1038715Y1400789D01*
X1026000Y1456850D02*
X1011408Y1456850D01*
X1026000Y1456850D02*
X1038715Y1444135D01*
X5550Y799300D02*
X-10300Y799300D01*
X16764Y810514D02*
X152400Y810514D01*
X16764Y810514D02*
X5550Y799300D01*
X988850Y1469550D02*
X1011408Y1469550D01*
X988850Y1469550D02*
X986150Y1466850D01*
X825500Y1466850D01*
X154470Y810514D02*
X152400Y810514D01*
X154470Y810514D02*
X169164Y810514D01*
X825500Y1466850D01*
X1044965Y1450585D02*
X1044965Y1400789D01*
X1026000Y1469550D02*
X1011408Y1469550D01*
X1026000Y1469550D02*
X1044965Y1450585D01*
X1327404Y1468496D02*
X1327404Y1079279D01*
X1327404Y1468496D02*
X1303396Y1492504D01*
X1310800Y876500D02*
X1321000Y876500D01*
X1327150Y882650D01*
X1327150Y1079025D01*
X1327404Y1079279D01*
X1117600Y1494950D02*
X1111992Y1494950D01*
X1117600Y1494950D02*
X1133475Y1494950D01*
X1135921Y1492504D01*
X1303396Y1492504D01*
X1087321Y1503479D02*
X1087321Y1577488D01*
X1095850Y1494950D02*
X1111992Y1494950D01*
X1095850Y1494950D02*
X1087321Y1503479D01*
X1310800Y851100D02*
X1324810Y851100D01*
X1332230Y1470495D02*
X1305395Y1497330D01*
X1137920Y1497330D01*
X1332230Y858520D02*
X1324810Y851100D01*
X1332230Y858520D02*
X1332230Y1470495D01*
X1127600Y1507650D02*
X1111992Y1507650D01*
X1127600Y1507650D02*
X1137920Y1497330D01*
X1111992Y1507650D02*
X1098644Y1507650D01*
X1093571Y1512723D02*
X1093571Y1577488D01*
X1093571Y1512723D02*
X1098644Y1507650D01*
D37*
X234696Y1648804D02*
X207550Y1675950D01*
D38*
X234696Y1143254D03*
D39*
X323850Y1054100D03*
D37*
X234696Y1143254D01*
X756600Y287300D02*
X756600Y261300D01*
X336804Y291846D02*
X336804Y323850D01*
X723900Y228600D02*
X756600Y261300D01*
X723900Y228600D02*
X400050Y228600D01*
X336804Y291846D01*
X234696Y1581150D02*
X234696Y1648804D01*
X234696Y1581150D02*
X234696Y1143254D01*
D40*
X234696Y1581150D03*
D28*
X331766Y1713934D02*
X325300Y1720400D01*
D31*
X371856Y964057D03*
D28*
X338455Y1707245D02*
X331766Y1713934D01*
X338455Y1707245D02*
X338455Y1136142D01*
X371856Y964057D02*
X371856Y847344D01*
X485775Y733425D01*
X495300Y723900D02*
X502600Y716600D01*
X495300Y723900D02*
X485775Y733425D01*
D31*
X371856Y1094994D03*
D28*
X371856Y1102741D01*
X338455Y1136142D01*
X502600Y297460D02*
X502600Y287300D01*
X502600Y297460D02*
X502600Y716600D01*
X495300Y723900D01*
X331766Y1713934D02*
X328872Y1721727D01*
X325300Y1720400D01*
X323973Y1716828D02*
X331766Y1713934D01*
X323973Y1716828D02*
X325300Y1720400D01*
X502600Y297460D02*
X498517Y289357D01*
X502600Y287300D01*
X506683Y289357D02*
X502600Y297460D01*
X506683Y289357D02*
X502600Y287300D01*
X376100Y1685856D02*
X376100Y1695000D01*
X376100Y1685856D02*
X376100Y1155393D01*
X403987Y1127506D01*
D31*
X403987Y1127506D03*
X412750Y1003300D03*
D28*
X412750Y844550D01*
X578800Y678500D01*
X578800Y297460D02*
X578800Y287300D01*
X578800Y297460D02*
X578800Y678500D01*
X376100Y1685856D02*
X379564Y1693412D01*
X376100Y1695000D01*
X372636Y1693412D02*
X376100Y1685856D01*
X372636Y1693412D02*
X376100Y1695000D01*
X578800Y297460D02*
X574717Y289357D01*
X578800Y287300D01*
X582883Y289357D02*
X578800Y297460D01*
X582883Y289357D02*
X578800Y287300D01*
X357166Y1713934D02*
X350700Y1720400D01*
X357166Y1713934D02*
X363855Y1707245D01*
X363855Y1147699D02*
X393700Y1117854D01*
D31*
X393700Y1117854D03*
D28*
X363855Y1147699D02*
X363855Y1707245D01*
D31*
X398907Y990219D03*
D28*
X398907Y845693D01*
X549275Y695325D01*
X553400Y691200D01*
X553400Y297460D02*
X553400Y287300D01*
X553400Y297460D02*
X553400Y691200D01*
X549275Y695325D01*
X357166Y1713934D02*
X354272Y1721727D01*
X350700Y1720400D01*
X349373Y1716828D02*
X357166Y1713934D01*
X349373Y1716828D02*
X350700Y1720400D01*
X553400Y297460D02*
X549317Y289357D01*
X553400Y287300D01*
X557483Y289357D02*
X553400Y297460D01*
X557483Y289357D02*
X553400Y287300D01*
X350700Y1685856D02*
X350700Y1695000D01*
X350700Y1685856D02*
X350700Y1142693D01*
X384429Y1108964D01*
D31*
X384429Y1108964D03*
X384683Y976503D03*
D28*
X384683Y847217D01*
X528000Y703900D01*
X528000Y297460D02*
X528000Y287300D01*
X528000Y297460D02*
X528000Y703900D01*
X350700Y1685856D02*
X354164Y1693412D01*
X350700Y1695000D01*
X347236Y1693412D02*
X350700Y1685856D01*
X347236Y1693412D02*
X350700Y1695000D01*
X528000Y297460D02*
X523917Y289357D01*
X528000Y287300D01*
X532083Y289357D02*
X528000Y297460D01*
X532083Y289357D02*
X528000Y287300D01*
X325300Y1685856D02*
X325300Y1695000D01*
X325300Y1685856D02*
X325300Y1127834D01*
X358267Y1094867D01*
D31*
X358902Y952246D03*
D28*
X358902Y847598D01*
X477200Y729300D01*
D31*
X358267Y1094867D03*
X358902Y1080389D03*
D28*
X358902Y1094232D01*
X358267Y1094867D01*
X477200Y729300D02*
X477200Y297460D01*
X477200Y287300D01*
X325300Y1685856D02*
X328764Y1693412D01*
X325300Y1695000D01*
X321836Y1693412D02*
X325300Y1685856D01*
X321836Y1693412D02*
X325300Y1695000D01*
X477200Y297460D02*
X473117Y289357D01*
X477200Y287300D01*
X481283Y289357D02*
X477200Y297460D01*
X481283Y289357D02*
X477200Y287300D01*
X401500Y1685856D02*
X401500Y1695000D01*
X401500Y1685856D02*
X401500Y1169363D01*
X422402Y1148461D01*
D31*
X422402Y1148461D03*
X437896Y1028065D03*
D28*
X437896Y846728D01*
X618490Y666134D01*
X618490Y334010D01*
X629600Y297460D02*
X629600Y287300D01*
X629600Y297460D02*
X629600Y322900D01*
X618490Y334010D01*
X401500Y1685856D02*
X404964Y1693412D01*
X401500Y1695000D01*
X398036Y1693412D02*
X401500Y1685856D01*
X398036Y1693412D02*
X401500Y1695000D01*
X629600Y297460D02*
X625517Y289357D01*
X629600Y287300D01*
X633683Y289357D02*
X629600Y297460D01*
X633683Y289357D02*
X629600Y287300D01*
X382566Y1713934D02*
X376100Y1720400D01*
X382566Y1713934D02*
X387350Y1709150D01*
X387350Y1708150D01*
X388874Y1706626D01*
X388874Y1584071D01*
X388874Y1163574D01*
X414655Y1137793D01*
D31*
X414655Y1137793D03*
X425450Y1016000D03*
D28*
X425450Y844550D01*
X604200Y297460D02*
X604200Y287300D01*
X604200Y297460D02*
X604200Y665800D01*
X425450Y844550D01*
X382566Y1713934D02*
X379672Y1721727D01*
X376100Y1720400D01*
X374773Y1716828D02*
X382566Y1713934D01*
X374773Y1716828D02*
X376100Y1720400D01*
X604200Y297460D02*
X600117Y289357D01*
X604200Y287300D01*
X608283Y289357D02*
X604200Y297460D01*
X608283Y289357D02*
X604200Y287300D01*
X426900Y1685856D02*
X426900Y1695000D01*
D31*
X463550Y1054354D03*
D28*
X426900Y1186000D02*
X426900Y1685856D01*
X463550Y1054354D02*
X463550Y844550D01*
X633730Y674370D01*
X633730Y401320D02*
X680400Y354650D01*
X633730Y401320D02*
X633730Y674370D01*
D31*
X426900Y1186000D03*
D28*
X426900Y1182317D01*
X442214Y1167003D01*
D31*
X442214Y1167003D03*
D28*
X680400Y354650D02*
X680400Y297460D01*
X680400Y287300D01*
X426900Y1685856D02*
X430364Y1693412D01*
X426900Y1695000D01*
X423436Y1693412D02*
X426900Y1685856D01*
X423436Y1693412D02*
X426900Y1695000D01*
X680400Y297460D02*
X676317Y289357D01*
X680400Y287300D01*
X684483Y289357D02*
X680400Y297460D01*
X684483Y289357D02*
X680400Y287300D01*
X433366Y1713934D02*
X426900Y1720400D01*
D31*
X476250Y1066800D03*
D28*
X439547Y1707753D02*
X433366Y1713934D01*
X476250Y1066800D02*
X476250Y844550D01*
X439547Y1187450D02*
X439547Y1707753D01*
X476250Y844550D02*
X641350Y679450D01*
X641350Y425450D01*
X705800Y361000D01*
D31*
X452374Y1174496D03*
D28*
X439547Y1187323D01*
X439547Y1187450D01*
X705800Y361000D02*
X705800Y297460D01*
X705800Y287300D01*
X433366Y1713934D02*
X430472Y1721727D01*
X426900Y1720400D01*
X425573Y1716828D02*
X433366Y1713934D01*
X425573Y1716828D02*
X426900Y1720400D01*
X705800Y297460D02*
X701717Y289357D01*
X705800Y287300D01*
X709883Y289357D02*
X705800Y297460D01*
X709883Y289357D02*
X705800Y287300D01*
X404310Y1720400D02*
X401500Y1720400D01*
X404310Y1720400D02*
X409216Y1715494D01*
X413893Y1710817D01*
X413893Y1176528D02*
X432181Y1158240D01*
D31*
X432181Y1158240D03*
D28*
X413893Y1176528D02*
X413893Y1710817D01*
X626110Y669290D02*
X626110Y358140D01*
X655000Y329250D01*
D31*
X451231Y1041654D03*
D28*
X451231Y844169D01*
X619125Y676275D01*
X626110Y669290D01*
X655000Y329250D02*
X655000Y297460D01*
X655000Y287300D01*
X409216Y1715494D02*
X404698Y1722471D01*
X401500Y1720400D01*
X400981Y1716625D02*
X409216Y1715494D01*
X400981Y1716625D02*
X401500Y1720400D01*
X655000Y297460D02*
X650917Y289357D01*
X655000Y287300D01*
X659083Y289357D02*
X655000Y297460D01*
X659083Y289357D02*
X655000Y287300D01*
X130800Y1585330D02*
X130800Y1609600D01*
X130800Y1585330D02*
X130847Y1585283D01*
D41*
X780000Y80000D03*
X380000Y80000D03*
X520000Y80000D03*
X920000Y80000D03*
X920000Y1867239D03*
X780000Y1867239D03*
X380000Y1867239D03*
X520000Y1867239D03*
D29*
X892810Y1620180D02*
X899582Y1613408D01*
X907932Y1613408D01*
X892810Y1641180D02*
X886400Y1647590D01*
X886400Y1674656D02*
X886400Y1683800D01*
X886400Y1674656D02*
X886400Y1647590D01*
X886400Y1674656D02*
X890680Y1680835D01*
X886400Y1683800D01*
X882120Y1680835D02*
X886400Y1674656D01*
X882120Y1680835D02*
X886400Y1683800D01*
D28*
X487013Y1624752D02*
X462407Y1624752D01*
X487013Y1624752D02*
X488070Y1623695D01*
X452300Y1685856D02*
X452300Y1695000D01*
X452300Y1685856D02*
X452300Y1655859D01*
X462407Y1645752D01*
X452300Y1685856D02*
X455764Y1693412D01*
X452300Y1695000D01*
X448836Y1693412D02*
X452300Y1685856D01*
X448836Y1693412D02*
X452300Y1695000D01*
M02*
