G04 EAGLE Gerber X2 export*
%TF.Part,Single*%
%TF.FileFunction,Other,Silk bottom*%
%TF.FilePolarity,Positive*%
%TF.GenerationSoftware,Autodesk,EAGLE,9.1.1*%
%TF.CreationDate,2018-08-10T14:31:17Z*%
G75*
%MOMM*%
%FSLAX34Y34*%
%LPD*%
%AMOC8*
5,1,8,0,0,1.08239X$1,22.5*%
G01*
%ADD10C,0.001000*%
%ADD11C,0.076200*%
%ADD12C,0.127000*%
%ADD13C,0.101600*%
%ADD14C,0.152400*%
%ADD15R,0.508000X0.508000*%
%ADD16C,0.609600*%
%ADD17R,0.762000X3.810000*%
%ADD18C,0.177800*%


D10*
X-100000Y0D02*
X1400000Y0D01*
X1400000Y1947239D01*
X-100000Y1947239D01*
X-100000Y0D01*
X560000Y973620D02*
X560027Y975829D01*
X560108Y978036D01*
X560244Y980241D01*
X560433Y982442D01*
X560677Y984637D01*
X560974Y986826D01*
X561325Y989007D01*
X561729Y991178D01*
X562187Y993339D01*
X562697Y995488D01*
X563260Y997624D01*
X563875Y999746D01*
X564542Y1001851D01*
X565261Y1003940D01*
X566031Y1006011D01*
X566851Y1008062D01*
X567721Y1010092D01*
X568641Y1012100D01*
X569610Y1014085D01*
X570627Y1016046D01*
X571692Y1017981D01*
X572804Y1019889D01*
X573963Y1021770D01*
X575168Y1023621D01*
X576417Y1025443D01*
X577711Y1027233D01*
X579049Y1028991D01*
X580429Y1030715D01*
X581851Y1032406D01*
X583314Y1034060D01*
X584818Y1035679D01*
X586360Y1037260D01*
X587941Y1038802D01*
X589560Y1040306D01*
X591214Y1041769D01*
X592905Y1043191D01*
X594629Y1044571D01*
X596387Y1045909D01*
X598177Y1047203D01*
X599999Y1048452D01*
X601850Y1049657D01*
X603731Y1050816D01*
X605639Y1051928D01*
X607574Y1052993D01*
X609535Y1054010D01*
X611520Y1054979D01*
X613528Y1055899D01*
X615558Y1056769D01*
X617609Y1057589D01*
X619680Y1058359D01*
X621769Y1059078D01*
X623874Y1059745D01*
X625996Y1060360D01*
X628132Y1060923D01*
X630281Y1061433D01*
X632442Y1061891D01*
X634613Y1062295D01*
X636794Y1062646D01*
X638983Y1062943D01*
X641178Y1063187D01*
X643379Y1063376D01*
X645584Y1063512D01*
X647791Y1063593D01*
X650000Y1063620D01*
X652209Y1063593D01*
X654416Y1063512D01*
X656621Y1063376D01*
X658822Y1063187D01*
X661017Y1062943D01*
X663206Y1062646D01*
X665387Y1062295D01*
X667558Y1061891D01*
X669719Y1061433D01*
X671868Y1060923D01*
X674004Y1060360D01*
X676126Y1059745D01*
X678231Y1059078D01*
X680320Y1058359D01*
X682391Y1057589D01*
X684442Y1056769D01*
X686472Y1055899D01*
X688480Y1054979D01*
X690465Y1054010D01*
X692426Y1052993D01*
X694361Y1051928D01*
X696269Y1050816D01*
X698150Y1049657D01*
X700001Y1048452D01*
X701823Y1047203D01*
X703613Y1045909D01*
X705371Y1044571D01*
X707095Y1043191D01*
X708786Y1041769D01*
X710440Y1040306D01*
X712059Y1038802D01*
X713640Y1037260D01*
X715182Y1035679D01*
X716686Y1034060D01*
X718149Y1032406D01*
X719571Y1030715D01*
X720951Y1028991D01*
X722289Y1027233D01*
X723583Y1025443D01*
X724832Y1023621D01*
X726037Y1021770D01*
X727196Y1019889D01*
X728308Y1017981D01*
X729373Y1016046D01*
X730390Y1014085D01*
X731359Y1012100D01*
X732279Y1010092D01*
X733149Y1008062D01*
X733969Y1006011D01*
X734739Y1003940D01*
X735458Y1001851D01*
X736125Y999746D01*
X736740Y997624D01*
X737303Y995488D01*
X737813Y993339D01*
X738271Y991178D01*
X738675Y989007D01*
X739026Y986826D01*
X739323Y984637D01*
X739567Y982442D01*
X739756Y980241D01*
X739892Y978036D01*
X739973Y975829D01*
X740000Y973620D01*
X739973Y971411D01*
X739892Y969204D01*
X739756Y966999D01*
X739567Y964798D01*
X739323Y962603D01*
X739026Y960414D01*
X738675Y958233D01*
X738271Y956062D01*
X737813Y953901D01*
X737303Y951752D01*
X736740Y949616D01*
X736125Y947494D01*
X735458Y945389D01*
X734739Y943300D01*
X733969Y941229D01*
X733149Y939178D01*
X732279Y937148D01*
X731359Y935140D01*
X730390Y933155D01*
X729373Y931194D01*
X728308Y929259D01*
X727196Y927351D01*
X726037Y925470D01*
X724832Y923619D01*
X723583Y921797D01*
X722289Y920007D01*
X720951Y918249D01*
X719571Y916525D01*
X718149Y914834D01*
X716686Y913180D01*
X715182Y911561D01*
X713640Y909980D01*
X712059Y908438D01*
X710440Y906934D01*
X708786Y905471D01*
X707095Y904049D01*
X705371Y902669D01*
X703613Y901331D01*
X701823Y900037D01*
X700001Y898788D01*
X698150Y897583D01*
X696269Y896424D01*
X694361Y895312D01*
X692426Y894247D01*
X690465Y893230D01*
X688480Y892261D01*
X686472Y891341D01*
X684442Y890471D01*
X682391Y889651D01*
X680320Y888881D01*
X678231Y888162D01*
X676126Y887495D01*
X674004Y886880D01*
X671868Y886317D01*
X669719Y885807D01*
X667558Y885349D01*
X665387Y884945D01*
X663206Y884594D01*
X661017Y884297D01*
X658822Y884053D01*
X656621Y883864D01*
X654416Y883728D01*
X652209Y883647D01*
X650000Y883620D01*
X647791Y883647D01*
X645584Y883728D01*
X643379Y883864D01*
X641178Y884053D01*
X638983Y884297D01*
X636794Y884594D01*
X634613Y884945D01*
X632442Y885349D01*
X630281Y885807D01*
X628132Y886317D01*
X625996Y886880D01*
X623874Y887495D01*
X621769Y888162D01*
X619680Y888881D01*
X617609Y889651D01*
X615558Y890471D01*
X613528Y891341D01*
X611520Y892261D01*
X609535Y893230D01*
X607574Y894247D01*
X605639Y895312D01*
X603731Y896424D01*
X601850Y897583D01*
X599999Y898788D01*
X598177Y900037D01*
X596387Y901331D01*
X594629Y902669D01*
X592905Y904049D01*
X591214Y905471D01*
X589560Y906934D01*
X587941Y908438D01*
X586360Y909980D01*
X584818Y911561D01*
X583314Y913180D01*
X581851Y914834D01*
X580429Y916525D01*
X579049Y918249D01*
X577711Y920007D01*
X576417Y921797D01*
X575168Y923619D01*
X573963Y925470D01*
X572804Y927351D01*
X571692Y929259D01*
X570627Y931194D01*
X569610Y933155D01*
X568641Y935140D01*
X567721Y937148D01*
X566851Y939178D01*
X566031Y941229D01*
X565261Y943300D01*
X564542Y945389D01*
X563875Y947494D01*
X563260Y949616D01*
X562697Y951752D01*
X562187Y953901D01*
X561729Y956062D01*
X561325Y958233D01*
X560974Y960414D01*
X560677Y962603D01*
X560433Y964798D01*
X560244Y966999D01*
X560108Y969204D01*
X560027Y971411D01*
X560000Y973620D01*
X560000Y1677239D02*
X560027Y1679448D01*
X560108Y1681655D01*
X560244Y1683860D01*
X560433Y1686061D01*
X560677Y1688256D01*
X560974Y1690445D01*
X561325Y1692626D01*
X561729Y1694797D01*
X562187Y1696958D01*
X562697Y1699107D01*
X563260Y1701243D01*
X563875Y1703365D01*
X564542Y1705470D01*
X565261Y1707559D01*
X566031Y1709630D01*
X566851Y1711681D01*
X567721Y1713711D01*
X568641Y1715719D01*
X569610Y1717704D01*
X570627Y1719665D01*
X571692Y1721600D01*
X572804Y1723508D01*
X573963Y1725389D01*
X575168Y1727240D01*
X576417Y1729062D01*
X577711Y1730852D01*
X579049Y1732610D01*
X580429Y1734334D01*
X581851Y1736025D01*
X583314Y1737679D01*
X584818Y1739298D01*
X586360Y1740879D01*
X587941Y1742421D01*
X589560Y1743925D01*
X591214Y1745388D01*
X592905Y1746810D01*
X594629Y1748190D01*
X596387Y1749528D01*
X598177Y1750822D01*
X599999Y1752071D01*
X601850Y1753276D01*
X603731Y1754435D01*
X605639Y1755547D01*
X607574Y1756612D01*
X609535Y1757629D01*
X611520Y1758598D01*
X613528Y1759518D01*
X615558Y1760388D01*
X617609Y1761208D01*
X619680Y1761978D01*
X621769Y1762697D01*
X623874Y1763364D01*
X625996Y1763979D01*
X628132Y1764542D01*
X630281Y1765052D01*
X632442Y1765510D01*
X634613Y1765914D01*
X636794Y1766265D01*
X638983Y1766562D01*
X641178Y1766806D01*
X643379Y1766995D01*
X645584Y1767131D01*
X647791Y1767212D01*
X650000Y1767239D01*
X652209Y1767212D01*
X654416Y1767131D01*
X656621Y1766995D01*
X658822Y1766806D01*
X661017Y1766562D01*
X663206Y1766265D01*
X665387Y1765914D01*
X667558Y1765510D01*
X669719Y1765052D01*
X671868Y1764542D01*
X674004Y1763979D01*
X676126Y1763364D01*
X678231Y1762697D01*
X680320Y1761978D01*
X682391Y1761208D01*
X684442Y1760388D01*
X686472Y1759518D01*
X688480Y1758598D01*
X690465Y1757629D01*
X692426Y1756612D01*
X694361Y1755547D01*
X696269Y1754435D01*
X698150Y1753276D01*
X700001Y1752071D01*
X701823Y1750822D01*
X703613Y1749528D01*
X705371Y1748190D01*
X707095Y1746810D01*
X708786Y1745388D01*
X710440Y1743925D01*
X712059Y1742421D01*
X713640Y1740879D01*
X715182Y1739298D01*
X716686Y1737679D01*
X718149Y1736025D01*
X719571Y1734334D01*
X720951Y1732610D01*
X722289Y1730852D01*
X723583Y1729062D01*
X724832Y1727240D01*
X726037Y1725389D01*
X727196Y1723508D01*
X728308Y1721600D01*
X729373Y1719665D01*
X730390Y1717704D01*
X731359Y1715719D01*
X732279Y1713711D01*
X733149Y1711681D01*
X733969Y1709630D01*
X734739Y1707559D01*
X735458Y1705470D01*
X736125Y1703365D01*
X736740Y1701243D01*
X737303Y1699107D01*
X737813Y1696958D01*
X738271Y1694797D01*
X738675Y1692626D01*
X739026Y1690445D01*
X739323Y1688256D01*
X739567Y1686061D01*
X739756Y1683860D01*
X739892Y1681655D01*
X739973Y1679448D01*
X740000Y1677239D01*
X739973Y1675030D01*
X739892Y1672823D01*
X739756Y1670618D01*
X739567Y1668417D01*
X739323Y1666222D01*
X739026Y1664033D01*
X738675Y1661852D01*
X738271Y1659681D01*
X737813Y1657520D01*
X737303Y1655371D01*
X736740Y1653235D01*
X736125Y1651113D01*
X735458Y1649008D01*
X734739Y1646919D01*
X733969Y1644848D01*
X733149Y1642797D01*
X732279Y1640767D01*
X731359Y1638759D01*
X730390Y1636774D01*
X729373Y1634813D01*
X728308Y1632878D01*
X727196Y1630970D01*
X726037Y1629089D01*
X724832Y1627238D01*
X723583Y1625416D01*
X722289Y1623626D01*
X720951Y1621868D01*
X719571Y1620144D01*
X718149Y1618453D01*
X716686Y1616799D01*
X715182Y1615180D01*
X713640Y1613599D01*
X712059Y1612057D01*
X710440Y1610553D01*
X708786Y1609090D01*
X707095Y1607668D01*
X705371Y1606288D01*
X703613Y1604950D01*
X701823Y1603656D01*
X700001Y1602407D01*
X698150Y1601202D01*
X696269Y1600043D01*
X694361Y1598931D01*
X692426Y1597866D01*
X690465Y1596849D01*
X688480Y1595880D01*
X686472Y1594960D01*
X684442Y1594090D01*
X682391Y1593270D01*
X680320Y1592500D01*
X678231Y1591781D01*
X676126Y1591114D01*
X674004Y1590499D01*
X671868Y1589936D01*
X669719Y1589426D01*
X667558Y1588968D01*
X665387Y1588564D01*
X663206Y1588213D01*
X661017Y1587916D01*
X658822Y1587672D01*
X656621Y1587483D01*
X654416Y1587347D01*
X652209Y1587266D01*
X650000Y1587239D01*
X647791Y1587266D01*
X645584Y1587347D01*
X643379Y1587483D01*
X641178Y1587672D01*
X638983Y1587916D01*
X636794Y1588213D01*
X634613Y1588564D01*
X632442Y1588968D01*
X630281Y1589426D01*
X628132Y1589936D01*
X625996Y1590499D01*
X623874Y1591114D01*
X621769Y1591781D01*
X619680Y1592500D01*
X617609Y1593270D01*
X615558Y1594090D01*
X613528Y1594960D01*
X611520Y1595880D01*
X609535Y1596849D01*
X607574Y1597866D01*
X605639Y1598931D01*
X603731Y1600043D01*
X601850Y1601202D01*
X599999Y1602407D01*
X598177Y1603656D01*
X596387Y1604950D01*
X594629Y1606288D01*
X592905Y1607668D01*
X591214Y1609090D01*
X589560Y1610553D01*
X587941Y1612057D01*
X586360Y1613599D01*
X584818Y1615180D01*
X583314Y1616799D01*
X581851Y1618453D01*
X580429Y1620144D01*
X579049Y1621868D01*
X577711Y1623626D01*
X576417Y1625416D01*
X575168Y1627238D01*
X573963Y1629089D01*
X572804Y1630970D01*
X571692Y1632878D01*
X570627Y1634813D01*
X569610Y1636774D01*
X568641Y1638759D01*
X567721Y1640767D01*
X566851Y1642797D01*
X566031Y1644848D01*
X565261Y1646919D01*
X564542Y1649008D01*
X563875Y1651113D01*
X563260Y1653235D01*
X562697Y1655371D01*
X562187Y1657520D01*
X561729Y1659681D01*
X561325Y1661852D01*
X560974Y1664033D01*
X560677Y1666222D01*
X560433Y1668417D01*
X560244Y1670618D01*
X560108Y1672823D01*
X560027Y1675030D01*
X560000Y1677239D01*
D11*
X896098Y265952D02*
X897664Y265952D01*
X896098Y265952D02*
X896098Y260731D01*
X899231Y260731D01*
X899320Y260733D01*
X899408Y260739D01*
X899496Y260748D01*
X899584Y260761D01*
X899671Y260778D01*
X899757Y260798D01*
X899842Y260823D01*
X899927Y260850D01*
X900010Y260882D01*
X900091Y260916D01*
X900171Y260955D01*
X900249Y260996D01*
X900326Y261041D01*
X900400Y261089D01*
X900473Y261140D01*
X900543Y261194D01*
X900610Y261252D01*
X900676Y261312D01*
X900738Y261374D01*
X900798Y261440D01*
X900856Y261507D01*
X900910Y261577D01*
X900961Y261650D01*
X901009Y261724D01*
X901054Y261801D01*
X901095Y261879D01*
X901134Y261959D01*
X901168Y262040D01*
X901200Y262123D01*
X901227Y262208D01*
X901252Y262293D01*
X901272Y262379D01*
X901289Y262466D01*
X901302Y262554D01*
X901311Y262642D01*
X901317Y262730D01*
X901319Y262819D01*
X901319Y268041D01*
X901317Y268130D01*
X901311Y268218D01*
X901302Y268306D01*
X901289Y268394D01*
X901272Y268481D01*
X901252Y268567D01*
X901227Y268652D01*
X901200Y268737D01*
X901168Y268820D01*
X901134Y268901D01*
X901095Y268981D01*
X901054Y269059D01*
X901009Y269136D01*
X900961Y269210D01*
X900910Y269283D01*
X900856Y269353D01*
X900798Y269420D01*
X900738Y269486D01*
X900676Y269548D01*
X900610Y269608D01*
X900543Y269666D01*
X900473Y269720D01*
X900400Y269771D01*
X900326Y269819D01*
X900249Y269864D01*
X900171Y269905D01*
X900091Y269944D01*
X900010Y269978D01*
X899927Y270010D01*
X899842Y270037D01*
X899757Y270062D01*
X899671Y270082D01*
X899584Y270099D01*
X899496Y270112D01*
X899408Y270121D01*
X899320Y270127D01*
X899231Y270129D01*
X896098Y270129D01*
X847386Y260731D02*
X847297Y260733D01*
X847209Y260739D01*
X847121Y260748D01*
X847033Y260761D01*
X846946Y260778D01*
X846860Y260798D01*
X846775Y260823D01*
X846690Y260850D01*
X846607Y260882D01*
X846526Y260916D01*
X846446Y260955D01*
X846368Y260996D01*
X846291Y261041D01*
X846217Y261089D01*
X846144Y261140D01*
X846074Y261194D01*
X846007Y261252D01*
X845941Y261312D01*
X845879Y261374D01*
X845819Y261440D01*
X845761Y261507D01*
X845707Y261577D01*
X845656Y261650D01*
X845608Y261724D01*
X845563Y261801D01*
X845522Y261879D01*
X845483Y261959D01*
X845449Y262040D01*
X845417Y262123D01*
X845390Y262208D01*
X845365Y262293D01*
X845345Y262379D01*
X845328Y262466D01*
X845315Y262554D01*
X845306Y262642D01*
X845300Y262730D01*
X845298Y262819D01*
X847386Y260731D02*
X847515Y260733D01*
X847644Y260739D01*
X847773Y260748D01*
X847901Y260761D01*
X848029Y260778D01*
X848156Y260799D01*
X848283Y260823D01*
X848409Y260851D01*
X848534Y260883D01*
X848658Y260918D01*
X848781Y260957D01*
X848903Y261000D01*
X849023Y261046D01*
X849142Y261096D01*
X849260Y261149D01*
X849376Y261205D01*
X849490Y261265D01*
X849603Y261328D01*
X849713Y261395D01*
X849822Y261464D01*
X849928Y261537D01*
X850033Y261613D01*
X850135Y261692D01*
X850235Y261774D01*
X850332Y261858D01*
X850427Y261946D01*
X850519Y262036D01*
X850258Y268041D02*
X850256Y268130D01*
X850250Y268218D01*
X850241Y268306D01*
X850228Y268394D01*
X850211Y268481D01*
X850191Y268567D01*
X850166Y268652D01*
X850139Y268737D01*
X850107Y268820D01*
X850073Y268901D01*
X850034Y268981D01*
X849993Y269059D01*
X849948Y269136D01*
X849900Y269210D01*
X849849Y269283D01*
X849795Y269353D01*
X849737Y269420D01*
X849677Y269486D01*
X849615Y269548D01*
X849549Y269608D01*
X849482Y269666D01*
X849412Y269720D01*
X849339Y269771D01*
X849265Y269819D01*
X849188Y269864D01*
X849110Y269905D01*
X849030Y269944D01*
X848949Y269978D01*
X848866Y270010D01*
X848781Y270037D01*
X848696Y270062D01*
X848610Y270082D01*
X848523Y270099D01*
X848435Y270112D01*
X848347Y270121D01*
X848259Y270127D01*
X848170Y270129D01*
X848050Y270127D01*
X847930Y270122D01*
X847811Y270112D01*
X847691Y270100D01*
X847572Y270083D01*
X847454Y270063D01*
X847336Y270039D01*
X847220Y270012D01*
X847104Y269981D01*
X846989Y269947D01*
X846875Y269909D01*
X846762Y269867D01*
X846651Y269822D01*
X846541Y269774D01*
X846433Y269723D01*
X846326Y269668D01*
X846221Y269610D01*
X846118Y269548D01*
X846017Y269484D01*
X845917Y269416D01*
X845820Y269346D01*
X849214Y266214D02*
X849292Y266262D01*
X849368Y266314D01*
X849441Y266368D01*
X849512Y266426D01*
X849581Y266487D01*
X849647Y266551D01*
X849710Y266618D01*
X849770Y266687D01*
X849827Y266759D01*
X849881Y266833D01*
X849931Y266910D01*
X849979Y266989D01*
X850022Y267069D01*
X850063Y267152D01*
X850099Y267236D01*
X850132Y267321D01*
X850161Y267408D01*
X850187Y267497D01*
X850209Y267586D01*
X850226Y267676D01*
X850240Y267766D01*
X850250Y267858D01*
X850256Y267949D01*
X850258Y268041D01*
X846342Y264646D02*
X846264Y264598D01*
X846188Y264546D01*
X846115Y264492D01*
X846044Y264434D01*
X845975Y264373D01*
X845909Y264309D01*
X845846Y264242D01*
X845786Y264173D01*
X845729Y264101D01*
X845675Y264027D01*
X845625Y263950D01*
X845577Y263871D01*
X845534Y263791D01*
X845493Y263708D01*
X845457Y263624D01*
X845424Y263539D01*
X845395Y263452D01*
X845369Y263363D01*
X845347Y263274D01*
X845330Y263184D01*
X845316Y263094D01*
X845306Y263002D01*
X845300Y262911D01*
X845298Y262819D01*
X846342Y264647D02*
X849214Y266213D01*
X840898Y270129D02*
X840898Y260731D01*
X841942Y260731D02*
X839854Y260731D01*
X839854Y270129D02*
X841942Y270129D01*
X832234Y265952D02*
X830668Y265952D01*
X830668Y260731D01*
X833800Y260731D01*
X833889Y260733D01*
X833977Y260739D01*
X834065Y260748D01*
X834153Y260761D01*
X834240Y260778D01*
X834326Y260798D01*
X834411Y260823D01*
X834496Y260850D01*
X834579Y260882D01*
X834660Y260916D01*
X834740Y260955D01*
X834818Y260996D01*
X834895Y261041D01*
X834969Y261089D01*
X835042Y261140D01*
X835112Y261194D01*
X835179Y261252D01*
X835245Y261312D01*
X835307Y261374D01*
X835367Y261440D01*
X835425Y261507D01*
X835479Y261577D01*
X835530Y261650D01*
X835578Y261724D01*
X835623Y261801D01*
X835664Y261879D01*
X835703Y261959D01*
X835737Y262040D01*
X835769Y262123D01*
X835796Y262208D01*
X835821Y262293D01*
X835841Y262379D01*
X835858Y262466D01*
X835871Y262554D01*
X835880Y262642D01*
X835886Y262730D01*
X835888Y262819D01*
X835889Y262819D02*
X835889Y268041D01*
X835888Y268041D02*
X835886Y268130D01*
X835880Y268218D01*
X835871Y268306D01*
X835858Y268394D01*
X835841Y268481D01*
X835821Y268567D01*
X835796Y268652D01*
X835769Y268737D01*
X835737Y268820D01*
X835703Y268901D01*
X835664Y268981D01*
X835623Y269059D01*
X835578Y269136D01*
X835530Y269210D01*
X835479Y269283D01*
X835425Y269353D01*
X835367Y269420D01*
X835307Y269486D01*
X835245Y269548D01*
X835179Y269608D01*
X835112Y269666D01*
X835042Y269720D01*
X834969Y269771D01*
X834895Y269819D01*
X834818Y269864D01*
X834740Y269905D01*
X834660Y269944D01*
X834579Y269978D01*
X834496Y270010D01*
X834411Y270037D01*
X834326Y270062D01*
X834240Y270082D01*
X834153Y270099D01*
X834065Y270112D01*
X833977Y270121D01*
X833889Y270127D01*
X833800Y270129D01*
X830668Y270129D01*
X688636Y1568831D02*
X688547Y1568833D01*
X688459Y1568839D01*
X688371Y1568848D01*
X688283Y1568861D01*
X688196Y1568878D01*
X688110Y1568898D01*
X688025Y1568923D01*
X687940Y1568950D01*
X687857Y1568982D01*
X687776Y1569016D01*
X687696Y1569055D01*
X687618Y1569096D01*
X687541Y1569141D01*
X687467Y1569189D01*
X687394Y1569240D01*
X687324Y1569294D01*
X687257Y1569352D01*
X687191Y1569412D01*
X687129Y1569474D01*
X687069Y1569540D01*
X687011Y1569607D01*
X686957Y1569677D01*
X686906Y1569750D01*
X686858Y1569824D01*
X686813Y1569901D01*
X686772Y1569979D01*
X686733Y1570059D01*
X686699Y1570140D01*
X686667Y1570223D01*
X686640Y1570308D01*
X686615Y1570393D01*
X686595Y1570479D01*
X686578Y1570566D01*
X686565Y1570654D01*
X686556Y1570742D01*
X686550Y1570830D01*
X686548Y1570919D01*
X688636Y1568831D02*
X688765Y1568833D01*
X688894Y1568839D01*
X689023Y1568848D01*
X689151Y1568861D01*
X689279Y1568878D01*
X689406Y1568899D01*
X689533Y1568923D01*
X689659Y1568951D01*
X689784Y1568983D01*
X689908Y1569018D01*
X690031Y1569057D01*
X690153Y1569100D01*
X690273Y1569146D01*
X690392Y1569196D01*
X690510Y1569249D01*
X690626Y1569305D01*
X690740Y1569365D01*
X690853Y1569428D01*
X690963Y1569495D01*
X691072Y1569564D01*
X691178Y1569637D01*
X691283Y1569713D01*
X691385Y1569792D01*
X691485Y1569874D01*
X691582Y1569958D01*
X691677Y1570046D01*
X691769Y1570136D01*
X691508Y1576141D02*
X691506Y1576230D01*
X691500Y1576318D01*
X691491Y1576406D01*
X691478Y1576494D01*
X691461Y1576581D01*
X691441Y1576667D01*
X691416Y1576752D01*
X691389Y1576837D01*
X691357Y1576920D01*
X691323Y1577001D01*
X691284Y1577081D01*
X691243Y1577159D01*
X691198Y1577236D01*
X691150Y1577310D01*
X691099Y1577383D01*
X691045Y1577453D01*
X690987Y1577520D01*
X690927Y1577586D01*
X690865Y1577648D01*
X690799Y1577708D01*
X690732Y1577766D01*
X690662Y1577820D01*
X690589Y1577871D01*
X690515Y1577919D01*
X690438Y1577964D01*
X690360Y1578005D01*
X690280Y1578044D01*
X690199Y1578078D01*
X690116Y1578110D01*
X690031Y1578137D01*
X689946Y1578162D01*
X689860Y1578182D01*
X689773Y1578199D01*
X689685Y1578212D01*
X689597Y1578221D01*
X689509Y1578227D01*
X689420Y1578229D01*
X689300Y1578227D01*
X689180Y1578222D01*
X689061Y1578212D01*
X688941Y1578200D01*
X688822Y1578183D01*
X688704Y1578163D01*
X688586Y1578139D01*
X688470Y1578112D01*
X688354Y1578081D01*
X688239Y1578047D01*
X688125Y1578009D01*
X688012Y1577967D01*
X687901Y1577922D01*
X687791Y1577874D01*
X687683Y1577823D01*
X687576Y1577768D01*
X687471Y1577710D01*
X687368Y1577648D01*
X687267Y1577584D01*
X687167Y1577516D01*
X687070Y1577446D01*
X690464Y1574314D02*
X690542Y1574362D01*
X690618Y1574414D01*
X690691Y1574468D01*
X690762Y1574526D01*
X690831Y1574587D01*
X690897Y1574651D01*
X690960Y1574718D01*
X691020Y1574787D01*
X691077Y1574859D01*
X691131Y1574933D01*
X691181Y1575010D01*
X691229Y1575089D01*
X691272Y1575169D01*
X691313Y1575252D01*
X691349Y1575336D01*
X691382Y1575421D01*
X691411Y1575508D01*
X691437Y1575597D01*
X691459Y1575686D01*
X691476Y1575776D01*
X691490Y1575866D01*
X691500Y1575958D01*
X691506Y1576049D01*
X691508Y1576141D01*
X687592Y1572746D02*
X687514Y1572698D01*
X687438Y1572646D01*
X687365Y1572592D01*
X687294Y1572534D01*
X687225Y1572473D01*
X687159Y1572409D01*
X687096Y1572342D01*
X687036Y1572273D01*
X686979Y1572201D01*
X686925Y1572127D01*
X686875Y1572050D01*
X686827Y1571971D01*
X686784Y1571891D01*
X686743Y1571808D01*
X686707Y1571724D01*
X686674Y1571639D01*
X686645Y1571552D01*
X686619Y1571463D01*
X686597Y1571374D01*
X686580Y1571284D01*
X686566Y1571194D01*
X686556Y1571102D01*
X686550Y1571011D01*
X686548Y1570919D01*
X687592Y1572747D02*
X690464Y1574313D01*
X682148Y1578229D02*
X682148Y1568831D01*
X683192Y1568831D02*
X681104Y1568831D01*
X681104Y1578229D02*
X683192Y1578229D01*
X673484Y1574052D02*
X671918Y1574052D01*
X671918Y1568831D01*
X675050Y1568831D01*
X675139Y1568833D01*
X675227Y1568839D01*
X675315Y1568848D01*
X675403Y1568861D01*
X675490Y1568878D01*
X675576Y1568898D01*
X675661Y1568923D01*
X675746Y1568950D01*
X675829Y1568982D01*
X675910Y1569016D01*
X675990Y1569055D01*
X676068Y1569096D01*
X676145Y1569141D01*
X676219Y1569189D01*
X676292Y1569240D01*
X676362Y1569294D01*
X676429Y1569352D01*
X676495Y1569412D01*
X676557Y1569474D01*
X676617Y1569540D01*
X676675Y1569607D01*
X676729Y1569677D01*
X676780Y1569750D01*
X676828Y1569824D01*
X676873Y1569901D01*
X676914Y1569979D01*
X676953Y1570059D01*
X676987Y1570140D01*
X677019Y1570223D01*
X677046Y1570308D01*
X677071Y1570393D01*
X677091Y1570479D01*
X677108Y1570566D01*
X677121Y1570654D01*
X677130Y1570742D01*
X677136Y1570830D01*
X677138Y1570919D01*
X677139Y1570919D02*
X677139Y1576141D01*
X677138Y1576141D02*
X677136Y1576230D01*
X677130Y1576318D01*
X677121Y1576406D01*
X677108Y1576494D01*
X677091Y1576581D01*
X677071Y1576667D01*
X677046Y1576752D01*
X677019Y1576837D01*
X676987Y1576920D01*
X676953Y1577001D01*
X676914Y1577081D01*
X676873Y1577159D01*
X676828Y1577236D01*
X676780Y1577310D01*
X676729Y1577383D01*
X676675Y1577453D01*
X676617Y1577520D01*
X676557Y1577586D01*
X676495Y1577648D01*
X676429Y1577708D01*
X676362Y1577766D01*
X676292Y1577820D01*
X676219Y1577871D01*
X676145Y1577919D01*
X676068Y1577964D01*
X675990Y1578005D01*
X675910Y1578044D01*
X675829Y1578078D01*
X675746Y1578110D01*
X675661Y1578137D01*
X675576Y1578162D01*
X675490Y1578182D01*
X675403Y1578199D01*
X675315Y1578212D01*
X675227Y1578221D01*
X675139Y1578227D01*
X675050Y1578229D01*
X671918Y1578229D01*
X630964Y1574052D02*
X629398Y1574052D01*
X629398Y1568831D01*
X632531Y1568831D01*
X632620Y1568833D01*
X632708Y1568839D01*
X632796Y1568848D01*
X632884Y1568861D01*
X632971Y1568878D01*
X633057Y1568898D01*
X633142Y1568923D01*
X633227Y1568950D01*
X633310Y1568982D01*
X633391Y1569016D01*
X633471Y1569055D01*
X633549Y1569096D01*
X633626Y1569141D01*
X633700Y1569189D01*
X633773Y1569240D01*
X633843Y1569294D01*
X633910Y1569352D01*
X633976Y1569412D01*
X634038Y1569474D01*
X634098Y1569540D01*
X634156Y1569607D01*
X634210Y1569677D01*
X634261Y1569750D01*
X634309Y1569824D01*
X634354Y1569901D01*
X634395Y1569979D01*
X634434Y1570059D01*
X634468Y1570140D01*
X634500Y1570223D01*
X634527Y1570308D01*
X634552Y1570393D01*
X634572Y1570479D01*
X634589Y1570566D01*
X634602Y1570654D01*
X634611Y1570742D01*
X634617Y1570830D01*
X634619Y1570919D01*
X634619Y1576141D01*
X634617Y1576230D01*
X634611Y1576318D01*
X634602Y1576406D01*
X634589Y1576494D01*
X634572Y1576581D01*
X634552Y1576667D01*
X634527Y1576752D01*
X634500Y1576837D01*
X634468Y1576920D01*
X634434Y1577001D01*
X634395Y1577081D01*
X634354Y1577159D01*
X634309Y1577236D01*
X634261Y1577310D01*
X634210Y1577383D01*
X634156Y1577453D01*
X634098Y1577520D01*
X634038Y1577586D01*
X633976Y1577648D01*
X633910Y1577708D01*
X633843Y1577766D01*
X633773Y1577820D01*
X633700Y1577871D01*
X633626Y1577919D01*
X633549Y1577964D01*
X633471Y1578005D01*
X633391Y1578044D01*
X633310Y1578078D01*
X633227Y1578110D01*
X633142Y1578137D01*
X633057Y1578162D01*
X632971Y1578182D01*
X632884Y1578199D01*
X632796Y1578212D01*
X632708Y1578221D01*
X632620Y1578227D01*
X632531Y1578229D01*
X629398Y1578229D01*
D12*
X834433Y1734847D02*
X954433Y1734847D01*
X954433Y1769847D01*
X834433Y1769847D01*
X834433Y1734847D01*
D13*
X946134Y1719855D02*
X948731Y1719855D01*
X948830Y1719857D01*
X948930Y1719863D01*
X949029Y1719872D01*
X949127Y1719885D01*
X949225Y1719902D01*
X949323Y1719923D01*
X949419Y1719948D01*
X949514Y1719976D01*
X949608Y1720008D01*
X949701Y1720043D01*
X949793Y1720082D01*
X949883Y1720125D01*
X949971Y1720170D01*
X950058Y1720220D01*
X950142Y1720272D01*
X950225Y1720328D01*
X950305Y1720386D01*
X950383Y1720448D01*
X950458Y1720513D01*
X950531Y1720581D01*
X950601Y1720651D01*
X950669Y1720724D01*
X950734Y1720799D01*
X950796Y1720877D01*
X950854Y1720957D01*
X950910Y1721040D01*
X950962Y1721124D01*
X951012Y1721211D01*
X951057Y1721299D01*
X951100Y1721389D01*
X951139Y1721481D01*
X951174Y1721574D01*
X951206Y1721668D01*
X951234Y1721763D01*
X951259Y1721859D01*
X951280Y1721957D01*
X951297Y1722055D01*
X951310Y1722153D01*
X951319Y1722252D01*
X951325Y1722352D01*
X951327Y1722451D01*
X951327Y1728943D01*
X951325Y1729042D01*
X951319Y1729142D01*
X951310Y1729241D01*
X951297Y1729339D01*
X951280Y1729437D01*
X951259Y1729535D01*
X951234Y1729631D01*
X951206Y1729726D01*
X951174Y1729820D01*
X951139Y1729913D01*
X951100Y1730005D01*
X951057Y1730095D01*
X951012Y1730183D01*
X950962Y1730270D01*
X950910Y1730354D01*
X950854Y1730437D01*
X950796Y1730517D01*
X950734Y1730595D01*
X950669Y1730670D01*
X950601Y1730743D01*
X950531Y1730813D01*
X950458Y1730881D01*
X950383Y1730946D01*
X950305Y1731008D01*
X950225Y1731066D01*
X950142Y1731122D01*
X950058Y1731174D01*
X949971Y1731224D01*
X949883Y1731269D01*
X949793Y1731312D01*
X949701Y1731351D01*
X949608Y1731386D01*
X949514Y1731418D01*
X949419Y1731446D01*
X949323Y1731471D01*
X949225Y1731492D01*
X949127Y1731509D01*
X949029Y1731522D01*
X948930Y1731531D01*
X948830Y1731537D01*
X948731Y1731539D01*
X946134Y1731539D01*
X941769Y1728293D02*
X941769Y1723101D01*
X941770Y1728293D02*
X941768Y1728406D01*
X941762Y1728519D01*
X941752Y1728632D01*
X941738Y1728745D01*
X941721Y1728857D01*
X941699Y1728968D01*
X941674Y1729078D01*
X941644Y1729188D01*
X941611Y1729296D01*
X941574Y1729403D01*
X941534Y1729509D01*
X941489Y1729613D01*
X941441Y1729716D01*
X941390Y1729817D01*
X941335Y1729916D01*
X941277Y1730013D01*
X941215Y1730108D01*
X941150Y1730201D01*
X941082Y1730291D01*
X941011Y1730379D01*
X940936Y1730465D01*
X940859Y1730548D01*
X940779Y1730628D01*
X940696Y1730705D01*
X940610Y1730780D01*
X940522Y1730851D01*
X940432Y1730919D01*
X940339Y1730984D01*
X940244Y1731046D01*
X940147Y1731104D01*
X940048Y1731159D01*
X939947Y1731210D01*
X939844Y1731258D01*
X939740Y1731303D01*
X939634Y1731343D01*
X939527Y1731380D01*
X939419Y1731413D01*
X939309Y1731443D01*
X939199Y1731468D01*
X939088Y1731490D01*
X938976Y1731507D01*
X938863Y1731521D01*
X938750Y1731531D01*
X938637Y1731537D01*
X938524Y1731539D01*
X938411Y1731537D01*
X938298Y1731531D01*
X938185Y1731521D01*
X938072Y1731507D01*
X937960Y1731490D01*
X937849Y1731468D01*
X937739Y1731443D01*
X937629Y1731413D01*
X937521Y1731380D01*
X937414Y1731343D01*
X937308Y1731303D01*
X937204Y1731258D01*
X937101Y1731210D01*
X937000Y1731159D01*
X936901Y1731104D01*
X936804Y1731046D01*
X936709Y1730984D01*
X936616Y1730919D01*
X936526Y1730851D01*
X936438Y1730780D01*
X936352Y1730705D01*
X936269Y1730628D01*
X936189Y1730548D01*
X936112Y1730465D01*
X936037Y1730379D01*
X935966Y1730291D01*
X935898Y1730201D01*
X935833Y1730108D01*
X935771Y1730013D01*
X935713Y1729916D01*
X935658Y1729817D01*
X935607Y1729716D01*
X935559Y1729613D01*
X935514Y1729509D01*
X935474Y1729403D01*
X935437Y1729296D01*
X935404Y1729188D01*
X935374Y1729078D01*
X935349Y1728968D01*
X935327Y1728857D01*
X935310Y1728745D01*
X935296Y1728632D01*
X935286Y1728519D01*
X935280Y1728406D01*
X935278Y1728293D01*
X935278Y1723101D01*
X935280Y1722988D01*
X935286Y1722875D01*
X935296Y1722762D01*
X935310Y1722649D01*
X935327Y1722537D01*
X935349Y1722426D01*
X935374Y1722316D01*
X935404Y1722206D01*
X935437Y1722098D01*
X935474Y1721991D01*
X935514Y1721885D01*
X935559Y1721781D01*
X935607Y1721678D01*
X935658Y1721577D01*
X935713Y1721478D01*
X935771Y1721381D01*
X935833Y1721286D01*
X935898Y1721193D01*
X935966Y1721103D01*
X936037Y1721015D01*
X936112Y1720929D01*
X936189Y1720846D01*
X936269Y1720766D01*
X936352Y1720689D01*
X936438Y1720614D01*
X936526Y1720543D01*
X936616Y1720475D01*
X936709Y1720410D01*
X936804Y1720348D01*
X936901Y1720290D01*
X937000Y1720235D01*
X937101Y1720184D01*
X937204Y1720136D01*
X937308Y1720091D01*
X937414Y1720051D01*
X937521Y1720014D01*
X937629Y1719981D01*
X937739Y1719951D01*
X937849Y1719926D01*
X937960Y1719904D01*
X938072Y1719887D01*
X938185Y1719873D01*
X938298Y1719863D01*
X938411Y1719857D01*
X938524Y1719855D01*
X938637Y1719857D01*
X938750Y1719863D01*
X938863Y1719873D01*
X938976Y1719887D01*
X939088Y1719904D01*
X939199Y1719926D01*
X939309Y1719951D01*
X939419Y1719981D01*
X939527Y1720014D01*
X939634Y1720051D01*
X939740Y1720091D01*
X939844Y1720136D01*
X939947Y1720184D01*
X940048Y1720235D01*
X940147Y1720290D01*
X940244Y1720348D01*
X940339Y1720410D01*
X940432Y1720475D01*
X940522Y1720543D01*
X940610Y1720614D01*
X940696Y1720689D01*
X940779Y1720766D01*
X940859Y1720846D01*
X940936Y1720929D01*
X941011Y1721015D01*
X941082Y1721103D01*
X941150Y1721193D01*
X941215Y1721286D01*
X941277Y1721381D01*
X941335Y1721478D01*
X941390Y1721577D01*
X941441Y1721678D01*
X941489Y1721781D01*
X941534Y1721885D01*
X941574Y1721991D01*
X941611Y1722098D01*
X941644Y1722206D01*
X941674Y1722316D01*
X941699Y1722426D01*
X941721Y1722537D01*
X941738Y1722649D01*
X941752Y1722762D01*
X941762Y1722875D01*
X941768Y1722988D01*
X941770Y1723101D01*
X929936Y1719855D02*
X929936Y1731539D01*
X929936Y1719855D02*
X924743Y1719855D01*
X920433Y1723101D02*
X920433Y1728293D01*
X920434Y1728293D02*
X920432Y1728406D01*
X920426Y1728519D01*
X920416Y1728632D01*
X920402Y1728745D01*
X920385Y1728857D01*
X920363Y1728968D01*
X920338Y1729078D01*
X920308Y1729188D01*
X920275Y1729296D01*
X920238Y1729403D01*
X920198Y1729509D01*
X920153Y1729613D01*
X920105Y1729716D01*
X920054Y1729817D01*
X919999Y1729916D01*
X919941Y1730013D01*
X919879Y1730108D01*
X919814Y1730201D01*
X919746Y1730291D01*
X919675Y1730379D01*
X919600Y1730465D01*
X919523Y1730548D01*
X919443Y1730628D01*
X919360Y1730705D01*
X919274Y1730780D01*
X919186Y1730851D01*
X919096Y1730919D01*
X919003Y1730984D01*
X918908Y1731046D01*
X918811Y1731104D01*
X918712Y1731159D01*
X918611Y1731210D01*
X918508Y1731258D01*
X918404Y1731303D01*
X918298Y1731343D01*
X918191Y1731380D01*
X918083Y1731413D01*
X917973Y1731443D01*
X917863Y1731468D01*
X917752Y1731490D01*
X917640Y1731507D01*
X917527Y1731521D01*
X917414Y1731531D01*
X917301Y1731537D01*
X917188Y1731539D01*
X917075Y1731537D01*
X916962Y1731531D01*
X916849Y1731521D01*
X916736Y1731507D01*
X916624Y1731490D01*
X916513Y1731468D01*
X916403Y1731443D01*
X916293Y1731413D01*
X916185Y1731380D01*
X916078Y1731343D01*
X915972Y1731303D01*
X915868Y1731258D01*
X915765Y1731210D01*
X915664Y1731159D01*
X915565Y1731104D01*
X915468Y1731046D01*
X915373Y1730984D01*
X915280Y1730919D01*
X915190Y1730851D01*
X915102Y1730780D01*
X915016Y1730705D01*
X914933Y1730628D01*
X914853Y1730548D01*
X914776Y1730465D01*
X914701Y1730379D01*
X914630Y1730291D01*
X914562Y1730201D01*
X914497Y1730108D01*
X914435Y1730013D01*
X914377Y1729916D01*
X914322Y1729817D01*
X914271Y1729716D01*
X914223Y1729613D01*
X914178Y1729509D01*
X914138Y1729403D01*
X914101Y1729296D01*
X914068Y1729188D01*
X914038Y1729078D01*
X914013Y1728968D01*
X913991Y1728857D01*
X913974Y1728745D01*
X913960Y1728632D01*
X913950Y1728519D01*
X913944Y1728406D01*
X913942Y1728293D01*
X913942Y1723101D01*
X913944Y1722988D01*
X913950Y1722875D01*
X913960Y1722762D01*
X913974Y1722649D01*
X913991Y1722537D01*
X914013Y1722426D01*
X914038Y1722316D01*
X914068Y1722206D01*
X914101Y1722098D01*
X914138Y1721991D01*
X914178Y1721885D01*
X914223Y1721781D01*
X914271Y1721678D01*
X914322Y1721577D01*
X914377Y1721478D01*
X914435Y1721381D01*
X914497Y1721286D01*
X914562Y1721193D01*
X914630Y1721103D01*
X914701Y1721015D01*
X914776Y1720929D01*
X914853Y1720846D01*
X914933Y1720766D01*
X915016Y1720689D01*
X915102Y1720614D01*
X915190Y1720543D01*
X915280Y1720475D01*
X915373Y1720410D01*
X915468Y1720348D01*
X915565Y1720290D01*
X915664Y1720235D01*
X915765Y1720184D01*
X915868Y1720136D01*
X915972Y1720091D01*
X916078Y1720051D01*
X916185Y1720014D01*
X916293Y1719981D01*
X916403Y1719951D01*
X916513Y1719926D01*
X916624Y1719904D01*
X916736Y1719887D01*
X916849Y1719873D01*
X916962Y1719863D01*
X917075Y1719857D01*
X917188Y1719855D01*
X917301Y1719857D01*
X917414Y1719863D01*
X917527Y1719873D01*
X917640Y1719887D01*
X917752Y1719904D01*
X917863Y1719926D01*
X917973Y1719951D01*
X918083Y1719981D01*
X918191Y1720014D01*
X918298Y1720051D01*
X918404Y1720091D01*
X918508Y1720136D01*
X918611Y1720184D01*
X918712Y1720235D01*
X918811Y1720290D01*
X918908Y1720348D01*
X919003Y1720410D01*
X919096Y1720475D01*
X919186Y1720543D01*
X919274Y1720614D01*
X919360Y1720689D01*
X919443Y1720766D01*
X919523Y1720846D01*
X919600Y1720929D01*
X919675Y1721015D01*
X919746Y1721103D01*
X919814Y1721193D01*
X919879Y1721286D01*
X919941Y1721381D01*
X919999Y1721478D01*
X920054Y1721577D01*
X920105Y1721678D01*
X920153Y1721781D01*
X920198Y1721885D01*
X920238Y1721991D01*
X920275Y1722098D01*
X920308Y1722206D01*
X920338Y1722316D01*
X920363Y1722426D01*
X920385Y1722537D01*
X920402Y1722649D01*
X920416Y1722762D01*
X920426Y1722875D01*
X920432Y1722988D01*
X920434Y1723101D01*
X908549Y1719855D02*
X908549Y1731539D01*
X905303Y1731539D01*
X905190Y1731537D01*
X905077Y1731531D01*
X904964Y1731521D01*
X904851Y1731507D01*
X904739Y1731490D01*
X904628Y1731468D01*
X904518Y1731443D01*
X904408Y1731413D01*
X904300Y1731380D01*
X904193Y1731343D01*
X904087Y1731303D01*
X903983Y1731258D01*
X903880Y1731210D01*
X903779Y1731159D01*
X903680Y1731104D01*
X903583Y1731046D01*
X903488Y1730984D01*
X903395Y1730919D01*
X903305Y1730851D01*
X903217Y1730780D01*
X903131Y1730705D01*
X903048Y1730628D01*
X902968Y1730548D01*
X902891Y1730465D01*
X902816Y1730379D01*
X902745Y1730291D01*
X902677Y1730201D01*
X902612Y1730108D01*
X902550Y1730013D01*
X902492Y1729916D01*
X902437Y1729817D01*
X902386Y1729716D01*
X902338Y1729613D01*
X902293Y1729509D01*
X902253Y1729403D01*
X902216Y1729296D01*
X902183Y1729188D01*
X902153Y1729078D01*
X902128Y1728968D01*
X902106Y1728857D01*
X902089Y1728745D01*
X902075Y1728632D01*
X902065Y1728519D01*
X902059Y1728406D01*
X902057Y1728293D01*
X902059Y1728180D01*
X902065Y1728067D01*
X902075Y1727954D01*
X902089Y1727841D01*
X902106Y1727729D01*
X902128Y1727618D01*
X902153Y1727508D01*
X902183Y1727398D01*
X902216Y1727290D01*
X902253Y1727183D01*
X902293Y1727077D01*
X902338Y1726973D01*
X902386Y1726870D01*
X902437Y1726769D01*
X902492Y1726670D01*
X902550Y1726573D01*
X902612Y1726478D01*
X902677Y1726385D01*
X902745Y1726295D01*
X902816Y1726207D01*
X902891Y1726121D01*
X902968Y1726038D01*
X903048Y1725958D01*
X903131Y1725881D01*
X903217Y1725806D01*
X903305Y1725735D01*
X903395Y1725667D01*
X903488Y1725602D01*
X903583Y1725540D01*
X903680Y1725482D01*
X903779Y1725427D01*
X903880Y1725376D01*
X903983Y1725328D01*
X904087Y1725283D01*
X904193Y1725243D01*
X904300Y1725206D01*
X904408Y1725173D01*
X904518Y1725143D01*
X904628Y1725118D01*
X904739Y1725096D01*
X904851Y1725079D01*
X904964Y1725065D01*
X905077Y1725055D01*
X905190Y1725049D01*
X905303Y1725047D01*
X905303Y1725048D02*
X908549Y1725048D01*
X904654Y1725048D02*
X902057Y1719855D01*
X897079Y1724399D02*
X889290Y1724399D01*
X884619Y1731539D02*
X878128Y1731539D01*
X884619Y1719855D01*
X878128Y1719855D01*
X873189Y1719855D02*
X873189Y1731539D01*
X873189Y1726346D02*
X866698Y1726346D01*
X866698Y1731539D02*
X866698Y1719855D01*
X861265Y1724399D02*
X853476Y1724399D01*
X847930Y1719855D02*
X847930Y1731539D01*
X844036Y1725048D01*
X840141Y1731539D01*
X840141Y1719855D01*
D12*
X605650Y1568900D02*
X605650Y1518100D01*
X605650Y1568900D02*
X618350Y1568900D01*
X694550Y1568900D01*
X707250Y1568900D01*
X707250Y1518100D01*
X605650Y1518100D01*
X618350Y1556200D02*
X618350Y1568900D01*
X618350Y1556200D02*
X694550Y1556200D01*
X694550Y1568900D01*
D13*
X665661Y1516576D02*
X665661Y1504892D01*
X665661Y1516576D02*
X662416Y1516576D01*
X662303Y1516574D01*
X662190Y1516568D01*
X662077Y1516558D01*
X661964Y1516544D01*
X661852Y1516527D01*
X661741Y1516505D01*
X661631Y1516480D01*
X661521Y1516450D01*
X661413Y1516417D01*
X661306Y1516380D01*
X661200Y1516340D01*
X661096Y1516295D01*
X660993Y1516247D01*
X660892Y1516196D01*
X660793Y1516141D01*
X660696Y1516083D01*
X660601Y1516021D01*
X660508Y1515956D01*
X660418Y1515888D01*
X660330Y1515817D01*
X660244Y1515742D01*
X660161Y1515665D01*
X660081Y1515585D01*
X660004Y1515502D01*
X659929Y1515416D01*
X659858Y1515328D01*
X659790Y1515238D01*
X659725Y1515145D01*
X659663Y1515050D01*
X659605Y1514953D01*
X659550Y1514854D01*
X659499Y1514753D01*
X659451Y1514650D01*
X659406Y1514546D01*
X659366Y1514440D01*
X659329Y1514333D01*
X659296Y1514225D01*
X659266Y1514115D01*
X659241Y1514005D01*
X659219Y1513894D01*
X659202Y1513782D01*
X659188Y1513669D01*
X659178Y1513556D01*
X659172Y1513443D01*
X659170Y1513330D01*
X659172Y1513217D01*
X659178Y1513104D01*
X659188Y1512991D01*
X659202Y1512878D01*
X659219Y1512766D01*
X659241Y1512655D01*
X659266Y1512545D01*
X659296Y1512435D01*
X659329Y1512327D01*
X659366Y1512220D01*
X659406Y1512114D01*
X659451Y1512010D01*
X659499Y1511907D01*
X659550Y1511806D01*
X659605Y1511707D01*
X659663Y1511610D01*
X659725Y1511515D01*
X659790Y1511422D01*
X659858Y1511332D01*
X659929Y1511244D01*
X660004Y1511158D01*
X660081Y1511075D01*
X660161Y1510995D01*
X660244Y1510918D01*
X660330Y1510843D01*
X660418Y1510772D01*
X660508Y1510704D01*
X660601Y1510639D01*
X660696Y1510577D01*
X660793Y1510519D01*
X660892Y1510464D01*
X660993Y1510413D01*
X661096Y1510365D01*
X661200Y1510320D01*
X661306Y1510280D01*
X661413Y1510243D01*
X661521Y1510210D01*
X661631Y1510180D01*
X661741Y1510155D01*
X661852Y1510133D01*
X661964Y1510116D01*
X662077Y1510102D01*
X662190Y1510092D01*
X662303Y1510086D01*
X662416Y1510084D01*
X662416Y1510085D02*
X665661Y1510085D01*
X661767Y1510085D02*
X659170Y1504892D01*
X654305Y1508138D02*
X654305Y1513330D01*
X654306Y1513330D02*
X654304Y1513443D01*
X654298Y1513556D01*
X654288Y1513669D01*
X654274Y1513782D01*
X654257Y1513894D01*
X654235Y1514005D01*
X654210Y1514115D01*
X654180Y1514225D01*
X654147Y1514333D01*
X654110Y1514440D01*
X654070Y1514546D01*
X654025Y1514650D01*
X653977Y1514753D01*
X653926Y1514854D01*
X653871Y1514953D01*
X653813Y1515050D01*
X653751Y1515145D01*
X653686Y1515238D01*
X653618Y1515328D01*
X653547Y1515416D01*
X653472Y1515502D01*
X653395Y1515585D01*
X653315Y1515665D01*
X653232Y1515742D01*
X653146Y1515817D01*
X653058Y1515888D01*
X652968Y1515956D01*
X652875Y1516021D01*
X652780Y1516083D01*
X652683Y1516141D01*
X652584Y1516196D01*
X652483Y1516247D01*
X652380Y1516295D01*
X652276Y1516340D01*
X652170Y1516380D01*
X652063Y1516417D01*
X651955Y1516450D01*
X651845Y1516480D01*
X651735Y1516505D01*
X651624Y1516527D01*
X651512Y1516544D01*
X651399Y1516558D01*
X651286Y1516568D01*
X651173Y1516574D01*
X651060Y1516576D01*
X650947Y1516574D01*
X650834Y1516568D01*
X650721Y1516558D01*
X650608Y1516544D01*
X650496Y1516527D01*
X650385Y1516505D01*
X650275Y1516480D01*
X650165Y1516450D01*
X650057Y1516417D01*
X649950Y1516380D01*
X649844Y1516340D01*
X649740Y1516295D01*
X649637Y1516247D01*
X649536Y1516196D01*
X649437Y1516141D01*
X649340Y1516083D01*
X649245Y1516021D01*
X649152Y1515956D01*
X649062Y1515888D01*
X648974Y1515817D01*
X648888Y1515742D01*
X648805Y1515665D01*
X648725Y1515585D01*
X648648Y1515502D01*
X648573Y1515416D01*
X648502Y1515328D01*
X648434Y1515238D01*
X648369Y1515145D01*
X648307Y1515050D01*
X648249Y1514953D01*
X648194Y1514854D01*
X648143Y1514753D01*
X648095Y1514650D01*
X648050Y1514546D01*
X648010Y1514440D01*
X647973Y1514333D01*
X647940Y1514225D01*
X647910Y1514115D01*
X647885Y1514005D01*
X647863Y1513894D01*
X647846Y1513782D01*
X647832Y1513669D01*
X647822Y1513556D01*
X647816Y1513443D01*
X647814Y1513330D01*
X647814Y1508138D01*
X647816Y1508025D01*
X647822Y1507912D01*
X647832Y1507799D01*
X647846Y1507686D01*
X647863Y1507574D01*
X647885Y1507463D01*
X647910Y1507353D01*
X647940Y1507243D01*
X647973Y1507135D01*
X648010Y1507028D01*
X648050Y1506922D01*
X648095Y1506818D01*
X648143Y1506715D01*
X648194Y1506614D01*
X648249Y1506515D01*
X648307Y1506418D01*
X648369Y1506323D01*
X648434Y1506230D01*
X648502Y1506140D01*
X648573Y1506052D01*
X648648Y1505966D01*
X648725Y1505883D01*
X648805Y1505803D01*
X648888Y1505726D01*
X648974Y1505651D01*
X649062Y1505580D01*
X649152Y1505512D01*
X649245Y1505447D01*
X649340Y1505385D01*
X649437Y1505327D01*
X649536Y1505272D01*
X649637Y1505221D01*
X649740Y1505173D01*
X649844Y1505128D01*
X649950Y1505088D01*
X650057Y1505051D01*
X650165Y1505018D01*
X650275Y1504988D01*
X650385Y1504963D01*
X650496Y1504941D01*
X650608Y1504924D01*
X650721Y1504910D01*
X650834Y1504900D01*
X650947Y1504894D01*
X651060Y1504892D01*
X651173Y1504894D01*
X651286Y1504900D01*
X651399Y1504910D01*
X651512Y1504924D01*
X651624Y1504941D01*
X651735Y1504963D01*
X651845Y1504988D01*
X651955Y1505018D01*
X652063Y1505051D01*
X652170Y1505088D01*
X652276Y1505128D01*
X652380Y1505173D01*
X652483Y1505221D01*
X652584Y1505272D01*
X652683Y1505327D01*
X652780Y1505385D01*
X652875Y1505447D01*
X652968Y1505512D01*
X653058Y1505580D01*
X653146Y1505651D01*
X653232Y1505726D01*
X653315Y1505803D01*
X653395Y1505883D01*
X653472Y1505966D01*
X653547Y1506052D01*
X653618Y1506140D01*
X653686Y1506230D01*
X653751Y1506323D01*
X653813Y1506418D01*
X653871Y1506515D01*
X653926Y1506614D01*
X653977Y1506715D01*
X654025Y1506818D01*
X654070Y1506922D01*
X654110Y1507028D01*
X654147Y1507135D01*
X654180Y1507243D01*
X654210Y1507353D01*
X654235Y1507463D01*
X654257Y1507574D01*
X654274Y1507686D01*
X654288Y1507799D01*
X654298Y1507912D01*
X654304Y1508025D01*
X654306Y1508138D01*
X642875Y1513980D02*
X639630Y1516576D01*
X639630Y1504892D01*
X642875Y1504892D02*
X636384Y1504892D01*
D12*
X921300Y326900D02*
X921300Y276100D01*
X908600Y276100D01*
X832400Y276100D01*
X819700Y276100D01*
X819700Y326900D01*
X921300Y326900D01*
X908600Y288800D02*
X908600Y276100D01*
X908600Y288800D02*
X832400Y288800D01*
X832400Y276100D01*
D13*
X889042Y327408D02*
X889042Y339092D01*
X885796Y339092D01*
X885683Y339090D01*
X885570Y339084D01*
X885457Y339074D01*
X885344Y339060D01*
X885232Y339043D01*
X885121Y339021D01*
X885011Y338996D01*
X884901Y338966D01*
X884793Y338933D01*
X884686Y338896D01*
X884580Y338856D01*
X884476Y338811D01*
X884373Y338763D01*
X884272Y338712D01*
X884173Y338657D01*
X884076Y338599D01*
X883981Y338537D01*
X883888Y338472D01*
X883798Y338404D01*
X883710Y338333D01*
X883624Y338258D01*
X883541Y338181D01*
X883461Y338101D01*
X883384Y338018D01*
X883309Y337932D01*
X883238Y337844D01*
X883170Y337754D01*
X883105Y337661D01*
X883043Y337566D01*
X882985Y337469D01*
X882930Y337370D01*
X882879Y337269D01*
X882831Y337166D01*
X882786Y337062D01*
X882746Y336956D01*
X882709Y336849D01*
X882676Y336741D01*
X882646Y336631D01*
X882621Y336521D01*
X882599Y336410D01*
X882582Y336298D01*
X882568Y336185D01*
X882558Y336072D01*
X882552Y335959D01*
X882550Y335846D01*
X882552Y335733D01*
X882558Y335620D01*
X882568Y335507D01*
X882582Y335394D01*
X882599Y335282D01*
X882621Y335171D01*
X882646Y335061D01*
X882676Y334951D01*
X882709Y334843D01*
X882746Y334736D01*
X882786Y334630D01*
X882831Y334526D01*
X882879Y334423D01*
X882930Y334322D01*
X882985Y334223D01*
X883043Y334126D01*
X883105Y334031D01*
X883170Y333938D01*
X883238Y333848D01*
X883309Y333760D01*
X883384Y333674D01*
X883461Y333591D01*
X883541Y333511D01*
X883624Y333434D01*
X883710Y333359D01*
X883798Y333288D01*
X883888Y333220D01*
X883981Y333155D01*
X884076Y333093D01*
X884173Y333035D01*
X884272Y332980D01*
X884373Y332929D01*
X884476Y332881D01*
X884580Y332836D01*
X884686Y332796D01*
X884793Y332759D01*
X884901Y332726D01*
X885011Y332696D01*
X885121Y332671D01*
X885232Y332649D01*
X885344Y332632D01*
X885457Y332618D01*
X885570Y332608D01*
X885683Y332602D01*
X885796Y332600D01*
X885796Y332601D02*
X889042Y332601D01*
X885147Y332601D02*
X882551Y327408D01*
X877686Y330654D02*
X877686Y335846D01*
X877684Y335959D01*
X877678Y336072D01*
X877668Y336185D01*
X877654Y336298D01*
X877637Y336410D01*
X877615Y336521D01*
X877590Y336631D01*
X877560Y336741D01*
X877527Y336849D01*
X877490Y336956D01*
X877450Y337062D01*
X877405Y337166D01*
X877357Y337269D01*
X877306Y337370D01*
X877251Y337469D01*
X877193Y337566D01*
X877131Y337661D01*
X877066Y337754D01*
X876998Y337844D01*
X876927Y337932D01*
X876852Y338018D01*
X876775Y338101D01*
X876695Y338181D01*
X876612Y338258D01*
X876526Y338333D01*
X876438Y338404D01*
X876348Y338472D01*
X876255Y338537D01*
X876160Y338599D01*
X876063Y338657D01*
X875964Y338712D01*
X875863Y338763D01*
X875760Y338811D01*
X875656Y338856D01*
X875550Y338896D01*
X875443Y338933D01*
X875335Y338966D01*
X875225Y338996D01*
X875115Y339021D01*
X875004Y339043D01*
X874892Y339060D01*
X874779Y339074D01*
X874666Y339084D01*
X874553Y339090D01*
X874440Y339092D01*
X874327Y339090D01*
X874214Y339084D01*
X874101Y339074D01*
X873988Y339060D01*
X873876Y339043D01*
X873765Y339021D01*
X873655Y338996D01*
X873545Y338966D01*
X873437Y338933D01*
X873330Y338896D01*
X873224Y338856D01*
X873120Y338811D01*
X873017Y338763D01*
X872916Y338712D01*
X872817Y338657D01*
X872720Y338599D01*
X872625Y338537D01*
X872532Y338472D01*
X872442Y338404D01*
X872354Y338333D01*
X872268Y338258D01*
X872185Y338181D01*
X872105Y338101D01*
X872028Y338018D01*
X871953Y337932D01*
X871882Y337844D01*
X871814Y337754D01*
X871749Y337661D01*
X871687Y337566D01*
X871629Y337469D01*
X871574Y337370D01*
X871523Y337269D01*
X871475Y337166D01*
X871430Y337062D01*
X871390Y336956D01*
X871353Y336849D01*
X871320Y336741D01*
X871290Y336631D01*
X871265Y336521D01*
X871243Y336410D01*
X871226Y336298D01*
X871212Y336185D01*
X871202Y336072D01*
X871196Y335959D01*
X871194Y335846D01*
X871195Y335846D02*
X871195Y330654D01*
X871194Y330654D02*
X871196Y330541D01*
X871202Y330428D01*
X871212Y330315D01*
X871226Y330202D01*
X871243Y330090D01*
X871265Y329979D01*
X871290Y329869D01*
X871320Y329759D01*
X871353Y329651D01*
X871390Y329544D01*
X871430Y329438D01*
X871475Y329334D01*
X871523Y329231D01*
X871574Y329130D01*
X871629Y329031D01*
X871687Y328934D01*
X871749Y328839D01*
X871814Y328746D01*
X871882Y328656D01*
X871953Y328568D01*
X872028Y328482D01*
X872105Y328399D01*
X872185Y328319D01*
X872268Y328242D01*
X872354Y328167D01*
X872442Y328096D01*
X872532Y328028D01*
X872625Y327963D01*
X872720Y327901D01*
X872817Y327843D01*
X872916Y327788D01*
X873017Y327737D01*
X873120Y327689D01*
X873224Y327644D01*
X873330Y327604D01*
X873437Y327567D01*
X873545Y327534D01*
X873655Y327504D01*
X873765Y327479D01*
X873876Y327457D01*
X873988Y327440D01*
X874101Y327426D01*
X874214Y327416D01*
X874327Y327410D01*
X874440Y327408D01*
X874553Y327410D01*
X874666Y327416D01*
X874779Y327426D01*
X874892Y327440D01*
X875004Y327457D01*
X875115Y327479D01*
X875225Y327504D01*
X875335Y327534D01*
X875443Y327567D01*
X875550Y327604D01*
X875656Y327644D01*
X875760Y327689D01*
X875863Y327737D01*
X875964Y327788D01*
X876063Y327843D01*
X876160Y327901D01*
X876255Y327963D01*
X876348Y328028D01*
X876438Y328096D01*
X876526Y328167D01*
X876612Y328242D01*
X876695Y328319D01*
X876775Y328399D01*
X876852Y328482D01*
X876927Y328568D01*
X876998Y328656D01*
X877066Y328746D01*
X877131Y328839D01*
X877193Y328934D01*
X877251Y329031D01*
X877306Y329130D01*
X877357Y329231D01*
X877405Y329334D01*
X877450Y329438D01*
X877490Y329544D01*
X877527Y329651D01*
X877560Y329759D01*
X877590Y329869D01*
X877615Y329979D01*
X877637Y330090D01*
X877654Y330202D01*
X877668Y330315D01*
X877678Y330428D01*
X877684Y330541D01*
X877686Y330654D01*
X862686Y339092D02*
X862579Y339090D01*
X862473Y339084D01*
X862367Y339074D01*
X862261Y339061D01*
X862155Y339043D01*
X862051Y339022D01*
X861947Y338997D01*
X861844Y338968D01*
X861743Y338936D01*
X861643Y338899D01*
X861544Y338859D01*
X861446Y338816D01*
X861350Y338769D01*
X861256Y338718D01*
X861164Y338664D01*
X861074Y338607D01*
X860986Y338547D01*
X860901Y338483D01*
X860818Y338416D01*
X860737Y338346D01*
X860659Y338274D01*
X860583Y338198D01*
X860511Y338120D01*
X860441Y338039D01*
X860374Y337956D01*
X860310Y337871D01*
X860250Y337783D01*
X860193Y337693D01*
X860139Y337601D01*
X860088Y337507D01*
X860041Y337411D01*
X859998Y337313D01*
X859958Y337214D01*
X859921Y337114D01*
X859889Y337013D01*
X859860Y336910D01*
X859835Y336806D01*
X859814Y336702D01*
X859796Y336596D01*
X859783Y336490D01*
X859773Y336384D01*
X859767Y336278D01*
X859765Y336171D01*
X862686Y339092D02*
X862807Y339090D01*
X862928Y339084D01*
X863048Y339074D01*
X863169Y339061D01*
X863288Y339043D01*
X863408Y339022D01*
X863526Y338997D01*
X863643Y338968D01*
X863760Y338935D01*
X863875Y338899D01*
X863989Y338858D01*
X864102Y338815D01*
X864214Y338767D01*
X864323Y338716D01*
X864431Y338661D01*
X864538Y338603D01*
X864642Y338542D01*
X864744Y338477D01*
X864844Y338409D01*
X864942Y338338D01*
X865038Y338264D01*
X865131Y338187D01*
X865221Y338106D01*
X865309Y338023D01*
X865394Y337937D01*
X865477Y337848D01*
X865556Y337757D01*
X865633Y337663D01*
X865706Y337567D01*
X865776Y337469D01*
X865843Y337368D01*
X865907Y337265D01*
X865968Y337160D01*
X866025Y337053D01*
X866078Y336945D01*
X866128Y336835D01*
X866174Y336723D01*
X866217Y336610D01*
X866256Y336495D01*
X860739Y333899D02*
X860660Y333977D01*
X860584Y334057D01*
X860511Y334140D01*
X860441Y334226D01*
X860374Y334313D01*
X860310Y334404D01*
X860250Y334496D01*
X860192Y334590D01*
X860138Y334687D01*
X860088Y334785D01*
X860041Y334885D01*
X859997Y334986D01*
X859957Y335089D01*
X859921Y335194D01*
X859889Y335299D01*
X859860Y335406D01*
X859835Y335513D01*
X859813Y335622D01*
X859796Y335731D01*
X859782Y335840D01*
X859773Y335950D01*
X859767Y336061D01*
X859765Y336171D01*
X860738Y333899D02*
X866256Y327408D01*
X859765Y327408D01*
D14*
X483550Y274600D02*
X470850Y274600D01*
X483550Y274600D02*
X489900Y280950D01*
X489900Y293650D02*
X483550Y300000D01*
X489900Y280950D02*
X496250Y274600D01*
X508950Y274600D01*
X515300Y280950D01*
X515300Y293650D02*
X508950Y300000D01*
X496250Y300000D01*
X489900Y293650D01*
X464500Y293650D02*
X464500Y280950D01*
X470850Y274600D01*
X464500Y293650D02*
X470850Y300000D01*
X483550Y300000D01*
X515300Y280950D02*
X521650Y274600D01*
X534350Y274600D01*
X540700Y280950D01*
X540700Y293650D02*
X534350Y300000D01*
X521650Y300000D01*
X515300Y293650D01*
X547050Y274600D02*
X559750Y274600D01*
X566100Y280950D01*
X566100Y293650D02*
X559750Y300000D01*
X566100Y280950D02*
X572450Y274600D01*
X585150Y274600D01*
X591500Y280950D01*
X591500Y293650D02*
X585150Y300000D01*
X572450Y300000D01*
X566100Y293650D01*
X547050Y274600D02*
X540700Y280950D01*
X540700Y293650D02*
X547050Y300000D01*
X559750Y300000D01*
X591500Y280950D02*
X597850Y274600D01*
X610550Y274600D01*
X616900Y280950D01*
X616900Y293650D02*
X610550Y300000D01*
X597850Y300000D01*
X591500Y293650D01*
X623250Y274600D02*
X635950Y274600D01*
X642300Y280950D01*
X642300Y293650D02*
X635950Y300000D01*
X642300Y280950D02*
X648650Y274600D01*
X661350Y274600D01*
X667700Y280950D01*
X667700Y293650D02*
X661350Y300000D01*
X648650Y300000D01*
X642300Y293650D01*
X623250Y274600D02*
X616900Y280950D01*
X616900Y293650D02*
X623250Y300000D01*
X635950Y300000D01*
X667700Y280950D02*
X674050Y274600D01*
X686750Y274600D01*
X693100Y280950D01*
X693100Y293650D02*
X686750Y300000D01*
X674050Y300000D01*
X667700Y293650D01*
X699450Y274600D02*
X712150Y274600D01*
X718500Y280950D01*
X718500Y293650D02*
X712150Y300000D01*
X718500Y280950D02*
X724850Y274600D01*
X737550Y274600D01*
X743900Y280950D01*
X743900Y293650D02*
X737550Y300000D01*
X724850Y300000D01*
X718500Y293650D01*
X699450Y274600D02*
X693100Y280950D01*
X693100Y293650D02*
X699450Y300000D01*
X712150Y300000D01*
X743900Y280950D02*
X750250Y274600D01*
X762950Y274600D01*
X769300Y280950D01*
X769300Y293650D02*
X762950Y300000D01*
X750250Y300000D01*
X743900Y293650D01*
X769300Y280950D02*
X775650Y274600D01*
X788350Y274600D01*
X794700Y280950D02*
X794700Y293650D01*
X794700Y280950D02*
X788350Y274600D01*
X794700Y293650D02*
X788350Y300000D01*
X775650Y300000D01*
X769300Y293650D01*
D12*
X479105Y313335D02*
X475930Y315875D01*
X475930Y304445D01*
X479105Y304445D02*
X472755Y304445D01*
X785810Y270155D02*
X788985Y267615D01*
X785810Y270155D02*
X785810Y258725D01*
X788985Y258725D02*
X782635Y258725D01*
X777555Y258725D02*
X774380Y258725D01*
X774269Y258727D01*
X774159Y258733D01*
X774048Y258742D01*
X773938Y258756D01*
X773829Y258773D01*
X773720Y258794D01*
X773612Y258819D01*
X773505Y258848D01*
X773399Y258880D01*
X773294Y258916D01*
X773191Y258956D01*
X773089Y258999D01*
X772988Y259046D01*
X772889Y259097D01*
X772793Y259150D01*
X772698Y259207D01*
X772605Y259268D01*
X772514Y259331D01*
X772425Y259398D01*
X772339Y259468D01*
X772256Y259541D01*
X772174Y259616D01*
X772096Y259694D01*
X772021Y259776D01*
X771948Y259859D01*
X771878Y259945D01*
X771811Y260034D01*
X771748Y260125D01*
X771687Y260218D01*
X771630Y260313D01*
X771577Y260409D01*
X771526Y260508D01*
X771479Y260609D01*
X771436Y260711D01*
X771396Y260814D01*
X771360Y260919D01*
X771328Y261025D01*
X771299Y261132D01*
X771274Y261240D01*
X771253Y261349D01*
X771236Y261458D01*
X771222Y261568D01*
X771213Y261679D01*
X771207Y261789D01*
X771205Y261900D01*
X771207Y262011D01*
X771213Y262121D01*
X771222Y262232D01*
X771236Y262342D01*
X771253Y262451D01*
X771274Y262560D01*
X771299Y262668D01*
X771328Y262775D01*
X771360Y262881D01*
X771396Y262986D01*
X771436Y263089D01*
X771479Y263191D01*
X771526Y263292D01*
X771577Y263391D01*
X771630Y263488D01*
X771687Y263582D01*
X771748Y263675D01*
X771811Y263766D01*
X771878Y263855D01*
X771948Y263941D01*
X772021Y264024D01*
X772096Y264106D01*
X772174Y264184D01*
X772256Y264259D01*
X772339Y264332D01*
X772425Y264402D01*
X772514Y264469D01*
X772605Y264532D01*
X772698Y264593D01*
X772793Y264650D01*
X772889Y264703D01*
X772988Y264754D01*
X773089Y264801D01*
X773191Y264844D01*
X773294Y264884D01*
X773399Y264920D01*
X773505Y264952D01*
X773612Y264981D01*
X773720Y265006D01*
X773829Y265027D01*
X773938Y265044D01*
X774048Y265058D01*
X774159Y265067D01*
X774269Y265073D01*
X774380Y265075D01*
X773745Y270155D02*
X777555Y270155D01*
X773745Y270155D02*
X773645Y270153D01*
X773546Y270147D01*
X773446Y270137D01*
X773348Y270124D01*
X773249Y270106D01*
X773152Y270085D01*
X773056Y270060D01*
X772960Y270031D01*
X772866Y269998D01*
X772773Y269962D01*
X772682Y269922D01*
X772592Y269878D01*
X772504Y269831D01*
X772418Y269781D01*
X772334Y269727D01*
X772252Y269670D01*
X772173Y269610D01*
X772095Y269546D01*
X772021Y269480D01*
X771949Y269411D01*
X771880Y269339D01*
X771814Y269265D01*
X771750Y269187D01*
X771690Y269108D01*
X771633Y269026D01*
X771579Y268942D01*
X771529Y268856D01*
X771482Y268768D01*
X771438Y268678D01*
X771398Y268587D01*
X771362Y268494D01*
X771329Y268400D01*
X771300Y268304D01*
X771275Y268208D01*
X771254Y268111D01*
X771236Y268012D01*
X771223Y267914D01*
X771213Y267814D01*
X771207Y267715D01*
X771205Y267615D01*
X771207Y267515D01*
X771213Y267416D01*
X771223Y267316D01*
X771236Y267218D01*
X771254Y267119D01*
X771275Y267022D01*
X771300Y266926D01*
X771329Y266830D01*
X771362Y266736D01*
X771398Y266643D01*
X771438Y266552D01*
X771482Y266462D01*
X771529Y266374D01*
X771579Y266288D01*
X771633Y266204D01*
X771690Y266122D01*
X771750Y266043D01*
X771814Y265965D01*
X771880Y265891D01*
X771949Y265819D01*
X772021Y265750D01*
X772095Y265684D01*
X772173Y265620D01*
X772252Y265560D01*
X772334Y265503D01*
X772418Y265449D01*
X772504Y265399D01*
X772592Y265352D01*
X772682Y265308D01*
X772773Y265268D01*
X772866Y265232D01*
X772960Y265199D01*
X773056Y265170D01*
X773152Y265145D01*
X773249Y265124D01*
X773348Y265106D01*
X773446Y265093D01*
X773546Y265083D01*
X773645Y265077D01*
X773745Y265075D01*
X776285Y265075D01*
D15*
X502600Y287300D03*
X477200Y287300D03*
X528000Y287300D03*
X578800Y287300D03*
X553400Y287300D03*
X604200Y287300D03*
X655000Y287300D03*
X629600Y287300D03*
X680400Y287300D03*
X731200Y287300D03*
X705800Y287300D03*
X756600Y287300D03*
X782000Y287300D03*
D12*
X586928Y270155D02*
X586928Y258725D01*
X583118Y263805D02*
X586928Y270155D01*
X583118Y263805D02*
X579308Y270155D01*
X579308Y258725D01*
X573720Y261900D02*
X573720Y266980D01*
X573718Y267091D01*
X573712Y267201D01*
X573703Y267312D01*
X573689Y267422D01*
X573672Y267531D01*
X573651Y267640D01*
X573626Y267748D01*
X573597Y267855D01*
X573565Y267961D01*
X573529Y268066D01*
X573489Y268169D01*
X573446Y268271D01*
X573399Y268372D01*
X573348Y268471D01*
X573295Y268568D01*
X573238Y268662D01*
X573177Y268755D01*
X573114Y268846D01*
X573047Y268935D01*
X572977Y269021D01*
X572904Y269104D01*
X572829Y269186D01*
X572751Y269264D01*
X572669Y269339D01*
X572586Y269412D01*
X572500Y269482D01*
X572411Y269549D01*
X572320Y269612D01*
X572227Y269673D01*
X572133Y269730D01*
X572036Y269783D01*
X571937Y269834D01*
X571836Y269881D01*
X571734Y269924D01*
X571631Y269964D01*
X571526Y270000D01*
X571420Y270032D01*
X571313Y270061D01*
X571205Y270086D01*
X571096Y270107D01*
X570987Y270124D01*
X570877Y270138D01*
X570766Y270147D01*
X570656Y270153D01*
X570545Y270155D01*
X570434Y270153D01*
X570324Y270147D01*
X570213Y270138D01*
X570103Y270124D01*
X569994Y270107D01*
X569885Y270086D01*
X569777Y270061D01*
X569670Y270032D01*
X569564Y270000D01*
X569459Y269964D01*
X569356Y269924D01*
X569254Y269881D01*
X569153Y269834D01*
X569054Y269783D01*
X568958Y269730D01*
X568863Y269673D01*
X568770Y269612D01*
X568679Y269549D01*
X568590Y269482D01*
X568504Y269412D01*
X568421Y269339D01*
X568339Y269264D01*
X568261Y269186D01*
X568186Y269104D01*
X568113Y269021D01*
X568043Y268935D01*
X567976Y268846D01*
X567913Y268755D01*
X567852Y268662D01*
X567795Y268568D01*
X567742Y268471D01*
X567691Y268372D01*
X567644Y268271D01*
X567601Y268169D01*
X567561Y268066D01*
X567525Y267961D01*
X567493Y267855D01*
X567464Y267748D01*
X567439Y267640D01*
X567418Y267531D01*
X567401Y267422D01*
X567387Y267312D01*
X567378Y267201D01*
X567372Y267091D01*
X567370Y266980D01*
X567370Y261900D01*
X567372Y261789D01*
X567378Y261679D01*
X567387Y261568D01*
X567401Y261458D01*
X567418Y261349D01*
X567439Y261240D01*
X567464Y261132D01*
X567493Y261025D01*
X567525Y260919D01*
X567561Y260814D01*
X567601Y260711D01*
X567644Y260609D01*
X567691Y260508D01*
X567742Y260409D01*
X567795Y260313D01*
X567852Y260218D01*
X567913Y260125D01*
X567976Y260034D01*
X568043Y259945D01*
X568113Y259859D01*
X568186Y259776D01*
X568261Y259694D01*
X568339Y259616D01*
X568421Y259541D01*
X568504Y259468D01*
X568590Y259398D01*
X568679Y259331D01*
X568770Y259268D01*
X568863Y259207D01*
X568958Y259150D01*
X569054Y259097D01*
X569153Y259046D01*
X569254Y258999D01*
X569356Y258956D01*
X569459Y258916D01*
X569564Y258880D01*
X569670Y258848D01*
X569777Y258819D01*
X569885Y258794D01*
X569994Y258773D01*
X570103Y258756D01*
X570213Y258742D01*
X570324Y258733D01*
X570434Y258727D01*
X570545Y258725D01*
X570656Y258727D01*
X570766Y258733D01*
X570877Y258742D01*
X570987Y258756D01*
X571096Y258773D01*
X571205Y258794D01*
X571313Y258819D01*
X571420Y258848D01*
X571526Y258880D01*
X571631Y258916D01*
X571734Y258956D01*
X571836Y258999D01*
X571937Y259046D01*
X572036Y259097D01*
X572133Y259150D01*
X572227Y259207D01*
X572320Y259268D01*
X572411Y259331D01*
X572500Y259398D01*
X572586Y259468D01*
X572669Y259541D01*
X572751Y259616D01*
X572829Y259694D01*
X572904Y259776D01*
X572977Y259859D01*
X573047Y259945D01*
X573114Y260034D01*
X573177Y260125D01*
X573238Y260218D01*
X573295Y260312D01*
X573348Y260409D01*
X573399Y260508D01*
X573446Y260609D01*
X573489Y260711D01*
X573529Y260814D01*
X573565Y260919D01*
X573597Y261025D01*
X573626Y261132D01*
X573651Y261240D01*
X573672Y261349D01*
X573689Y261458D01*
X573703Y261568D01*
X573712Y261679D01*
X573718Y261789D01*
X573720Y261900D01*
X559877Y258725D02*
X559877Y270155D01*
X563052Y270155D02*
X556702Y270155D01*
X552384Y266980D02*
X552384Y261900D01*
X552384Y266980D02*
X552382Y267091D01*
X552376Y267201D01*
X552367Y267312D01*
X552353Y267422D01*
X552336Y267531D01*
X552315Y267640D01*
X552290Y267748D01*
X552261Y267855D01*
X552229Y267961D01*
X552193Y268066D01*
X552153Y268169D01*
X552110Y268271D01*
X552063Y268372D01*
X552012Y268471D01*
X551959Y268568D01*
X551902Y268662D01*
X551841Y268755D01*
X551778Y268846D01*
X551711Y268935D01*
X551641Y269021D01*
X551568Y269104D01*
X551493Y269186D01*
X551415Y269264D01*
X551333Y269339D01*
X551250Y269412D01*
X551164Y269482D01*
X551075Y269549D01*
X550984Y269612D01*
X550891Y269673D01*
X550797Y269730D01*
X550700Y269783D01*
X550601Y269834D01*
X550500Y269881D01*
X550398Y269924D01*
X550295Y269964D01*
X550190Y270000D01*
X550084Y270032D01*
X549977Y270061D01*
X549869Y270086D01*
X549760Y270107D01*
X549651Y270124D01*
X549541Y270138D01*
X549430Y270147D01*
X549320Y270153D01*
X549209Y270155D01*
X549098Y270153D01*
X548988Y270147D01*
X548877Y270138D01*
X548767Y270124D01*
X548658Y270107D01*
X548549Y270086D01*
X548441Y270061D01*
X548334Y270032D01*
X548228Y270000D01*
X548123Y269964D01*
X548020Y269924D01*
X547918Y269881D01*
X547817Y269834D01*
X547718Y269783D01*
X547622Y269730D01*
X547527Y269673D01*
X547434Y269612D01*
X547343Y269549D01*
X547254Y269482D01*
X547168Y269412D01*
X547085Y269339D01*
X547003Y269264D01*
X546925Y269186D01*
X546850Y269104D01*
X546777Y269021D01*
X546707Y268935D01*
X546640Y268846D01*
X546577Y268755D01*
X546516Y268662D01*
X546459Y268568D01*
X546406Y268471D01*
X546355Y268372D01*
X546308Y268271D01*
X546265Y268169D01*
X546225Y268066D01*
X546189Y267961D01*
X546157Y267855D01*
X546128Y267748D01*
X546103Y267640D01*
X546082Y267531D01*
X546065Y267422D01*
X546051Y267312D01*
X546042Y267201D01*
X546036Y267091D01*
X546034Y266980D01*
X546034Y261900D01*
X546036Y261789D01*
X546042Y261679D01*
X546051Y261568D01*
X546065Y261458D01*
X546082Y261349D01*
X546103Y261240D01*
X546128Y261132D01*
X546157Y261025D01*
X546189Y260919D01*
X546225Y260814D01*
X546265Y260711D01*
X546308Y260609D01*
X546355Y260508D01*
X546406Y260409D01*
X546459Y260313D01*
X546516Y260218D01*
X546577Y260125D01*
X546640Y260034D01*
X546707Y259945D01*
X546777Y259859D01*
X546850Y259776D01*
X546925Y259694D01*
X547003Y259616D01*
X547085Y259541D01*
X547168Y259468D01*
X547254Y259398D01*
X547343Y259331D01*
X547434Y259268D01*
X547527Y259207D01*
X547622Y259150D01*
X547718Y259097D01*
X547817Y259046D01*
X547918Y258999D01*
X548020Y258956D01*
X548123Y258916D01*
X548228Y258880D01*
X548334Y258848D01*
X548441Y258819D01*
X548549Y258794D01*
X548658Y258773D01*
X548767Y258756D01*
X548877Y258742D01*
X548988Y258733D01*
X549098Y258727D01*
X549209Y258725D01*
X549320Y258727D01*
X549430Y258733D01*
X549541Y258742D01*
X549651Y258756D01*
X549760Y258773D01*
X549869Y258794D01*
X549977Y258819D01*
X550084Y258848D01*
X550190Y258880D01*
X550295Y258916D01*
X550398Y258956D01*
X550500Y258999D01*
X550601Y259046D01*
X550700Y259097D01*
X550797Y259150D01*
X550891Y259207D01*
X550984Y259268D01*
X551075Y259331D01*
X551164Y259398D01*
X551250Y259468D01*
X551333Y259541D01*
X551415Y259616D01*
X551493Y259694D01*
X551568Y259776D01*
X551641Y259859D01*
X551711Y259945D01*
X551778Y260034D01*
X551841Y260125D01*
X551902Y260218D01*
X551959Y260312D01*
X552012Y260409D01*
X552063Y260508D01*
X552110Y260609D01*
X552153Y260711D01*
X552193Y260814D01*
X552229Y260919D01*
X552261Y261025D01*
X552290Y261132D01*
X552315Y261240D01*
X552336Y261349D01*
X552353Y261458D01*
X552367Y261568D01*
X552376Y261679D01*
X552382Y261789D01*
X552384Y261900D01*
X540490Y258725D02*
X540490Y270155D01*
X537315Y270155D01*
X537204Y270153D01*
X537094Y270147D01*
X536983Y270138D01*
X536873Y270124D01*
X536764Y270107D01*
X536655Y270086D01*
X536547Y270061D01*
X536440Y270032D01*
X536334Y270000D01*
X536229Y269964D01*
X536126Y269924D01*
X536024Y269881D01*
X535923Y269834D01*
X535824Y269783D01*
X535728Y269730D01*
X535633Y269673D01*
X535540Y269612D01*
X535449Y269549D01*
X535360Y269482D01*
X535274Y269412D01*
X535191Y269339D01*
X535109Y269264D01*
X535031Y269186D01*
X534956Y269104D01*
X534883Y269021D01*
X534813Y268935D01*
X534746Y268846D01*
X534683Y268755D01*
X534622Y268662D01*
X534565Y268568D01*
X534512Y268471D01*
X534461Y268372D01*
X534414Y268271D01*
X534371Y268169D01*
X534331Y268066D01*
X534295Y267961D01*
X534263Y267855D01*
X534234Y267748D01*
X534209Y267640D01*
X534188Y267531D01*
X534171Y267422D01*
X534157Y267312D01*
X534148Y267201D01*
X534142Y267091D01*
X534140Y266980D01*
X534142Y266869D01*
X534148Y266759D01*
X534157Y266648D01*
X534171Y266538D01*
X534188Y266429D01*
X534209Y266320D01*
X534234Y266212D01*
X534263Y266105D01*
X534295Y265999D01*
X534331Y265894D01*
X534371Y265791D01*
X534414Y265689D01*
X534461Y265588D01*
X534512Y265489D01*
X534565Y265393D01*
X534622Y265298D01*
X534683Y265205D01*
X534746Y265114D01*
X534813Y265025D01*
X534883Y264939D01*
X534956Y264856D01*
X535031Y264774D01*
X535109Y264696D01*
X535191Y264621D01*
X535274Y264548D01*
X535360Y264478D01*
X535449Y264411D01*
X535540Y264348D01*
X535633Y264287D01*
X535728Y264230D01*
X535824Y264177D01*
X535923Y264126D01*
X536024Y264079D01*
X536126Y264036D01*
X536229Y263996D01*
X536334Y263960D01*
X536440Y263928D01*
X536547Y263899D01*
X536655Y263874D01*
X536764Y263853D01*
X536873Y263836D01*
X536983Y263822D01*
X537094Y263813D01*
X537204Y263807D01*
X537315Y263805D01*
X540490Y263805D01*
X536680Y263805D02*
X534140Y258725D01*
X528762Y258725D02*
X528762Y270155D01*
X525587Y270155D01*
X525476Y270153D01*
X525366Y270147D01*
X525255Y270138D01*
X525145Y270124D01*
X525036Y270107D01*
X524927Y270086D01*
X524819Y270061D01*
X524712Y270032D01*
X524606Y270000D01*
X524501Y269964D01*
X524398Y269924D01*
X524296Y269881D01*
X524195Y269834D01*
X524096Y269783D01*
X524000Y269730D01*
X523905Y269673D01*
X523812Y269612D01*
X523721Y269549D01*
X523632Y269482D01*
X523546Y269412D01*
X523463Y269339D01*
X523381Y269264D01*
X523303Y269186D01*
X523228Y269104D01*
X523155Y269021D01*
X523085Y268935D01*
X523018Y268846D01*
X522955Y268755D01*
X522894Y268662D01*
X522837Y268568D01*
X522784Y268471D01*
X522733Y268372D01*
X522686Y268271D01*
X522643Y268169D01*
X522603Y268066D01*
X522567Y267961D01*
X522535Y267855D01*
X522506Y267748D01*
X522481Y267640D01*
X522460Y267531D01*
X522443Y267422D01*
X522429Y267312D01*
X522420Y267201D01*
X522414Y267091D01*
X522412Y266980D01*
X522412Y261900D01*
X522414Y261789D01*
X522420Y261679D01*
X522429Y261568D01*
X522443Y261458D01*
X522460Y261349D01*
X522481Y261240D01*
X522506Y261132D01*
X522535Y261025D01*
X522567Y260919D01*
X522603Y260814D01*
X522643Y260711D01*
X522686Y260609D01*
X522733Y260508D01*
X522784Y260409D01*
X522837Y260313D01*
X522894Y260218D01*
X522955Y260125D01*
X523018Y260034D01*
X523085Y259945D01*
X523155Y259859D01*
X523228Y259776D01*
X523303Y259694D01*
X523381Y259616D01*
X523463Y259541D01*
X523546Y259468D01*
X523632Y259398D01*
X523721Y259331D01*
X523812Y259268D01*
X523905Y259207D01*
X524000Y259150D01*
X524096Y259097D01*
X524195Y259046D01*
X524296Y258999D01*
X524398Y258956D01*
X524501Y258916D01*
X524606Y258880D01*
X524712Y258848D01*
X524819Y258819D01*
X524927Y258794D01*
X525036Y258773D01*
X525145Y258756D01*
X525255Y258742D01*
X525366Y258733D01*
X525476Y258727D01*
X525587Y258725D01*
X528762Y258725D01*
X516487Y258725D02*
X516487Y270155D01*
X513312Y270155D01*
X513201Y270153D01*
X513091Y270147D01*
X512980Y270138D01*
X512870Y270124D01*
X512761Y270107D01*
X512652Y270086D01*
X512544Y270061D01*
X512437Y270032D01*
X512331Y270000D01*
X512226Y269964D01*
X512123Y269924D01*
X512021Y269881D01*
X511920Y269834D01*
X511821Y269783D01*
X511725Y269730D01*
X511630Y269673D01*
X511537Y269612D01*
X511446Y269549D01*
X511357Y269482D01*
X511271Y269412D01*
X511188Y269339D01*
X511106Y269264D01*
X511028Y269186D01*
X510953Y269104D01*
X510880Y269021D01*
X510810Y268935D01*
X510743Y268846D01*
X510680Y268755D01*
X510619Y268662D01*
X510562Y268568D01*
X510509Y268471D01*
X510458Y268372D01*
X510411Y268271D01*
X510368Y268169D01*
X510328Y268066D01*
X510292Y267961D01*
X510260Y267855D01*
X510231Y267748D01*
X510206Y267640D01*
X510185Y267531D01*
X510168Y267422D01*
X510154Y267312D01*
X510145Y267201D01*
X510139Y267091D01*
X510137Y266980D01*
X510139Y266869D01*
X510145Y266759D01*
X510154Y266648D01*
X510168Y266538D01*
X510185Y266429D01*
X510206Y266320D01*
X510231Y266212D01*
X510260Y266105D01*
X510292Y265999D01*
X510328Y265894D01*
X510368Y265791D01*
X510411Y265689D01*
X510458Y265588D01*
X510509Y265489D01*
X510562Y265393D01*
X510619Y265298D01*
X510680Y265205D01*
X510743Y265114D01*
X510810Y265025D01*
X510880Y264939D01*
X510953Y264856D01*
X511028Y264774D01*
X511106Y264696D01*
X511188Y264621D01*
X511271Y264548D01*
X511357Y264478D01*
X511446Y264411D01*
X511537Y264348D01*
X511630Y264287D01*
X511725Y264230D01*
X511821Y264177D01*
X511920Y264126D01*
X512021Y264079D01*
X512123Y264036D01*
X512226Y263996D01*
X512331Y263960D01*
X512437Y263928D01*
X512544Y263899D01*
X512652Y263874D01*
X512761Y263853D01*
X512870Y263836D01*
X512980Y263822D01*
X513091Y263813D01*
X513201Y263807D01*
X513312Y263805D01*
X516487Y263805D01*
X512677Y263805D02*
X510137Y258725D01*
X504251Y258725D02*
X504251Y270155D01*
X505521Y258725D02*
X502981Y258725D01*
X502981Y270155D02*
X505521Y270155D01*
X498917Y270155D02*
X495107Y258725D01*
X491297Y270155D01*
X486446Y258725D02*
X481366Y258725D01*
X486446Y258725D02*
X486446Y270155D01*
X481366Y270155D01*
X482636Y265075D02*
X486446Y265075D01*
X476482Y270155D02*
X476482Y258725D01*
X476482Y270155D02*
X473307Y270155D01*
X473196Y270153D01*
X473086Y270147D01*
X472975Y270138D01*
X472865Y270124D01*
X472756Y270107D01*
X472647Y270086D01*
X472539Y270061D01*
X472432Y270032D01*
X472326Y270000D01*
X472221Y269964D01*
X472118Y269924D01*
X472016Y269881D01*
X471915Y269834D01*
X471816Y269783D01*
X471720Y269730D01*
X471625Y269673D01*
X471532Y269612D01*
X471441Y269549D01*
X471352Y269482D01*
X471266Y269412D01*
X471183Y269339D01*
X471101Y269264D01*
X471023Y269186D01*
X470948Y269104D01*
X470875Y269021D01*
X470805Y268935D01*
X470738Y268846D01*
X470675Y268755D01*
X470614Y268662D01*
X470557Y268568D01*
X470504Y268471D01*
X470453Y268372D01*
X470406Y268271D01*
X470363Y268169D01*
X470323Y268066D01*
X470287Y267961D01*
X470255Y267855D01*
X470226Y267748D01*
X470201Y267640D01*
X470180Y267531D01*
X470163Y267422D01*
X470149Y267312D01*
X470140Y267201D01*
X470134Y267091D01*
X470132Y266980D01*
X470134Y266869D01*
X470140Y266759D01*
X470149Y266648D01*
X470163Y266538D01*
X470180Y266429D01*
X470201Y266320D01*
X470226Y266212D01*
X470255Y266105D01*
X470287Y265999D01*
X470323Y265894D01*
X470363Y265791D01*
X470406Y265689D01*
X470453Y265588D01*
X470504Y265489D01*
X470557Y265393D01*
X470614Y265298D01*
X470675Y265205D01*
X470738Y265114D01*
X470805Y265025D01*
X470875Y264939D01*
X470948Y264856D01*
X471023Y264774D01*
X471101Y264696D01*
X471183Y264621D01*
X471266Y264548D01*
X471352Y264478D01*
X471441Y264411D01*
X471532Y264348D01*
X471625Y264287D01*
X471720Y264230D01*
X471816Y264177D01*
X471915Y264126D01*
X472016Y264079D01*
X472118Y264036D01*
X472221Y263996D01*
X472326Y263960D01*
X472432Y263928D01*
X472539Y263899D01*
X472647Y263874D01*
X472756Y263853D01*
X472865Y263836D01*
X472975Y263822D01*
X473086Y263813D01*
X473196Y263807D01*
X473307Y263805D01*
X476482Y263805D01*
X472672Y263805D02*
X470132Y258725D01*
X465135Y267615D02*
X461960Y270155D01*
X461960Y258725D01*
X465135Y258725D02*
X458785Y258725D01*
D14*
X311150Y345440D02*
X311150Y359410D01*
X311150Y284480D02*
X412750Y284480D01*
X412750Y302260D01*
X412750Y359410D02*
X311150Y359410D01*
X311150Y293370D02*
X306070Y292100D01*
X311150Y293370D02*
X311150Y284480D01*
X306070Y292100D02*
X306070Y303530D01*
X311150Y302260D01*
X311150Y293370D01*
X311150Y302260D02*
X412750Y302260D01*
X412750Y345440D01*
X311150Y345440D01*
X311150Y302260D01*
X412750Y345440D02*
X412750Y359410D01*
X376936Y337820D02*
X401066Y313690D01*
X397256Y309880D02*
X373126Y334010D01*
X346964Y309880D02*
X322834Y334010D01*
X326644Y337820D02*
X350774Y313690D01*
D16*
X376936Y334010D02*
X397256Y313690D01*
X346964Y313690D02*
X326644Y334010D01*
D14*
X373126Y334010D02*
X376936Y337820D01*
X401066Y313690D02*
X397256Y309880D01*
X326644Y337820D02*
X322834Y334010D01*
X346964Y309880D02*
X350774Y313690D01*
X382016Y293370D02*
X382018Y293512D01*
X382024Y293655D01*
X382034Y293797D01*
X382048Y293939D01*
X382066Y294080D01*
X382088Y294221D01*
X382114Y294361D01*
X382143Y294500D01*
X382177Y294639D01*
X382215Y294776D01*
X382256Y294913D01*
X382301Y295048D01*
X382350Y295182D01*
X382403Y295314D01*
X382459Y295445D01*
X382519Y295574D01*
X382583Y295702D01*
X382650Y295827D01*
X382721Y295951D01*
X382795Y296073D01*
X382872Y296192D01*
X382953Y296310D01*
X383037Y296425D01*
X383124Y296537D01*
X383215Y296647D01*
X383308Y296755D01*
X383405Y296860D01*
X383504Y296962D01*
X383606Y297061D01*
X383711Y297158D01*
X383819Y297251D01*
X383929Y297342D01*
X384041Y297429D01*
X384156Y297513D01*
X384274Y297594D01*
X384393Y297671D01*
X384515Y297745D01*
X384639Y297816D01*
X384764Y297883D01*
X384892Y297947D01*
X385021Y298007D01*
X385152Y298063D01*
X385284Y298116D01*
X385418Y298165D01*
X385553Y298210D01*
X385690Y298251D01*
X385827Y298289D01*
X385966Y298323D01*
X386105Y298352D01*
X386245Y298378D01*
X386386Y298400D01*
X386527Y298418D01*
X386669Y298432D01*
X386811Y298442D01*
X386954Y298448D01*
X387096Y298450D01*
X387238Y298448D01*
X387381Y298442D01*
X387523Y298432D01*
X387665Y298418D01*
X387806Y298400D01*
X387947Y298378D01*
X388087Y298352D01*
X388226Y298323D01*
X388365Y298289D01*
X388502Y298251D01*
X388639Y298210D01*
X388774Y298165D01*
X388908Y298116D01*
X389040Y298063D01*
X389171Y298007D01*
X389300Y297947D01*
X389428Y297883D01*
X389553Y297816D01*
X389677Y297745D01*
X389799Y297671D01*
X389918Y297594D01*
X390036Y297513D01*
X390151Y297429D01*
X390263Y297342D01*
X390373Y297251D01*
X390481Y297158D01*
X390586Y297061D01*
X390688Y296962D01*
X390787Y296860D01*
X390884Y296755D01*
X390977Y296647D01*
X391068Y296537D01*
X391155Y296425D01*
X391239Y296310D01*
X391320Y296192D01*
X391397Y296073D01*
X391471Y295951D01*
X391542Y295827D01*
X391609Y295702D01*
X391673Y295574D01*
X391733Y295445D01*
X391789Y295314D01*
X391842Y295182D01*
X391891Y295048D01*
X391936Y294913D01*
X391977Y294776D01*
X392015Y294639D01*
X392049Y294500D01*
X392078Y294361D01*
X392104Y294221D01*
X392126Y294080D01*
X392144Y293939D01*
X392158Y293797D01*
X392168Y293655D01*
X392174Y293512D01*
X392176Y293370D01*
X392174Y293228D01*
X392168Y293085D01*
X392158Y292943D01*
X392144Y292801D01*
X392126Y292660D01*
X392104Y292519D01*
X392078Y292379D01*
X392049Y292240D01*
X392015Y292101D01*
X391977Y291964D01*
X391936Y291827D01*
X391891Y291692D01*
X391842Y291558D01*
X391789Y291426D01*
X391733Y291295D01*
X391673Y291166D01*
X391609Y291038D01*
X391542Y290913D01*
X391471Y290789D01*
X391397Y290667D01*
X391320Y290548D01*
X391239Y290430D01*
X391155Y290315D01*
X391068Y290203D01*
X390977Y290093D01*
X390884Y289985D01*
X390787Y289880D01*
X390688Y289778D01*
X390586Y289679D01*
X390481Y289582D01*
X390373Y289489D01*
X390263Y289398D01*
X390151Y289311D01*
X390036Y289227D01*
X389918Y289146D01*
X389799Y289069D01*
X389677Y288995D01*
X389553Y288924D01*
X389428Y288857D01*
X389300Y288793D01*
X389171Y288733D01*
X389040Y288677D01*
X388908Y288624D01*
X388774Y288575D01*
X388639Y288530D01*
X388502Y288489D01*
X388365Y288451D01*
X388226Y288417D01*
X388087Y288388D01*
X387947Y288362D01*
X387806Y288340D01*
X387665Y288322D01*
X387523Y288308D01*
X387381Y288298D01*
X387238Y288292D01*
X387096Y288290D01*
X386954Y288292D01*
X386811Y288298D01*
X386669Y288308D01*
X386527Y288322D01*
X386386Y288340D01*
X386245Y288362D01*
X386105Y288388D01*
X385966Y288417D01*
X385827Y288451D01*
X385690Y288489D01*
X385553Y288530D01*
X385418Y288575D01*
X385284Y288624D01*
X385152Y288677D01*
X385021Y288733D01*
X384892Y288793D01*
X384764Y288857D01*
X384639Y288924D01*
X384515Y288995D01*
X384393Y289069D01*
X384274Y289146D01*
X384156Y289227D01*
X384041Y289311D01*
X383929Y289398D01*
X383819Y289489D01*
X383711Y289582D01*
X383606Y289679D01*
X383504Y289778D01*
X383405Y289880D01*
X383308Y289985D01*
X383215Y290093D01*
X383124Y290203D01*
X383037Y290315D01*
X382953Y290430D01*
X382872Y290548D01*
X382795Y290667D01*
X382721Y290789D01*
X382650Y290913D01*
X382583Y291038D01*
X382519Y291166D01*
X382459Y291295D01*
X382403Y291426D01*
X382350Y291558D01*
X382301Y291692D01*
X382256Y291827D01*
X382215Y291964D01*
X382177Y292101D01*
X382143Y292240D01*
X382114Y292379D01*
X382088Y292519D01*
X382066Y292660D01*
X382048Y292801D01*
X382034Y292943D01*
X382024Y293085D01*
X382018Y293228D01*
X382016Y293370D01*
X331724Y293370D02*
X331726Y293512D01*
X331732Y293655D01*
X331742Y293797D01*
X331756Y293939D01*
X331774Y294080D01*
X331796Y294221D01*
X331822Y294361D01*
X331851Y294500D01*
X331885Y294639D01*
X331923Y294776D01*
X331964Y294913D01*
X332009Y295048D01*
X332058Y295182D01*
X332111Y295314D01*
X332167Y295445D01*
X332227Y295574D01*
X332291Y295702D01*
X332358Y295827D01*
X332429Y295951D01*
X332503Y296073D01*
X332580Y296192D01*
X332661Y296310D01*
X332745Y296425D01*
X332832Y296537D01*
X332923Y296647D01*
X333016Y296755D01*
X333113Y296860D01*
X333212Y296962D01*
X333314Y297061D01*
X333419Y297158D01*
X333527Y297251D01*
X333637Y297342D01*
X333749Y297429D01*
X333864Y297513D01*
X333982Y297594D01*
X334101Y297671D01*
X334223Y297745D01*
X334347Y297816D01*
X334472Y297883D01*
X334600Y297947D01*
X334729Y298007D01*
X334860Y298063D01*
X334992Y298116D01*
X335126Y298165D01*
X335261Y298210D01*
X335398Y298251D01*
X335535Y298289D01*
X335674Y298323D01*
X335813Y298352D01*
X335953Y298378D01*
X336094Y298400D01*
X336235Y298418D01*
X336377Y298432D01*
X336519Y298442D01*
X336662Y298448D01*
X336804Y298450D01*
X336946Y298448D01*
X337089Y298442D01*
X337231Y298432D01*
X337373Y298418D01*
X337514Y298400D01*
X337655Y298378D01*
X337795Y298352D01*
X337934Y298323D01*
X338073Y298289D01*
X338210Y298251D01*
X338347Y298210D01*
X338482Y298165D01*
X338616Y298116D01*
X338748Y298063D01*
X338879Y298007D01*
X339008Y297947D01*
X339136Y297883D01*
X339261Y297816D01*
X339385Y297745D01*
X339507Y297671D01*
X339626Y297594D01*
X339744Y297513D01*
X339859Y297429D01*
X339971Y297342D01*
X340081Y297251D01*
X340189Y297158D01*
X340294Y297061D01*
X340396Y296962D01*
X340495Y296860D01*
X340592Y296755D01*
X340685Y296647D01*
X340776Y296537D01*
X340863Y296425D01*
X340947Y296310D01*
X341028Y296192D01*
X341105Y296073D01*
X341179Y295951D01*
X341250Y295827D01*
X341317Y295702D01*
X341381Y295574D01*
X341441Y295445D01*
X341497Y295314D01*
X341550Y295182D01*
X341599Y295048D01*
X341644Y294913D01*
X341685Y294776D01*
X341723Y294639D01*
X341757Y294500D01*
X341786Y294361D01*
X341812Y294221D01*
X341834Y294080D01*
X341852Y293939D01*
X341866Y293797D01*
X341876Y293655D01*
X341882Y293512D01*
X341884Y293370D01*
X341882Y293228D01*
X341876Y293085D01*
X341866Y292943D01*
X341852Y292801D01*
X341834Y292660D01*
X341812Y292519D01*
X341786Y292379D01*
X341757Y292240D01*
X341723Y292101D01*
X341685Y291964D01*
X341644Y291827D01*
X341599Y291692D01*
X341550Y291558D01*
X341497Y291426D01*
X341441Y291295D01*
X341381Y291166D01*
X341317Y291038D01*
X341250Y290913D01*
X341179Y290789D01*
X341105Y290667D01*
X341028Y290548D01*
X340947Y290430D01*
X340863Y290315D01*
X340776Y290203D01*
X340685Y290093D01*
X340592Y289985D01*
X340495Y289880D01*
X340396Y289778D01*
X340294Y289679D01*
X340189Y289582D01*
X340081Y289489D01*
X339971Y289398D01*
X339859Y289311D01*
X339744Y289227D01*
X339626Y289146D01*
X339507Y289069D01*
X339385Y288995D01*
X339261Y288924D01*
X339136Y288857D01*
X339008Y288793D01*
X338879Y288733D01*
X338748Y288677D01*
X338616Y288624D01*
X338482Y288575D01*
X338347Y288530D01*
X338210Y288489D01*
X338073Y288451D01*
X337934Y288417D01*
X337795Y288388D01*
X337655Y288362D01*
X337514Y288340D01*
X337373Y288322D01*
X337231Y288308D01*
X337089Y288298D01*
X336946Y288292D01*
X336804Y288290D01*
X336662Y288292D01*
X336519Y288298D01*
X336377Y288308D01*
X336235Y288322D01*
X336094Y288340D01*
X335953Y288362D01*
X335813Y288388D01*
X335674Y288417D01*
X335535Y288451D01*
X335398Y288489D01*
X335261Y288530D01*
X335126Y288575D01*
X334992Y288624D01*
X334860Y288677D01*
X334729Y288733D01*
X334600Y288793D01*
X334472Y288857D01*
X334347Y288924D01*
X334223Y288995D01*
X334101Y289069D01*
X333982Y289146D01*
X333864Y289227D01*
X333749Y289311D01*
X333637Y289398D01*
X333527Y289489D01*
X333419Y289582D01*
X333314Y289679D01*
X333212Y289778D01*
X333113Y289880D01*
X333016Y289985D01*
X332923Y290093D01*
X332832Y290203D01*
X332745Y290315D01*
X332661Y290430D01*
X332580Y290548D01*
X332503Y290667D01*
X332429Y290789D01*
X332358Y290913D01*
X332291Y291038D01*
X332227Y291166D01*
X332167Y291295D01*
X332111Y291426D01*
X332058Y291558D01*
X332009Y291692D01*
X331964Y291827D01*
X331923Y291964D01*
X331885Y292101D01*
X331851Y292240D01*
X331822Y292379D01*
X331796Y292519D01*
X331774Y292660D01*
X331756Y292801D01*
X331742Y292943D01*
X331732Y293085D01*
X331726Y293228D01*
X331724Y293370D01*
X369316Y323850D02*
X369321Y324286D01*
X369337Y324722D01*
X369364Y325158D01*
X369402Y325593D01*
X369450Y326026D01*
X369508Y326459D01*
X369578Y326890D01*
X369658Y327319D01*
X369748Y327746D01*
X369849Y328170D01*
X369960Y328592D01*
X370082Y329011D01*
X370213Y329427D01*
X370355Y329840D01*
X370507Y330249D01*
X370669Y330654D01*
X370841Y331055D01*
X371023Y331452D01*
X371214Y331844D01*
X371415Y332231D01*
X371626Y332614D01*
X371846Y332991D01*
X372075Y333362D01*
X372312Y333728D01*
X372559Y334088D01*
X372815Y334442D01*
X373079Y334789D01*
X373352Y335130D01*
X373633Y335463D01*
X373922Y335790D01*
X374219Y336110D01*
X374524Y336422D01*
X374836Y336727D01*
X375156Y337024D01*
X375483Y337313D01*
X375816Y337594D01*
X376157Y337867D01*
X376504Y338131D01*
X376858Y338387D01*
X377218Y338634D01*
X377584Y338871D01*
X377955Y339100D01*
X378332Y339320D01*
X378715Y339531D01*
X379102Y339732D01*
X379494Y339923D01*
X379891Y340105D01*
X380292Y340277D01*
X380697Y340439D01*
X381106Y340591D01*
X381519Y340733D01*
X381935Y340864D01*
X382354Y340986D01*
X382776Y341097D01*
X383200Y341198D01*
X383627Y341288D01*
X384056Y341368D01*
X384487Y341438D01*
X384920Y341496D01*
X385353Y341544D01*
X385788Y341582D01*
X386224Y341609D01*
X386660Y341625D01*
X387096Y341630D01*
X387532Y341625D01*
X387968Y341609D01*
X388404Y341582D01*
X388839Y341544D01*
X389272Y341496D01*
X389705Y341438D01*
X390136Y341368D01*
X390565Y341288D01*
X390992Y341198D01*
X391416Y341097D01*
X391838Y340986D01*
X392257Y340864D01*
X392673Y340733D01*
X393086Y340591D01*
X393495Y340439D01*
X393900Y340277D01*
X394301Y340105D01*
X394698Y339923D01*
X395090Y339732D01*
X395477Y339531D01*
X395860Y339320D01*
X396237Y339100D01*
X396608Y338871D01*
X396974Y338634D01*
X397334Y338387D01*
X397688Y338131D01*
X398035Y337867D01*
X398376Y337594D01*
X398709Y337313D01*
X399036Y337024D01*
X399356Y336727D01*
X399668Y336422D01*
X399973Y336110D01*
X400270Y335790D01*
X400559Y335463D01*
X400840Y335130D01*
X401113Y334789D01*
X401377Y334442D01*
X401633Y334088D01*
X401880Y333728D01*
X402117Y333362D01*
X402346Y332991D01*
X402566Y332614D01*
X402777Y332231D01*
X402978Y331844D01*
X403169Y331452D01*
X403351Y331055D01*
X403523Y330654D01*
X403685Y330249D01*
X403837Y329840D01*
X403979Y329427D01*
X404110Y329011D01*
X404232Y328592D01*
X404343Y328170D01*
X404444Y327746D01*
X404534Y327319D01*
X404614Y326890D01*
X404684Y326459D01*
X404742Y326026D01*
X404790Y325593D01*
X404828Y325158D01*
X404855Y324722D01*
X404871Y324286D01*
X404876Y323850D01*
X404871Y323414D01*
X404855Y322978D01*
X404828Y322542D01*
X404790Y322107D01*
X404742Y321674D01*
X404684Y321241D01*
X404614Y320810D01*
X404534Y320381D01*
X404444Y319954D01*
X404343Y319530D01*
X404232Y319108D01*
X404110Y318689D01*
X403979Y318273D01*
X403837Y317860D01*
X403685Y317451D01*
X403523Y317046D01*
X403351Y316645D01*
X403169Y316248D01*
X402978Y315856D01*
X402777Y315469D01*
X402566Y315086D01*
X402346Y314709D01*
X402117Y314338D01*
X401880Y313972D01*
X401633Y313612D01*
X401377Y313258D01*
X401113Y312911D01*
X400840Y312570D01*
X400559Y312237D01*
X400270Y311910D01*
X399973Y311590D01*
X399668Y311278D01*
X399356Y310973D01*
X399036Y310676D01*
X398709Y310387D01*
X398376Y310106D01*
X398035Y309833D01*
X397688Y309569D01*
X397334Y309313D01*
X396974Y309066D01*
X396608Y308829D01*
X396237Y308600D01*
X395860Y308380D01*
X395477Y308169D01*
X395090Y307968D01*
X394698Y307777D01*
X394301Y307595D01*
X393900Y307423D01*
X393495Y307261D01*
X393086Y307109D01*
X392673Y306967D01*
X392257Y306836D01*
X391838Y306714D01*
X391416Y306603D01*
X390992Y306502D01*
X390565Y306412D01*
X390136Y306332D01*
X389705Y306262D01*
X389272Y306204D01*
X388839Y306156D01*
X388404Y306118D01*
X387968Y306091D01*
X387532Y306075D01*
X387096Y306070D01*
X386660Y306075D01*
X386224Y306091D01*
X385788Y306118D01*
X385353Y306156D01*
X384920Y306204D01*
X384487Y306262D01*
X384056Y306332D01*
X383627Y306412D01*
X383200Y306502D01*
X382776Y306603D01*
X382354Y306714D01*
X381935Y306836D01*
X381519Y306967D01*
X381106Y307109D01*
X380697Y307261D01*
X380292Y307423D01*
X379891Y307595D01*
X379494Y307777D01*
X379102Y307968D01*
X378715Y308169D01*
X378332Y308380D01*
X377955Y308600D01*
X377584Y308829D01*
X377218Y309066D01*
X376858Y309313D01*
X376504Y309569D01*
X376157Y309833D01*
X375816Y310106D01*
X375483Y310387D01*
X375156Y310676D01*
X374836Y310973D01*
X374524Y311278D01*
X374219Y311590D01*
X373922Y311910D01*
X373633Y312237D01*
X373352Y312570D01*
X373079Y312911D01*
X372815Y313258D01*
X372559Y313612D01*
X372312Y313972D01*
X372075Y314338D01*
X371846Y314709D01*
X371626Y315086D01*
X371415Y315469D01*
X371214Y315856D01*
X371023Y316248D01*
X370841Y316645D01*
X370669Y317046D01*
X370507Y317451D01*
X370355Y317860D01*
X370213Y318273D01*
X370082Y318689D01*
X369960Y319108D01*
X369849Y319530D01*
X369748Y319954D01*
X369658Y320381D01*
X369578Y320810D01*
X369508Y321241D01*
X369450Y321674D01*
X369402Y322107D01*
X369364Y322542D01*
X369337Y322978D01*
X369321Y323414D01*
X369316Y323850D01*
X319024Y323850D02*
X319029Y324286D01*
X319045Y324722D01*
X319072Y325158D01*
X319110Y325593D01*
X319158Y326026D01*
X319216Y326459D01*
X319286Y326890D01*
X319366Y327319D01*
X319456Y327746D01*
X319557Y328170D01*
X319668Y328592D01*
X319790Y329011D01*
X319921Y329427D01*
X320063Y329840D01*
X320215Y330249D01*
X320377Y330654D01*
X320549Y331055D01*
X320731Y331452D01*
X320922Y331844D01*
X321123Y332231D01*
X321334Y332614D01*
X321554Y332991D01*
X321783Y333362D01*
X322020Y333728D01*
X322267Y334088D01*
X322523Y334442D01*
X322787Y334789D01*
X323060Y335130D01*
X323341Y335463D01*
X323630Y335790D01*
X323927Y336110D01*
X324232Y336422D01*
X324544Y336727D01*
X324864Y337024D01*
X325191Y337313D01*
X325524Y337594D01*
X325865Y337867D01*
X326212Y338131D01*
X326566Y338387D01*
X326926Y338634D01*
X327292Y338871D01*
X327663Y339100D01*
X328040Y339320D01*
X328423Y339531D01*
X328810Y339732D01*
X329202Y339923D01*
X329599Y340105D01*
X330000Y340277D01*
X330405Y340439D01*
X330814Y340591D01*
X331227Y340733D01*
X331643Y340864D01*
X332062Y340986D01*
X332484Y341097D01*
X332908Y341198D01*
X333335Y341288D01*
X333764Y341368D01*
X334195Y341438D01*
X334628Y341496D01*
X335061Y341544D01*
X335496Y341582D01*
X335932Y341609D01*
X336368Y341625D01*
X336804Y341630D01*
X337240Y341625D01*
X337676Y341609D01*
X338112Y341582D01*
X338547Y341544D01*
X338980Y341496D01*
X339413Y341438D01*
X339844Y341368D01*
X340273Y341288D01*
X340700Y341198D01*
X341124Y341097D01*
X341546Y340986D01*
X341965Y340864D01*
X342381Y340733D01*
X342794Y340591D01*
X343203Y340439D01*
X343608Y340277D01*
X344009Y340105D01*
X344406Y339923D01*
X344798Y339732D01*
X345185Y339531D01*
X345568Y339320D01*
X345945Y339100D01*
X346316Y338871D01*
X346682Y338634D01*
X347042Y338387D01*
X347396Y338131D01*
X347743Y337867D01*
X348084Y337594D01*
X348417Y337313D01*
X348744Y337024D01*
X349064Y336727D01*
X349376Y336422D01*
X349681Y336110D01*
X349978Y335790D01*
X350267Y335463D01*
X350548Y335130D01*
X350821Y334789D01*
X351085Y334442D01*
X351341Y334088D01*
X351588Y333728D01*
X351825Y333362D01*
X352054Y332991D01*
X352274Y332614D01*
X352485Y332231D01*
X352686Y331844D01*
X352877Y331452D01*
X353059Y331055D01*
X353231Y330654D01*
X353393Y330249D01*
X353545Y329840D01*
X353687Y329427D01*
X353818Y329011D01*
X353940Y328592D01*
X354051Y328170D01*
X354152Y327746D01*
X354242Y327319D01*
X354322Y326890D01*
X354392Y326459D01*
X354450Y326026D01*
X354498Y325593D01*
X354536Y325158D01*
X354563Y324722D01*
X354579Y324286D01*
X354584Y323850D01*
X354579Y323414D01*
X354563Y322978D01*
X354536Y322542D01*
X354498Y322107D01*
X354450Y321674D01*
X354392Y321241D01*
X354322Y320810D01*
X354242Y320381D01*
X354152Y319954D01*
X354051Y319530D01*
X353940Y319108D01*
X353818Y318689D01*
X353687Y318273D01*
X353545Y317860D01*
X353393Y317451D01*
X353231Y317046D01*
X353059Y316645D01*
X352877Y316248D01*
X352686Y315856D01*
X352485Y315469D01*
X352274Y315086D01*
X352054Y314709D01*
X351825Y314338D01*
X351588Y313972D01*
X351341Y313612D01*
X351085Y313258D01*
X350821Y312911D01*
X350548Y312570D01*
X350267Y312237D01*
X349978Y311910D01*
X349681Y311590D01*
X349376Y311278D01*
X349064Y310973D01*
X348744Y310676D01*
X348417Y310387D01*
X348084Y310106D01*
X347743Y309833D01*
X347396Y309569D01*
X347042Y309313D01*
X346682Y309066D01*
X346316Y308829D01*
X345945Y308600D01*
X345568Y308380D01*
X345185Y308169D01*
X344798Y307968D01*
X344406Y307777D01*
X344009Y307595D01*
X343608Y307423D01*
X343203Y307261D01*
X342794Y307109D01*
X342381Y306967D01*
X341965Y306836D01*
X341546Y306714D01*
X341124Y306603D01*
X340700Y306502D01*
X340273Y306412D01*
X339844Y306332D01*
X339413Y306262D01*
X338980Y306204D01*
X338547Y306156D01*
X338112Y306118D01*
X337676Y306091D01*
X337240Y306075D01*
X336804Y306070D01*
X336368Y306075D01*
X335932Y306091D01*
X335496Y306118D01*
X335061Y306156D01*
X334628Y306204D01*
X334195Y306262D01*
X333764Y306332D01*
X333335Y306412D01*
X332908Y306502D01*
X332484Y306603D01*
X332062Y306714D01*
X331643Y306836D01*
X331227Y306967D01*
X330814Y307109D01*
X330405Y307261D01*
X330000Y307423D01*
X329599Y307595D01*
X329202Y307777D01*
X328810Y307968D01*
X328423Y308169D01*
X328040Y308380D01*
X327663Y308600D01*
X327292Y308829D01*
X326926Y309066D01*
X326566Y309313D01*
X326212Y309569D01*
X325865Y309833D01*
X325524Y310106D01*
X325191Y310387D01*
X324864Y310676D01*
X324544Y310973D01*
X324232Y311278D01*
X323927Y311590D01*
X323630Y311910D01*
X323341Y312237D01*
X323060Y312570D01*
X322787Y312911D01*
X322523Y313258D01*
X322267Y313612D01*
X322020Y313972D01*
X321783Y314338D01*
X321554Y314709D01*
X321334Y315086D01*
X321123Y315469D01*
X320922Y315856D01*
X320731Y316248D01*
X320549Y316645D01*
X320377Y317046D01*
X320215Y317451D01*
X320063Y317860D01*
X319921Y318273D01*
X319790Y318689D01*
X319668Y319108D01*
X319557Y319530D01*
X319456Y319954D01*
X319366Y320381D01*
X319286Y320810D01*
X319216Y321241D01*
X319158Y321674D01*
X319110Y322107D01*
X319072Y322542D01*
X319045Y322978D01*
X319029Y323414D01*
X319024Y323850D01*
D12*
X320534Y297815D02*
X322933Y295896D01*
X320534Y297815D02*
X320534Y289179D01*
X322933Y289179D02*
X318135Y289179D01*
X368935Y295656D02*
X368937Y295748D01*
X368943Y295839D01*
X368952Y295930D01*
X368966Y296021D01*
X368983Y296111D01*
X369005Y296200D01*
X369030Y296288D01*
X369058Y296375D01*
X369091Y296461D01*
X369127Y296545D01*
X369166Y296628D01*
X369209Y296709D01*
X369256Y296788D01*
X369305Y296865D01*
X369358Y296940D01*
X369414Y297012D01*
X369473Y297082D01*
X369535Y297150D01*
X369600Y297215D01*
X369668Y297277D01*
X369738Y297336D01*
X369810Y297392D01*
X369885Y297445D01*
X369962Y297494D01*
X370041Y297541D01*
X370122Y297584D01*
X370205Y297623D01*
X370289Y297659D01*
X370375Y297692D01*
X370462Y297720D01*
X370550Y297745D01*
X370639Y297767D01*
X370729Y297784D01*
X370820Y297798D01*
X370911Y297807D01*
X371002Y297813D01*
X371094Y297815D01*
X371197Y297813D01*
X371299Y297807D01*
X371401Y297798D01*
X371503Y297785D01*
X371604Y297768D01*
X371705Y297747D01*
X371804Y297723D01*
X371903Y297694D01*
X372000Y297663D01*
X372097Y297627D01*
X372192Y297589D01*
X372285Y297546D01*
X372377Y297500D01*
X372467Y297451D01*
X372555Y297399D01*
X372642Y297343D01*
X372726Y297284D01*
X372807Y297223D01*
X372887Y297158D01*
X372964Y297090D01*
X373039Y297019D01*
X373110Y296946D01*
X373179Y296870D01*
X373246Y296792D01*
X373309Y296711D01*
X373369Y296628D01*
X373426Y296543D01*
X373480Y296456D01*
X373531Y296366D01*
X373578Y296275D01*
X373622Y296183D01*
X373663Y296088D01*
X373700Y295993D01*
X373733Y295896D01*
X369655Y293977D02*
X369588Y294043D01*
X369524Y294112D01*
X369463Y294183D01*
X369405Y294257D01*
X369350Y294333D01*
X369298Y294411D01*
X369249Y294491D01*
X369203Y294573D01*
X369161Y294657D01*
X369122Y294743D01*
X369087Y294830D01*
X369056Y294918D01*
X369028Y295008D01*
X369003Y295098D01*
X368982Y295190D01*
X368965Y295282D01*
X368952Y295375D01*
X368943Y295468D01*
X368937Y295562D01*
X368935Y295656D01*
X369655Y293977D02*
X373733Y289179D01*
X368935Y289179D01*
D17*
X361950Y323850D03*
D18*
X399648Y278511D02*
X399648Y262509D01*
X394314Y269621D02*
X399648Y278511D01*
X394314Y269621D02*
X388980Y278511D01*
X388980Y262509D01*
X381412Y268732D02*
X370744Y268732D01*
X359036Y262509D02*
X358920Y262511D01*
X358803Y262517D01*
X358687Y262526D01*
X358572Y262539D01*
X358457Y262556D01*
X358342Y262577D01*
X358229Y262602D01*
X358116Y262630D01*
X358004Y262662D01*
X357893Y262698D01*
X357783Y262737D01*
X357675Y262780D01*
X357568Y262826D01*
X357463Y262876D01*
X357360Y262929D01*
X357258Y262985D01*
X357158Y263045D01*
X357060Y263108D01*
X356965Y263175D01*
X356871Y263244D01*
X356780Y263316D01*
X356691Y263391D01*
X356605Y263470D01*
X356522Y263551D01*
X356441Y263634D01*
X356362Y263720D01*
X356287Y263809D01*
X356215Y263900D01*
X356146Y263994D01*
X356079Y264089D01*
X356016Y264187D01*
X355956Y264287D01*
X355900Y264389D01*
X355847Y264492D01*
X355797Y264597D01*
X355751Y264704D01*
X355708Y264812D01*
X355669Y264922D01*
X355633Y265033D01*
X355601Y265145D01*
X355573Y265258D01*
X355548Y265371D01*
X355527Y265486D01*
X355510Y265601D01*
X355497Y265716D01*
X355488Y265832D01*
X355482Y265949D01*
X355480Y266065D01*
X359036Y262509D02*
X359216Y262511D01*
X359395Y262518D01*
X359575Y262528D01*
X359754Y262543D01*
X359933Y262563D01*
X360111Y262586D01*
X360288Y262614D01*
X360465Y262646D01*
X360641Y262682D01*
X360816Y262723D01*
X360990Y262768D01*
X361163Y262817D01*
X361335Y262869D01*
X361506Y262927D01*
X361675Y262988D01*
X361842Y263053D01*
X362008Y263122D01*
X362172Y263195D01*
X362335Y263272D01*
X362495Y263353D01*
X362654Y263437D01*
X362810Y263526D01*
X362964Y263618D01*
X363116Y263714D01*
X363266Y263813D01*
X363414Y263916D01*
X363558Y264023D01*
X363701Y264133D01*
X363840Y264246D01*
X363977Y264363D01*
X364111Y264482D01*
X364242Y264605D01*
X364370Y264731D01*
X363926Y274955D02*
X363924Y275071D01*
X363918Y275188D01*
X363909Y275304D01*
X363896Y275419D01*
X363879Y275534D01*
X363858Y275649D01*
X363833Y275762D01*
X363805Y275875D01*
X363773Y275987D01*
X363737Y276098D01*
X363698Y276208D01*
X363655Y276316D01*
X363609Y276423D01*
X363559Y276528D01*
X363506Y276631D01*
X363450Y276733D01*
X363390Y276833D01*
X363327Y276931D01*
X363260Y277026D01*
X363191Y277120D01*
X363119Y277211D01*
X363044Y277300D01*
X362965Y277386D01*
X362884Y277469D01*
X362801Y277550D01*
X362715Y277629D01*
X362626Y277704D01*
X362535Y277776D01*
X362441Y277845D01*
X362346Y277912D01*
X362248Y277975D01*
X362148Y278035D01*
X362046Y278091D01*
X361943Y278144D01*
X361838Y278194D01*
X361731Y278240D01*
X361623Y278283D01*
X361513Y278322D01*
X361402Y278358D01*
X361290Y278390D01*
X361177Y278418D01*
X361064Y278443D01*
X360949Y278464D01*
X360834Y278481D01*
X360719Y278494D01*
X360603Y278503D01*
X360486Y278509D01*
X360370Y278511D01*
X360370Y278512D02*
X360211Y278510D01*
X360052Y278504D01*
X359894Y278495D01*
X359735Y278482D01*
X359577Y278465D01*
X359420Y278444D01*
X359263Y278419D01*
X359106Y278391D01*
X358951Y278359D01*
X358796Y278324D01*
X358642Y278284D01*
X358489Y278241D01*
X358337Y278194D01*
X358186Y278144D01*
X358037Y278090D01*
X357888Y278033D01*
X357742Y277972D01*
X357596Y277908D01*
X357453Y277840D01*
X357311Y277769D01*
X357170Y277694D01*
X357032Y277616D01*
X356895Y277535D01*
X356761Y277451D01*
X356628Y277363D01*
X356497Y277272D01*
X356369Y277178D01*
X362148Y271843D02*
X362248Y271904D01*
X362346Y271969D01*
X362442Y272036D01*
X362535Y272107D01*
X362626Y272180D01*
X362715Y272257D01*
X362801Y272336D01*
X362885Y272418D01*
X362966Y272503D01*
X363044Y272590D01*
X363119Y272680D01*
X363192Y272772D01*
X363261Y272867D01*
X363327Y272963D01*
X363390Y273062D01*
X363450Y273163D01*
X363507Y273266D01*
X363560Y273370D01*
X363609Y273476D01*
X363656Y273584D01*
X363698Y273693D01*
X363738Y273803D01*
X363773Y273915D01*
X363805Y274028D01*
X363833Y274142D01*
X363858Y274256D01*
X363879Y274372D01*
X363896Y274488D01*
X363909Y274604D01*
X363918Y274721D01*
X363924Y274838D01*
X363926Y274955D01*
X357258Y269177D02*
X357158Y269116D01*
X357060Y269051D01*
X356964Y268984D01*
X356871Y268913D01*
X356780Y268840D01*
X356691Y268763D01*
X356605Y268684D01*
X356521Y268602D01*
X356440Y268517D01*
X356362Y268430D01*
X356287Y268340D01*
X356214Y268248D01*
X356145Y268153D01*
X356079Y268057D01*
X356016Y267958D01*
X355956Y267857D01*
X355899Y267754D01*
X355846Y267650D01*
X355797Y267544D01*
X355750Y267436D01*
X355708Y267327D01*
X355668Y267217D01*
X355633Y267105D01*
X355601Y266992D01*
X355573Y266878D01*
X355548Y266764D01*
X355527Y266648D01*
X355510Y266532D01*
X355497Y266416D01*
X355488Y266299D01*
X355482Y266182D01*
X355480Y266065D01*
X357258Y269177D02*
X362148Y271844D01*
X348507Y278511D02*
X348507Y262509D01*
X348507Y278511D02*
X344062Y278511D01*
X343930Y278509D01*
X343799Y278503D01*
X343667Y278493D01*
X343536Y278480D01*
X343406Y278462D01*
X343276Y278441D01*
X343146Y278416D01*
X343018Y278387D01*
X342890Y278354D01*
X342764Y278317D01*
X342638Y278277D01*
X342514Y278233D01*
X342391Y278185D01*
X342270Y278134D01*
X342150Y278079D01*
X342032Y278021D01*
X341916Y277959D01*
X341802Y277893D01*
X341689Y277825D01*
X341579Y277753D01*
X341471Y277678D01*
X341365Y277599D01*
X341261Y277518D01*
X341160Y277433D01*
X341062Y277346D01*
X340966Y277255D01*
X340873Y277162D01*
X340782Y277066D01*
X340695Y276968D01*
X340610Y276867D01*
X340529Y276763D01*
X340450Y276657D01*
X340375Y276549D01*
X340303Y276439D01*
X340235Y276326D01*
X340169Y276212D01*
X340107Y276096D01*
X340049Y275978D01*
X339994Y275858D01*
X339943Y275737D01*
X339895Y275614D01*
X339851Y275490D01*
X339811Y275364D01*
X339774Y275238D01*
X339741Y275110D01*
X339712Y274982D01*
X339687Y274852D01*
X339666Y274722D01*
X339648Y274592D01*
X339635Y274461D01*
X339625Y274329D01*
X339619Y274198D01*
X339617Y274066D01*
X339619Y273934D01*
X339625Y273803D01*
X339635Y273671D01*
X339648Y273540D01*
X339666Y273410D01*
X339687Y273280D01*
X339712Y273150D01*
X339741Y273022D01*
X339774Y272894D01*
X339811Y272768D01*
X339851Y272642D01*
X339895Y272518D01*
X339943Y272395D01*
X339994Y272274D01*
X340049Y272154D01*
X340107Y272036D01*
X340169Y271920D01*
X340235Y271806D01*
X340303Y271693D01*
X340375Y271583D01*
X340450Y271475D01*
X340529Y271369D01*
X340610Y271265D01*
X340695Y271164D01*
X340782Y271066D01*
X340873Y270970D01*
X340966Y270877D01*
X341062Y270786D01*
X341160Y270699D01*
X341261Y270614D01*
X341365Y270533D01*
X341471Y270454D01*
X341579Y270379D01*
X341689Y270307D01*
X341802Y270239D01*
X341916Y270173D01*
X342032Y270111D01*
X342150Y270053D01*
X342270Y269998D01*
X342391Y269947D01*
X342514Y269899D01*
X342638Y269855D01*
X342764Y269815D01*
X342890Y269778D01*
X343018Y269745D01*
X343146Y269716D01*
X343276Y269691D01*
X343406Y269670D01*
X343536Y269652D01*
X343667Y269639D01*
X343799Y269629D01*
X343930Y269623D01*
X344062Y269621D01*
X348507Y269621D01*
X328740Y278512D02*
X328614Y278510D01*
X328489Y278504D01*
X328363Y278494D01*
X328239Y278480D01*
X328114Y278463D01*
X327990Y278441D01*
X327867Y278416D01*
X327745Y278386D01*
X327624Y278353D01*
X327504Y278316D01*
X327385Y278275D01*
X327267Y278231D01*
X327151Y278183D01*
X327036Y278131D01*
X326924Y278076D01*
X326813Y278017D01*
X326703Y277955D01*
X326596Y277889D01*
X326491Y277820D01*
X326388Y277748D01*
X326288Y277672D01*
X326190Y277594D01*
X326094Y277512D01*
X326001Y277428D01*
X325911Y277340D01*
X325823Y277250D01*
X325739Y277157D01*
X325657Y277061D01*
X325579Y276963D01*
X325503Y276863D01*
X325431Y276760D01*
X325362Y276655D01*
X325296Y276548D01*
X325234Y276438D01*
X325175Y276327D01*
X325120Y276215D01*
X325068Y276100D01*
X325020Y275984D01*
X324976Y275866D01*
X324935Y275747D01*
X324898Y275627D01*
X324865Y275506D01*
X324835Y275384D01*
X324810Y275261D01*
X324788Y275137D01*
X324771Y275012D01*
X324757Y274888D01*
X324747Y274762D01*
X324741Y274637D01*
X324739Y274511D01*
X328740Y278511D02*
X328881Y278509D01*
X329021Y278503D01*
X329161Y278494D01*
X329301Y278480D01*
X329440Y278463D01*
X329579Y278442D01*
X329718Y278417D01*
X329855Y278389D01*
X329992Y278356D01*
X330128Y278320D01*
X330263Y278280D01*
X330396Y278237D01*
X330529Y278190D01*
X330660Y278139D01*
X330789Y278085D01*
X330917Y278027D01*
X331044Y277966D01*
X331169Y277901D01*
X331291Y277833D01*
X331412Y277762D01*
X331532Y277687D01*
X331648Y277609D01*
X331763Y277528D01*
X331876Y277444D01*
X331986Y277356D01*
X332094Y277266D01*
X332199Y277173D01*
X332301Y277077D01*
X332401Y276978D01*
X332499Y276877D01*
X332593Y276773D01*
X332685Y276666D01*
X332773Y276557D01*
X332859Y276446D01*
X332941Y276332D01*
X333021Y276216D01*
X333097Y276098D01*
X333170Y275978D01*
X333239Y275856D01*
X333306Y275732D01*
X333369Y275606D01*
X333428Y275479D01*
X333484Y275350D01*
X333536Y275220D01*
X333585Y275088D01*
X333630Y274955D01*
X326073Y271399D02*
X325981Y271490D01*
X325891Y271583D01*
X325805Y271678D01*
X325721Y271776D01*
X325641Y271877D01*
X325563Y271980D01*
X325489Y272085D01*
X325418Y272193D01*
X325350Y272302D01*
X325286Y272414D01*
X325224Y272527D01*
X325167Y272642D01*
X325112Y272759D01*
X325061Y272878D01*
X325014Y272998D01*
X324971Y273119D01*
X324931Y273241D01*
X324895Y273365D01*
X324862Y273490D01*
X324833Y273615D01*
X324808Y273742D01*
X324787Y273869D01*
X324770Y273997D01*
X324756Y274125D01*
X324747Y274253D01*
X324741Y274382D01*
X324739Y274511D01*
X326073Y271399D02*
X333629Y262509D01*
X324739Y262509D01*
D14*
X565150Y1507744D02*
X565150Y1521714D01*
X565150Y1582674D02*
X463550Y1582674D01*
X463550Y1564894D01*
X463550Y1507744D02*
X565150Y1507744D01*
X565150Y1573784D02*
X570230Y1575054D01*
X565150Y1573784D02*
X565150Y1582674D01*
X570230Y1575054D02*
X570230Y1563624D01*
X565150Y1564894D01*
X565150Y1573784D01*
X565150Y1564894D02*
X463550Y1564894D01*
X463550Y1521714D01*
X565150Y1521714D01*
X565150Y1564894D01*
X463550Y1521714D02*
X463550Y1507744D01*
X499364Y1529334D02*
X475234Y1553464D01*
X479044Y1557274D02*
X503174Y1533144D01*
X529336Y1557274D02*
X553466Y1533144D01*
X549656Y1529334D02*
X525526Y1553464D01*
D16*
X499364Y1533144D02*
X479044Y1553464D01*
X529336Y1553464D02*
X549656Y1533144D01*
D14*
X503174Y1533144D02*
X499364Y1529334D01*
X475234Y1553464D02*
X479044Y1557274D01*
X549656Y1529334D02*
X553466Y1533144D01*
X529336Y1557274D02*
X525526Y1553464D01*
X484124Y1573784D02*
X484126Y1573926D01*
X484132Y1574069D01*
X484142Y1574211D01*
X484156Y1574353D01*
X484174Y1574494D01*
X484196Y1574635D01*
X484222Y1574775D01*
X484251Y1574914D01*
X484285Y1575053D01*
X484323Y1575190D01*
X484364Y1575327D01*
X484409Y1575462D01*
X484458Y1575596D01*
X484511Y1575728D01*
X484567Y1575859D01*
X484627Y1575988D01*
X484691Y1576116D01*
X484758Y1576241D01*
X484829Y1576365D01*
X484903Y1576487D01*
X484980Y1576606D01*
X485061Y1576724D01*
X485145Y1576839D01*
X485232Y1576951D01*
X485323Y1577061D01*
X485416Y1577169D01*
X485513Y1577274D01*
X485612Y1577376D01*
X485714Y1577475D01*
X485819Y1577572D01*
X485927Y1577665D01*
X486037Y1577756D01*
X486149Y1577843D01*
X486264Y1577927D01*
X486382Y1578008D01*
X486501Y1578085D01*
X486623Y1578159D01*
X486747Y1578230D01*
X486872Y1578297D01*
X487000Y1578361D01*
X487129Y1578421D01*
X487260Y1578477D01*
X487392Y1578530D01*
X487526Y1578579D01*
X487661Y1578624D01*
X487798Y1578665D01*
X487935Y1578703D01*
X488074Y1578737D01*
X488213Y1578766D01*
X488353Y1578792D01*
X488494Y1578814D01*
X488635Y1578832D01*
X488777Y1578846D01*
X488919Y1578856D01*
X489062Y1578862D01*
X489204Y1578864D01*
X489346Y1578862D01*
X489489Y1578856D01*
X489631Y1578846D01*
X489773Y1578832D01*
X489914Y1578814D01*
X490055Y1578792D01*
X490195Y1578766D01*
X490334Y1578737D01*
X490473Y1578703D01*
X490610Y1578665D01*
X490747Y1578624D01*
X490882Y1578579D01*
X491016Y1578530D01*
X491148Y1578477D01*
X491279Y1578421D01*
X491408Y1578361D01*
X491536Y1578297D01*
X491661Y1578230D01*
X491785Y1578159D01*
X491907Y1578085D01*
X492026Y1578008D01*
X492144Y1577927D01*
X492259Y1577843D01*
X492371Y1577756D01*
X492481Y1577665D01*
X492589Y1577572D01*
X492694Y1577475D01*
X492796Y1577376D01*
X492895Y1577274D01*
X492992Y1577169D01*
X493085Y1577061D01*
X493176Y1576951D01*
X493263Y1576839D01*
X493347Y1576724D01*
X493428Y1576606D01*
X493505Y1576487D01*
X493579Y1576365D01*
X493650Y1576241D01*
X493717Y1576116D01*
X493781Y1575988D01*
X493841Y1575859D01*
X493897Y1575728D01*
X493950Y1575596D01*
X493999Y1575462D01*
X494044Y1575327D01*
X494085Y1575190D01*
X494123Y1575053D01*
X494157Y1574914D01*
X494186Y1574775D01*
X494212Y1574635D01*
X494234Y1574494D01*
X494252Y1574353D01*
X494266Y1574211D01*
X494276Y1574069D01*
X494282Y1573926D01*
X494284Y1573784D01*
X494282Y1573642D01*
X494276Y1573499D01*
X494266Y1573357D01*
X494252Y1573215D01*
X494234Y1573074D01*
X494212Y1572933D01*
X494186Y1572793D01*
X494157Y1572654D01*
X494123Y1572515D01*
X494085Y1572378D01*
X494044Y1572241D01*
X493999Y1572106D01*
X493950Y1571972D01*
X493897Y1571840D01*
X493841Y1571709D01*
X493781Y1571580D01*
X493717Y1571452D01*
X493650Y1571327D01*
X493579Y1571203D01*
X493505Y1571081D01*
X493428Y1570962D01*
X493347Y1570844D01*
X493263Y1570729D01*
X493176Y1570617D01*
X493085Y1570507D01*
X492992Y1570399D01*
X492895Y1570294D01*
X492796Y1570192D01*
X492694Y1570093D01*
X492589Y1569996D01*
X492481Y1569903D01*
X492371Y1569812D01*
X492259Y1569725D01*
X492144Y1569641D01*
X492026Y1569560D01*
X491907Y1569483D01*
X491785Y1569409D01*
X491661Y1569338D01*
X491536Y1569271D01*
X491408Y1569207D01*
X491279Y1569147D01*
X491148Y1569091D01*
X491016Y1569038D01*
X490882Y1568989D01*
X490747Y1568944D01*
X490610Y1568903D01*
X490473Y1568865D01*
X490334Y1568831D01*
X490195Y1568802D01*
X490055Y1568776D01*
X489914Y1568754D01*
X489773Y1568736D01*
X489631Y1568722D01*
X489489Y1568712D01*
X489346Y1568706D01*
X489204Y1568704D01*
X489062Y1568706D01*
X488919Y1568712D01*
X488777Y1568722D01*
X488635Y1568736D01*
X488494Y1568754D01*
X488353Y1568776D01*
X488213Y1568802D01*
X488074Y1568831D01*
X487935Y1568865D01*
X487798Y1568903D01*
X487661Y1568944D01*
X487526Y1568989D01*
X487392Y1569038D01*
X487260Y1569091D01*
X487129Y1569147D01*
X487000Y1569207D01*
X486872Y1569271D01*
X486747Y1569338D01*
X486623Y1569409D01*
X486501Y1569483D01*
X486382Y1569560D01*
X486264Y1569641D01*
X486149Y1569725D01*
X486037Y1569812D01*
X485927Y1569903D01*
X485819Y1569996D01*
X485714Y1570093D01*
X485612Y1570192D01*
X485513Y1570294D01*
X485416Y1570399D01*
X485323Y1570507D01*
X485232Y1570617D01*
X485145Y1570729D01*
X485061Y1570844D01*
X484980Y1570962D01*
X484903Y1571081D01*
X484829Y1571203D01*
X484758Y1571327D01*
X484691Y1571452D01*
X484627Y1571580D01*
X484567Y1571709D01*
X484511Y1571840D01*
X484458Y1571972D01*
X484409Y1572106D01*
X484364Y1572241D01*
X484323Y1572378D01*
X484285Y1572515D01*
X484251Y1572654D01*
X484222Y1572793D01*
X484196Y1572933D01*
X484174Y1573074D01*
X484156Y1573215D01*
X484142Y1573357D01*
X484132Y1573499D01*
X484126Y1573642D01*
X484124Y1573784D01*
X534416Y1573784D02*
X534418Y1573926D01*
X534424Y1574069D01*
X534434Y1574211D01*
X534448Y1574353D01*
X534466Y1574494D01*
X534488Y1574635D01*
X534514Y1574775D01*
X534543Y1574914D01*
X534577Y1575053D01*
X534615Y1575190D01*
X534656Y1575327D01*
X534701Y1575462D01*
X534750Y1575596D01*
X534803Y1575728D01*
X534859Y1575859D01*
X534919Y1575988D01*
X534983Y1576116D01*
X535050Y1576241D01*
X535121Y1576365D01*
X535195Y1576487D01*
X535272Y1576606D01*
X535353Y1576724D01*
X535437Y1576839D01*
X535524Y1576951D01*
X535615Y1577061D01*
X535708Y1577169D01*
X535805Y1577274D01*
X535904Y1577376D01*
X536006Y1577475D01*
X536111Y1577572D01*
X536219Y1577665D01*
X536329Y1577756D01*
X536441Y1577843D01*
X536556Y1577927D01*
X536674Y1578008D01*
X536793Y1578085D01*
X536915Y1578159D01*
X537039Y1578230D01*
X537164Y1578297D01*
X537292Y1578361D01*
X537421Y1578421D01*
X537552Y1578477D01*
X537684Y1578530D01*
X537818Y1578579D01*
X537953Y1578624D01*
X538090Y1578665D01*
X538227Y1578703D01*
X538366Y1578737D01*
X538505Y1578766D01*
X538645Y1578792D01*
X538786Y1578814D01*
X538927Y1578832D01*
X539069Y1578846D01*
X539211Y1578856D01*
X539354Y1578862D01*
X539496Y1578864D01*
X539638Y1578862D01*
X539781Y1578856D01*
X539923Y1578846D01*
X540065Y1578832D01*
X540206Y1578814D01*
X540347Y1578792D01*
X540487Y1578766D01*
X540626Y1578737D01*
X540765Y1578703D01*
X540902Y1578665D01*
X541039Y1578624D01*
X541174Y1578579D01*
X541308Y1578530D01*
X541440Y1578477D01*
X541571Y1578421D01*
X541700Y1578361D01*
X541828Y1578297D01*
X541953Y1578230D01*
X542077Y1578159D01*
X542199Y1578085D01*
X542318Y1578008D01*
X542436Y1577927D01*
X542551Y1577843D01*
X542663Y1577756D01*
X542773Y1577665D01*
X542881Y1577572D01*
X542986Y1577475D01*
X543088Y1577376D01*
X543187Y1577274D01*
X543284Y1577169D01*
X543377Y1577061D01*
X543468Y1576951D01*
X543555Y1576839D01*
X543639Y1576724D01*
X543720Y1576606D01*
X543797Y1576487D01*
X543871Y1576365D01*
X543942Y1576241D01*
X544009Y1576116D01*
X544073Y1575988D01*
X544133Y1575859D01*
X544189Y1575728D01*
X544242Y1575596D01*
X544291Y1575462D01*
X544336Y1575327D01*
X544377Y1575190D01*
X544415Y1575053D01*
X544449Y1574914D01*
X544478Y1574775D01*
X544504Y1574635D01*
X544526Y1574494D01*
X544544Y1574353D01*
X544558Y1574211D01*
X544568Y1574069D01*
X544574Y1573926D01*
X544576Y1573784D01*
X544574Y1573642D01*
X544568Y1573499D01*
X544558Y1573357D01*
X544544Y1573215D01*
X544526Y1573074D01*
X544504Y1572933D01*
X544478Y1572793D01*
X544449Y1572654D01*
X544415Y1572515D01*
X544377Y1572378D01*
X544336Y1572241D01*
X544291Y1572106D01*
X544242Y1571972D01*
X544189Y1571840D01*
X544133Y1571709D01*
X544073Y1571580D01*
X544009Y1571452D01*
X543942Y1571327D01*
X543871Y1571203D01*
X543797Y1571081D01*
X543720Y1570962D01*
X543639Y1570844D01*
X543555Y1570729D01*
X543468Y1570617D01*
X543377Y1570507D01*
X543284Y1570399D01*
X543187Y1570294D01*
X543088Y1570192D01*
X542986Y1570093D01*
X542881Y1569996D01*
X542773Y1569903D01*
X542663Y1569812D01*
X542551Y1569725D01*
X542436Y1569641D01*
X542318Y1569560D01*
X542199Y1569483D01*
X542077Y1569409D01*
X541953Y1569338D01*
X541828Y1569271D01*
X541700Y1569207D01*
X541571Y1569147D01*
X541440Y1569091D01*
X541308Y1569038D01*
X541174Y1568989D01*
X541039Y1568944D01*
X540902Y1568903D01*
X540765Y1568865D01*
X540626Y1568831D01*
X540487Y1568802D01*
X540347Y1568776D01*
X540206Y1568754D01*
X540065Y1568736D01*
X539923Y1568722D01*
X539781Y1568712D01*
X539638Y1568706D01*
X539496Y1568704D01*
X539354Y1568706D01*
X539211Y1568712D01*
X539069Y1568722D01*
X538927Y1568736D01*
X538786Y1568754D01*
X538645Y1568776D01*
X538505Y1568802D01*
X538366Y1568831D01*
X538227Y1568865D01*
X538090Y1568903D01*
X537953Y1568944D01*
X537818Y1568989D01*
X537684Y1569038D01*
X537552Y1569091D01*
X537421Y1569147D01*
X537292Y1569207D01*
X537164Y1569271D01*
X537039Y1569338D01*
X536915Y1569409D01*
X536793Y1569483D01*
X536674Y1569560D01*
X536556Y1569641D01*
X536441Y1569725D01*
X536329Y1569812D01*
X536219Y1569903D01*
X536111Y1569996D01*
X536006Y1570093D01*
X535904Y1570192D01*
X535805Y1570294D01*
X535708Y1570399D01*
X535615Y1570507D01*
X535524Y1570617D01*
X535437Y1570729D01*
X535353Y1570844D01*
X535272Y1570962D01*
X535195Y1571081D01*
X535121Y1571203D01*
X535050Y1571327D01*
X534983Y1571452D01*
X534919Y1571580D01*
X534859Y1571709D01*
X534803Y1571840D01*
X534750Y1571972D01*
X534701Y1572106D01*
X534656Y1572241D01*
X534615Y1572378D01*
X534577Y1572515D01*
X534543Y1572654D01*
X534514Y1572793D01*
X534488Y1572933D01*
X534466Y1573074D01*
X534448Y1573215D01*
X534434Y1573357D01*
X534424Y1573499D01*
X534418Y1573642D01*
X534416Y1573784D01*
X471424Y1543304D02*
X471429Y1543740D01*
X471445Y1544176D01*
X471472Y1544612D01*
X471510Y1545047D01*
X471558Y1545480D01*
X471616Y1545913D01*
X471686Y1546344D01*
X471766Y1546773D01*
X471856Y1547200D01*
X471957Y1547624D01*
X472068Y1548046D01*
X472190Y1548465D01*
X472321Y1548881D01*
X472463Y1549294D01*
X472615Y1549703D01*
X472777Y1550108D01*
X472949Y1550509D01*
X473131Y1550906D01*
X473322Y1551298D01*
X473523Y1551685D01*
X473734Y1552068D01*
X473954Y1552445D01*
X474183Y1552816D01*
X474420Y1553182D01*
X474667Y1553542D01*
X474923Y1553896D01*
X475187Y1554243D01*
X475460Y1554584D01*
X475741Y1554917D01*
X476030Y1555244D01*
X476327Y1555564D01*
X476632Y1555876D01*
X476944Y1556181D01*
X477264Y1556478D01*
X477591Y1556767D01*
X477924Y1557048D01*
X478265Y1557321D01*
X478612Y1557585D01*
X478966Y1557841D01*
X479326Y1558088D01*
X479692Y1558325D01*
X480063Y1558554D01*
X480440Y1558774D01*
X480823Y1558985D01*
X481210Y1559186D01*
X481602Y1559377D01*
X481999Y1559559D01*
X482400Y1559731D01*
X482805Y1559893D01*
X483214Y1560045D01*
X483627Y1560187D01*
X484043Y1560318D01*
X484462Y1560440D01*
X484884Y1560551D01*
X485308Y1560652D01*
X485735Y1560742D01*
X486164Y1560822D01*
X486595Y1560892D01*
X487028Y1560950D01*
X487461Y1560998D01*
X487896Y1561036D01*
X488332Y1561063D01*
X488768Y1561079D01*
X489204Y1561084D01*
X489640Y1561079D01*
X490076Y1561063D01*
X490512Y1561036D01*
X490947Y1560998D01*
X491380Y1560950D01*
X491813Y1560892D01*
X492244Y1560822D01*
X492673Y1560742D01*
X493100Y1560652D01*
X493524Y1560551D01*
X493946Y1560440D01*
X494365Y1560318D01*
X494781Y1560187D01*
X495194Y1560045D01*
X495603Y1559893D01*
X496008Y1559731D01*
X496409Y1559559D01*
X496806Y1559377D01*
X497198Y1559186D01*
X497585Y1558985D01*
X497968Y1558774D01*
X498345Y1558554D01*
X498716Y1558325D01*
X499082Y1558088D01*
X499442Y1557841D01*
X499796Y1557585D01*
X500143Y1557321D01*
X500484Y1557048D01*
X500817Y1556767D01*
X501144Y1556478D01*
X501464Y1556181D01*
X501776Y1555876D01*
X502081Y1555564D01*
X502378Y1555244D01*
X502667Y1554917D01*
X502948Y1554584D01*
X503221Y1554243D01*
X503485Y1553896D01*
X503741Y1553542D01*
X503988Y1553182D01*
X504225Y1552816D01*
X504454Y1552445D01*
X504674Y1552068D01*
X504885Y1551685D01*
X505086Y1551298D01*
X505277Y1550906D01*
X505459Y1550509D01*
X505631Y1550108D01*
X505793Y1549703D01*
X505945Y1549294D01*
X506087Y1548881D01*
X506218Y1548465D01*
X506340Y1548046D01*
X506451Y1547624D01*
X506552Y1547200D01*
X506642Y1546773D01*
X506722Y1546344D01*
X506792Y1545913D01*
X506850Y1545480D01*
X506898Y1545047D01*
X506936Y1544612D01*
X506963Y1544176D01*
X506979Y1543740D01*
X506984Y1543304D01*
X506979Y1542868D01*
X506963Y1542432D01*
X506936Y1541996D01*
X506898Y1541561D01*
X506850Y1541128D01*
X506792Y1540695D01*
X506722Y1540264D01*
X506642Y1539835D01*
X506552Y1539408D01*
X506451Y1538984D01*
X506340Y1538562D01*
X506218Y1538143D01*
X506087Y1537727D01*
X505945Y1537314D01*
X505793Y1536905D01*
X505631Y1536500D01*
X505459Y1536099D01*
X505277Y1535702D01*
X505086Y1535310D01*
X504885Y1534923D01*
X504674Y1534540D01*
X504454Y1534163D01*
X504225Y1533792D01*
X503988Y1533426D01*
X503741Y1533066D01*
X503485Y1532712D01*
X503221Y1532365D01*
X502948Y1532024D01*
X502667Y1531691D01*
X502378Y1531364D01*
X502081Y1531044D01*
X501776Y1530732D01*
X501464Y1530427D01*
X501144Y1530130D01*
X500817Y1529841D01*
X500484Y1529560D01*
X500143Y1529287D01*
X499796Y1529023D01*
X499442Y1528767D01*
X499082Y1528520D01*
X498716Y1528283D01*
X498345Y1528054D01*
X497968Y1527834D01*
X497585Y1527623D01*
X497198Y1527422D01*
X496806Y1527231D01*
X496409Y1527049D01*
X496008Y1526877D01*
X495603Y1526715D01*
X495194Y1526563D01*
X494781Y1526421D01*
X494365Y1526290D01*
X493946Y1526168D01*
X493524Y1526057D01*
X493100Y1525956D01*
X492673Y1525866D01*
X492244Y1525786D01*
X491813Y1525716D01*
X491380Y1525658D01*
X490947Y1525610D01*
X490512Y1525572D01*
X490076Y1525545D01*
X489640Y1525529D01*
X489204Y1525524D01*
X488768Y1525529D01*
X488332Y1525545D01*
X487896Y1525572D01*
X487461Y1525610D01*
X487028Y1525658D01*
X486595Y1525716D01*
X486164Y1525786D01*
X485735Y1525866D01*
X485308Y1525956D01*
X484884Y1526057D01*
X484462Y1526168D01*
X484043Y1526290D01*
X483627Y1526421D01*
X483214Y1526563D01*
X482805Y1526715D01*
X482400Y1526877D01*
X481999Y1527049D01*
X481602Y1527231D01*
X481210Y1527422D01*
X480823Y1527623D01*
X480440Y1527834D01*
X480063Y1528054D01*
X479692Y1528283D01*
X479326Y1528520D01*
X478966Y1528767D01*
X478612Y1529023D01*
X478265Y1529287D01*
X477924Y1529560D01*
X477591Y1529841D01*
X477264Y1530130D01*
X476944Y1530427D01*
X476632Y1530732D01*
X476327Y1531044D01*
X476030Y1531364D01*
X475741Y1531691D01*
X475460Y1532024D01*
X475187Y1532365D01*
X474923Y1532712D01*
X474667Y1533066D01*
X474420Y1533426D01*
X474183Y1533792D01*
X473954Y1534163D01*
X473734Y1534540D01*
X473523Y1534923D01*
X473322Y1535310D01*
X473131Y1535702D01*
X472949Y1536099D01*
X472777Y1536500D01*
X472615Y1536905D01*
X472463Y1537314D01*
X472321Y1537727D01*
X472190Y1538143D01*
X472068Y1538562D01*
X471957Y1538984D01*
X471856Y1539408D01*
X471766Y1539835D01*
X471686Y1540264D01*
X471616Y1540695D01*
X471558Y1541128D01*
X471510Y1541561D01*
X471472Y1541996D01*
X471445Y1542432D01*
X471429Y1542868D01*
X471424Y1543304D01*
X521716Y1543304D02*
X521721Y1543740D01*
X521737Y1544176D01*
X521764Y1544612D01*
X521802Y1545047D01*
X521850Y1545480D01*
X521908Y1545913D01*
X521978Y1546344D01*
X522058Y1546773D01*
X522148Y1547200D01*
X522249Y1547624D01*
X522360Y1548046D01*
X522482Y1548465D01*
X522613Y1548881D01*
X522755Y1549294D01*
X522907Y1549703D01*
X523069Y1550108D01*
X523241Y1550509D01*
X523423Y1550906D01*
X523614Y1551298D01*
X523815Y1551685D01*
X524026Y1552068D01*
X524246Y1552445D01*
X524475Y1552816D01*
X524712Y1553182D01*
X524959Y1553542D01*
X525215Y1553896D01*
X525479Y1554243D01*
X525752Y1554584D01*
X526033Y1554917D01*
X526322Y1555244D01*
X526619Y1555564D01*
X526924Y1555876D01*
X527236Y1556181D01*
X527556Y1556478D01*
X527883Y1556767D01*
X528216Y1557048D01*
X528557Y1557321D01*
X528904Y1557585D01*
X529258Y1557841D01*
X529618Y1558088D01*
X529984Y1558325D01*
X530355Y1558554D01*
X530732Y1558774D01*
X531115Y1558985D01*
X531502Y1559186D01*
X531894Y1559377D01*
X532291Y1559559D01*
X532692Y1559731D01*
X533097Y1559893D01*
X533506Y1560045D01*
X533919Y1560187D01*
X534335Y1560318D01*
X534754Y1560440D01*
X535176Y1560551D01*
X535600Y1560652D01*
X536027Y1560742D01*
X536456Y1560822D01*
X536887Y1560892D01*
X537320Y1560950D01*
X537753Y1560998D01*
X538188Y1561036D01*
X538624Y1561063D01*
X539060Y1561079D01*
X539496Y1561084D01*
X539932Y1561079D01*
X540368Y1561063D01*
X540804Y1561036D01*
X541239Y1560998D01*
X541672Y1560950D01*
X542105Y1560892D01*
X542536Y1560822D01*
X542965Y1560742D01*
X543392Y1560652D01*
X543816Y1560551D01*
X544238Y1560440D01*
X544657Y1560318D01*
X545073Y1560187D01*
X545486Y1560045D01*
X545895Y1559893D01*
X546300Y1559731D01*
X546701Y1559559D01*
X547098Y1559377D01*
X547490Y1559186D01*
X547877Y1558985D01*
X548260Y1558774D01*
X548637Y1558554D01*
X549008Y1558325D01*
X549374Y1558088D01*
X549734Y1557841D01*
X550088Y1557585D01*
X550435Y1557321D01*
X550776Y1557048D01*
X551109Y1556767D01*
X551436Y1556478D01*
X551756Y1556181D01*
X552068Y1555876D01*
X552373Y1555564D01*
X552670Y1555244D01*
X552959Y1554917D01*
X553240Y1554584D01*
X553513Y1554243D01*
X553777Y1553896D01*
X554033Y1553542D01*
X554280Y1553182D01*
X554517Y1552816D01*
X554746Y1552445D01*
X554966Y1552068D01*
X555177Y1551685D01*
X555378Y1551298D01*
X555569Y1550906D01*
X555751Y1550509D01*
X555923Y1550108D01*
X556085Y1549703D01*
X556237Y1549294D01*
X556379Y1548881D01*
X556510Y1548465D01*
X556632Y1548046D01*
X556743Y1547624D01*
X556844Y1547200D01*
X556934Y1546773D01*
X557014Y1546344D01*
X557084Y1545913D01*
X557142Y1545480D01*
X557190Y1545047D01*
X557228Y1544612D01*
X557255Y1544176D01*
X557271Y1543740D01*
X557276Y1543304D01*
X557271Y1542868D01*
X557255Y1542432D01*
X557228Y1541996D01*
X557190Y1541561D01*
X557142Y1541128D01*
X557084Y1540695D01*
X557014Y1540264D01*
X556934Y1539835D01*
X556844Y1539408D01*
X556743Y1538984D01*
X556632Y1538562D01*
X556510Y1538143D01*
X556379Y1537727D01*
X556237Y1537314D01*
X556085Y1536905D01*
X555923Y1536500D01*
X555751Y1536099D01*
X555569Y1535702D01*
X555378Y1535310D01*
X555177Y1534923D01*
X554966Y1534540D01*
X554746Y1534163D01*
X554517Y1533792D01*
X554280Y1533426D01*
X554033Y1533066D01*
X553777Y1532712D01*
X553513Y1532365D01*
X553240Y1532024D01*
X552959Y1531691D01*
X552670Y1531364D01*
X552373Y1531044D01*
X552068Y1530732D01*
X551756Y1530427D01*
X551436Y1530130D01*
X551109Y1529841D01*
X550776Y1529560D01*
X550435Y1529287D01*
X550088Y1529023D01*
X549734Y1528767D01*
X549374Y1528520D01*
X549008Y1528283D01*
X548637Y1528054D01*
X548260Y1527834D01*
X547877Y1527623D01*
X547490Y1527422D01*
X547098Y1527231D01*
X546701Y1527049D01*
X546300Y1526877D01*
X545895Y1526715D01*
X545486Y1526563D01*
X545073Y1526421D01*
X544657Y1526290D01*
X544238Y1526168D01*
X543816Y1526057D01*
X543392Y1525956D01*
X542965Y1525866D01*
X542536Y1525786D01*
X542105Y1525716D01*
X541672Y1525658D01*
X541239Y1525610D01*
X540804Y1525572D01*
X540368Y1525545D01*
X539932Y1525529D01*
X539496Y1525524D01*
X539060Y1525529D01*
X538624Y1525545D01*
X538188Y1525572D01*
X537753Y1525610D01*
X537320Y1525658D01*
X536887Y1525716D01*
X536456Y1525786D01*
X536027Y1525866D01*
X535600Y1525956D01*
X535176Y1526057D01*
X534754Y1526168D01*
X534335Y1526290D01*
X533919Y1526421D01*
X533506Y1526563D01*
X533097Y1526715D01*
X532692Y1526877D01*
X532291Y1527049D01*
X531894Y1527231D01*
X531502Y1527422D01*
X531115Y1527623D01*
X530732Y1527834D01*
X530355Y1528054D01*
X529984Y1528283D01*
X529618Y1528520D01*
X529258Y1528767D01*
X528904Y1529023D01*
X528557Y1529287D01*
X528216Y1529560D01*
X527883Y1529841D01*
X527556Y1530130D01*
X527236Y1530427D01*
X526924Y1530732D01*
X526619Y1531044D01*
X526322Y1531364D01*
X526033Y1531691D01*
X525752Y1532024D01*
X525479Y1532365D01*
X525215Y1532712D01*
X524959Y1533066D01*
X524712Y1533426D01*
X524475Y1533792D01*
X524246Y1534163D01*
X524026Y1534540D01*
X523815Y1534923D01*
X523614Y1535310D01*
X523423Y1535702D01*
X523241Y1536099D01*
X523069Y1536500D01*
X522907Y1536905D01*
X522755Y1537314D01*
X522613Y1537727D01*
X522482Y1538143D01*
X522360Y1538562D01*
X522249Y1538984D01*
X522148Y1539408D01*
X522058Y1539835D01*
X521978Y1540264D01*
X521908Y1540695D01*
X521850Y1541128D01*
X521802Y1541561D01*
X521764Y1541996D01*
X521737Y1542432D01*
X521721Y1542868D01*
X521716Y1543304D01*
D12*
X555766Y1577975D02*
X558165Y1576056D01*
X555766Y1577975D02*
X555766Y1569339D01*
X558165Y1569339D02*
X553367Y1569339D01*
X504726Y1577975D02*
X504634Y1577973D01*
X504543Y1577967D01*
X504452Y1577958D01*
X504361Y1577944D01*
X504271Y1577927D01*
X504182Y1577905D01*
X504094Y1577880D01*
X504007Y1577852D01*
X503921Y1577819D01*
X503837Y1577783D01*
X503754Y1577744D01*
X503673Y1577701D01*
X503594Y1577654D01*
X503517Y1577605D01*
X503442Y1577552D01*
X503370Y1577496D01*
X503300Y1577437D01*
X503232Y1577375D01*
X503167Y1577310D01*
X503105Y1577242D01*
X503046Y1577172D01*
X502990Y1577100D01*
X502937Y1577025D01*
X502888Y1576948D01*
X502841Y1576869D01*
X502798Y1576788D01*
X502759Y1576705D01*
X502723Y1576621D01*
X502690Y1576535D01*
X502662Y1576448D01*
X502637Y1576360D01*
X502615Y1576271D01*
X502598Y1576181D01*
X502584Y1576090D01*
X502575Y1575999D01*
X502569Y1575908D01*
X502567Y1575816D01*
X504726Y1577975D02*
X504829Y1577973D01*
X504931Y1577967D01*
X505033Y1577958D01*
X505135Y1577945D01*
X505236Y1577928D01*
X505337Y1577907D01*
X505436Y1577883D01*
X505535Y1577854D01*
X505632Y1577823D01*
X505729Y1577787D01*
X505824Y1577749D01*
X505917Y1577706D01*
X506009Y1577660D01*
X506099Y1577611D01*
X506187Y1577559D01*
X506274Y1577503D01*
X506358Y1577444D01*
X506439Y1577383D01*
X506519Y1577318D01*
X506596Y1577250D01*
X506671Y1577179D01*
X506742Y1577106D01*
X506811Y1577030D01*
X506878Y1576952D01*
X506941Y1576871D01*
X507001Y1576788D01*
X507058Y1576703D01*
X507112Y1576616D01*
X507163Y1576526D01*
X507210Y1576435D01*
X507254Y1576343D01*
X507295Y1576248D01*
X507332Y1576153D01*
X507365Y1576056D01*
X503287Y1574137D02*
X503220Y1574203D01*
X503156Y1574272D01*
X503095Y1574343D01*
X503037Y1574417D01*
X502982Y1574493D01*
X502930Y1574571D01*
X502881Y1574651D01*
X502835Y1574733D01*
X502793Y1574817D01*
X502754Y1574903D01*
X502719Y1574990D01*
X502688Y1575078D01*
X502660Y1575168D01*
X502635Y1575258D01*
X502614Y1575350D01*
X502597Y1575442D01*
X502584Y1575535D01*
X502575Y1575628D01*
X502569Y1575722D01*
X502567Y1575816D01*
X503287Y1574137D02*
X507365Y1569339D01*
X502567Y1569339D01*
D17*
X514350Y1543304D03*
D18*
X564261Y1588643D02*
X564261Y1604645D01*
X558927Y1595755D01*
X553593Y1604645D01*
X553593Y1588643D01*
X546025Y1594866D02*
X535357Y1594866D01*
X523649Y1588643D02*
X523533Y1588645D01*
X523416Y1588651D01*
X523300Y1588660D01*
X523185Y1588673D01*
X523070Y1588690D01*
X522955Y1588711D01*
X522842Y1588736D01*
X522729Y1588764D01*
X522617Y1588796D01*
X522506Y1588832D01*
X522396Y1588871D01*
X522288Y1588914D01*
X522181Y1588960D01*
X522076Y1589010D01*
X521973Y1589063D01*
X521871Y1589119D01*
X521771Y1589179D01*
X521673Y1589242D01*
X521578Y1589309D01*
X521484Y1589378D01*
X521393Y1589450D01*
X521304Y1589525D01*
X521218Y1589604D01*
X521135Y1589685D01*
X521054Y1589768D01*
X520975Y1589854D01*
X520900Y1589943D01*
X520828Y1590034D01*
X520759Y1590128D01*
X520692Y1590223D01*
X520629Y1590321D01*
X520569Y1590421D01*
X520513Y1590523D01*
X520460Y1590626D01*
X520410Y1590731D01*
X520364Y1590838D01*
X520321Y1590946D01*
X520282Y1591056D01*
X520246Y1591167D01*
X520214Y1591279D01*
X520186Y1591392D01*
X520161Y1591505D01*
X520140Y1591620D01*
X520123Y1591735D01*
X520110Y1591850D01*
X520101Y1591966D01*
X520095Y1592083D01*
X520093Y1592199D01*
X523649Y1588643D02*
X523829Y1588645D01*
X524008Y1588652D01*
X524188Y1588662D01*
X524367Y1588677D01*
X524546Y1588697D01*
X524724Y1588720D01*
X524901Y1588748D01*
X525078Y1588780D01*
X525254Y1588816D01*
X525429Y1588857D01*
X525603Y1588902D01*
X525776Y1588951D01*
X525948Y1589003D01*
X526119Y1589061D01*
X526288Y1589122D01*
X526455Y1589187D01*
X526621Y1589256D01*
X526785Y1589329D01*
X526948Y1589406D01*
X527108Y1589487D01*
X527267Y1589571D01*
X527423Y1589660D01*
X527577Y1589752D01*
X527729Y1589848D01*
X527879Y1589947D01*
X528027Y1590050D01*
X528171Y1590157D01*
X528314Y1590267D01*
X528453Y1590380D01*
X528590Y1590497D01*
X528724Y1590616D01*
X528855Y1590739D01*
X528983Y1590865D01*
X528539Y1601089D02*
X528537Y1601205D01*
X528531Y1601322D01*
X528522Y1601438D01*
X528509Y1601553D01*
X528492Y1601668D01*
X528471Y1601783D01*
X528446Y1601896D01*
X528418Y1602009D01*
X528386Y1602121D01*
X528350Y1602232D01*
X528311Y1602342D01*
X528268Y1602450D01*
X528222Y1602557D01*
X528172Y1602662D01*
X528119Y1602765D01*
X528063Y1602867D01*
X528003Y1602967D01*
X527940Y1603065D01*
X527873Y1603160D01*
X527804Y1603254D01*
X527732Y1603345D01*
X527657Y1603434D01*
X527578Y1603520D01*
X527497Y1603603D01*
X527414Y1603684D01*
X527328Y1603763D01*
X527239Y1603838D01*
X527148Y1603910D01*
X527054Y1603979D01*
X526959Y1604046D01*
X526861Y1604109D01*
X526761Y1604169D01*
X526659Y1604225D01*
X526556Y1604278D01*
X526451Y1604328D01*
X526344Y1604374D01*
X526236Y1604417D01*
X526126Y1604456D01*
X526015Y1604492D01*
X525903Y1604524D01*
X525790Y1604552D01*
X525677Y1604577D01*
X525562Y1604598D01*
X525447Y1604615D01*
X525332Y1604628D01*
X525216Y1604637D01*
X525099Y1604643D01*
X524983Y1604645D01*
X524983Y1604646D02*
X524824Y1604644D01*
X524665Y1604638D01*
X524507Y1604629D01*
X524348Y1604616D01*
X524190Y1604599D01*
X524033Y1604578D01*
X523876Y1604553D01*
X523719Y1604525D01*
X523564Y1604493D01*
X523409Y1604458D01*
X523255Y1604418D01*
X523102Y1604375D01*
X522950Y1604328D01*
X522799Y1604278D01*
X522650Y1604224D01*
X522501Y1604167D01*
X522355Y1604106D01*
X522209Y1604042D01*
X522066Y1603974D01*
X521924Y1603903D01*
X521783Y1603828D01*
X521645Y1603750D01*
X521508Y1603669D01*
X521374Y1603585D01*
X521241Y1603497D01*
X521110Y1603406D01*
X520982Y1603312D01*
X526761Y1597977D02*
X526861Y1598038D01*
X526959Y1598103D01*
X527055Y1598170D01*
X527148Y1598241D01*
X527239Y1598314D01*
X527328Y1598391D01*
X527414Y1598470D01*
X527498Y1598552D01*
X527579Y1598637D01*
X527657Y1598724D01*
X527732Y1598814D01*
X527805Y1598906D01*
X527874Y1599001D01*
X527940Y1599097D01*
X528003Y1599196D01*
X528063Y1599297D01*
X528120Y1599400D01*
X528173Y1599504D01*
X528222Y1599610D01*
X528269Y1599718D01*
X528311Y1599827D01*
X528351Y1599937D01*
X528386Y1600049D01*
X528418Y1600162D01*
X528446Y1600276D01*
X528471Y1600390D01*
X528492Y1600506D01*
X528509Y1600622D01*
X528522Y1600738D01*
X528531Y1600855D01*
X528537Y1600972D01*
X528539Y1601089D01*
X521871Y1595311D02*
X521771Y1595250D01*
X521673Y1595185D01*
X521577Y1595118D01*
X521484Y1595047D01*
X521393Y1594974D01*
X521304Y1594897D01*
X521218Y1594818D01*
X521134Y1594736D01*
X521053Y1594651D01*
X520975Y1594564D01*
X520900Y1594474D01*
X520827Y1594382D01*
X520758Y1594287D01*
X520692Y1594191D01*
X520629Y1594092D01*
X520569Y1593991D01*
X520512Y1593888D01*
X520459Y1593784D01*
X520410Y1593678D01*
X520363Y1593570D01*
X520321Y1593461D01*
X520281Y1593351D01*
X520246Y1593239D01*
X520214Y1593126D01*
X520186Y1593012D01*
X520161Y1592898D01*
X520140Y1592782D01*
X520123Y1592666D01*
X520110Y1592550D01*
X520101Y1592433D01*
X520095Y1592316D01*
X520093Y1592199D01*
X521871Y1595311D02*
X526761Y1597978D01*
X513120Y1604645D02*
X513120Y1588643D01*
X513120Y1604645D02*
X508675Y1604645D01*
X508543Y1604643D01*
X508412Y1604637D01*
X508280Y1604627D01*
X508149Y1604614D01*
X508019Y1604596D01*
X507889Y1604575D01*
X507759Y1604550D01*
X507631Y1604521D01*
X507503Y1604488D01*
X507377Y1604451D01*
X507251Y1604411D01*
X507127Y1604367D01*
X507004Y1604319D01*
X506883Y1604268D01*
X506763Y1604213D01*
X506645Y1604155D01*
X506529Y1604093D01*
X506415Y1604027D01*
X506302Y1603959D01*
X506192Y1603887D01*
X506084Y1603812D01*
X505978Y1603733D01*
X505874Y1603652D01*
X505773Y1603567D01*
X505675Y1603480D01*
X505579Y1603389D01*
X505486Y1603296D01*
X505395Y1603200D01*
X505308Y1603102D01*
X505223Y1603001D01*
X505142Y1602897D01*
X505063Y1602791D01*
X504988Y1602683D01*
X504916Y1602573D01*
X504848Y1602460D01*
X504782Y1602346D01*
X504720Y1602230D01*
X504662Y1602112D01*
X504607Y1601992D01*
X504556Y1601871D01*
X504508Y1601748D01*
X504464Y1601624D01*
X504424Y1601498D01*
X504387Y1601372D01*
X504354Y1601244D01*
X504325Y1601116D01*
X504300Y1600986D01*
X504279Y1600856D01*
X504261Y1600726D01*
X504248Y1600595D01*
X504238Y1600463D01*
X504232Y1600332D01*
X504230Y1600200D01*
X504232Y1600068D01*
X504238Y1599937D01*
X504248Y1599805D01*
X504261Y1599674D01*
X504279Y1599544D01*
X504300Y1599414D01*
X504325Y1599284D01*
X504354Y1599156D01*
X504387Y1599028D01*
X504424Y1598902D01*
X504464Y1598776D01*
X504508Y1598652D01*
X504556Y1598529D01*
X504607Y1598408D01*
X504662Y1598288D01*
X504720Y1598170D01*
X504782Y1598054D01*
X504848Y1597940D01*
X504916Y1597827D01*
X504988Y1597717D01*
X505063Y1597609D01*
X505142Y1597503D01*
X505223Y1597399D01*
X505308Y1597298D01*
X505395Y1597200D01*
X505486Y1597104D01*
X505579Y1597011D01*
X505675Y1596920D01*
X505773Y1596833D01*
X505874Y1596748D01*
X505978Y1596667D01*
X506084Y1596588D01*
X506192Y1596513D01*
X506302Y1596441D01*
X506415Y1596373D01*
X506529Y1596307D01*
X506645Y1596245D01*
X506763Y1596187D01*
X506883Y1596132D01*
X507004Y1596081D01*
X507127Y1596033D01*
X507251Y1595989D01*
X507377Y1595949D01*
X507503Y1595912D01*
X507631Y1595879D01*
X507759Y1595850D01*
X507889Y1595825D01*
X508019Y1595804D01*
X508149Y1595786D01*
X508280Y1595773D01*
X508412Y1595763D01*
X508543Y1595757D01*
X508675Y1595755D01*
X513120Y1595755D01*
X564261Y1503045D02*
X564261Y1487043D01*
X558927Y1494155D02*
X564261Y1503045D01*
X558927Y1494155D02*
X553593Y1503045D01*
X553593Y1487043D01*
X547067Y1487043D02*
X541733Y1503045D01*
X536399Y1487043D01*
X537732Y1491044D02*
X545733Y1491044D01*
X529228Y1487043D02*
X529228Y1503045D01*
X531006Y1487043D02*
X527450Y1487043D01*
X527450Y1503045D02*
X531006Y1503045D01*
X520647Y1503045D02*
X520647Y1487043D01*
X511757Y1487043D02*
X520647Y1503045D01*
X511757Y1503045D02*
X511757Y1487043D01*
M02*
