M48
;GenerationSoftware,Autodesk,EAGLE,9.1.1*%
;CreationDate,2018-08-10T14:31:15Z*%
FMAT,2
ICI,OFF
METRIC,TZ,000.000
T14C0.305
T13C0.350
T12C0.450
T11C0.500
T10C0.700
T9C0.813
T8C0.914
T7C1.016
T6C1.200
T5C1.321
T4C1.400
T3C1.651
T2C1.778
T1C4.300
%
G90
M71
T1
X78000Y8000
X38000Y8000
X52000Y8000
X92000Y8000
X92000Y186724
X78000Y186724
X38000Y186724
X52000Y186724
T2
X23470Y158115
T3
X32385Y105410
T4
X20755Y167595
X16555Y167595
X16555Y173095
X20755Y173095
T5
X53950Y154330
X38710Y32385
X33680Y32385
X48920Y154330
T6
X-4750Y27260
X128872Y161314
X121252Y161314
X123792Y161314
X126332Y161314
X134450Y24720
X134450Y154450
X134450Y151910
X134450Y149370
X134450Y29800
X134450Y27260
X63105Y154350
X104540Y7921
X99460Y7921
X65645Y154350
X68185Y154350
X89590Y30150
X87050Y30150
X84510Y30150
X-4750Y29800
X-5993Y149194
X-5993Y151734
X-5993Y154274
X25430Y187000
X27970Y187000
X102000Y7921
X30510Y187000
X-4750Y24720
T7
X78200Y28730
X75660Y28730
X73120Y28730
X70580Y28730
X50260Y28730
X52800Y28730
X55340Y28730
X62960Y28730
X65500Y28730
X68040Y28730
X57880Y28730
X60420Y28730
X47720Y28730
T8
X37610Y172040
X37610Y169500
X35070Y172040
X35070Y169500
X32530Y172040
X32530Y169500
X86100Y168380
X47770Y172040
X47770Y169500
X86100Y170920
X88640Y168380
X88640Y170920
X91180Y168380
X91180Y170920
X93720Y168380
X93720Y170920
X96260Y168380
X96260Y170920
X45230Y172040
X45230Y169500
X42690Y172040
X98800Y168380
X98800Y170920
X101340Y168380
X103880Y168380
X103880Y170920
X106420Y168380
X106420Y170920
X108960Y168380
X108960Y170920
X111500Y168380
X111500Y170920
X114040Y168380
X114040Y170920
X116580Y168380
X116580Y170920
X42690Y169500
X40150Y172040
X40150Y169500
X101340Y170920
T9
X131080Y85110
X131080Y87650
X-1030Y87550
X-1030Y85010
X-1030Y82470
X-1030Y79930
X1220Y37310
X1220Y39850
X1220Y42390
X220Y137340
X220Y139880
X220Y142420
X220Y144960
X1220Y34770
X61140Y184480
X128480Y42720
X63680Y184480
X66220Y184480
X68760Y184480
X128480Y145290
X128480Y142750
X128480Y140210
X128480Y137670
X128480Y40180
X128480Y37640
X128480Y35100
X69000Y10070
X66460Y10070
X61380Y10070
X63920Y10070
X131080Y80030
X131080Y82570
T10
X137720Y92410
X137720Y93910
X137720Y95410
X137720Y96910
X137720Y98410
X137720Y99910
X137720Y101410
X92443Y174855
X84943Y174855
X86443Y174855
X87943Y174855
X89443Y174855
X90943Y174855
X-7770Y95400
X93943Y174855
X-7770Y101400
X-7770Y99900
X-7770Y98400
X-7770Y96900
X-7770Y93900
X-7770Y92400
X115730Y186580
X117230Y186580
X118730Y186580
X120230Y186580
X121730Y186580
X123230Y186580
X124730Y186580
T11
X48527Y106388
T12
X64970Y54610
X44831Y125793
X34925Y93980
X31674Y147396
X44818Y147472
X44818Y135433
X64999Y43180
X31661Y160680
X34925Y108585
X44818Y160630
X44831Y119094
X31674Y112471
X31674Y122631
X31674Y135331
X46838Y33579
X46838Y47549
X46799Y72542
X34938Y84480
X48510Y94602
X48510Y84836
X52320Y81013
X59509Y73800
X64970Y67945
T13
X95771Y167174
X105245Y173634
X101600Y158115
X99060Y163830
X116840Y159385
X102629Y182143
X57785Y137160
X97790Y137795
X96520Y149260
X85090Y176530
X83185Y174625
X80855Y142030
X71330Y132505
X61805Y122980
X55772Y116948
X49422Y110598
X115570Y157480
X110934Y151550
X88900Y150022
X50165Y175260
X57150Y137805
X121285Y184150
X91440Y177165
X115414Y172085
X104925Y176111
X106045Y157865
X106045Y139950
X104140Y183515
X104140Y187960
X102603Y186842
X34500Y95675
X30762Y91938
X22435Y83610
X11005Y72180
X9525Y73660
X111760Y158115
X92964Y156312
X90373Y156324
X99263Y141872
X92710Y179705
X117475Y174625
X87630Y150495
X120015Y157480
X85090Y144145
X85090Y149260
X89535Y149260
T14
X65736Y134777
X66675Y134633
X45123Y104165
X43218Y115824
X45237Y117450
X47625Y106680
X44221Y116700
X46355Y105435
X42545Y101600
X41466Y113779
X43790Y102806
X42240Y114846
X35890Y108039
X35890Y95225
X38468Y97650
X69672Y178892
X129540Y152400
X132080Y149860
X3810Y149225
X16129Y158521
X92710Y160020
X125730Y170815
X9512Y40640
X81433Y147916
X71755Y138265
X82817Y149441
X30709Y95948
X69680Y134790
X15189Y81674
X9512Y59690
X7620Y59690
X7620Y40640
X123507Y77470
X126365Y77470
X123507Y43815
X129819Y108737
X126365Y43815
X131623Y106604
X34709Y99936
X49352Y114579
X37186Y96406
X37186Y109499
X40399Y112751
X41275Y100330
X57150Y12065
X39370Y111785
X39891Y99022
X38443Y110896
X78499Y151295
X71120Y136525
X74308Y155512
X74295Y164465
X79832Y152425
X76137Y156147
X76111Y162052
X76124Y167119
X76111Y172453
X72974Y175616
X54699Y119913
M30