G04 EAGLE Gerber X2 export*
%TF.Part,Single*%
%TF.FileFunction,Other,Solder Mask bottom*%
%TF.FilePolarity,Positive*%
%TF.GenerationSoftware,Autodesk,EAGLE,9.1.1*%
%TF.CreationDate,2018-08-10T14:22:37Z*%
G75*
%MOMM*%
%FSLAX34Y34*%
%LPD*%
%AMOC8*
5,1,8,0,0,1.08239X$1,22.5*%
G01*
%ADD10C,0.152400*%
%ADD11C,0.000000*%
%ADD12C,1.050000*%
%ADD13C,1.524000*%
%ADD14C,1.219200*%
%ADD15C,4.216000*%


D10*
X0Y100000D02*
X0Y980000D01*
X770000Y980000D01*
X770000Y100000D01*
X0Y100000D01*
D11*
X8908Y736480D02*
X376700Y736226D01*
X376700Y969654D01*
X8908Y969400D01*
X8908Y736480D01*
X388908Y736480D02*
X756700Y736226D01*
X756700Y969654D01*
X388908Y969400D01*
X388908Y736480D01*
X190700Y109500D02*
X12700Y109500D01*
X190700Y109500D02*
X190300Y284000D01*
X12700Y284000D01*
X12700Y109500D01*
X202700Y109500D02*
X380700Y109500D01*
X380300Y284000D01*
X202700Y284000D01*
X202700Y109500D01*
X392700Y109500D02*
X570700Y109500D01*
X570300Y284000D01*
X392700Y284000D01*
X392700Y109500D01*
X582700Y109500D02*
X760700Y109500D01*
X760300Y284000D01*
X582700Y284000D01*
X582700Y109500D01*
X190700Y289500D02*
X12700Y289500D01*
X190700Y289500D02*
X190300Y464000D01*
X12700Y464000D01*
X12700Y289500D01*
X202700Y289500D02*
X380700Y289500D01*
X380300Y464000D01*
X202700Y464000D01*
X202700Y289500D01*
X392700Y289500D02*
X570700Y289500D01*
X570300Y464000D01*
X392700Y464000D01*
X392700Y289500D01*
X582700Y289500D02*
X760700Y289500D01*
X760300Y464000D01*
X582700Y464000D01*
X582700Y289500D01*
X376700Y486226D02*
X8908Y486480D01*
X376700Y486226D02*
X376700Y719654D01*
X8908Y719400D01*
X8908Y486480D01*
X388908Y486480D02*
X756700Y486226D01*
X756700Y719654D01*
X388908Y719400D01*
X388908Y486480D01*
D12*
X150400Y769200D03*
X165400Y769200D03*
X180400Y769200D03*
X195400Y769200D03*
X210400Y769200D03*
X225400Y769200D03*
X240400Y769200D03*
D13*
X237000Y947300D03*
X211600Y947300D03*
X186200Y947300D03*
X160800Y947300D03*
X355110Y757054D03*
X355110Y782454D03*
X355110Y807854D03*
X355110Y833254D03*
X355110Y858654D03*
X355110Y884054D03*
X355110Y909454D03*
X355110Y934854D03*
X33800Y756800D03*
X33800Y782200D03*
X33800Y807600D03*
X33800Y833000D03*
X33800Y858400D03*
X33800Y883800D03*
X33800Y909200D03*
X33800Y934600D03*
D14*
X83584Y833000D02*
X95776Y833000D01*
X95776Y807600D02*
X83584Y807600D01*
X83584Y782200D02*
X95776Y782200D01*
D12*
X530400Y769200D03*
X545400Y769200D03*
X560400Y769200D03*
X575400Y769200D03*
X590400Y769200D03*
X605400Y769200D03*
X620400Y769200D03*
D13*
X617000Y947300D03*
X591600Y947300D03*
X566200Y947300D03*
X540800Y947300D03*
X735110Y757054D03*
X735110Y782454D03*
X735110Y807854D03*
X735110Y833254D03*
X735110Y858654D03*
X735110Y884054D03*
X735110Y909454D03*
X735110Y934854D03*
X413800Y756800D03*
X413800Y782200D03*
X413800Y807600D03*
X413800Y833000D03*
X413800Y858400D03*
X413800Y883800D03*
X413800Y909200D03*
X413800Y934600D03*
D14*
X463584Y833000D02*
X475776Y833000D01*
X475776Y807600D02*
X463584Y807600D01*
X463584Y782200D02*
X475776Y782200D01*
D12*
X171690Y135870D03*
X156690Y135870D03*
X141690Y135870D03*
X126690Y135870D03*
X111690Y135870D03*
X96690Y135870D03*
X81690Y135870D03*
X361690Y135870D03*
X346690Y135870D03*
X331690Y135870D03*
X316690Y135870D03*
X301690Y135870D03*
X286690Y135870D03*
X271690Y135870D03*
X551690Y135870D03*
X536690Y135870D03*
X521690Y135870D03*
X506690Y135870D03*
X491690Y135870D03*
X476690Y135870D03*
X461690Y135870D03*
X741690Y135870D03*
X726690Y135870D03*
X711690Y135870D03*
X696690Y135870D03*
X681690Y135870D03*
X666690Y135870D03*
X651690Y135870D03*
X171690Y315870D03*
X156690Y315870D03*
X141690Y315870D03*
X126690Y315870D03*
X111690Y315870D03*
X96690Y315870D03*
X81690Y315870D03*
X361690Y315870D03*
X346690Y315870D03*
X331690Y315870D03*
X316690Y315870D03*
X301690Y315870D03*
X286690Y315870D03*
X271690Y315870D03*
X551690Y315870D03*
X536690Y315870D03*
X521690Y315870D03*
X506690Y315870D03*
X491690Y315870D03*
X476690Y315870D03*
X461690Y315870D03*
X741690Y315870D03*
X726690Y315870D03*
X711690Y315870D03*
X696690Y315870D03*
X681690Y315870D03*
X666690Y315870D03*
X651690Y315870D03*
X150400Y519200D03*
X165400Y519200D03*
X180400Y519200D03*
X195400Y519200D03*
X210400Y519200D03*
X225400Y519200D03*
X240400Y519200D03*
D13*
X237000Y697300D03*
X211600Y697300D03*
X186200Y697300D03*
X160800Y697300D03*
X355110Y507054D03*
X355110Y532454D03*
X355110Y557854D03*
X355110Y583254D03*
X355110Y608654D03*
X355110Y634054D03*
X355110Y659454D03*
X355110Y684854D03*
X33800Y506800D03*
X33800Y532200D03*
X33800Y557600D03*
X33800Y583000D03*
X33800Y608400D03*
X33800Y633800D03*
X33800Y659200D03*
X33800Y684600D03*
D14*
X83584Y583000D02*
X95776Y583000D01*
X95776Y557600D02*
X83584Y557600D01*
X83584Y532200D02*
X95776Y532200D01*
D12*
X530400Y519200D03*
X545400Y519200D03*
X560400Y519200D03*
X575400Y519200D03*
X590400Y519200D03*
X605400Y519200D03*
X620400Y519200D03*
D13*
X617000Y697300D03*
X591600Y697300D03*
X566200Y697300D03*
X540800Y697300D03*
X735110Y507054D03*
X735110Y532454D03*
X735110Y557854D03*
X735110Y583254D03*
X735110Y608654D03*
X735110Y634054D03*
X735110Y659454D03*
X735110Y684854D03*
X413800Y506800D03*
X413800Y532200D03*
X413800Y557600D03*
X413800Y583000D03*
X413800Y608400D03*
X413800Y633800D03*
X413800Y659200D03*
X413800Y684600D03*
D14*
X463584Y583000D02*
X475776Y583000D01*
X475776Y557600D02*
X463584Y557600D01*
X463584Y532200D02*
X475776Y532200D01*
D15*
X35806Y133366D03*
X162806Y260366D03*
X225806Y133366D03*
X352806Y260366D03*
X415806Y133366D03*
X542806Y260366D03*
X605806Y133366D03*
X732806Y260366D03*
X35806Y313366D03*
X162806Y440366D03*
X225806Y313366D03*
X352806Y440366D03*
X415806Y313366D03*
X542806Y440366D03*
X605806Y313366D03*
X732806Y440366D03*
M02*
