G04 EAGLE Gerber X2 export*
%TF.Part,Single*%
%TF.FileFunction,Other,Top Layer*%
%TF.FilePolarity,Positive*%
%TF.GenerationSoftware,Autodesk,EAGLE,9.1.1*%
%TF.CreationDate,2018-08-10T14:22:37Z*%
G75*
%MOMM*%
%FSLAX34Y34*%
%LPD*%
%AMOC8*
5,1,8,0,0,1.08239X$1,22.5*%
G01*
%ADD10C,0.152400*%
%ADD11C,0.000000*%
%ADD12C,1.050000*%
%ADD13C,1.524000*%
%ADD14R,1.300000X1.500000*%
%ADD15R,1.200000X1.200000*%
%ADD16C,1.219200*%
%ADD17R,1.200000X0.650000*%
%ADD18R,1.270000X0.635000*%
%ADD19C,0.508000*%
%ADD20C,0.812800*%
%ADD21C,0.654800*%
%ADD22C,0.609600*%
%ADD23C,0.704800*%
%ADD24C,4.216000*%


D10*
X0Y100000D02*
X0Y980000D01*
X770000Y980000D01*
X770000Y100000D01*
X0Y100000D01*
D11*
X8908Y736480D02*
X376700Y736226D01*
X376700Y969654D01*
X8908Y969400D01*
X8908Y736480D01*
X388908Y736480D02*
X756700Y736226D01*
X756700Y969654D01*
X388908Y969400D01*
X388908Y736480D01*
X190700Y109500D02*
X12700Y109500D01*
X190700Y109500D02*
X190300Y284000D01*
X12700Y284000D01*
X12700Y109500D01*
X202700Y109500D02*
X380700Y109500D01*
X380300Y284000D01*
X202700Y284000D01*
X202700Y109500D01*
X392700Y109500D02*
X570700Y109500D01*
X570300Y284000D01*
X392700Y284000D01*
X392700Y109500D01*
X582700Y109500D02*
X760700Y109500D01*
X760300Y284000D01*
X582700Y284000D01*
X582700Y109500D01*
X190700Y289500D02*
X12700Y289500D01*
X190700Y289500D02*
X190300Y464000D01*
X12700Y464000D01*
X12700Y289500D01*
X202700Y289500D02*
X380700Y289500D01*
X380300Y464000D01*
X202700Y464000D01*
X202700Y289500D01*
X392700Y289500D02*
X570700Y289500D01*
X570300Y464000D01*
X392700Y464000D01*
X392700Y289500D01*
X582700Y289500D02*
X760700Y289500D01*
X760300Y464000D01*
X582700Y464000D01*
X582700Y289500D01*
X376700Y486226D02*
X8908Y486480D01*
X376700Y486226D02*
X376700Y719654D01*
X8908Y719400D01*
X8908Y486480D01*
X388908Y486480D02*
X756700Y486226D01*
X756700Y719654D01*
X388908Y719400D01*
X388908Y486480D01*
D12*
X150400Y769200D03*
X165400Y769200D03*
X180400Y769200D03*
X195400Y769200D03*
X210400Y769200D03*
X225400Y769200D03*
X240400Y769200D03*
D13*
X237000Y947300D03*
X211600Y947300D03*
X186200Y947300D03*
X160800Y947300D03*
X355110Y757054D03*
X355110Y782454D03*
X355110Y807854D03*
X355110Y833254D03*
X355110Y858654D03*
X355110Y884054D03*
X355110Y909454D03*
X355110Y934854D03*
X33800Y756800D03*
X33800Y782200D03*
X33800Y807600D03*
X33800Y833000D03*
X33800Y858400D03*
X33800Y883800D03*
X33800Y909200D03*
X33800Y934600D03*
D14*
X140616Y808616D03*
X157616Y808616D03*
D15*
X157584Y829444D03*
X136584Y829444D03*
D14*
X266600Y820300D03*
X283600Y820300D03*
D15*
X320058Y812086D03*
X320058Y833086D03*
D16*
X95776Y833000D02*
X83584Y833000D01*
X83584Y807600D02*
X95776Y807600D01*
X95776Y782200D02*
X83584Y782200D01*
D12*
X530400Y769200D03*
X545400Y769200D03*
X560400Y769200D03*
X575400Y769200D03*
X590400Y769200D03*
X605400Y769200D03*
X620400Y769200D03*
D13*
X617000Y947300D03*
X591600Y947300D03*
X566200Y947300D03*
X540800Y947300D03*
X735110Y757054D03*
X735110Y782454D03*
X735110Y807854D03*
X735110Y833254D03*
X735110Y858654D03*
X735110Y884054D03*
X735110Y909454D03*
X735110Y934854D03*
X413800Y756800D03*
X413800Y782200D03*
X413800Y807600D03*
X413800Y833000D03*
X413800Y858400D03*
X413800Y883800D03*
X413800Y909200D03*
X413800Y934600D03*
D14*
X520616Y808616D03*
X537616Y808616D03*
D15*
X537584Y829444D03*
X516584Y829444D03*
D14*
X646600Y820300D03*
X663600Y820300D03*
D15*
X700058Y812086D03*
X700058Y833086D03*
D16*
X475776Y833000D02*
X463584Y833000D01*
X463584Y807600D02*
X475776Y807600D01*
X475776Y782200D02*
X463584Y782200D01*
D12*
X171690Y135870D03*
X156690Y135870D03*
X141690Y135870D03*
X126690Y135870D03*
X111690Y135870D03*
X96690Y135870D03*
X81690Y135870D03*
D17*
X116950Y245060D03*
X98950Y245060D03*
X98950Y235560D03*
X116950Y235560D03*
D14*
X37220Y233960D03*
X54220Y233960D03*
X37220Y212370D03*
X54220Y212370D03*
X37220Y255550D03*
X54220Y255550D03*
D18*
X76200Y198400D03*
X76200Y185700D03*
X76200Y173000D03*
X139700Y173000D03*
X139700Y185700D03*
X139700Y198400D03*
D12*
X361690Y135870D03*
X346690Y135870D03*
X331690Y135870D03*
X316690Y135870D03*
X301690Y135870D03*
X286690Y135870D03*
X271690Y135870D03*
D17*
X306950Y245060D03*
X288950Y245060D03*
X288950Y235560D03*
X306950Y235560D03*
D14*
X227220Y233960D03*
X244220Y233960D03*
X227220Y212370D03*
X244220Y212370D03*
X227220Y255550D03*
X244220Y255550D03*
D18*
X266200Y198400D03*
X266200Y185700D03*
X266200Y173000D03*
X329700Y173000D03*
X329700Y185700D03*
X329700Y198400D03*
D12*
X551690Y135870D03*
X536690Y135870D03*
X521690Y135870D03*
X506690Y135870D03*
X491690Y135870D03*
X476690Y135870D03*
X461690Y135870D03*
D17*
X496950Y245060D03*
X478950Y245060D03*
X478950Y235560D03*
X496950Y235560D03*
D14*
X417220Y233960D03*
X434220Y233960D03*
X417220Y212370D03*
X434220Y212370D03*
X417220Y255550D03*
X434220Y255550D03*
D18*
X456200Y198400D03*
X456200Y185700D03*
X456200Y173000D03*
X519700Y173000D03*
X519700Y185700D03*
X519700Y198400D03*
D12*
X741690Y135870D03*
X726690Y135870D03*
X711690Y135870D03*
X696690Y135870D03*
X681690Y135870D03*
X666690Y135870D03*
X651690Y135870D03*
D17*
X686950Y245060D03*
X668950Y245060D03*
X668950Y235560D03*
X686950Y235560D03*
D14*
X607220Y233960D03*
X624220Y233960D03*
X607220Y212370D03*
X624220Y212370D03*
X607220Y255550D03*
X624220Y255550D03*
D18*
X646200Y198400D03*
X646200Y185700D03*
X646200Y173000D03*
X709700Y173000D03*
X709700Y185700D03*
X709700Y198400D03*
D12*
X171690Y315870D03*
X156690Y315870D03*
X141690Y315870D03*
X126690Y315870D03*
X111690Y315870D03*
X96690Y315870D03*
X81690Y315870D03*
D17*
X116950Y425060D03*
X98950Y425060D03*
X98950Y415560D03*
X116950Y415560D03*
D14*
X37220Y413960D03*
X54220Y413960D03*
X37220Y392370D03*
X54220Y392370D03*
X37220Y435550D03*
X54220Y435550D03*
D18*
X76200Y378400D03*
X76200Y365700D03*
X76200Y353000D03*
X139700Y353000D03*
X139700Y365700D03*
X139700Y378400D03*
D12*
X361690Y315870D03*
X346690Y315870D03*
X331690Y315870D03*
X316690Y315870D03*
X301690Y315870D03*
X286690Y315870D03*
X271690Y315870D03*
D17*
X306950Y425060D03*
X288950Y425060D03*
X288950Y415560D03*
X306950Y415560D03*
D14*
X227220Y413960D03*
X244220Y413960D03*
X227220Y392370D03*
X244220Y392370D03*
X227220Y435550D03*
X244220Y435550D03*
D18*
X266200Y378400D03*
X266200Y365700D03*
X266200Y353000D03*
X329700Y353000D03*
X329700Y365700D03*
X329700Y378400D03*
D12*
X551690Y315870D03*
X536690Y315870D03*
X521690Y315870D03*
X506690Y315870D03*
X491690Y315870D03*
X476690Y315870D03*
X461690Y315870D03*
D17*
X496950Y425060D03*
X478950Y425060D03*
X478950Y415560D03*
X496950Y415560D03*
D14*
X417220Y413960D03*
X434220Y413960D03*
X417220Y392370D03*
X434220Y392370D03*
X417220Y435550D03*
X434220Y435550D03*
D18*
X456200Y378400D03*
X456200Y365700D03*
X456200Y353000D03*
X519700Y353000D03*
X519700Y365700D03*
X519700Y378400D03*
D12*
X741690Y315870D03*
X726690Y315870D03*
X711690Y315870D03*
X696690Y315870D03*
X681690Y315870D03*
X666690Y315870D03*
X651690Y315870D03*
D17*
X686950Y425060D03*
X668950Y425060D03*
X668950Y415560D03*
X686950Y415560D03*
D14*
X607220Y413960D03*
X624220Y413960D03*
X607220Y392370D03*
X624220Y392370D03*
X607220Y435550D03*
X624220Y435550D03*
D18*
X646200Y378400D03*
X646200Y365700D03*
X646200Y353000D03*
X709700Y353000D03*
X709700Y365700D03*
X709700Y378400D03*
D12*
X150400Y519200D03*
X165400Y519200D03*
X180400Y519200D03*
X195400Y519200D03*
X210400Y519200D03*
X225400Y519200D03*
X240400Y519200D03*
D13*
X237000Y697300D03*
X211600Y697300D03*
X186200Y697300D03*
X160800Y697300D03*
X355110Y507054D03*
X355110Y532454D03*
X355110Y557854D03*
X355110Y583254D03*
X355110Y608654D03*
X355110Y634054D03*
X355110Y659454D03*
X355110Y684854D03*
X33800Y506800D03*
X33800Y532200D03*
X33800Y557600D03*
X33800Y583000D03*
X33800Y608400D03*
X33800Y633800D03*
X33800Y659200D03*
X33800Y684600D03*
D14*
X140616Y558616D03*
X157616Y558616D03*
D15*
X157584Y579444D03*
X136584Y579444D03*
D14*
X266600Y570300D03*
X283600Y570300D03*
D15*
X320058Y562086D03*
X320058Y583086D03*
D16*
X95776Y583000D02*
X83584Y583000D01*
X83584Y557600D02*
X95776Y557600D01*
X95776Y532200D02*
X83584Y532200D01*
D12*
X530400Y519200D03*
X545400Y519200D03*
X560400Y519200D03*
X575400Y519200D03*
X590400Y519200D03*
X605400Y519200D03*
X620400Y519200D03*
D13*
X617000Y697300D03*
X591600Y697300D03*
X566200Y697300D03*
X540800Y697300D03*
X735110Y507054D03*
X735110Y532454D03*
X735110Y557854D03*
X735110Y583254D03*
X735110Y608654D03*
X735110Y634054D03*
X735110Y659454D03*
X735110Y684854D03*
X413800Y506800D03*
X413800Y532200D03*
X413800Y557600D03*
X413800Y583000D03*
X413800Y608400D03*
X413800Y633800D03*
X413800Y659200D03*
X413800Y684600D03*
D14*
X520616Y558616D03*
X537616Y558616D03*
D15*
X537584Y579444D03*
X516584Y579444D03*
D14*
X646600Y570300D03*
X663600Y570300D03*
D15*
X700058Y562086D03*
X700058Y583086D03*
D16*
X475776Y583000D02*
X463584Y583000D01*
X463584Y557600D02*
X475776Y557600D01*
X475776Y532200D02*
X463584Y532200D01*
D19*
X43960Y934600D02*
X33800Y934600D01*
X43960Y934600D02*
X110000Y934600D01*
X225400Y819200D02*
X225400Y776200D01*
X225400Y769200D01*
X225400Y819200D02*
X110000Y934600D01*
X225400Y776200D02*
X222901Y770249D01*
X225400Y769200D01*
X227899Y770249D02*
X225400Y776200D01*
X227899Y770249D02*
X225400Y769200D01*
X43960Y934600D02*
X36340Y938999D01*
X33800Y934600D01*
X36340Y930201D02*
X43960Y934600D01*
X36340Y930201D02*
X33800Y934600D01*
X210400Y776200D02*
X210400Y769200D01*
X210400Y776200D02*
X210400Y821500D01*
X122700Y909200D01*
X43960Y909200D01*
X33800Y909200D01*
X210400Y776200D02*
X207901Y770249D01*
X210400Y769200D01*
X212899Y770249D02*
X210400Y776200D01*
X212899Y770249D02*
X210400Y769200D01*
X43960Y909200D02*
X36340Y913599D01*
X33800Y909200D01*
X36340Y904801D02*
X43960Y909200D01*
X36340Y904801D02*
X33800Y909200D01*
X195400Y823800D02*
X195400Y776200D01*
X195400Y769200D01*
X43960Y883800D02*
X33800Y883800D01*
X43960Y883800D02*
X135400Y883800D01*
X195400Y823800D01*
X195400Y776200D02*
X192901Y770249D01*
X195400Y769200D01*
X197899Y770249D02*
X195400Y776200D01*
X197899Y770249D02*
X195400Y769200D01*
X43960Y883800D02*
X36340Y888199D01*
X33800Y883800D01*
X36340Y879401D02*
X43960Y883800D01*
X36340Y879401D02*
X33800Y883800D01*
X240400Y836400D02*
X240400Y776200D01*
X240400Y769200D01*
X344950Y858654D02*
X355110Y858654D01*
X344950Y858654D02*
X262654Y858654D01*
X240400Y836400D01*
X240400Y776200D02*
X237901Y770249D01*
X240400Y769200D01*
X242899Y770249D02*
X240400Y776200D01*
X242899Y770249D02*
X240400Y769200D01*
X344950Y858654D02*
X352570Y854255D01*
X355110Y858654D01*
X352570Y863053D02*
X344950Y858654D01*
X352570Y863053D02*
X355110Y858654D01*
D20*
X136584Y829444D02*
X126764Y829444D01*
X115080Y817760D01*
D21*
X115080Y817760D03*
D19*
X266346Y820046D02*
X266377Y820048D01*
X266407Y820053D01*
X266436Y820063D01*
X266464Y820075D01*
X266490Y820091D01*
X266514Y820110D01*
X266536Y820132D01*
X266555Y820156D01*
X266571Y820182D01*
X266583Y820210D01*
X266593Y820239D01*
X266598Y820269D01*
X266600Y820300D01*
X266346Y820046D02*
X259776Y820046D01*
D21*
X254526Y820046D03*
D19*
X259776Y820046D01*
X140616Y808616D02*
X132262Y808616D01*
X129812Y808616D01*
X127018Y808362D01*
D21*
X127018Y808362D03*
D19*
X254629Y820773D02*
X259776Y820046D01*
X254629Y820773D02*
X254526Y820046D01*
X254629Y819319D02*
X259776Y820046D01*
X254629Y819319D02*
X254526Y820046D01*
X132262Y808616D02*
X127085Y809093D01*
X127018Y808362D01*
X127156Y807641D02*
X132262Y808616D01*
X127156Y807641D02*
X127018Y808362D01*
X320058Y833086D02*
X344951Y833086D01*
X354942Y833086D01*
D22*
X355110Y833254D01*
D19*
X352643Y828813D02*
X344951Y833086D01*
X352643Y828813D02*
X355110Y833254D01*
X352498Y837611D02*
X344951Y833086D01*
X352498Y837611D02*
X355110Y833254D01*
X43960Y858400D02*
X33800Y858400D01*
X43960Y858400D02*
X148100Y858400D01*
X180400Y826100D01*
X180400Y776200D01*
X180400Y769200D01*
X43960Y858400D02*
X36340Y862799D01*
X33800Y858400D01*
X36340Y854001D02*
X43960Y858400D01*
X36340Y854001D02*
X33800Y858400D01*
X180400Y776200D02*
X177901Y770249D01*
X180400Y769200D01*
X182899Y770249D02*
X180400Y776200D01*
X182899Y770249D02*
X180400Y769200D01*
D20*
X165400Y769200D02*
X165400Y777600D01*
X160800Y782200D01*
X153180Y789820D01*
X122700Y789820D01*
X104920Y807600D01*
X89680Y807600D01*
D19*
X157584Y829444D02*
X157616Y829412D01*
X157616Y808616D01*
X283600Y820300D02*
X291814Y812086D01*
X320058Y812086D01*
X413800Y934600D02*
X423960Y934600D01*
X490000Y934600D01*
X605400Y819200D02*
X605400Y776200D01*
X605400Y769200D01*
X605400Y819200D02*
X490000Y934600D01*
X605400Y776200D02*
X602901Y770249D01*
X605400Y769200D01*
X607899Y770249D02*
X605400Y776200D01*
X607899Y770249D02*
X605400Y769200D01*
X423960Y934600D02*
X416340Y938999D01*
X413800Y934600D01*
X416340Y930201D02*
X423960Y934600D01*
X416340Y930201D02*
X413800Y934600D01*
X590400Y776200D02*
X590400Y769200D01*
X590400Y776200D02*
X590400Y821500D01*
X502700Y909200D01*
X423960Y909200D01*
X413800Y909200D01*
X590400Y776200D02*
X587901Y770249D01*
X590400Y769200D01*
X592899Y770249D02*
X590400Y776200D01*
X592899Y770249D02*
X590400Y769200D01*
X423960Y909200D02*
X416340Y913599D01*
X413800Y909200D01*
X416340Y904801D02*
X423960Y909200D01*
X416340Y904801D02*
X413800Y909200D01*
X575400Y823800D02*
X575400Y776200D01*
X575400Y769200D01*
X423960Y883800D02*
X413800Y883800D01*
X423960Y883800D02*
X515400Y883800D01*
X575400Y823800D01*
X575400Y776200D02*
X572901Y770249D01*
X575400Y769200D01*
X577899Y770249D02*
X575400Y776200D01*
X577899Y770249D02*
X575400Y769200D01*
X423960Y883800D02*
X416340Y888199D01*
X413800Y883800D01*
X416340Y879401D02*
X423960Y883800D01*
X416340Y879401D02*
X413800Y883800D01*
X620400Y836400D02*
X620400Y776200D01*
X620400Y769200D01*
X724950Y858654D02*
X735110Y858654D01*
X724950Y858654D02*
X642654Y858654D01*
X620400Y836400D01*
X620400Y776200D02*
X617901Y770249D01*
X620400Y769200D01*
X622899Y770249D02*
X620400Y776200D01*
X622899Y770249D02*
X620400Y769200D01*
X724950Y858654D02*
X732570Y854255D01*
X735110Y858654D01*
X732570Y863053D02*
X724950Y858654D01*
X732570Y863053D02*
X735110Y858654D01*
D20*
X516584Y829444D02*
X506764Y829444D01*
X495080Y817760D01*
D21*
X495080Y817760D03*
D19*
X646346Y820046D02*
X646377Y820048D01*
X646407Y820053D01*
X646436Y820063D01*
X646464Y820075D01*
X646490Y820091D01*
X646514Y820110D01*
X646536Y820132D01*
X646555Y820156D01*
X646571Y820182D01*
X646583Y820210D01*
X646593Y820239D01*
X646598Y820269D01*
X646600Y820300D01*
X646346Y820046D02*
X639776Y820046D01*
D21*
X634526Y820046D03*
D19*
X639776Y820046D01*
X520616Y808616D02*
X512262Y808616D01*
X509812Y808616D01*
X507018Y808362D01*
D21*
X507018Y808362D03*
D19*
X634629Y820773D02*
X639776Y820046D01*
X634629Y820773D02*
X634526Y820046D01*
X634629Y819319D02*
X639776Y820046D01*
X634629Y819319D02*
X634526Y820046D01*
X512262Y808616D02*
X507085Y809093D01*
X507018Y808362D01*
X507156Y807641D02*
X512262Y808616D01*
X507156Y807641D02*
X507018Y808362D01*
X700058Y833086D02*
X724951Y833086D01*
X734942Y833086D01*
D22*
X735110Y833254D01*
D19*
X732643Y828813D02*
X724951Y833086D01*
X732643Y828813D02*
X735110Y833254D01*
X732498Y837611D02*
X724951Y833086D01*
X732498Y837611D02*
X735110Y833254D01*
X423960Y858400D02*
X413800Y858400D01*
X423960Y858400D02*
X528100Y858400D01*
X560400Y826100D01*
X560400Y776200D01*
X560400Y769200D01*
X423960Y858400D02*
X416340Y862799D01*
X413800Y858400D01*
X416340Y854001D02*
X423960Y858400D01*
X416340Y854001D02*
X413800Y858400D01*
X560400Y776200D02*
X557901Y770249D01*
X560400Y769200D01*
X562899Y770249D02*
X560400Y776200D01*
X562899Y770249D02*
X560400Y769200D01*
D20*
X545400Y769200D02*
X545400Y777600D01*
X540800Y782200D01*
X533180Y789820D01*
X502700Y789820D01*
X484920Y807600D01*
X469680Y807600D01*
D19*
X537584Y829444D02*
X537616Y829412D01*
X537616Y808616D01*
X663600Y820300D02*
X671814Y812086D01*
X700058Y812086D01*
D22*
X147320Y173000D02*
X139700Y173000D01*
X156690Y163630D02*
X156690Y142870D01*
X156690Y135870D01*
X156690Y163630D02*
X147320Y173000D01*
X156690Y142870D02*
X154600Y136563D01*
X156690Y135870D01*
X158780Y136563D02*
X156690Y142870D01*
X158780Y136563D02*
X156690Y135870D01*
X139700Y185700D02*
X132080Y185700D01*
X128270Y181890D01*
X128270Y152680D01*
X138735Y142216D01*
X141690Y139260D01*
X141690Y135870D01*
X139503Y135615D02*
X138735Y142216D01*
X139503Y135615D02*
X141690Y135870D01*
X143292Y137380D02*
X138735Y142216D01*
X143292Y137380D02*
X141690Y135870D01*
X126690Y135870D02*
X121740Y140820D01*
X119380Y143180D01*
X119380Y188240D01*
X129540Y198400D01*
X139700Y198400D01*
X121740Y140820D02*
X124722Y134882D01*
X126690Y135870D01*
X127678Y137838D02*
X121740Y140820D01*
X127678Y137838D02*
X126690Y135870D01*
X91440Y198400D02*
X76200Y198400D01*
X111690Y178150D02*
X111690Y142870D01*
X111690Y135870D01*
X111690Y178150D02*
X91440Y198400D01*
X111690Y142870D02*
X109600Y136563D01*
X111690Y135870D01*
X171690Y135870D02*
X171690Y142870D01*
X171690Y191810D01*
X139700Y223800D02*
X139700Y231420D01*
X135560Y235560D01*
X116950Y235560D01*
X139700Y223800D02*
X171690Y191810D01*
X171690Y142870D02*
X169600Y136563D01*
X171690Y135870D01*
X173780Y136563D02*
X171690Y142870D01*
X173780Y136563D02*
X171690Y135870D01*
X81690Y135870D02*
X76740Y140820D01*
X58420Y159140D01*
X66040Y185700D02*
X76200Y185700D01*
X58420Y178080D02*
X58420Y159140D01*
X58420Y178080D02*
X66040Y185700D01*
X76740Y140820D02*
X79722Y134882D01*
X81690Y135870D01*
X82678Y137838D02*
X76740Y140820D01*
X82678Y137838D02*
X81690Y135870D01*
X76200Y173000D02*
X88900Y173000D01*
D23*
X88900Y173000D03*
D22*
X37220Y212370D02*
X37220Y233960D01*
X37220Y255550D01*
X37220Y212370D02*
X38100Y211490D01*
X38100Y198400D01*
D23*
X38100Y198400D03*
D22*
X88570Y245060D02*
X98950Y245060D01*
X88570Y245060D02*
X78740Y235230D01*
X55490Y235230D01*
X54220Y233960D01*
X54220Y212370D02*
X73660Y212370D01*
X85090Y223800D02*
X93980Y223800D01*
X98950Y228770D01*
X98950Y235560D01*
X85090Y223800D02*
X73660Y212370D01*
X106460Y255550D02*
X116950Y245060D01*
X106460Y255550D02*
X54220Y255550D01*
D24*
X35806Y133366D03*
X162806Y260366D03*
D22*
X329700Y173000D02*
X337320Y173000D01*
X346690Y163630D02*
X346690Y142870D01*
X346690Y135870D01*
X346690Y163630D02*
X337320Y173000D01*
X346690Y142870D02*
X344600Y136563D01*
X346690Y135870D01*
X348780Y136563D02*
X346690Y142870D01*
X348780Y136563D02*
X346690Y135870D01*
X329700Y185700D02*
X322080Y185700D01*
X318270Y181890D01*
X318270Y152680D01*
X328735Y142216D01*
X331690Y139260D01*
X331690Y135870D01*
X329503Y135615D02*
X328735Y142216D01*
X329503Y135615D02*
X331690Y135870D01*
X333292Y137380D02*
X328735Y142216D01*
X333292Y137380D02*
X331690Y135870D01*
X316690Y135870D02*
X311740Y140820D01*
X309380Y143180D01*
X309380Y188240D01*
X319540Y198400D01*
X329700Y198400D01*
X311740Y140820D02*
X314722Y134882D01*
X316690Y135870D01*
X317678Y137838D02*
X311740Y140820D01*
X317678Y137838D02*
X316690Y135870D01*
X281440Y198400D02*
X266200Y198400D01*
X301690Y178150D02*
X301690Y142870D01*
X301690Y135870D01*
X301690Y178150D02*
X281440Y198400D01*
X301690Y142870D02*
X299600Y136563D01*
X301690Y135870D01*
X361690Y135870D02*
X361690Y142870D01*
X361690Y191810D01*
X329700Y223800D02*
X329700Y231420D01*
X325560Y235560D01*
X306950Y235560D01*
X329700Y223800D02*
X361690Y191810D01*
X361690Y142870D02*
X359600Y136563D01*
X361690Y135870D01*
X363780Y136563D02*
X361690Y142870D01*
X363780Y136563D02*
X361690Y135870D01*
X271690Y135870D02*
X266740Y140820D01*
X248420Y159140D01*
X256040Y185700D02*
X266200Y185700D01*
X248420Y178080D02*
X248420Y159140D01*
X248420Y178080D02*
X256040Y185700D01*
X266740Y140820D02*
X269722Y134882D01*
X271690Y135870D01*
X272678Y137838D02*
X266740Y140820D01*
X272678Y137838D02*
X271690Y135870D01*
X266200Y173000D02*
X278900Y173000D01*
D23*
X278900Y173000D03*
D22*
X227220Y212370D02*
X227220Y233960D01*
X227220Y255550D01*
X227220Y212370D02*
X228100Y211490D01*
X228100Y198400D01*
D23*
X228100Y198400D03*
D22*
X278570Y245060D02*
X288950Y245060D01*
X278570Y245060D02*
X268740Y235230D01*
X245490Y235230D01*
X244220Y233960D01*
X244220Y212370D02*
X263660Y212370D01*
X275090Y223800D02*
X283980Y223800D01*
X288950Y228770D01*
X288950Y235560D01*
X275090Y223800D02*
X263660Y212370D01*
X296460Y255550D02*
X306950Y245060D01*
X296460Y255550D02*
X244220Y255550D01*
D24*
X225806Y133366D03*
X352806Y260366D03*
D22*
X519700Y173000D02*
X527320Y173000D01*
X536690Y163630D02*
X536690Y142870D01*
X536690Y135870D01*
X536690Y163630D02*
X527320Y173000D01*
X536690Y142870D02*
X534600Y136563D01*
X536690Y135870D01*
X538780Y136563D02*
X536690Y142870D01*
X538780Y136563D02*
X536690Y135870D01*
X519700Y185700D02*
X512080Y185700D01*
X508270Y181890D01*
X508270Y152680D01*
X518735Y142216D01*
X521690Y139260D01*
X521690Y135870D01*
X519503Y135615D02*
X518735Y142216D01*
X519503Y135615D02*
X521690Y135870D01*
X523292Y137380D02*
X518735Y142216D01*
X523292Y137380D02*
X521690Y135870D01*
X506690Y135870D02*
X501740Y140820D01*
X499380Y143180D01*
X499380Y188240D01*
X509540Y198400D01*
X519700Y198400D01*
X501740Y140820D02*
X504722Y134882D01*
X506690Y135870D01*
X507678Y137838D02*
X501740Y140820D01*
X507678Y137838D02*
X506690Y135870D01*
X471440Y198400D02*
X456200Y198400D01*
X491690Y178150D02*
X491690Y142870D01*
X491690Y135870D01*
X491690Y178150D02*
X471440Y198400D01*
X491690Y142870D02*
X489600Y136563D01*
X491690Y135870D01*
X551690Y135870D02*
X551690Y142870D01*
X551690Y191810D01*
X519700Y223800D02*
X519700Y231420D01*
X515560Y235560D01*
X496950Y235560D01*
X519700Y223800D02*
X551690Y191810D01*
X551690Y142870D02*
X549600Y136563D01*
X551690Y135870D01*
X553780Y136563D02*
X551690Y142870D01*
X553780Y136563D02*
X551690Y135870D01*
X461690Y135870D02*
X456740Y140820D01*
X438420Y159140D01*
X446040Y185700D02*
X456200Y185700D01*
X438420Y178080D02*
X438420Y159140D01*
X438420Y178080D02*
X446040Y185700D01*
X456740Y140820D02*
X459722Y134882D01*
X461690Y135870D01*
X462678Y137838D02*
X456740Y140820D01*
X462678Y137838D02*
X461690Y135870D01*
X456200Y173000D02*
X468900Y173000D01*
D23*
X468900Y173000D03*
D22*
X417220Y212370D02*
X417220Y233960D01*
X417220Y255550D01*
X417220Y212370D02*
X418100Y211490D01*
X418100Y198400D01*
D23*
X418100Y198400D03*
D22*
X468570Y245060D02*
X478950Y245060D01*
X468570Y245060D02*
X458740Y235230D01*
X435490Y235230D01*
X434220Y233960D01*
X434220Y212370D02*
X453660Y212370D01*
X465090Y223800D02*
X473980Y223800D01*
X478950Y228770D01*
X478950Y235560D01*
X465090Y223800D02*
X453660Y212370D01*
X486460Y255550D02*
X496950Y245060D01*
X486460Y255550D02*
X434220Y255550D01*
D24*
X415806Y133366D03*
X542806Y260366D03*
D22*
X709700Y173000D02*
X717320Y173000D01*
X726690Y163630D02*
X726690Y142870D01*
X726690Y135870D01*
X726690Y163630D02*
X717320Y173000D01*
X726690Y142870D02*
X724600Y136563D01*
X726690Y135870D01*
X728780Y136563D02*
X726690Y142870D01*
X728780Y136563D02*
X726690Y135870D01*
X709700Y185700D02*
X702080Y185700D01*
X698270Y181890D01*
X698270Y152680D01*
X708735Y142216D01*
X711690Y139260D01*
X711690Y135870D01*
X709503Y135615D02*
X708735Y142216D01*
X709503Y135615D02*
X711690Y135870D01*
X713292Y137380D02*
X708735Y142216D01*
X713292Y137380D02*
X711690Y135870D01*
X696690Y135870D02*
X691740Y140820D01*
X689380Y143180D01*
X689380Y188240D01*
X699540Y198400D01*
X709700Y198400D01*
X691740Y140820D02*
X694722Y134882D01*
X696690Y135870D01*
X697678Y137838D02*
X691740Y140820D01*
X697678Y137838D02*
X696690Y135870D01*
X661440Y198400D02*
X646200Y198400D01*
X681690Y178150D02*
X681690Y142870D01*
X681690Y135870D01*
X681690Y178150D02*
X661440Y198400D01*
X681690Y142870D02*
X679600Y136563D01*
X681690Y135870D01*
X741690Y135870D02*
X741690Y142870D01*
X741690Y191810D01*
X709700Y223800D02*
X709700Y231420D01*
X705560Y235560D01*
X686950Y235560D01*
X709700Y223800D02*
X741690Y191810D01*
X741690Y142870D02*
X739600Y136563D01*
X741690Y135870D01*
X743780Y136563D02*
X741690Y142870D01*
X743780Y136563D02*
X741690Y135870D01*
X651690Y135870D02*
X646740Y140820D01*
X628420Y159140D01*
X636040Y185700D02*
X646200Y185700D01*
X628420Y178080D02*
X628420Y159140D01*
X628420Y178080D02*
X636040Y185700D01*
X646740Y140820D02*
X649722Y134882D01*
X651690Y135870D01*
X652678Y137838D02*
X646740Y140820D01*
X652678Y137838D02*
X651690Y135870D01*
X646200Y173000D02*
X658900Y173000D01*
D23*
X658900Y173000D03*
D22*
X607220Y212370D02*
X607220Y233960D01*
X607220Y255550D01*
X607220Y212370D02*
X608100Y211490D01*
X608100Y198400D01*
D23*
X608100Y198400D03*
D22*
X658570Y245060D02*
X668950Y245060D01*
X658570Y245060D02*
X648740Y235230D01*
X625490Y235230D01*
X624220Y233960D01*
X624220Y212370D02*
X643660Y212370D01*
X655090Y223800D02*
X663980Y223800D01*
X668950Y228770D01*
X668950Y235560D01*
X655090Y223800D02*
X643660Y212370D01*
X676460Y255550D02*
X686950Y245060D01*
X676460Y255550D02*
X624220Y255550D01*
D24*
X605806Y133366D03*
X732806Y260366D03*
D22*
X147320Y353000D02*
X139700Y353000D01*
X156690Y343630D02*
X156690Y322870D01*
X156690Y315870D01*
X156690Y343630D02*
X147320Y353000D01*
X156690Y322870D02*
X154600Y316563D01*
X156690Y315870D01*
X158780Y316563D02*
X156690Y322870D01*
X158780Y316563D02*
X156690Y315870D01*
X139700Y365700D02*
X132080Y365700D01*
X128270Y361890D01*
X128270Y332680D01*
X138735Y322216D01*
X141690Y319260D01*
X141690Y315870D01*
X139503Y315615D02*
X138735Y322216D01*
X139503Y315615D02*
X141690Y315870D01*
X143292Y317380D02*
X138735Y322216D01*
X143292Y317380D02*
X141690Y315870D01*
X126690Y315870D02*
X121740Y320820D01*
X119380Y323180D01*
X119380Y368240D01*
X129540Y378400D01*
X139700Y378400D01*
X121740Y320820D02*
X124722Y314882D01*
X126690Y315870D01*
X127678Y317838D02*
X121740Y320820D01*
X127678Y317838D02*
X126690Y315870D01*
X91440Y378400D02*
X76200Y378400D01*
X111690Y358150D02*
X111690Y322870D01*
X111690Y315870D01*
X111690Y358150D02*
X91440Y378400D01*
X111690Y322870D02*
X109600Y316563D01*
X111690Y315870D01*
X171690Y315870D02*
X171690Y322870D01*
X171690Y371810D01*
X139700Y403800D02*
X139700Y411420D01*
X135560Y415560D01*
X116950Y415560D01*
X139700Y403800D02*
X171690Y371810D01*
X171690Y322870D02*
X169600Y316563D01*
X171690Y315870D01*
X173780Y316563D02*
X171690Y322870D01*
X173780Y316563D02*
X171690Y315870D01*
X81690Y315870D02*
X76740Y320820D01*
X58420Y339140D01*
X66040Y365700D02*
X76200Y365700D01*
X58420Y358080D02*
X58420Y339140D01*
X58420Y358080D02*
X66040Y365700D01*
X76740Y320820D02*
X79722Y314882D01*
X81690Y315870D01*
X82678Y317838D02*
X76740Y320820D01*
X82678Y317838D02*
X81690Y315870D01*
X76200Y353000D02*
X88900Y353000D01*
D23*
X88900Y353000D03*
D22*
X37220Y392370D02*
X37220Y413960D01*
X37220Y435550D01*
X37220Y392370D02*
X38100Y391490D01*
X38100Y378400D01*
D23*
X38100Y378400D03*
D22*
X88570Y425060D02*
X98950Y425060D01*
X88570Y425060D02*
X78740Y415230D01*
X55490Y415230D01*
X54220Y413960D01*
X54220Y392370D02*
X73660Y392370D01*
X85090Y403800D02*
X93980Y403800D01*
X98950Y408770D01*
X98950Y415560D01*
X85090Y403800D02*
X73660Y392370D01*
X106460Y435550D02*
X116950Y425060D01*
X106460Y435550D02*
X54220Y435550D01*
D24*
X35806Y313366D03*
X162806Y440366D03*
D22*
X329700Y353000D02*
X337320Y353000D01*
X346690Y343630D02*
X346690Y322870D01*
X346690Y315870D01*
X346690Y343630D02*
X337320Y353000D01*
X346690Y322870D02*
X344600Y316563D01*
X346690Y315870D01*
X348780Y316563D02*
X346690Y322870D01*
X348780Y316563D02*
X346690Y315870D01*
X329700Y365700D02*
X322080Y365700D01*
X318270Y361890D01*
X318270Y332680D01*
X328735Y322216D01*
X331690Y319260D01*
X331690Y315870D01*
X329503Y315615D02*
X328735Y322216D01*
X329503Y315615D02*
X331690Y315870D01*
X333292Y317380D02*
X328735Y322216D01*
X333292Y317380D02*
X331690Y315870D01*
X316690Y315870D02*
X311740Y320820D01*
X309380Y323180D01*
X309380Y368240D01*
X319540Y378400D01*
X329700Y378400D01*
X311740Y320820D02*
X314722Y314882D01*
X316690Y315870D01*
X317678Y317838D02*
X311740Y320820D01*
X317678Y317838D02*
X316690Y315870D01*
X281440Y378400D02*
X266200Y378400D01*
X301690Y358150D02*
X301690Y322870D01*
X301690Y315870D01*
X301690Y358150D02*
X281440Y378400D01*
X301690Y322870D02*
X299600Y316563D01*
X301690Y315870D01*
X361690Y315870D02*
X361690Y322870D01*
X361690Y371810D01*
X329700Y403800D02*
X329700Y411420D01*
X325560Y415560D01*
X306950Y415560D01*
X329700Y403800D02*
X361690Y371810D01*
X361690Y322870D02*
X359600Y316563D01*
X361690Y315870D01*
X363780Y316563D02*
X361690Y322870D01*
X363780Y316563D02*
X361690Y315870D01*
X271690Y315870D02*
X266740Y320820D01*
X248420Y339140D01*
X256040Y365700D02*
X266200Y365700D01*
X248420Y358080D02*
X248420Y339140D01*
X248420Y358080D02*
X256040Y365700D01*
X266740Y320820D02*
X269722Y314882D01*
X271690Y315870D01*
X272678Y317838D02*
X266740Y320820D01*
X272678Y317838D02*
X271690Y315870D01*
X266200Y353000D02*
X278900Y353000D01*
D23*
X278900Y353000D03*
D22*
X227220Y392370D02*
X227220Y413960D01*
X227220Y435550D01*
X227220Y392370D02*
X228100Y391490D01*
X228100Y378400D01*
D23*
X228100Y378400D03*
D22*
X278570Y425060D02*
X288950Y425060D01*
X278570Y425060D02*
X268740Y415230D01*
X245490Y415230D01*
X244220Y413960D01*
X244220Y392370D02*
X263660Y392370D01*
X275090Y403800D02*
X283980Y403800D01*
X288950Y408770D01*
X288950Y415560D01*
X275090Y403800D02*
X263660Y392370D01*
X296460Y435550D02*
X306950Y425060D01*
X296460Y435550D02*
X244220Y435550D01*
D24*
X225806Y313366D03*
X352806Y440366D03*
D22*
X519700Y353000D02*
X527320Y353000D01*
X536690Y343630D02*
X536690Y322870D01*
X536690Y315870D01*
X536690Y343630D02*
X527320Y353000D01*
X536690Y322870D02*
X534600Y316563D01*
X536690Y315870D01*
X538780Y316563D02*
X536690Y322870D01*
X538780Y316563D02*
X536690Y315870D01*
X519700Y365700D02*
X512080Y365700D01*
X508270Y361890D01*
X508270Y332680D01*
X518735Y322216D01*
X521690Y319260D01*
X521690Y315870D01*
X519503Y315615D02*
X518735Y322216D01*
X519503Y315615D02*
X521690Y315870D01*
X523292Y317380D02*
X518735Y322216D01*
X523292Y317380D02*
X521690Y315870D01*
X506690Y315870D02*
X501740Y320820D01*
X499380Y323180D01*
X499380Y368240D01*
X509540Y378400D01*
X519700Y378400D01*
X501740Y320820D02*
X504722Y314882D01*
X506690Y315870D01*
X507678Y317838D02*
X501740Y320820D01*
X507678Y317838D02*
X506690Y315870D01*
X471440Y378400D02*
X456200Y378400D01*
X491690Y358150D02*
X491690Y322870D01*
X491690Y315870D01*
X491690Y358150D02*
X471440Y378400D01*
X491690Y322870D02*
X489600Y316563D01*
X491690Y315870D01*
X551690Y315870D02*
X551690Y322870D01*
X551690Y371810D01*
X519700Y403800D02*
X519700Y411420D01*
X515560Y415560D01*
X496950Y415560D01*
X519700Y403800D02*
X551690Y371810D01*
X551690Y322870D02*
X549600Y316563D01*
X551690Y315870D01*
X553780Y316563D02*
X551690Y322870D01*
X553780Y316563D02*
X551690Y315870D01*
X461690Y315870D02*
X456740Y320820D01*
X438420Y339140D01*
X446040Y365700D02*
X456200Y365700D01*
X438420Y358080D02*
X438420Y339140D01*
X438420Y358080D02*
X446040Y365700D01*
X456740Y320820D02*
X459722Y314882D01*
X461690Y315870D01*
X462678Y317838D02*
X456740Y320820D01*
X462678Y317838D02*
X461690Y315870D01*
X456200Y353000D02*
X468900Y353000D01*
D23*
X468900Y353000D03*
D22*
X417220Y392370D02*
X417220Y413960D01*
X417220Y435550D01*
X417220Y392370D02*
X418100Y391490D01*
X418100Y378400D01*
D23*
X418100Y378400D03*
D22*
X468570Y425060D02*
X478950Y425060D01*
X468570Y425060D02*
X458740Y415230D01*
X435490Y415230D01*
X434220Y413960D01*
X434220Y392370D02*
X453660Y392370D01*
X465090Y403800D02*
X473980Y403800D01*
X478950Y408770D01*
X478950Y415560D01*
X465090Y403800D02*
X453660Y392370D01*
X486460Y435550D02*
X496950Y425060D01*
X486460Y435550D02*
X434220Y435550D01*
D24*
X415806Y313366D03*
X542806Y440366D03*
D22*
X709700Y353000D02*
X717320Y353000D01*
X726690Y343630D02*
X726690Y322870D01*
X726690Y315870D01*
X726690Y343630D02*
X717320Y353000D01*
X726690Y322870D02*
X724600Y316563D01*
X726690Y315870D01*
X728780Y316563D02*
X726690Y322870D01*
X728780Y316563D02*
X726690Y315870D01*
X709700Y365700D02*
X702080Y365700D01*
X698270Y361890D01*
X698270Y332680D01*
X708735Y322216D01*
X711690Y319260D01*
X711690Y315870D01*
X709503Y315615D02*
X708735Y322216D01*
X709503Y315615D02*
X711690Y315870D01*
X713292Y317380D02*
X708735Y322216D01*
X713292Y317380D02*
X711690Y315870D01*
X696690Y315870D02*
X691740Y320820D01*
X689380Y323180D01*
X689380Y368240D01*
X699540Y378400D01*
X709700Y378400D01*
X691740Y320820D02*
X694722Y314882D01*
X696690Y315870D01*
X697678Y317838D02*
X691740Y320820D01*
X697678Y317838D02*
X696690Y315870D01*
X661440Y378400D02*
X646200Y378400D01*
X681690Y358150D02*
X681690Y322870D01*
X681690Y315870D01*
X681690Y358150D02*
X661440Y378400D01*
X681690Y322870D02*
X679600Y316563D01*
X681690Y315870D01*
X741690Y315870D02*
X741690Y322870D01*
X741690Y371810D01*
X709700Y403800D02*
X709700Y411420D01*
X705560Y415560D01*
X686950Y415560D01*
X709700Y403800D02*
X741690Y371810D01*
X741690Y322870D02*
X739600Y316563D01*
X741690Y315870D01*
X743780Y316563D02*
X741690Y322870D01*
X743780Y316563D02*
X741690Y315870D01*
X651690Y315870D02*
X646740Y320820D01*
X628420Y339140D01*
X636040Y365700D02*
X646200Y365700D01*
X628420Y358080D02*
X628420Y339140D01*
X628420Y358080D02*
X636040Y365700D01*
X646740Y320820D02*
X649722Y314882D01*
X651690Y315870D01*
X652678Y317838D02*
X646740Y320820D01*
X652678Y317838D02*
X651690Y315870D01*
X646200Y353000D02*
X658900Y353000D01*
D23*
X658900Y353000D03*
D22*
X607220Y392370D02*
X607220Y413960D01*
X607220Y435550D01*
X607220Y392370D02*
X608100Y391490D01*
X608100Y378400D01*
D23*
X608100Y378400D03*
D22*
X658570Y425060D02*
X668950Y425060D01*
X658570Y425060D02*
X648740Y415230D01*
X625490Y415230D01*
X624220Y413960D01*
X624220Y392370D02*
X643660Y392370D01*
X655090Y403800D02*
X663980Y403800D01*
X668950Y408770D01*
X668950Y415560D01*
X655090Y403800D02*
X643660Y392370D01*
X676460Y435550D02*
X686950Y425060D01*
X676460Y435550D02*
X624220Y435550D01*
D24*
X605806Y313366D03*
X732806Y440366D03*
D19*
X43960Y684600D02*
X33800Y684600D01*
X43960Y684600D02*
X110000Y684600D01*
X225400Y569200D02*
X225400Y526200D01*
X225400Y519200D01*
X225400Y569200D02*
X110000Y684600D01*
X225400Y526200D02*
X222901Y520249D01*
X225400Y519200D01*
X227899Y520249D02*
X225400Y526200D01*
X227899Y520249D02*
X225400Y519200D01*
X43960Y684600D02*
X36340Y688999D01*
X33800Y684600D01*
X36340Y680201D02*
X43960Y684600D01*
X36340Y680201D02*
X33800Y684600D01*
X210400Y526200D02*
X210400Y519200D01*
X210400Y526200D02*
X210400Y571500D01*
X122700Y659200D01*
X43960Y659200D01*
X33800Y659200D01*
X210400Y526200D02*
X207901Y520249D01*
X210400Y519200D01*
X212899Y520249D02*
X210400Y526200D01*
X212899Y520249D02*
X210400Y519200D01*
X43960Y659200D02*
X36340Y663599D01*
X33800Y659200D01*
X36340Y654801D02*
X43960Y659200D01*
X36340Y654801D02*
X33800Y659200D01*
X195400Y573800D02*
X195400Y526200D01*
X195400Y519200D01*
X43960Y633800D02*
X33800Y633800D01*
X43960Y633800D02*
X135400Y633800D01*
X195400Y573800D01*
X195400Y526200D02*
X192901Y520249D01*
X195400Y519200D01*
X197899Y520249D02*
X195400Y526200D01*
X197899Y520249D02*
X195400Y519200D01*
X43960Y633800D02*
X36340Y638199D01*
X33800Y633800D01*
X36340Y629401D02*
X43960Y633800D01*
X36340Y629401D02*
X33800Y633800D01*
X240400Y586400D02*
X240400Y526200D01*
X240400Y519200D01*
X344950Y608654D02*
X355110Y608654D01*
X344950Y608654D02*
X262654Y608654D01*
X240400Y586400D01*
X240400Y526200D02*
X237901Y520249D01*
X240400Y519200D01*
X242899Y520249D02*
X240400Y526200D01*
X242899Y520249D02*
X240400Y519200D01*
X344950Y608654D02*
X352570Y604255D01*
X355110Y608654D01*
X352570Y613053D02*
X344950Y608654D01*
X352570Y613053D02*
X355110Y608654D01*
D20*
X136584Y579444D02*
X126764Y579444D01*
X115080Y567760D01*
D21*
X115080Y567760D03*
D19*
X266346Y570046D02*
X266377Y570048D01*
X266407Y570053D01*
X266436Y570063D01*
X266464Y570075D01*
X266490Y570091D01*
X266514Y570110D01*
X266536Y570132D01*
X266555Y570156D01*
X266571Y570182D01*
X266583Y570210D01*
X266593Y570239D01*
X266598Y570269D01*
X266600Y570300D01*
X266346Y570046D02*
X259776Y570046D01*
D21*
X254526Y570046D03*
D19*
X259776Y570046D01*
X140616Y558616D02*
X132262Y558616D01*
X129812Y558616D01*
X127018Y558362D01*
D21*
X127018Y558362D03*
D19*
X254629Y570773D02*
X259776Y570046D01*
X254629Y570773D02*
X254526Y570046D01*
X254629Y569319D02*
X259776Y570046D01*
X254629Y569319D02*
X254526Y570046D01*
X132262Y558616D02*
X127085Y559093D01*
X127018Y558362D01*
X127156Y557641D02*
X132262Y558616D01*
X127156Y557641D02*
X127018Y558362D01*
X320058Y583086D02*
X344951Y583086D01*
X354942Y583086D01*
D22*
X355110Y583254D01*
D19*
X352643Y578813D02*
X344951Y583086D01*
X352643Y578813D02*
X355110Y583254D01*
X352498Y587611D02*
X344951Y583086D01*
X352498Y587611D02*
X355110Y583254D01*
X43960Y608400D02*
X33800Y608400D01*
X43960Y608400D02*
X148100Y608400D01*
X180400Y576100D01*
X180400Y526200D01*
X180400Y519200D01*
X43960Y608400D02*
X36340Y612799D01*
X33800Y608400D01*
X36340Y604001D02*
X43960Y608400D01*
X36340Y604001D02*
X33800Y608400D01*
X180400Y526200D02*
X177901Y520249D01*
X180400Y519200D01*
X182899Y520249D02*
X180400Y526200D01*
X182899Y520249D02*
X180400Y519200D01*
D20*
X165400Y519200D02*
X165400Y527600D01*
X160800Y532200D01*
X153180Y539820D01*
X122700Y539820D01*
X104920Y557600D01*
X89680Y557600D01*
D19*
X157584Y579444D02*
X157616Y579412D01*
X157616Y558616D01*
X283600Y570300D02*
X291814Y562086D01*
X320058Y562086D01*
X413800Y684600D02*
X423960Y684600D01*
X490000Y684600D01*
X605400Y569200D02*
X605400Y526200D01*
X605400Y519200D01*
X605400Y569200D02*
X490000Y684600D01*
X605400Y526200D02*
X602901Y520249D01*
X605400Y519200D01*
X607899Y520249D02*
X605400Y526200D01*
X607899Y520249D02*
X605400Y519200D01*
X423960Y684600D02*
X416340Y688999D01*
X413800Y684600D01*
X416340Y680201D02*
X423960Y684600D01*
X416340Y680201D02*
X413800Y684600D01*
X590400Y526200D02*
X590400Y519200D01*
X590400Y526200D02*
X590400Y571500D01*
X502700Y659200D01*
X423960Y659200D01*
X413800Y659200D01*
X590400Y526200D02*
X587901Y520249D01*
X590400Y519200D01*
X592899Y520249D02*
X590400Y526200D01*
X592899Y520249D02*
X590400Y519200D01*
X423960Y659200D02*
X416340Y663599D01*
X413800Y659200D01*
X416340Y654801D02*
X423960Y659200D01*
X416340Y654801D02*
X413800Y659200D01*
X575400Y573800D02*
X575400Y526200D01*
X575400Y519200D01*
X423960Y633800D02*
X413800Y633800D01*
X423960Y633800D02*
X515400Y633800D01*
X575400Y573800D01*
X575400Y526200D02*
X572901Y520249D01*
X575400Y519200D01*
X577899Y520249D02*
X575400Y526200D01*
X577899Y520249D02*
X575400Y519200D01*
X423960Y633800D02*
X416340Y638199D01*
X413800Y633800D01*
X416340Y629401D02*
X423960Y633800D01*
X416340Y629401D02*
X413800Y633800D01*
X620400Y586400D02*
X620400Y526200D01*
X620400Y519200D01*
X724950Y608654D02*
X735110Y608654D01*
X724950Y608654D02*
X642654Y608654D01*
X620400Y586400D01*
X620400Y526200D02*
X617901Y520249D01*
X620400Y519200D01*
X622899Y520249D02*
X620400Y526200D01*
X622899Y520249D02*
X620400Y519200D01*
X724950Y608654D02*
X732570Y604255D01*
X735110Y608654D01*
X732570Y613053D02*
X724950Y608654D01*
X732570Y613053D02*
X735110Y608654D01*
D20*
X516584Y579444D02*
X506764Y579444D01*
X495080Y567760D01*
D21*
X495080Y567760D03*
D19*
X646346Y570046D02*
X646377Y570048D01*
X646407Y570053D01*
X646436Y570063D01*
X646464Y570075D01*
X646490Y570091D01*
X646514Y570110D01*
X646536Y570132D01*
X646555Y570156D01*
X646571Y570182D01*
X646583Y570210D01*
X646593Y570239D01*
X646598Y570269D01*
X646600Y570300D01*
X646346Y570046D02*
X639776Y570046D01*
D21*
X634526Y570046D03*
D19*
X639776Y570046D01*
X520616Y558616D02*
X512262Y558616D01*
X509812Y558616D01*
X507018Y558362D01*
D21*
X507018Y558362D03*
D19*
X634629Y570773D02*
X639776Y570046D01*
X634629Y570773D02*
X634526Y570046D01*
X634629Y569319D02*
X639776Y570046D01*
X634629Y569319D02*
X634526Y570046D01*
X512262Y558616D02*
X507085Y559093D01*
X507018Y558362D01*
X507156Y557641D02*
X512262Y558616D01*
X507156Y557641D02*
X507018Y558362D01*
X700058Y583086D02*
X724951Y583086D01*
X734942Y583086D01*
D22*
X735110Y583254D01*
D19*
X732643Y578813D02*
X724951Y583086D01*
X732643Y578813D02*
X735110Y583254D01*
X732498Y587611D02*
X724951Y583086D01*
X732498Y587611D02*
X735110Y583254D01*
X423960Y608400D02*
X413800Y608400D01*
X423960Y608400D02*
X528100Y608400D01*
X560400Y576100D01*
X560400Y526200D01*
X560400Y519200D01*
X423960Y608400D02*
X416340Y612799D01*
X413800Y608400D01*
X416340Y604001D02*
X423960Y608400D01*
X416340Y604001D02*
X413800Y608400D01*
X560400Y526200D02*
X557901Y520249D01*
X560400Y519200D01*
X562899Y520249D02*
X560400Y526200D01*
X562899Y520249D02*
X560400Y519200D01*
D20*
X545400Y519200D02*
X545400Y527600D01*
X540800Y532200D01*
X533180Y539820D01*
X502700Y539820D01*
X484920Y557600D01*
X469680Y557600D01*
D19*
X537584Y579444D02*
X537616Y579412D01*
X537616Y558616D01*
X663600Y570300D02*
X671814Y562086D01*
X700058Y562086D01*
M02*
