G04 EAGLE Gerber X2 export*
%TF.Part,Single*%
%TF.FileFunction,Other,Bottom layer*%
%TF.FilePolarity,Positive*%
%TF.GenerationSoftware,Autodesk,EAGLE,9.1.1*%
%TF.CreationDate,2018-08-10T14:22:37Z*%
G75*
%MOMM*%
%FSLAX34Y34*%
%LPD*%
%AMOC8*
5,1,8,0,0,1.08239X$1,22.5*%
G01*
%ADD10C,0.152400*%
%ADD11C,0.000000*%
%ADD12C,1.050000*%
%ADD13C,1.524000*%
%ADD14C,1.219200*%
%ADD15C,0.812800*%
%ADD16C,0.654800*%
%ADD17C,0.508000*%
%ADD18C,0.704800*%
%ADD19C,4.216000*%

G36*
X370877Y741314D02*
X370877Y741314D01*
X370897Y741312D01*
X370998Y741334D01*
X371100Y741350D01*
X371118Y741360D01*
X371138Y741364D01*
X371226Y741417D01*
X371318Y741465D01*
X371332Y741480D01*
X371349Y741490D01*
X371416Y741569D01*
X371487Y741643D01*
X371496Y741662D01*
X371509Y741677D01*
X371548Y741773D01*
X371591Y741866D01*
X371593Y741887D01*
X371601Y741905D01*
X371619Y742072D01*
X371619Y963808D01*
X371616Y963828D01*
X371618Y963848D01*
X371596Y963949D01*
X371580Y964051D01*
X371570Y964069D01*
X371566Y964088D01*
X371513Y964177D01*
X371464Y964268D01*
X371450Y964282D01*
X371439Y964299D01*
X371361Y964366D01*
X371286Y964438D01*
X371268Y964446D01*
X371252Y964459D01*
X371157Y964498D01*
X371063Y964541D01*
X371043Y964543D01*
X371024Y964551D01*
X370857Y964569D01*
X347743Y964553D01*
X347724Y964550D01*
X347705Y964552D01*
X347603Y964530D01*
X347501Y964513D01*
X347483Y964504D01*
X347464Y964500D01*
X347375Y964447D01*
X347283Y964398D01*
X347270Y964384D01*
X347253Y964374D01*
X347186Y964295D01*
X347114Y964220D01*
X347106Y964202D01*
X347093Y964187D01*
X347054Y964091D01*
X347011Y963997D01*
X347009Y963977D01*
X347001Y963959D01*
X346983Y963792D01*
X346983Y959684D01*
X346536Y959237D01*
X345904Y959237D01*
X345457Y959684D01*
X345457Y963790D01*
X345454Y963810D01*
X345456Y963830D01*
X345434Y963931D01*
X345418Y964033D01*
X345408Y964051D01*
X345404Y964070D01*
X345351Y964159D01*
X345302Y964250D01*
X345288Y964264D01*
X345277Y964281D01*
X345199Y964348D01*
X345124Y964419D01*
X345106Y964428D01*
X345090Y964441D01*
X344995Y964479D01*
X344901Y964523D01*
X344881Y964525D01*
X344862Y964533D01*
X344695Y964551D01*
X14749Y964323D01*
X14730Y964320D01*
X14711Y964322D01*
X14609Y964300D01*
X14507Y964283D01*
X14489Y964274D01*
X14470Y964270D01*
X14381Y964217D01*
X14289Y964168D01*
X14276Y964154D01*
X14259Y964144D01*
X14192Y964065D01*
X14120Y963990D01*
X14112Y963972D01*
X14099Y963957D01*
X14060Y963861D01*
X14017Y963767D01*
X14015Y963747D01*
X14007Y963729D01*
X13989Y963562D01*
X13989Y742318D01*
X13992Y742299D01*
X13990Y742279D01*
X14012Y742177D01*
X14028Y742075D01*
X14038Y742058D01*
X14042Y742039D01*
X14095Y741949D01*
X14144Y741858D01*
X14158Y741844D01*
X14168Y741827D01*
X14247Y741760D01*
X14322Y741688D01*
X14340Y741680D01*
X14355Y741667D01*
X14451Y741628D01*
X14545Y741585D01*
X14564Y741583D01*
X14583Y741575D01*
X14749Y741557D01*
X370857Y741311D01*
X370877Y741314D01*
G37*
G36*
X750877Y491314D02*
X750877Y491314D01*
X750897Y491312D01*
X750998Y491334D01*
X751100Y491350D01*
X751118Y491360D01*
X751138Y491364D01*
X751226Y491417D01*
X751318Y491465D01*
X751332Y491480D01*
X751349Y491490D01*
X751416Y491569D01*
X751487Y491643D01*
X751496Y491662D01*
X751509Y491677D01*
X751548Y491773D01*
X751591Y491866D01*
X751593Y491887D01*
X751601Y491905D01*
X751619Y492072D01*
X751619Y713808D01*
X751616Y713828D01*
X751618Y713848D01*
X751596Y713949D01*
X751580Y714051D01*
X751570Y714069D01*
X751566Y714088D01*
X751513Y714177D01*
X751464Y714268D01*
X751450Y714282D01*
X751439Y714299D01*
X751361Y714366D01*
X751286Y714438D01*
X751268Y714446D01*
X751252Y714459D01*
X751157Y714498D01*
X751063Y714541D01*
X751043Y714543D01*
X751024Y714551D01*
X750857Y714569D01*
X727743Y714553D01*
X727724Y714550D01*
X727705Y714552D01*
X727603Y714530D01*
X727501Y714513D01*
X727483Y714504D01*
X727464Y714500D01*
X727375Y714447D01*
X727283Y714398D01*
X727270Y714384D01*
X727253Y714374D01*
X727186Y714295D01*
X727114Y714220D01*
X727106Y714202D01*
X727093Y714187D01*
X727054Y714091D01*
X727011Y713997D01*
X727009Y713977D01*
X727001Y713959D01*
X726983Y713792D01*
X726983Y709684D01*
X726536Y709237D01*
X725904Y709237D01*
X725457Y709684D01*
X725457Y713790D01*
X725454Y713810D01*
X725456Y713830D01*
X725434Y713931D01*
X725418Y714033D01*
X725408Y714051D01*
X725404Y714070D01*
X725351Y714159D01*
X725302Y714250D01*
X725288Y714264D01*
X725277Y714281D01*
X725199Y714348D01*
X725124Y714419D01*
X725106Y714428D01*
X725090Y714441D01*
X724995Y714479D01*
X724901Y714523D01*
X724881Y714525D01*
X724862Y714533D01*
X724695Y714551D01*
X394749Y714323D01*
X394730Y714320D01*
X394711Y714322D01*
X394609Y714300D01*
X394507Y714283D01*
X394489Y714274D01*
X394470Y714270D01*
X394381Y714217D01*
X394289Y714168D01*
X394276Y714154D01*
X394259Y714144D01*
X394192Y714065D01*
X394120Y713990D01*
X394112Y713972D01*
X394099Y713957D01*
X394060Y713861D01*
X394017Y713767D01*
X394015Y713747D01*
X394007Y713729D01*
X393989Y713562D01*
X393989Y492318D01*
X393992Y492299D01*
X393990Y492279D01*
X394012Y492177D01*
X394028Y492075D01*
X394038Y492058D01*
X394042Y492039D01*
X394095Y491949D01*
X394144Y491858D01*
X394158Y491844D01*
X394168Y491827D01*
X394247Y491760D01*
X394322Y491688D01*
X394340Y491680D01*
X394355Y491667D01*
X394451Y491628D01*
X394545Y491585D01*
X394564Y491583D01*
X394583Y491575D01*
X394749Y491557D01*
X750857Y491311D01*
X750877Y491314D01*
G37*
G36*
X750877Y741314D02*
X750877Y741314D01*
X750897Y741312D01*
X750998Y741334D01*
X751100Y741350D01*
X751118Y741360D01*
X751138Y741364D01*
X751226Y741417D01*
X751318Y741465D01*
X751332Y741480D01*
X751349Y741490D01*
X751416Y741569D01*
X751487Y741643D01*
X751496Y741662D01*
X751509Y741677D01*
X751548Y741773D01*
X751591Y741866D01*
X751593Y741887D01*
X751601Y741905D01*
X751619Y742072D01*
X751619Y963808D01*
X751616Y963828D01*
X751618Y963848D01*
X751596Y963949D01*
X751580Y964051D01*
X751570Y964069D01*
X751566Y964088D01*
X751513Y964177D01*
X751464Y964268D01*
X751450Y964282D01*
X751439Y964299D01*
X751361Y964366D01*
X751286Y964438D01*
X751268Y964446D01*
X751252Y964459D01*
X751157Y964498D01*
X751063Y964541D01*
X751043Y964543D01*
X751024Y964551D01*
X750857Y964569D01*
X727743Y964553D01*
X727724Y964550D01*
X727705Y964552D01*
X727603Y964530D01*
X727501Y964513D01*
X727483Y964504D01*
X727464Y964500D01*
X727375Y964447D01*
X727283Y964398D01*
X727270Y964384D01*
X727253Y964374D01*
X727186Y964295D01*
X727114Y964220D01*
X727106Y964202D01*
X727093Y964187D01*
X727054Y964091D01*
X727011Y963997D01*
X727009Y963977D01*
X727001Y963959D01*
X726983Y963792D01*
X726983Y959684D01*
X726536Y959237D01*
X725904Y959237D01*
X725457Y959684D01*
X725457Y963790D01*
X725454Y963810D01*
X725456Y963830D01*
X725434Y963931D01*
X725418Y964033D01*
X725408Y964051D01*
X725404Y964070D01*
X725351Y964159D01*
X725302Y964250D01*
X725288Y964264D01*
X725277Y964281D01*
X725199Y964348D01*
X725124Y964419D01*
X725106Y964428D01*
X725090Y964441D01*
X724995Y964479D01*
X724901Y964523D01*
X724881Y964525D01*
X724862Y964533D01*
X724695Y964551D01*
X394749Y964323D01*
X394730Y964320D01*
X394711Y964322D01*
X394609Y964300D01*
X394507Y964283D01*
X394489Y964274D01*
X394470Y964270D01*
X394381Y964217D01*
X394289Y964168D01*
X394276Y964154D01*
X394259Y964144D01*
X394192Y964065D01*
X394120Y963990D01*
X394112Y963972D01*
X394099Y963957D01*
X394060Y963861D01*
X394017Y963767D01*
X394015Y963747D01*
X394007Y963729D01*
X393989Y963562D01*
X393989Y742318D01*
X393992Y742299D01*
X393990Y742279D01*
X394012Y742177D01*
X394028Y742075D01*
X394038Y742058D01*
X394042Y742039D01*
X394095Y741949D01*
X394144Y741858D01*
X394158Y741844D01*
X394168Y741827D01*
X394247Y741760D01*
X394322Y741688D01*
X394340Y741680D01*
X394355Y741667D01*
X394451Y741628D01*
X394545Y741585D01*
X394564Y741583D01*
X394583Y741575D01*
X394749Y741557D01*
X750857Y741311D01*
X750877Y741314D01*
G37*
G36*
X370877Y491314D02*
X370877Y491314D01*
X370897Y491312D01*
X370998Y491334D01*
X371100Y491350D01*
X371118Y491360D01*
X371138Y491364D01*
X371226Y491417D01*
X371318Y491465D01*
X371332Y491480D01*
X371349Y491490D01*
X371416Y491569D01*
X371487Y491643D01*
X371496Y491662D01*
X371509Y491677D01*
X371548Y491773D01*
X371591Y491866D01*
X371593Y491887D01*
X371601Y491905D01*
X371619Y492072D01*
X371619Y713808D01*
X371616Y713828D01*
X371618Y713848D01*
X371596Y713949D01*
X371580Y714051D01*
X371570Y714069D01*
X371566Y714088D01*
X371513Y714177D01*
X371464Y714268D01*
X371450Y714282D01*
X371439Y714299D01*
X371361Y714366D01*
X371286Y714438D01*
X371268Y714446D01*
X371252Y714459D01*
X371157Y714498D01*
X371063Y714541D01*
X371043Y714543D01*
X371024Y714551D01*
X370857Y714569D01*
X347743Y714553D01*
X347724Y714550D01*
X347705Y714552D01*
X347603Y714530D01*
X347501Y714513D01*
X347483Y714504D01*
X347464Y714500D01*
X347375Y714447D01*
X347283Y714398D01*
X347270Y714384D01*
X347253Y714374D01*
X347186Y714295D01*
X347114Y714220D01*
X347106Y714202D01*
X347093Y714187D01*
X347054Y714091D01*
X347011Y713997D01*
X347009Y713977D01*
X347001Y713959D01*
X346983Y713792D01*
X346983Y709684D01*
X346536Y709237D01*
X345904Y709237D01*
X345457Y709684D01*
X345457Y713790D01*
X345454Y713810D01*
X345456Y713830D01*
X345434Y713931D01*
X345418Y714033D01*
X345408Y714051D01*
X345404Y714070D01*
X345351Y714159D01*
X345302Y714250D01*
X345288Y714264D01*
X345277Y714281D01*
X345199Y714348D01*
X345124Y714419D01*
X345106Y714428D01*
X345090Y714441D01*
X344995Y714479D01*
X344901Y714523D01*
X344881Y714525D01*
X344862Y714533D01*
X344695Y714551D01*
X14749Y714323D01*
X14730Y714320D01*
X14711Y714322D01*
X14609Y714300D01*
X14507Y714283D01*
X14489Y714274D01*
X14470Y714270D01*
X14381Y714217D01*
X14289Y714168D01*
X14276Y714154D01*
X14259Y714144D01*
X14192Y714065D01*
X14120Y713990D01*
X14112Y713972D01*
X14099Y713957D01*
X14060Y713861D01*
X14017Y713767D01*
X14015Y713747D01*
X14007Y713729D01*
X13989Y713562D01*
X13989Y492318D01*
X13992Y492299D01*
X13990Y492279D01*
X14012Y492177D01*
X14028Y492075D01*
X14038Y492058D01*
X14042Y492039D01*
X14095Y491949D01*
X14144Y491858D01*
X14158Y491844D01*
X14168Y491827D01*
X14247Y491760D01*
X14322Y491688D01*
X14340Y491680D01*
X14355Y491667D01*
X14451Y491628D01*
X14545Y491585D01*
X14564Y491583D01*
X14583Y491575D01*
X14749Y491557D01*
X370857Y491311D01*
X370877Y491314D01*
G37*
G36*
X564865Y114584D02*
X564865Y114584D01*
X564886Y114582D01*
X564986Y114604D01*
X565087Y114620D01*
X565106Y114630D01*
X565126Y114635D01*
X565214Y114688D01*
X565305Y114736D01*
X565319Y114751D01*
X565337Y114761D01*
X565404Y114840D01*
X565474Y114914D01*
X565483Y114933D01*
X565496Y114949D01*
X565535Y115044D01*
X565578Y115137D01*
X565580Y115158D01*
X565588Y115177D01*
X565606Y115344D01*
X565337Y232692D01*
X565334Y232711D01*
X565336Y232729D01*
X565314Y232831D01*
X565297Y232934D01*
X565288Y232951D01*
X565284Y232970D01*
X565230Y233059D01*
X565181Y233152D01*
X565167Y233165D01*
X565157Y233181D01*
X565078Y233249D01*
X565002Y233320D01*
X564985Y233328D01*
X564971Y233341D01*
X564873Y233380D01*
X564779Y233424D01*
X564760Y233426D01*
X564742Y233433D01*
X564576Y233451D01*
X531137Y233451D01*
X516651Y247937D01*
X516651Y278158D01*
X516648Y278178D01*
X516650Y278197D01*
X516628Y278299D01*
X516612Y278401D01*
X516602Y278418D01*
X516598Y278438D01*
X516545Y278527D01*
X516496Y278618D01*
X516482Y278632D01*
X516472Y278649D01*
X516393Y278716D01*
X516318Y278788D01*
X516300Y278796D01*
X516285Y278809D01*
X516189Y278848D01*
X516095Y278891D01*
X516075Y278893D01*
X516057Y278901D01*
X515890Y278919D01*
X398542Y278919D01*
X398522Y278916D01*
X398503Y278918D01*
X398401Y278896D01*
X398299Y278880D01*
X398282Y278870D01*
X398262Y278866D01*
X398173Y278813D01*
X398082Y278764D01*
X398068Y278750D01*
X398051Y278740D01*
X397984Y278661D01*
X397912Y278586D01*
X397904Y278568D01*
X397891Y278553D01*
X397852Y278457D01*
X397809Y278363D01*
X397807Y278343D01*
X397799Y278325D01*
X397781Y278158D01*
X397781Y160300D01*
X397784Y160280D01*
X397782Y160261D01*
X397804Y160159D01*
X397820Y160057D01*
X397830Y160040D01*
X397834Y160020D01*
X397887Y159931D01*
X397936Y159840D01*
X397950Y159826D01*
X397960Y159809D01*
X398039Y159742D01*
X398114Y159670D01*
X398132Y159662D01*
X398147Y159649D01*
X398243Y159610D01*
X398337Y159567D01*
X398357Y159565D01*
X398375Y159557D01*
X398542Y159539D01*
X426983Y159539D01*
X440199Y146323D01*
X440199Y115342D01*
X440202Y115322D01*
X440200Y115303D01*
X440222Y115201D01*
X440238Y115099D01*
X440248Y115082D01*
X440252Y115062D01*
X440305Y114973D01*
X440354Y114882D01*
X440368Y114868D01*
X440378Y114851D01*
X440457Y114784D01*
X440532Y114712D01*
X440550Y114704D01*
X440565Y114691D01*
X440661Y114652D01*
X440755Y114609D01*
X440775Y114607D01*
X440793Y114599D01*
X440960Y114581D01*
X564845Y114581D01*
X564865Y114584D01*
G37*
G36*
X184865Y114584D02*
X184865Y114584D01*
X184886Y114582D01*
X184986Y114604D01*
X185087Y114620D01*
X185106Y114630D01*
X185126Y114635D01*
X185214Y114688D01*
X185305Y114736D01*
X185319Y114751D01*
X185337Y114761D01*
X185404Y114840D01*
X185474Y114914D01*
X185483Y114933D01*
X185496Y114949D01*
X185535Y115044D01*
X185578Y115137D01*
X185580Y115158D01*
X185588Y115177D01*
X185606Y115344D01*
X185337Y232692D01*
X185334Y232711D01*
X185336Y232729D01*
X185314Y232831D01*
X185297Y232934D01*
X185288Y232951D01*
X185284Y232970D01*
X185230Y233059D01*
X185181Y233152D01*
X185167Y233165D01*
X185157Y233181D01*
X185078Y233249D01*
X185002Y233320D01*
X184985Y233328D01*
X184971Y233341D01*
X184873Y233380D01*
X184779Y233424D01*
X184760Y233426D01*
X184742Y233433D01*
X184576Y233451D01*
X151137Y233451D01*
X136651Y247937D01*
X136651Y278158D01*
X136648Y278178D01*
X136650Y278197D01*
X136628Y278299D01*
X136612Y278401D01*
X136602Y278418D01*
X136598Y278438D01*
X136545Y278527D01*
X136496Y278618D01*
X136482Y278632D01*
X136472Y278649D01*
X136393Y278716D01*
X136318Y278788D01*
X136300Y278796D01*
X136285Y278809D01*
X136189Y278848D01*
X136095Y278891D01*
X136075Y278893D01*
X136057Y278901D01*
X135890Y278919D01*
X18542Y278919D01*
X18522Y278916D01*
X18503Y278918D01*
X18401Y278896D01*
X18299Y278880D01*
X18282Y278870D01*
X18262Y278866D01*
X18173Y278813D01*
X18082Y278764D01*
X18068Y278750D01*
X18051Y278740D01*
X17984Y278661D01*
X17912Y278586D01*
X17904Y278568D01*
X17891Y278553D01*
X17852Y278457D01*
X17809Y278363D01*
X17807Y278343D01*
X17799Y278325D01*
X17781Y278158D01*
X17781Y160300D01*
X17784Y160280D01*
X17782Y160261D01*
X17804Y160159D01*
X17820Y160057D01*
X17830Y160040D01*
X17834Y160020D01*
X17887Y159931D01*
X17936Y159840D01*
X17950Y159826D01*
X17960Y159809D01*
X18039Y159742D01*
X18114Y159670D01*
X18132Y159662D01*
X18147Y159649D01*
X18243Y159610D01*
X18337Y159567D01*
X18357Y159565D01*
X18375Y159557D01*
X18542Y159539D01*
X46983Y159539D01*
X60199Y146323D01*
X60199Y115342D01*
X60202Y115322D01*
X60200Y115303D01*
X60222Y115201D01*
X60238Y115099D01*
X60248Y115082D01*
X60252Y115062D01*
X60305Y114973D01*
X60354Y114882D01*
X60368Y114868D01*
X60378Y114851D01*
X60457Y114784D01*
X60532Y114712D01*
X60550Y114704D01*
X60565Y114691D01*
X60661Y114652D01*
X60755Y114609D01*
X60775Y114607D01*
X60793Y114599D01*
X60960Y114581D01*
X184845Y114581D01*
X184865Y114584D01*
G37*
G36*
X754865Y114584D02*
X754865Y114584D01*
X754886Y114582D01*
X754986Y114604D01*
X755087Y114620D01*
X755106Y114630D01*
X755126Y114635D01*
X755214Y114688D01*
X755305Y114736D01*
X755319Y114751D01*
X755337Y114761D01*
X755404Y114840D01*
X755474Y114914D01*
X755483Y114933D01*
X755496Y114949D01*
X755535Y115044D01*
X755578Y115137D01*
X755580Y115158D01*
X755588Y115177D01*
X755606Y115344D01*
X755337Y232692D01*
X755334Y232711D01*
X755336Y232729D01*
X755314Y232831D01*
X755297Y232934D01*
X755288Y232951D01*
X755284Y232970D01*
X755230Y233059D01*
X755181Y233152D01*
X755167Y233165D01*
X755157Y233181D01*
X755078Y233249D01*
X755002Y233320D01*
X754985Y233328D01*
X754971Y233341D01*
X754873Y233380D01*
X754779Y233424D01*
X754760Y233426D01*
X754742Y233433D01*
X754576Y233451D01*
X721137Y233451D01*
X706651Y247937D01*
X706651Y278158D01*
X706648Y278178D01*
X706650Y278197D01*
X706628Y278299D01*
X706612Y278401D01*
X706602Y278418D01*
X706598Y278438D01*
X706545Y278527D01*
X706496Y278618D01*
X706482Y278632D01*
X706472Y278649D01*
X706393Y278716D01*
X706318Y278788D01*
X706300Y278796D01*
X706285Y278809D01*
X706189Y278848D01*
X706095Y278891D01*
X706075Y278893D01*
X706057Y278901D01*
X705890Y278919D01*
X588542Y278919D01*
X588522Y278916D01*
X588503Y278918D01*
X588401Y278896D01*
X588299Y278880D01*
X588282Y278870D01*
X588262Y278866D01*
X588173Y278813D01*
X588082Y278764D01*
X588068Y278750D01*
X588051Y278740D01*
X587984Y278661D01*
X587912Y278586D01*
X587904Y278568D01*
X587891Y278553D01*
X587852Y278457D01*
X587809Y278363D01*
X587807Y278343D01*
X587799Y278325D01*
X587781Y278158D01*
X587781Y160300D01*
X587784Y160280D01*
X587782Y160261D01*
X587804Y160159D01*
X587820Y160057D01*
X587830Y160040D01*
X587834Y160020D01*
X587887Y159931D01*
X587936Y159840D01*
X587950Y159826D01*
X587960Y159809D01*
X588039Y159742D01*
X588114Y159670D01*
X588132Y159662D01*
X588147Y159649D01*
X588243Y159610D01*
X588337Y159567D01*
X588357Y159565D01*
X588375Y159557D01*
X588542Y159539D01*
X616983Y159539D01*
X630199Y146323D01*
X630199Y115342D01*
X630202Y115322D01*
X630200Y115303D01*
X630222Y115201D01*
X630238Y115099D01*
X630248Y115082D01*
X630252Y115062D01*
X630305Y114973D01*
X630354Y114882D01*
X630368Y114868D01*
X630378Y114851D01*
X630457Y114784D01*
X630532Y114712D01*
X630550Y114704D01*
X630565Y114691D01*
X630661Y114652D01*
X630755Y114609D01*
X630775Y114607D01*
X630793Y114599D01*
X630960Y114581D01*
X754845Y114581D01*
X754865Y114584D01*
G37*
G36*
X754865Y294584D02*
X754865Y294584D01*
X754886Y294582D01*
X754986Y294604D01*
X755087Y294620D01*
X755106Y294630D01*
X755126Y294635D01*
X755214Y294688D01*
X755305Y294736D01*
X755319Y294751D01*
X755337Y294761D01*
X755404Y294840D01*
X755474Y294914D01*
X755483Y294933D01*
X755496Y294949D01*
X755535Y295044D01*
X755578Y295137D01*
X755580Y295158D01*
X755588Y295177D01*
X755606Y295344D01*
X755337Y412692D01*
X755334Y412711D01*
X755336Y412729D01*
X755314Y412831D01*
X755297Y412934D01*
X755288Y412951D01*
X755284Y412970D01*
X755230Y413059D01*
X755181Y413152D01*
X755167Y413165D01*
X755157Y413181D01*
X755078Y413249D01*
X755002Y413320D01*
X754985Y413328D01*
X754971Y413341D01*
X754873Y413380D01*
X754779Y413424D01*
X754760Y413426D01*
X754742Y413433D01*
X754576Y413451D01*
X721137Y413451D01*
X706651Y427937D01*
X706651Y458158D01*
X706648Y458178D01*
X706650Y458197D01*
X706628Y458299D01*
X706612Y458401D01*
X706602Y458418D01*
X706598Y458438D01*
X706545Y458527D01*
X706496Y458618D01*
X706482Y458632D01*
X706472Y458649D01*
X706393Y458716D01*
X706318Y458788D01*
X706300Y458796D01*
X706285Y458809D01*
X706189Y458848D01*
X706095Y458891D01*
X706075Y458893D01*
X706057Y458901D01*
X705890Y458919D01*
X588542Y458919D01*
X588522Y458916D01*
X588503Y458918D01*
X588401Y458896D01*
X588299Y458880D01*
X588282Y458870D01*
X588262Y458866D01*
X588173Y458813D01*
X588082Y458764D01*
X588068Y458750D01*
X588051Y458740D01*
X587984Y458661D01*
X587912Y458586D01*
X587904Y458568D01*
X587891Y458553D01*
X587852Y458457D01*
X587809Y458363D01*
X587807Y458343D01*
X587799Y458325D01*
X587781Y458158D01*
X587781Y340300D01*
X587784Y340280D01*
X587782Y340261D01*
X587804Y340159D01*
X587820Y340057D01*
X587830Y340040D01*
X587834Y340020D01*
X587887Y339931D01*
X587936Y339840D01*
X587950Y339826D01*
X587960Y339809D01*
X588039Y339742D01*
X588114Y339670D01*
X588132Y339662D01*
X588147Y339649D01*
X588243Y339610D01*
X588337Y339567D01*
X588357Y339565D01*
X588375Y339557D01*
X588542Y339539D01*
X616983Y339539D01*
X630199Y326323D01*
X630199Y295342D01*
X630202Y295322D01*
X630200Y295303D01*
X630222Y295201D01*
X630238Y295099D01*
X630248Y295082D01*
X630252Y295062D01*
X630305Y294973D01*
X630354Y294882D01*
X630368Y294868D01*
X630378Y294851D01*
X630457Y294784D01*
X630532Y294712D01*
X630550Y294704D01*
X630565Y294691D01*
X630661Y294652D01*
X630755Y294609D01*
X630775Y294607D01*
X630793Y294599D01*
X630960Y294581D01*
X754845Y294581D01*
X754865Y294584D01*
G37*
G36*
X184865Y294584D02*
X184865Y294584D01*
X184886Y294582D01*
X184986Y294604D01*
X185087Y294620D01*
X185106Y294630D01*
X185126Y294635D01*
X185214Y294688D01*
X185305Y294736D01*
X185319Y294751D01*
X185337Y294761D01*
X185404Y294840D01*
X185474Y294914D01*
X185483Y294933D01*
X185496Y294949D01*
X185535Y295044D01*
X185578Y295137D01*
X185580Y295158D01*
X185588Y295177D01*
X185606Y295344D01*
X185337Y412692D01*
X185334Y412711D01*
X185336Y412729D01*
X185314Y412831D01*
X185297Y412934D01*
X185288Y412951D01*
X185284Y412970D01*
X185230Y413059D01*
X185181Y413152D01*
X185167Y413165D01*
X185157Y413181D01*
X185078Y413249D01*
X185002Y413320D01*
X184985Y413328D01*
X184971Y413341D01*
X184873Y413380D01*
X184779Y413424D01*
X184760Y413426D01*
X184742Y413433D01*
X184576Y413451D01*
X151137Y413451D01*
X136651Y427937D01*
X136651Y458158D01*
X136648Y458178D01*
X136650Y458197D01*
X136628Y458299D01*
X136612Y458401D01*
X136602Y458418D01*
X136598Y458438D01*
X136545Y458527D01*
X136496Y458618D01*
X136482Y458632D01*
X136472Y458649D01*
X136393Y458716D01*
X136318Y458788D01*
X136300Y458796D01*
X136285Y458809D01*
X136189Y458848D01*
X136095Y458891D01*
X136075Y458893D01*
X136057Y458901D01*
X135890Y458919D01*
X18542Y458919D01*
X18522Y458916D01*
X18503Y458918D01*
X18401Y458896D01*
X18299Y458880D01*
X18282Y458870D01*
X18262Y458866D01*
X18173Y458813D01*
X18082Y458764D01*
X18068Y458750D01*
X18051Y458740D01*
X17984Y458661D01*
X17912Y458586D01*
X17904Y458568D01*
X17891Y458553D01*
X17852Y458457D01*
X17809Y458363D01*
X17807Y458343D01*
X17799Y458325D01*
X17781Y458158D01*
X17781Y340300D01*
X17784Y340280D01*
X17782Y340261D01*
X17804Y340159D01*
X17820Y340057D01*
X17830Y340040D01*
X17834Y340020D01*
X17887Y339931D01*
X17936Y339840D01*
X17950Y339826D01*
X17960Y339809D01*
X18039Y339742D01*
X18114Y339670D01*
X18132Y339662D01*
X18147Y339649D01*
X18243Y339610D01*
X18337Y339567D01*
X18357Y339565D01*
X18375Y339557D01*
X18542Y339539D01*
X46983Y339539D01*
X60199Y326323D01*
X60199Y295342D01*
X60202Y295322D01*
X60200Y295303D01*
X60222Y295201D01*
X60238Y295099D01*
X60248Y295082D01*
X60252Y295062D01*
X60305Y294973D01*
X60354Y294882D01*
X60368Y294868D01*
X60378Y294851D01*
X60457Y294784D01*
X60532Y294712D01*
X60550Y294704D01*
X60565Y294691D01*
X60661Y294652D01*
X60755Y294609D01*
X60775Y294607D01*
X60793Y294599D01*
X60960Y294581D01*
X184845Y294581D01*
X184865Y294584D01*
G37*
G36*
X374865Y294584D02*
X374865Y294584D01*
X374886Y294582D01*
X374986Y294604D01*
X375087Y294620D01*
X375106Y294630D01*
X375126Y294635D01*
X375214Y294688D01*
X375305Y294736D01*
X375319Y294751D01*
X375337Y294761D01*
X375404Y294840D01*
X375474Y294914D01*
X375483Y294933D01*
X375496Y294949D01*
X375535Y295044D01*
X375578Y295137D01*
X375580Y295158D01*
X375588Y295177D01*
X375606Y295344D01*
X375337Y412692D01*
X375334Y412711D01*
X375336Y412729D01*
X375314Y412831D01*
X375297Y412934D01*
X375288Y412951D01*
X375284Y412970D01*
X375230Y413059D01*
X375181Y413152D01*
X375167Y413165D01*
X375157Y413181D01*
X375078Y413249D01*
X375002Y413320D01*
X374985Y413328D01*
X374971Y413341D01*
X374873Y413380D01*
X374779Y413424D01*
X374760Y413426D01*
X374742Y413433D01*
X374576Y413451D01*
X341137Y413451D01*
X326651Y427937D01*
X326651Y458158D01*
X326648Y458178D01*
X326650Y458197D01*
X326628Y458299D01*
X326612Y458401D01*
X326602Y458418D01*
X326598Y458438D01*
X326545Y458527D01*
X326496Y458618D01*
X326482Y458632D01*
X326472Y458649D01*
X326393Y458716D01*
X326318Y458788D01*
X326300Y458796D01*
X326285Y458809D01*
X326189Y458848D01*
X326095Y458891D01*
X326075Y458893D01*
X326057Y458901D01*
X325890Y458919D01*
X208542Y458919D01*
X208522Y458916D01*
X208503Y458918D01*
X208401Y458896D01*
X208299Y458880D01*
X208282Y458870D01*
X208262Y458866D01*
X208173Y458813D01*
X208082Y458764D01*
X208068Y458750D01*
X208051Y458740D01*
X207984Y458661D01*
X207912Y458586D01*
X207904Y458568D01*
X207891Y458553D01*
X207852Y458457D01*
X207809Y458363D01*
X207807Y458343D01*
X207799Y458325D01*
X207781Y458158D01*
X207781Y340300D01*
X207784Y340280D01*
X207782Y340261D01*
X207804Y340159D01*
X207820Y340057D01*
X207830Y340040D01*
X207834Y340020D01*
X207887Y339931D01*
X207936Y339840D01*
X207950Y339826D01*
X207960Y339809D01*
X208039Y339742D01*
X208114Y339670D01*
X208132Y339662D01*
X208147Y339649D01*
X208243Y339610D01*
X208337Y339567D01*
X208357Y339565D01*
X208375Y339557D01*
X208542Y339539D01*
X236983Y339539D01*
X250199Y326323D01*
X250199Y295342D01*
X250202Y295322D01*
X250200Y295303D01*
X250222Y295201D01*
X250238Y295099D01*
X250248Y295082D01*
X250252Y295062D01*
X250305Y294973D01*
X250354Y294882D01*
X250368Y294868D01*
X250378Y294851D01*
X250457Y294784D01*
X250532Y294712D01*
X250550Y294704D01*
X250565Y294691D01*
X250661Y294652D01*
X250755Y294609D01*
X250775Y294607D01*
X250793Y294599D01*
X250960Y294581D01*
X374845Y294581D01*
X374865Y294584D01*
G37*
G36*
X374865Y114584D02*
X374865Y114584D01*
X374886Y114582D01*
X374986Y114604D01*
X375087Y114620D01*
X375106Y114630D01*
X375126Y114635D01*
X375214Y114688D01*
X375305Y114736D01*
X375319Y114751D01*
X375337Y114761D01*
X375404Y114840D01*
X375474Y114914D01*
X375483Y114933D01*
X375496Y114949D01*
X375535Y115044D01*
X375578Y115137D01*
X375580Y115158D01*
X375588Y115177D01*
X375606Y115344D01*
X375337Y232692D01*
X375334Y232711D01*
X375336Y232729D01*
X375314Y232831D01*
X375297Y232934D01*
X375288Y232951D01*
X375284Y232970D01*
X375230Y233059D01*
X375181Y233152D01*
X375167Y233165D01*
X375157Y233181D01*
X375078Y233249D01*
X375002Y233320D01*
X374985Y233328D01*
X374970Y233341D01*
X374873Y233380D01*
X374779Y233424D01*
X374760Y233426D01*
X374742Y233433D01*
X374576Y233451D01*
X341137Y233451D01*
X339128Y235460D01*
X326651Y247937D01*
X326651Y278158D01*
X326648Y278178D01*
X326650Y278197D01*
X326628Y278299D01*
X326612Y278401D01*
X326602Y278418D01*
X326598Y278438D01*
X326545Y278527D01*
X326496Y278618D01*
X326482Y278632D01*
X326472Y278649D01*
X326393Y278716D01*
X326318Y278788D01*
X326300Y278796D01*
X326285Y278809D01*
X326189Y278848D01*
X326095Y278891D01*
X326075Y278893D01*
X326057Y278901D01*
X325890Y278919D01*
X208542Y278919D01*
X208522Y278916D01*
X208503Y278918D01*
X208401Y278896D01*
X208299Y278880D01*
X208282Y278870D01*
X208262Y278866D01*
X208173Y278813D01*
X208082Y278764D01*
X208068Y278750D01*
X208051Y278740D01*
X207984Y278661D01*
X207912Y278586D01*
X207904Y278568D01*
X207891Y278553D01*
X207852Y278457D01*
X207809Y278363D01*
X207807Y278343D01*
X207799Y278325D01*
X207781Y278158D01*
X207781Y160300D01*
X207784Y160280D01*
X207782Y160261D01*
X207804Y160159D01*
X207820Y160057D01*
X207830Y160040D01*
X207834Y160020D01*
X207887Y159931D01*
X207936Y159840D01*
X207950Y159826D01*
X207960Y159809D01*
X208039Y159742D01*
X208114Y159670D01*
X208132Y159662D01*
X208147Y159649D01*
X208243Y159610D01*
X208337Y159567D01*
X208357Y159565D01*
X208375Y159557D01*
X208542Y159539D01*
X236983Y159539D01*
X250199Y146323D01*
X250199Y115342D01*
X250202Y115322D01*
X250200Y115303D01*
X250222Y115201D01*
X250238Y115099D01*
X250248Y115082D01*
X250252Y115062D01*
X250305Y114973D01*
X250354Y114882D01*
X250368Y114868D01*
X250378Y114851D01*
X250457Y114784D01*
X250532Y114712D01*
X250550Y114704D01*
X250565Y114691D01*
X250661Y114652D01*
X250755Y114609D01*
X250775Y114607D01*
X250793Y114599D01*
X250960Y114581D01*
X374845Y114581D01*
X374865Y114584D01*
G37*
G36*
X564865Y294584D02*
X564865Y294584D01*
X564886Y294582D01*
X564986Y294604D01*
X565087Y294620D01*
X565106Y294630D01*
X565126Y294635D01*
X565214Y294688D01*
X565305Y294736D01*
X565319Y294751D01*
X565337Y294761D01*
X565404Y294840D01*
X565474Y294914D01*
X565483Y294933D01*
X565496Y294949D01*
X565535Y295044D01*
X565578Y295137D01*
X565580Y295158D01*
X565588Y295177D01*
X565606Y295344D01*
X565337Y412692D01*
X565334Y412711D01*
X565336Y412729D01*
X565314Y412831D01*
X565297Y412934D01*
X565288Y412951D01*
X565284Y412970D01*
X565230Y413059D01*
X565181Y413152D01*
X565167Y413165D01*
X565157Y413181D01*
X565078Y413249D01*
X565002Y413320D01*
X564985Y413328D01*
X564970Y413341D01*
X564873Y413380D01*
X564779Y413424D01*
X564760Y413426D01*
X564742Y413433D01*
X564576Y413451D01*
X531137Y413451D01*
X516651Y427937D01*
X516651Y458158D01*
X516648Y458178D01*
X516650Y458197D01*
X516628Y458299D01*
X516612Y458401D01*
X516602Y458418D01*
X516598Y458438D01*
X516545Y458527D01*
X516496Y458618D01*
X516482Y458632D01*
X516472Y458649D01*
X516393Y458716D01*
X516318Y458788D01*
X516300Y458796D01*
X516285Y458809D01*
X516189Y458848D01*
X516095Y458891D01*
X516075Y458893D01*
X516057Y458901D01*
X515890Y458919D01*
X398542Y458919D01*
X398522Y458916D01*
X398503Y458918D01*
X398401Y458896D01*
X398299Y458880D01*
X398282Y458870D01*
X398262Y458866D01*
X398173Y458813D01*
X398082Y458764D01*
X398068Y458750D01*
X398051Y458740D01*
X397984Y458661D01*
X397912Y458586D01*
X397904Y458568D01*
X397891Y458553D01*
X397852Y458457D01*
X397809Y458363D01*
X397807Y458343D01*
X397799Y458325D01*
X397781Y458158D01*
X397781Y340300D01*
X397784Y340280D01*
X397782Y340261D01*
X397804Y340159D01*
X397820Y340057D01*
X397830Y340040D01*
X397834Y340020D01*
X397887Y339931D01*
X397936Y339840D01*
X397950Y339826D01*
X397960Y339809D01*
X398039Y339742D01*
X398114Y339670D01*
X398132Y339662D01*
X398147Y339649D01*
X398243Y339610D01*
X398337Y339567D01*
X398357Y339565D01*
X398375Y339557D01*
X398542Y339539D01*
X426983Y339539D01*
X440199Y326323D01*
X440199Y295342D01*
X440202Y295322D01*
X440200Y295303D01*
X440222Y295201D01*
X440238Y295099D01*
X440248Y295082D01*
X440252Y295062D01*
X440305Y294973D01*
X440354Y294882D01*
X440368Y294868D01*
X440378Y294851D01*
X440457Y294784D01*
X440532Y294712D01*
X440550Y294704D01*
X440565Y294691D01*
X440661Y294652D01*
X440755Y294609D01*
X440775Y294607D01*
X440793Y294599D01*
X440960Y294581D01*
X564845Y294581D01*
X564865Y294584D01*
G37*
%LPC*%
G36*
X31981Y548455D02*
X31981Y548455D01*
X28620Y549847D01*
X26047Y552420D01*
X25703Y553252D01*
X25681Y553287D01*
X25667Y553327D01*
X25616Y553391D01*
X25573Y553461D01*
X25541Y553488D01*
X25515Y553520D01*
X25404Y553602D01*
X25135Y554606D01*
X25122Y554635D01*
X25103Y554701D01*
X24655Y555781D01*
X24655Y556296D01*
X24653Y556311D01*
X24655Y556327D01*
X24629Y556493D01*
X24450Y557164D01*
X24449Y557164D01*
X23024Y562483D01*
X22977Y562588D01*
X22932Y562693D01*
X22926Y562701D01*
X22923Y562707D01*
X22908Y562724D01*
X22827Y562824D01*
X17035Y568616D01*
X17035Y615164D01*
X19639Y617768D01*
X24403Y622531D01*
X24414Y622547D01*
X24430Y622560D01*
X24486Y622647D01*
X24546Y622731D01*
X24552Y622750D01*
X24563Y622767D01*
X24588Y622867D01*
X24619Y622966D01*
X24618Y622986D01*
X24623Y623005D01*
X24615Y623108D01*
X24612Y623212D01*
X24605Y623231D01*
X24604Y623250D01*
X24563Y623345D01*
X24528Y623441D01*
X24528Y631446D01*
X24545Y631466D01*
X24557Y631496D01*
X24576Y631522D01*
X24603Y631609D01*
X24637Y631694D01*
X24641Y631735D01*
X24648Y631757D01*
X24647Y631789D01*
X24655Y631860D01*
X24655Y635619D01*
X26047Y638980D01*
X28620Y641553D01*
X31981Y642945D01*
X35619Y642945D01*
X38980Y641553D01*
X41553Y638980D01*
X42945Y635619D01*
X42945Y631860D01*
X42959Y631770D01*
X42967Y631679D01*
X42979Y631650D01*
X42984Y631618D01*
X43027Y631537D01*
X43063Y631453D01*
X43072Y631442D01*
X43072Y631260D01*
X43077Y631229D01*
X43078Y631161D01*
X43256Y629813D01*
X43275Y629750D01*
X43284Y629685D01*
X43317Y629609D01*
X43327Y629577D01*
X43338Y629562D01*
X43351Y629532D01*
X44699Y627197D01*
X44757Y627127D01*
X44783Y627084D01*
X44809Y627061D01*
X44842Y627018D01*
X44850Y627012D01*
X44855Y627007D01*
X44874Y626995D01*
X44961Y626931D01*
X44969Y626924D01*
X44973Y626922D01*
X44977Y626919D01*
X47312Y625571D01*
X47373Y625548D01*
X47430Y625516D01*
X47511Y625496D01*
X47542Y625484D01*
X47561Y625483D01*
X47593Y625476D01*
X48941Y625298D01*
X48972Y625299D01*
X49040Y625292D01*
X50496Y625292D01*
X50516Y625275D01*
X50546Y625263D01*
X50572Y625244D01*
X50659Y625217D01*
X50744Y625183D01*
X50785Y625179D01*
X50807Y625172D01*
X50839Y625173D01*
X50910Y625165D01*
X60562Y625165D01*
X60652Y625179D01*
X60743Y625187D01*
X60772Y625199D01*
X60804Y625204D01*
X60885Y625247D01*
X60969Y625283D01*
X61001Y625309D01*
X61022Y625320D01*
X61044Y625343D01*
X61100Y625388D01*
X85261Y649549D01*
X106985Y649549D01*
X107075Y649563D01*
X107166Y649571D01*
X107196Y649583D01*
X107228Y649588D01*
X107308Y649631D01*
X107392Y649667D01*
X107424Y649693D01*
X107445Y649704D01*
X107467Y649727D01*
X107523Y649772D01*
X149827Y692076D01*
X149894Y692168D01*
X149963Y692261D01*
X149967Y692270D01*
X149971Y692275D01*
X149977Y692296D01*
X150024Y692417D01*
X151449Y697736D01*
X151629Y698407D01*
X151631Y698423D01*
X151637Y698438D01*
X151655Y698604D01*
X151655Y699119D01*
X152103Y700199D01*
X152110Y700230D01*
X152135Y700294D01*
X152404Y701300D01*
X152412Y701307D01*
X152450Y701326D01*
X152507Y701384D01*
X152571Y701436D01*
X152593Y701471D01*
X152622Y701501D01*
X152697Y701638D01*
X152701Y701644D01*
X152702Y701646D01*
X152703Y701648D01*
X153047Y702480D01*
X155620Y705053D01*
X158981Y706445D01*
X162740Y706445D01*
X162830Y706459D01*
X162921Y706467D01*
X162950Y706479D01*
X162982Y706484D01*
X163063Y706527D01*
X163147Y706563D01*
X163158Y706572D01*
X183846Y706572D01*
X183866Y706555D01*
X183896Y706543D01*
X183922Y706524D01*
X184009Y706497D01*
X184094Y706463D01*
X184135Y706459D01*
X184157Y706452D01*
X184189Y706453D01*
X184260Y706445D01*
X188019Y706445D01*
X191380Y705053D01*
X193953Y702480D01*
X195345Y699119D01*
X195345Y695481D01*
X193953Y692120D01*
X191380Y689547D01*
X190548Y689203D01*
X190512Y689181D01*
X190473Y689167D01*
X190409Y689117D01*
X190339Y689073D01*
X190312Y689041D01*
X190279Y689015D01*
X190201Y688908D01*
X190196Y688903D01*
X189194Y688635D01*
X189165Y688622D01*
X189099Y688603D01*
X188019Y688155D01*
X187504Y688155D01*
X187489Y688153D01*
X187473Y688155D01*
X187307Y688129D01*
X186636Y687949D01*
X181317Y686524D01*
X181212Y686477D01*
X181107Y686432D01*
X181099Y686426D01*
X181093Y686423D01*
X181076Y686408D01*
X180976Y686327D01*
X129464Y634815D01*
X91679Y634815D01*
X91589Y634801D01*
X91498Y634793D01*
X91468Y634781D01*
X91436Y634776D01*
X91356Y634733D01*
X91272Y634697D01*
X91240Y634671D01*
X91219Y634660D01*
X91197Y634637D01*
X91141Y634592D01*
X44773Y588224D01*
X44706Y588132D01*
X44637Y588039D01*
X44633Y588030D01*
X44629Y588025D01*
X44623Y588004D01*
X44576Y587883D01*
X43098Y582367D01*
X43096Y582351D01*
X43090Y582337D01*
X43072Y582170D01*
X43072Y557414D01*
X43055Y557394D01*
X43043Y557364D01*
X43024Y557338D01*
X42997Y557251D01*
X42963Y557166D01*
X42959Y557125D01*
X42952Y557103D01*
X42953Y557071D01*
X42945Y557000D01*
X42945Y555781D01*
X41553Y552420D01*
X38980Y549847D01*
X35619Y548455D01*
X31981Y548455D01*
G37*
%LPD*%
%LPC*%
G36*
X411981Y548455D02*
X411981Y548455D01*
X408620Y549847D01*
X406047Y552420D01*
X405703Y553252D01*
X405681Y553287D01*
X405667Y553327D01*
X405616Y553391D01*
X405573Y553461D01*
X405541Y553488D01*
X405515Y553520D01*
X405404Y553602D01*
X405135Y554606D01*
X405122Y554635D01*
X405103Y554701D01*
X404655Y555781D01*
X404655Y556296D01*
X404653Y556311D01*
X404655Y556327D01*
X404629Y556493D01*
X404450Y557164D01*
X404449Y557164D01*
X403024Y562483D01*
X402977Y562588D01*
X402932Y562693D01*
X402926Y562701D01*
X402923Y562707D01*
X402908Y562724D01*
X402827Y562824D01*
X397035Y568616D01*
X397035Y615164D01*
X399639Y617768D01*
X404403Y622531D01*
X404414Y622547D01*
X404430Y622560D01*
X404486Y622647D01*
X404546Y622731D01*
X404552Y622750D01*
X404563Y622767D01*
X404588Y622867D01*
X404619Y622966D01*
X404618Y622986D01*
X404623Y623005D01*
X404615Y623108D01*
X404612Y623212D01*
X404605Y623231D01*
X404604Y623250D01*
X404563Y623345D01*
X404528Y623441D01*
X404528Y631446D01*
X404545Y631466D01*
X404557Y631496D01*
X404576Y631522D01*
X404603Y631609D01*
X404637Y631694D01*
X404641Y631735D01*
X404648Y631757D01*
X404647Y631789D01*
X404655Y631860D01*
X404655Y635619D01*
X406047Y638980D01*
X408620Y641553D01*
X411981Y642945D01*
X415619Y642945D01*
X418980Y641553D01*
X421553Y638980D01*
X422945Y635619D01*
X422945Y631860D01*
X422959Y631770D01*
X422967Y631679D01*
X422979Y631650D01*
X422984Y631618D01*
X423027Y631537D01*
X423063Y631453D01*
X423072Y631442D01*
X423072Y631260D01*
X423077Y631229D01*
X423078Y631161D01*
X423256Y629813D01*
X423275Y629750D01*
X423284Y629685D01*
X423317Y629609D01*
X423327Y629577D01*
X423338Y629562D01*
X423351Y629532D01*
X424699Y627197D01*
X424757Y627127D01*
X424783Y627084D01*
X424809Y627061D01*
X424842Y627018D01*
X424850Y627012D01*
X424855Y627007D01*
X424874Y626995D01*
X424961Y626931D01*
X424969Y626924D01*
X424973Y626922D01*
X424977Y626919D01*
X427312Y625571D01*
X427373Y625548D01*
X427430Y625516D01*
X427511Y625496D01*
X427542Y625484D01*
X427561Y625483D01*
X427593Y625476D01*
X428941Y625298D01*
X428972Y625299D01*
X429040Y625292D01*
X430496Y625292D01*
X430516Y625275D01*
X430546Y625263D01*
X430572Y625244D01*
X430659Y625217D01*
X430744Y625183D01*
X430785Y625179D01*
X430807Y625172D01*
X430839Y625173D01*
X430910Y625165D01*
X440562Y625165D01*
X440652Y625179D01*
X440743Y625187D01*
X440772Y625199D01*
X440804Y625204D01*
X440885Y625247D01*
X440969Y625283D01*
X441001Y625309D01*
X441022Y625320D01*
X441044Y625343D01*
X441100Y625388D01*
X465261Y649549D01*
X486985Y649549D01*
X487075Y649563D01*
X487166Y649571D01*
X487196Y649583D01*
X487228Y649588D01*
X487308Y649631D01*
X487392Y649667D01*
X487424Y649693D01*
X487445Y649704D01*
X487467Y649727D01*
X487523Y649772D01*
X529827Y692076D01*
X529894Y692168D01*
X529963Y692261D01*
X529967Y692270D01*
X529971Y692275D01*
X529977Y692296D01*
X530024Y692417D01*
X531449Y697736D01*
X531629Y698407D01*
X531631Y698423D01*
X531637Y698438D01*
X531655Y698604D01*
X531655Y699119D01*
X532103Y700199D01*
X532110Y700230D01*
X532135Y700294D01*
X532404Y701300D01*
X532412Y701307D01*
X532450Y701326D01*
X532507Y701384D01*
X532571Y701436D01*
X532593Y701471D01*
X532622Y701501D01*
X532697Y701638D01*
X532701Y701644D01*
X532702Y701646D01*
X532703Y701648D01*
X533047Y702480D01*
X535620Y705053D01*
X538981Y706445D01*
X542740Y706445D01*
X542830Y706459D01*
X542921Y706467D01*
X542950Y706479D01*
X542982Y706484D01*
X543063Y706527D01*
X543147Y706563D01*
X543158Y706572D01*
X563846Y706572D01*
X563866Y706555D01*
X563896Y706543D01*
X563922Y706524D01*
X564009Y706497D01*
X564094Y706463D01*
X564135Y706459D01*
X564157Y706452D01*
X564189Y706453D01*
X564260Y706445D01*
X568019Y706445D01*
X571380Y705053D01*
X573953Y702480D01*
X575345Y699119D01*
X575345Y695481D01*
X573953Y692120D01*
X571380Y689547D01*
X570548Y689203D01*
X570513Y689181D01*
X570473Y689167D01*
X570409Y689116D01*
X570339Y689073D01*
X570312Y689041D01*
X570280Y689015D01*
X570201Y688908D01*
X570196Y688903D01*
X569194Y688635D01*
X569165Y688622D01*
X569099Y688603D01*
X568019Y688155D01*
X567504Y688155D01*
X567489Y688153D01*
X567473Y688155D01*
X567307Y688129D01*
X566636Y687949D01*
X561317Y686524D01*
X561212Y686477D01*
X561107Y686432D01*
X561099Y686426D01*
X561093Y686423D01*
X561076Y686408D01*
X560976Y686327D01*
X512068Y637419D01*
X509464Y634815D01*
X471679Y634815D01*
X471589Y634801D01*
X471498Y634793D01*
X471468Y634781D01*
X471436Y634776D01*
X471356Y634733D01*
X471272Y634697D01*
X471240Y634671D01*
X471219Y634660D01*
X471197Y634637D01*
X471141Y634592D01*
X424773Y588224D01*
X424706Y588132D01*
X424637Y588039D01*
X424633Y588030D01*
X424629Y588025D01*
X424623Y588004D01*
X424576Y587883D01*
X423098Y582367D01*
X423096Y582351D01*
X423090Y582337D01*
X423072Y582170D01*
X423072Y557414D01*
X423055Y557394D01*
X423043Y557364D01*
X423024Y557338D01*
X422997Y557251D01*
X422963Y557166D01*
X422959Y557125D01*
X422952Y557103D01*
X422953Y557071D01*
X422945Y557000D01*
X422945Y555781D01*
X421553Y552420D01*
X418980Y549847D01*
X415619Y548455D01*
X411981Y548455D01*
G37*
%LPD*%
%LPC*%
G36*
X31981Y798455D02*
X31981Y798455D01*
X28620Y799847D01*
X26047Y802420D01*
X25703Y803252D01*
X25681Y803287D01*
X25667Y803327D01*
X25616Y803391D01*
X25573Y803461D01*
X25541Y803488D01*
X25515Y803520D01*
X25404Y803602D01*
X25135Y804606D01*
X25122Y804635D01*
X25103Y804701D01*
X24655Y805781D01*
X24655Y806296D01*
X24653Y806311D01*
X24655Y806327D01*
X24629Y806493D01*
X24449Y807164D01*
X23024Y812483D01*
X22977Y812588D01*
X22932Y812693D01*
X22926Y812701D01*
X22923Y812707D01*
X22908Y812723D01*
X22827Y812824D01*
X22328Y813324D01*
X17035Y818616D01*
X17035Y865164D01*
X19639Y867768D01*
X24403Y872531D01*
X24414Y872547D01*
X24430Y872560D01*
X24486Y872647D01*
X24546Y872731D01*
X24552Y872750D01*
X24563Y872767D01*
X24588Y872867D01*
X24619Y872966D01*
X24618Y872986D01*
X24623Y873005D01*
X24615Y873108D01*
X24612Y873212D01*
X24605Y873231D01*
X24604Y873250D01*
X24563Y873345D01*
X24528Y873441D01*
X24528Y881446D01*
X24545Y881466D01*
X24557Y881496D01*
X24576Y881522D01*
X24603Y881609D01*
X24637Y881694D01*
X24641Y881735D01*
X24648Y881757D01*
X24647Y881789D01*
X24655Y881860D01*
X24655Y885619D01*
X26047Y888980D01*
X28620Y891553D01*
X31981Y892945D01*
X35619Y892945D01*
X38980Y891553D01*
X41553Y888980D01*
X42945Y885619D01*
X42945Y881860D01*
X42959Y881770D01*
X42967Y881679D01*
X42979Y881650D01*
X42984Y881618D01*
X43027Y881537D01*
X43063Y881453D01*
X43072Y881442D01*
X43072Y881260D01*
X43077Y881229D01*
X43078Y881161D01*
X43256Y879813D01*
X43275Y879750D01*
X43284Y879685D01*
X43317Y879609D01*
X43327Y879577D01*
X43338Y879562D01*
X43351Y879532D01*
X44699Y877197D01*
X44757Y877127D01*
X44783Y877084D01*
X44809Y877061D01*
X44842Y877018D01*
X44850Y877012D01*
X44855Y877007D01*
X44874Y876995D01*
X44961Y876931D01*
X44969Y876924D01*
X44973Y876922D01*
X44977Y876919D01*
X47312Y875571D01*
X47373Y875548D01*
X47430Y875516D01*
X47511Y875496D01*
X47542Y875484D01*
X47561Y875483D01*
X47593Y875476D01*
X48941Y875298D01*
X48972Y875299D01*
X49040Y875292D01*
X50496Y875292D01*
X50516Y875275D01*
X50546Y875263D01*
X50572Y875244D01*
X50659Y875217D01*
X50744Y875183D01*
X50785Y875179D01*
X50807Y875172D01*
X50839Y875173D01*
X50910Y875165D01*
X60562Y875165D01*
X60652Y875179D01*
X60743Y875187D01*
X60772Y875199D01*
X60804Y875204D01*
X60885Y875247D01*
X60969Y875283D01*
X61001Y875309D01*
X61022Y875320D01*
X61044Y875343D01*
X61100Y875388D01*
X85261Y899549D01*
X106985Y899549D01*
X107075Y899563D01*
X107166Y899571D01*
X107196Y899583D01*
X107228Y899588D01*
X107308Y899631D01*
X107392Y899667D01*
X107424Y899693D01*
X107445Y899704D01*
X107467Y899727D01*
X107523Y899772D01*
X149827Y942076D01*
X149894Y942168D01*
X149963Y942261D01*
X149967Y942270D01*
X149971Y942275D01*
X149977Y942296D01*
X150024Y942417D01*
X151629Y948407D01*
X151631Y948423D01*
X151637Y948438D01*
X151655Y948604D01*
X151655Y949119D01*
X152103Y950199D01*
X152110Y950230D01*
X152135Y950294D01*
X152404Y951300D01*
X152413Y951307D01*
X152450Y951326D01*
X152507Y951384D01*
X152571Y951436D01*
X152593Y951471D01*
X152622Y951501D01*
X152697Y951638D01*
X152701Y951644D01*
X152702Y951646D01*
X152703Y951648D01*
X153047Y952480D01*
X155620Y955053D01*
X158981Y956445D01*
X162740Y956445D01*
X162830Y956459D01*
X162921Y956467D01*
X162950Y956479D01*
X162982Y956484D01*
X163063Y956527D01*
X163147Y956563D01*
X163158Y956572D01*
X183846Y956572D01*
X183866Y956555D01*
X183896Y956543D01*
X183922Y956524D01*
X184009Y956497D01*
X184094Y956463D01*
X184135Y956459D01*
X184157Y956452D01*
X184189Y956453D01*
X184260Y956445D01*
X188019Y956445D01*
X191380Y955053D01*
X193953Y952480D01*
X195345Y949119D01*
X195345Y945481D01*
X193953Y942120D01*
X191380Y939547D01*
X190548Y939203D01*
X190513Y939181D01*
X190473Y939167D01*
X190409Y939116D01*
X190339Y939073D01*
X190312Y939041D01*
X190280Y939015D01*
X190201Y938908D01*
X190196Y938903D01*
X189194Y938635D01*
X189165Y938622D01*
X189099Y938603D01*
X188019Y938155D01*
X187504Y938155D01*
X187489Y938153D01*
X187473Y938155D01*
X187307Y938129D01*
X186636Y937949D01*
X181317Y936524D01*
X181212Y936477D01*
X181107Y936432D01*
X181099Y936426D01*
X181093Y936423D01*
X181076Y936408D01*
X180976Y936327D01*
X132068Y887419D01*
X129464Y884815D01*
X91679Y884815D01*
X91589Y884801D01*
X91498Y884793D01*
X91468Y884781D01*
X91436Y884776D01*
X91356Y884733D01*
X91272Y884697D01*
X91240Y884671D01*
X91219Y884660D01*
X91197Y884637D01*
X91141Y884592D01*
X44773Y838224D01*
X44706Y838132D01*
X44637Y838039D01*
X44633Y838030D01*
X44629Y838025D01*
X44623Y838004D01*
X44576Y837883D01*
X43098Y832367D01*
X43096Y832351D01*
X43090Y832336D01*
X43072Y832170D01*
X43072Y807414D01*
X43055Y807394D01*
X43043Y807364D01*
X43024Y807338D01*
X42997Y807251D01*
X42963Y807166D01*
X42959Y807125D01*
X42952Y807103D01*
X42953Y807071D01*
X42945Y807000D01*
X42945Y805781D01*
X41553Y802420D01*
X38980Y799847D01*
X35619Y798455D01*
X31981Y798455D01*
G37*
%LPD*%
%LPC*%
G36*
X411981Y798455D02*
X411981Y798455D01*
X408620Y799847D01*
X406047Y802420D01*
X405703Y803252D01*
X405681Y803287D01*
X405667Y803327D01*
X405616Y803391D01*
X405573Y803461D01*
X405541Y803488D01*
X405515Y803520D01*
X405404Y803602D01*
X405135Y804606D01*
X405122Y804635D01*
X405103Y804701D01*
X404655Y805781D01*
X404655Y806296D01*
X404653Y806311D01*
X404655Y806327D01*
X404629Y806493D01*
X404450Y807164D01*
X404449Y807164D01*
X403024Y812483D01*
X402977Y812588D01*
X402932Y812693D01*
X402926Y812701D01*
X402923Y812707D01*
X402908Y812724D01*
X402827Y812824D01*
X397035Y818616D01*
X397035Y865164D01*
X399639Y867768D01*
X404403Y872531D01*
X404414Y872547D01*
X404430Y872560D01*
X404486Y872647D01*
X404546Y872731D01*
X404552Y872750D01*
X404563Y872767D01*
X404588Y872867D01*
X404619Y872966D01*
X404618Y872986D01*
X404623Y873005D01*
X404615Y873108D01*
X404612Y873212D01*
X404605Y873231D01*
X404604Y873250D01*
X404563Y873345D01*
X404528Y873441D01*
X404528Y881446D01*
X404545Y881466D01*
X404557Y881496D01*
X404576Y881522D01*
X404603Y881609D01*
X404637Y881694D01*
X404641Y881735D01*
X404648Y881757D01*
X404647Y881789D01*
X404655Y881860D01*
X404655Y885619D01*
X406047Y888980D01*
X408620Y891553D01*
X411981Y892945D01*
X415619Y892945D01*
X418980Y891553D01*
X421553Y888980D01*
X422945Y885619D01*
X422945Y881860D01*
X422959Y881770D01*
X422967Y881679D01*
X422979Y881650D01*
X422984Y881618D01*
X423027Y881537D01*
X423063Y881453D01*
X423072Y881442D01*
X423072Y881260D01*
X423077Y881229D01*
X423078Y881161D01*
X423256Y879813D01*
X423275Y879750D01*
X423284Y879685D01*
X423317Y879609D01*
X423327Y879577D01*
X423338Y879562D01*
X423351Y879532D01*
X424699Y877197D01*
X424757Y877126D01*
X424783Y877084D01*
X424808Y877061D01*
X424842Y877018D01*
X424850Y877012D01*
X424855Y877007D01*
X424873Y876995D01*
X424961Y876931D01*
X424969Y876924D01*
X424973Y876922D01*
X424977Y876919D01*
X427312Y875571D01*
X427373Y875548D01*
X427430Y875516D01*
X427511Y875496D01*
X427542Y875484D01*
X427561Y875483D01*
X427593Y875476D01*
X428941Y875298D01*
X428972Y875299D01*
X429040Y875292D01*
X430496Y875292D01*
X430516Y875275D01*
X430546Y875263D01*
X430572Y875244D01*
X430659Y875217D01*
X430744Y875183D01*
X430785Y875179D01*
X430807Y875172D01*
X430839Y875173D01*
X430910Y875165D01*
X440562Y875165D01*
X440652Y875179D01*
X440743Y875187D01*
X440772Y875199D01*
X440804Y875204D01*
X440885Y875247D01*
X440969Y875283D01*
X441001Y875309D01*
X441022Y875320D01*
X441044Y875343D01*
X441100Y875388D01*
X465261Y899549D01*
X486985Y899549D01*
X487075Y899563D01*
X487166Y899571D01*
X487196Y899583D01*
X487228Y899588D01*
X487308Y899631D01*
X487392Y899667D01*
X487424Y899693D01*
X487445Y899704D01*
X487467Y899727D01*
X487523Y899772D01*
X529328Y941576D01*
X529827Y942076D01*
X529894Y942169D01*
X529963Y942261D01*
X529967Y942270D01*
X529971Y942275D01*
X529977Y942297D01*
X530024Y942417D01*
X531449Y947736D01*
X531629Y948407D01*
X531631Y948423D01*
X531637Y948438D01*
X531655Y948604D01*
X531655Y949119D01*
X532103Y950199D01*
X532110Y950230D01*
X532135Y950294D01*
X532404Y951300D01*
X532412Y951307D01*
X532450Y951326D01*
X532507Y951384D01*
X532571Y951436D01*
X532593Y951471D01*
X532622Y951501D01*
X532697Y951638D01*
X532701Y951644D01*
X532702Y951646D01*
X532703Y951648D01*
X533047Y952480D01*
X535620Y955053D01*
X538981Y956445D01*
X542740Y956445D01*
X542830Y956459D01*
X542921Y956467D01*
X542950Y956479D01*
X542982Y956484D01*
X543063Y956527D01*
X543147Y956563D01*
X543158Y956572D01*
X563846Y956572D01*
X563866Y956555D01*
X563896Y956543D01*
X563922Y956524D01*
X564009Y956497D01*
X564094Y956463D01*
X564135Y956459D01*
X564157Y956452D01*
X564189Y956453D01*
X564260Y956445D01*
X568019Y956445D01*
X571380Y955053D01*
X573953Y952480D01*
X575345Y949119D01*
X575345Y945481D01*
X573953Y942120D01*
X571380Y939547D01*
X570548Y939203D01*
X570513Y939181D01*
X570473Y939167D01*
X570409Y939116D01*
X570339Y939073D01*
X570312Y939041D01*
X570280Y939015D01*
X570201Y938908D01*
X570196Y938903D01*
X569194Y938635D01*
X569165Y938622D01*
X569099Y938603D01*
X568019Y938155D01*
X567504Y938155D01*
X567489Y938153D01*
X567473Y938155D01*
X567307Y938129D01*
X566636Y937949D01*
X561317Y936524D01*
X561212Y936477D01*
X561107Y936432D01*
X561099Y936426D01*
X561093Y936423D01*
X561076Y936408D01*
X560976Y936327D01*
X512068Y887419D01*
X509464Y884815D01*
X471679Y884815D01*
X471589Y884801D01*
X471498Y884793D01*
X471468Y884781D01*
X471436Y884776D01*
X471356Y884733D01*
X471272Y884697D01*
X471240Y884671D01*
X471219Y884660D01*
X471197Y884637D01*
X471141Y884592D01*
X424773Y838224D01*
X424706Y838132D01*
X424637Y838039D01*
X424633Y838030D01*
X424629Y838025D01*
X424623Y838004D01*
X424576Y837883D01*
X423098Y832367D01*
X423096Y832351D01*
X423090Y832336D01*
X423072Y832170D01*
X423072Y807414D01*
X423055Y807394D01*
X423043Y807364D01*
X423024Y807338D01*
X422997Y807251D01*
X422963Y807166D01*
X422959Y807125D01*
X422952Y807103D01*
X422953Y807071D01*
X422945Y807000D01*
X422945Y805781D01*
X421553Y802420D01*
X418980Y799847D01*
X415619Y798455D01*
X411981Y798455D01*
G37*
%LPD*%
%LPC*%
G36*
X532969Y761371D02*
X532969Y761371D01*
X532926Y761414D01*
X532892Y761439D01*
X532863Y761471D01*
X532792Y761511D01*
X532727Y761558D01*
X532686Y761570D01*
X532648Y761591D01*
X532569Y761606D01*
X532492Y761630D01*
X532449Y761629D01*
X532407Y761637D01*
X532257Y761624D01*
X532246Y761624D01*
X532243Y761623D01*
X532240Y761623D01*
X531923Y761560D01*
X531923Y768438D01*
X531920Y768458D01*
X531922Y768477D01*
X531900Y768579D01*
X531883Y768681D01*
X531874Y768698D01*
X531870Y768718D01*
X531817Y768807D01*
X531768Y768898D01*
X531754Y768912D01*
X531744Y768929D01*
X531665Y768996D01*
X531590Y769067D01*
X531572Y769076D01*
X531557Y769089D01*
X531461Y769127D01*
X531367Y769171D01*
X531347Y769173D01*
X531329Y769181D01*
X531162Y769199D01*
X530399Y769199D01*
X530399Y769962D01*
X530396Y769982D01*
X530398Y770001D01*
X530376Y770103D01*
X530359Y770205D01*
X530350Y770222D01*
X530346Y770242D01*
X530293Y770331D01*
X530244Y770422D01*
X530230Y770436D01*
X530220Y770453D01*
X530141Y770520D01*
X530066Y770591D01*
X530048Y770600D01*
X530033Y770613D01*
X529937Y770652D01*
X529843Y770695D01*
X529823Y770697D01*
X529805Y770705D01*
X529638Y770723D01*
X522760Y770723D01*
X522823Y771040D01*
X522824Y771082D01*
X522834Y771124D01*
X522828Y771204D01*
X522831Y771285D01*
X522819Y771326D01*
X522815Y771369D01*
X522784Y771443D01*
X522760Y771521D01*
X522736Y771556D01*
X522719Y771595D01*
X522625Y771713D01*
X522619Y771722D01*
X522617Y771723D01*
X522614Y771726D01*
X522511Y771829D01*
X522511Y774054D01*
X522509Y774070D01*
X522510Y774084D01*
X522496Y774149D01*
X522489Y774235D01*
X522477Y774265D01*
X522472Y774297D01*
X522459Y774321D01*
X522458Y774324D01*
X522449Y774340D01*
X522429Y774377D01*
X522393Y774461D01*
X522367Y774493D01*
X522356Y774514D01*
X522333Y774536D01*
X522288Y774592D01*
X520238Y776642D01*
X520164Y776695D01*
X520095Y776755D01*
X520065Y776767D01*
X520038Y776786D01*
X519952Y776813D01*
X519867Y776847D01*
X519826Y776851D01*
X519803Y776858D01*
X519771Y776857D01*
X519700Y776865D01*
X481534Y776865D01*
X481444Y776851D01*
X481353Y776843D01*
X481323Y776831D01*
X481291Y776826D01*
X481210Y776783D01*
X481127Y776747D01*
X481094Y776721D01*
X481074Y776710D01*
X481052Y776687D01*
X480996Y776642D01*
X480093Y775739D01*
X477292Y774579D01*
X462068Y774579D01*
X459267Y775739D01*
X457123Y777883D01*
X455963Y780684D01*
X455963Y783716D01*
X457123Y786517D01*
X459267Y788661D01*
X462068Y789821D01*
X477292Y789821D01*
X480220Y788608D01*
X480333Y788581D01*
X480447Y788553D01*
X480453Y788553D01*
X480459Y788552D01*
X480576Y788563D01*
X480692Y788572D01*
X480698Y788574D01*
X480704Y788575D01*
X480812Y788623D01*
X480918Y788668D01*
X480924Y788673D01*
X480929Y788675D01*
X480943Y788688D01*
X481049Y788773D01*
X489268Y796992D01*
X489321Y797066D01*
X489381Y797135D01*
X489393Y797166D01*
X489412Y797192D01*
X489439Y797279D01*
X489473Y797364D01*
X489477Y797404D01*
X489484Y797427D01*
X489483Y797459D01*
X489491Y797530D01*
X489491Y818872D01*
X490342Y820926D01*
X491914Y822498D01*
X493968Y823349D01*
X496192Y823349D01*
X498246Y822498D01*
X499818Y820926D01*
X500669Y818872D01*
X500669Y793788D01*
X499818Y791734D01*
X497426Y789342D01*
X497384Y789284D01*
X497335Y789232D01*
X497313Y789185D01*
X497282Y789143D01*
X497261Y789074D01*
X497231Y789009D01*
X497225Y788957D01*
X497210Y788907D01*
X497212Y788836D01*
X497204Y788765D01*
X497215Y788714D01*
X497216Y788662D01*
X497241Y788594D01*
X497256Y788524D01*
X497283Y788479D01*
X497301Y788431D01*
X497346Y788375D01*
X497382Y788313D01*
X497422Y788279D01*
X497455Y788239D01*
X497515Y788200D01*
X497569Y788153D01*
X497618Y788134D01*
X497661Y788106D01*
X497731Y788088D01*
X497797Y788061D01*
X497869Y788053D01*
X497900Y788045D01*
X497923Y788047D01*
X497964Y788043D01*
X727451Y788043D01*
X727541Y788057D01*
X727632Y788065D01*
X727662Y788077D01*
X727694Y788082D01*
X727774Y788125D01*
X727858Y788161D01*
X727890Y788187D01*
X727911Y788198D01*
X727933Y788221D01*
X727989Y788266D01*
X729930Y790207D01*
X733291Y791599D01*
X736929Y791599D01*
X740290Y790207D01*
X742863Y787634D01*
X744255Y784273D01*
X744255Y780635D01*
X742863Y777274D01*
X740290Y774701D01*
X736929Y773309D01*
X733291Y773309D01*
X729930Y774701D01*
X727989Y776642D01*
X727915Y776695D01*
X727846Y776755D01*
X727816Y776767D01*
X727789Y776786D01*
X727702Y776813D01*
X727618Y776847D01*
X727577Y776851D01*
X727554Y776858D01*
X727522Y776857D01*
X727451Y776865D01*
X630970Y776865D01*
X630950Y776862D01*
X630931Y776864D01*
X630829Y776842D01*
X630727Y776826D01*
X630710Y776816D01*
X630690Y776812D01*
X630601Y776759D01*
X630510Y776710D01*
X630496Y776696D01*
X630479Y776686D01*
X630412Y776607D01*
X630340Y776532D01*
X630332Y776514D01*
X630319Y776499D01*
X630280Y776403D01*
X630237Y776309D01*
X630235Y776289D01*
X630227Y776271D01*
X630209Y776104D01*
X630209Y766749D01*
X624831Y761371D01*
X532969Y761371D01*
G37*
%LPD*%
%LPC*%
G36*
X152969Y511371D02*
X152969Y511371D01*
X152926Y511414D01*
X152892Y511439D01*
X152863Y511471D01*
X152792Y511511D01*
X152727Y511558D01*
X152686Y511570D01*
X152648Y511591D01*
X152569Y511606D01*
X152492Y511630D01*
X152449Y511629D01*
X152407Y511637D01*
X152257Y511624D01*
X152246Y511624D01*
X152243Y511623D01*
X152240Y511623D01*
X151923Y511560D01*
X151923Y518438D01*
X151920Y518458D01*
X151922Y518477D01*
X151900Y518579D01*
X151883Y518681D01*
X151874Y518698D01*
X151870Y518718D01*
X151817Y518807D01*
X151768Y518898D01*
X151754Y518912D01*
X151744Y518929D01*
X151665Y518996D01*
X151590Y519067D01*
X151572Y519076D01*
X151557Y519089D01*
X151461Y519127D01*
X151367Y519171D01*
X151347Y519173D01*
X151329Y519181D01*
X151162Y519199D01*
X150399Y519199D01*
X150399Y519962D01*
X150396Y519982D01*
X150398Y520001D01*
X150376Y520103D01*
X150359Y520205D01*
X150350Y520222D01*
X150346Y520242D01*
X150293Y520331D01*
X150244Y520422D01*
X150230Y520436D01*
X150220Y520453D01*
X150141Y520520D01*
X150066Y520591D01*
X150048Y520600D01*
X150033Y520613D01*
X149937Y520652D01*
X149843Y520695D01*
X149823Y520697D01*
X149805Y520705D01*
X149638Y520723D01*
X142760Y520723D01*
X142823Y521040D01*
X142824Y521082D01*
X142834Y521124D01*
X142828Y521204D01*
X142831Y521285D01*
X142819Y521326D01*
X142815Y521369D01*
X142784Y521444D01*
X142761Y521521D01*
X142736Y521556D01*
X142719Y521595D01*
X142625Y521713D01*
X142619Y521722D01*
X142617Y521723D01*
X142614Y521726D01*
X142511Y521829D01*
X142511Y524054D01*
X142509Y524070D01*
X142510Y524084D01*
X142496Y524149D01*
X142489Y524235D01*
X142477Y524265D01*
X142472Y524297D01*
X142459Y524321D01*
X142458Y524324D01*
X142449Y524340D01*
X142429Y524377D01*
X142393Y524461D01*
X142367Y524493D01*
X142356Y524514D01*
X142333Y524536D01*
X142288Y524592D01*
X140238Y526642D01*
X140164Y526695D01*
X140095Y526755D01*
X140065Y526767D01*
X140038Y526786D01*
X139952Y526813D01*
X139867Y526847D01*
X139826Y526851D01*
X139803Y526858D01*
X139771Y526857D01*
X139700Y526865D01*
X101534Y526865D01*
X101444Y526851D01*
X101353Y526843D01*
X101323Y526831D01*
X101291Y526826D01*
X101211Y526783D01*
X101127Y526747D01*
X101094Y526721D01*
X101074Y526710D01*
X101052Y526687D01*
X100996Y526642D01*
X100093Y525739D01*
X97292Y524579D01*
X82068Y524579D01*
X79267Y525739D01*
X77123Y527883D01*
X75963Y530684D01*
X75963Y533716D01*
X77123Y536517D01*
X79267Y538661D01*
X82068Y539821D01*
X97292Y539821D01*
X100220Y538608D01*
X100333Y538581D01*
X100447Y538553D01*
X100453Y538553D01*
X100459Y538552D01*
X100576Y538563D01*
X100692Y538572D01*
X100698Y538574D01*
X100704Y538575D01*
X100812Y538623D01*
X100918Y538668D01*
X100924Y538673D01*
X100929Y538675D01*
X100943Y538688D01*
X101049Y538773D01*
X109268Y546992D01*
X109321Y547066D01*
X109381Y547135D01*
X109393Y547166D01*
X109412Y547192D01*
X109439Y547279D01*
X109473Y547364D01*
X109477Y547404D01*
X109484Y547427D01*
X109483Y547459D01*
X109491Y547530D01*
X109491Y568872D01*
X110342Y570926D01*
X111914Y572498D01*
X113968Y573349D01*
X116192Y573349D01*
X118246Y572498D01*
X119818Y570926D01*
X120669Y568872D01*
X120669Y543788D01*
X119818Y541734D01*
X117426Y539342D01*
X117384Y539284D01*
X117335Y539232D01*
X117313Y539185D01*
X117282Y539143D01*
X117261Y539074D01*
X117231Y539009D01*
X117225Y538957D01*
X117210Y538907D01*
X117212Y538836D01*
X117204Y538765D01*
X117215Y538714D01*
X117216Y538662D01*
X117241Y538594D01*
X117256Y538524D01*
X117283Y538479D01*
X117301Y538431D01*
X117346Y538375D01*
X117382Y538313D01*
X117422Y538279D01*
X117455Y538239D01*
X117515Y538200D01*
X117569Y538153D01*
X117618Y538134D01*
X117661Y538106D01*
X117731Y538088D01*
X117797Y538061D01*
X117869Y538053D01*
X117900Y538045D01*
X117923Y538047D01*
X117964Y538043D01*
X347451Y538043D01*
X347541Y538057D01*
X347632Y538065D01*
X347662Y538077D01*
X347694Y538082D01*
X347774Y538125D01*
X347858Y538161D01*
X347890Y538187D01*
X347911Y538198D01*
X347933Y538221D01*
X347989Y538266D01*
X349930Y540207D01*
X353291Y541599D01*
X356929Y541599D01*
X360290Y540207D01*
X362863Y537634D01*
X364255Y534273D01*
X364255Y530635D01*
X362863Y527274D01*
X360290Y524701D01*
X356929Y523309D01*
X353291Y523309D01*
X349930Y524701D01*
X347989Y526642D01*
X347915Y526695D01*
X347846Y526755D01*
X347816Y526767D01*
X347789Y526786D01*
X347702Y526813D01*
X347618Y526847D01*
X347577Y526851D01*
X347554Y526858D01*
X347522Y526857D01*
X347451Y526865D01*
X250970Y526865D01*
X250950Y526862D01*
X250931Y526864D01*
X250829Y526842D01*
X250727Y526826D01*
X250710Y526816D01*
X250690Y526812D01*
X250601Y526759D01*
X250510Y526710D01*
X250496Y526696D01*
X250479Y526686D01*
X250412Y526607D01*
X250340Y526532D01*
X250332Y526514D01*
X250319Y526499D01*
X250280Y526403D01*
X250237Y526309D01*
X250235Y526289D01*
X250227Y526271D01*
X250209Y526104D01*
X250209Y516749D01*
X244831Y511371D01*
X152969Y511371D01*
G37*
%LPD*%
%LPC*%
G36*
X532969Y511371D02*
X532969Y511371D01*
X532926Y511414D01*
X532892Y511439D01*
X532863Y511471D01*
X532792Y511511D01*
X532727Y511558D01*
X532686Y511570D01*
X532648Y511591D01*
X532569Y511606D01*
X532492Y511630D01*
X532449Y511629D01*
X532407Y511637D01*
X532257Y511624D01*
X532246Y511624D01*
X532243Y511623D01*
X532240Y511623D01*
X531923Y511560D01*
X531923Y518438D01*
X531920Y518458D01*
X531922Y518477D01*
X531900Y518579D01*
X531883Y518681D01*
X531874Y518698D01*
X531870Y518718D01*
X531817Y518807D01*
X531768Y518898D01*
X531754Y518912D01*
X531744Y518929D01*
X531665Y518996D01*
X531590Y519067D01*
X531572Y519076D01*
X531557Y519089D01*
X531461Y519127D01*
X531367Y519171D01*
X531347Y519173D01*
X531329Y519181D01*
X531162Y519199D01*
X530399Y519199D01*
X530399Y519962D01*
X530396Y519982D01*
X530398Y520001D01*
X530376Y520103D01*
X530359Y520205D01*
X530350Y520222D01*
X530346Y520242D01*
X530293Y520331D01*
X530244Y520422D01*
X530230Y520436D01*
X530220Y520453D01*
X530141Y520520D01*
X530066Y520591D01*
X530048Y520600D01*
X530033Y520613D01*
X529937Y520652D01*
X529843Y520695D01*
X529823Y520697D01*
X529805Y520705D01*
X529638Y520723D01*
X522760Y520723D01*
X522823Y521040D01*
X522824Y521082D01*
X522834Y521124D01*
X522828Y521204D01*
X522831Y521285D01*
X522819Y521326D01*
X522815Y521369D01*
X522784Y521443D01*
X522760Y521521D01*
X522736Y521556D01*
X522719Y521595D01*
X522625Y521713D01*
X522619Y521722D01*
X522617Y521723D01*
X522614Y521726D01*
X522511Y521829D01*
X522511Y524054D01*
X522509Y524070D01*
X522510Y524084D01*
X522496Y524149D01*
X522489Y524235D01*
X522477Y524265D01*
X522472Y524297D01*
X522459Y524321D01*
X522458Y524324D01*
X522449Y524340D01*
X522429Y524377D01*
X522393Y524461D01*
X522367Y524493D01*
X522356Y524514D01*
X522333Y524536D01*
X522288Y524592D01*
X520238Y526642D01*
X520164Y526695D01*
X520095Y526755D01*
X520065Y526767D01*
X520038Y526786D01*
X519952Y526813D01*
X519867Y526847D01*
X519826Y526851D01*
X519803Y526858D01*
X519771Y526857D01*
X519700Y526865D01*
X481534Y526865D01*
X481444Y526851D01*
X481353Y526843D01*
X481323Y526831D01*
X481291Y526826D01*
X481211Y526783D01*
X481127Y526747D01*
X481094Y526721D01*
X481074Y526710D01*
X481052Y526687D01*
X480996Y526642D01*
X480093Y525739D01*
X477292Y524579D01*
X462068Y524579D01*
X459267Y525739D01*
X457123Y527883D01*
X455963Y530684D01*
X455963Y533716D01*
X457123Y536517D01*
X459267Y538661D01*
X462068Y539821D01*
X477292Y539821D01*
X480220Y538608D01*
X480334Y538581D01*
X480447Y538553D01*
X480453Y538553D01*
X480459Y538552D01*
X480576Y538563D01*
X480692Y538572D01*
X480698Y538574D01*
X480704Y538575D01*
X480811Y538623D01*
X480918Y538668D01*
X480924Y538673D01*
X480929Y538675D01*
X480943Y538688D01*
X481049Y538773D01*
X489268Y546992D01*
X489321Y547066D01*
X489381Y547135D01*
X489393Y547166D01*
X489412Y547192D01*
X489439Y547279D01*
X489473Y547364D01*
X489477Y547404D01*
X489484Y547427D01*
X489483Y547459D01*
X489491Y547530D01*
X489491Y568872D01*
X490342Y570926D01*
X491914Y572498D01*
X493968Y573349D01*
X496192Y573349D01*
X498246Y572498D01*
X499818Y570926D01*
X500669Y568872D01*
X500669Y543788D01*
X499818Y541734D01*
X497426Y539342D01*
X497384Y539284D01*
X497335Y539232D01*
X497313Y539185D01*
X497282Y539143D01*
X497261Y539074D01*
X497231Y539009D01*
X497225Y538957D01*
X497210Y538907D01*
X497212Y538836D01*
X497204Y538765D01*
X497215Y538714D01*
X497216Y538662D01*
X497241Y538594D01*
X497256Y538524D01*
X497283Y538479D01*
X497301Y538431D01*
X497346Y538375D01*
X497382Y538313D01*
X497422Y538279D01*
X497455Y538239D01*
X497515Y538200D01*
X497569Y538153D01*
X497618Y538134D01*
X497661Y538106D01*
X497731Y538088D01*
X497797Y538061D01*
X497869Y538053D01*
X497900Y538045D01*
X497923Y538047D01*
X497964Y538043D01*
X727451Y538043D01*
X727541Y538057D01*
X727632Y538065D01*
X727662Y538077D01*
X727694Y538082D01*
X727774Y538125D01*
X727858Y538161D01*
X727890Y538187D01*
X727911Y538198D01*
X727933Y538221D01*
X727989Y538266D01*
X729930Y540207D01*
X733291Y541599D01*
X736929Y541599D01*
X740290Y540207D01*
X742863Y537634D01*
X744255Y534273D01*
X744255Y530635D01*
X742863Y527274D01*
X740290Y524701D01*
X736929Y523309D01*
X733291Y523309D01*
X729930Y524701D01*
X727989Y526642D01*
X727915Y526695D01*
X727846Y526755D01*
X727816Y526767D01*
X727789Y526786D01*
X727702Y526813D01*
X727618Y526847D01*
X727577Y526851D01*
X727554Y526858D01*
X727522Y526857D01*
X727451Y526865D01*
X630970Y526865D01*
X630950Y526862D01*
X630931Y526864D01*
X630829Y526842D01*
X630727Y526826D01*
X630710Y526816D01*
X630690Y526812D01*
X630601Y526759D01*
X630510Y526710D01*
X630496Y526696D01*
X630479Y526686D01*
X630412Y526607D01*
X630340Y526532D01*
X630332Y526514D01*
X630319Y526499D01*
X630280Y526403D01*
X630237Y526309D01*
X630235Y526289D01*
X630227Y526271D01*
X630209Y526104D01*
X630209Y516749D01*
X624831Y511371D01*
X532969Y511371D01*
G37*
%LPD*%
%LPC*%
G36*
X152969Y761371D02*
X152969Y761371D01*
X152926Y761414D01*
X152892Y761439D01*
X152863Y761471D01*
X152792Y761511D01*
X152727Y761558D01*
X152686Y761570D01*
X152648Y761591D01*
X152569Y761606D01*
X152492Y761630D01*
X152449Y761629D01*
X152407Y761637D01*
X152257Y761624D01*
X152246Y761624D01*
X152243Y761623D01*
X152240Y761623D01*
X151923Y761560D01*
X151923Y768438D01*
X151920Y768458D01*
X151922Y768477D01*
X151900Y768579D01*
X151883Y768681D01*
X151874Y768698D01*
X151870Y768718D01*
X151817Y768807D01*
X151768Y768898D01*
X151754Y768912D01*
X151744Y768929D01*
X151665Y768996D01*
X151590Y769067D01*
X151572Y769076D01*
X151557Y769089D01*
X151461Y769127D01*
X151367Y769171D01*
X151347Y769173D01*
X151329Y769181D01*
X151162Y769199D01*
X150399Y769199D01*
X150399Y769962D01*
X150396Y769982D01*
X150398Y770001D01*
X150376Y770103D01*
X150359Y770205D01*
X150350Y770222D01*
X150346Y770242D01*
X150293Y770331D01*
X150244Y770422D01*
X150230Y770436D01*
X150220Y770453D01*
X150141Y770520D01*
X150066Y770591D01*
X150048Y770600D01*
X150033Y770613D01*
X149937Y770652D01*
X149843Y770695D01*
X149823Y770697D01*
X149805Y770705D01*
X149638Y770723D01*
X142760Y770723D01*
X142823Y771040D01*
X142824Y771082D01*
X142834Y771124D01*
X142828Y771204D01*
X142831Y771285D01*
X142819Y771326D01*
X142815Y771369D01*
X142784Y771444D01*
X142760Y771521D01*
X142736Y771556D01*
X142719Y771595D01*
X142625Y771713D01*
X142619Y771722D01*
X142617Y771723D01*
X142614Y771726D01*
X142511Y771829D01*
X142511Y774054D01*
X142509Y774070D01*
X142510Y774084D01*
X142496Y774149D01*
X142489Y774235D01*
X142477Y774265D01*
X142472Y774297D01*
X142459Y774321D01*
X142458Y774324D01*
X142449Y774340D01*
X142429Y774377D01*
X142393Y774461D01*
X142367Y774493D01*
X142356Y774514D01*
X142333Y774536D01*
X142288Y774592D01*
X140238Y776642D01*
X140164Y776695D01*
X140095Y776755D01*
X140065Y776767D01*
X140038Y776786D01*
X139952Y776813D01*
X139867Y776847D01*
X139826Y776851D01*
X139803Y776858D01*
X139771Y776857D01*
X139700Y776865D01*
X101534Y776865D01*
X101444Y776851D01*
X101353Y776843D01*
X101323Y776831D01*
X101291Y776826D01*
X101211Y776783D01*
X101127Y776747D01*
X101094Y776721D01*
X101074Y776710D01*
X101052Y776687D01*
X100996Y776642D01*
X100093Y775739D01*
X97292Y774579D01*
X82068Y774579D01*
X79267Y775739D01*
X77123Y777883D01*
X75963Y780684D01*
X75963Y783716D01*
X77123Y786517D01*
X79267Y788661D01*
X82068Y789821D01*
X97292Y789821D01*
X100220Y788608D01*
X100334Y788581D01*
X100447Y788553D01*
X100453Y788553D01*
X100459Y788552D01*
X100576Y788563D01*
X100692Y788572D01*
X100698Y788574D01*
X100704Y788575D01*
X100811Y788623D01*
X100918Y788668D01*
X100924Y788673D01*
X100929Y788675D01*
X100943Y788688D01*
X101049Y788773D01*
X109268Y796992D01*
X109321Y797066D01*
X109381Y797135D01*
X109393Y797166D01*
X109412Y797192D01*
X109439Y797279D01*
X109473Y797364D01*
X109477Y797404D01*
X109484Y797427D01*
X109483Y797459D01*
X109491Y797530D01*
X109491Y818872D01*
X110342Y820926D01*
X111914Y822498D01*
X113968Y823349D01*
X116192Y823349D01*
X118246Y822498D01*
X119818Y820926D01*
X120669Y818872D01*
X120669Y793788D01*
X119818Y791734D01*
X117426Y789342D01*
X117384Y789284D01*
X117335Y789232D01*
X117313Y789185D01*
X117282Y789143D01*
X117261Y789074D01*
X117231Y789009D01*
X117225Y788957D01*
X117210Y788907D01*
X117212Y788836D01*
X117204Y788765D01*
X117215Y788714D01*
X117216Y788662D01*
X117241Y788594D01*
X117256Y788524D01*
X117283Y788479D01*
X117301Y788431D01*
X117346Y788375D01*
X117382Y788313D01*
X117422Y788279D01*
X117455Y788239D01*
X117515Y788200D01*
X117569Y788153D01*
X117618Y788134D01*
X117661Y788106D01*
X117731Y788088D01*
X117797Y788061D01*
X117869Y788053D01*
X117900Y788045D01*
X117923Y788047D01*
X117964Y788043D01*
X347451Y788043D01*
X347541Y788057D01*
X347632Y788065D01*
X347662Y788077D01*
X347694Y788082D01*
X347774Y788125D01*
X347858Y788161D01*
X347890Y788187D01*
X347911Y788198D01*
X347933Y788221D01*
X347989Y788266D01*
X349930Y790207D01*
X353291Y791599D01*
X356929Y791599D01*
X360290Y790207D01*
X362863Y787634D01*
X364255Y784273D01*
X364255Y780635D01*
X362863Y777274D01*
X360290Y774701D01*
X356929Y773309D01*
X353291Y773309D01*
X349930Y774701D01*
X347989Y776642D01*
X347915Y776695D01*
X347846Y776755D01*
X347816Y776767D01*
X347789Y776786D01*
X347702Y776813D01*
X347618Y776847D01*
X347577Y776851D01*
X347554Y776858D01*
X347522Y776857D01*
X347451Y776865D01*
X250970Y776865D01*
X250950Y776862D01*
X250931Y776864D01*
X250829Y776842D01*
X250727Y776826D01*
X250710Y776816D01*
X250690Y776812D01*
X250601Y776759D01*
X250510Y776710D01*
X250496Y776696D01*
X250479Y776686D01*
X250412Y776607D01*
X250340Y776532D01*
X250332Y776514D01*
X250319Y776499D01*
X250280Y776403D01*
X250237Y776309D01*
X250235Y776289D01*
X250227Y776271D01*
X250209Y776104D01*
X250209Y766749D01*
X244831Y761371D01*
X152969Y761371D01*
G37*
%LPD*%
%LPC*%
G36*
X31981Y747655D02*
X31981Y747655D01*
X28620Y749047D01*
X26047Y751620D01*
X24655Y754981D01*
X24655Y758619D01*
X26047Y761980D01*
X28620Y764553D01*
X31981Y765945D01*
X35619Y765945D01*
X38980Y764553D01*
X40921Y762612D01*
X40995Y762559D01*
X41064Y762499D01*
X41094Y762487D01*
X41121Y762468D01*
X41208Y762441D01*
X41292Y762407D01*
X41333Y762403D01*
X41356Y762396D01*
X41388Y762397D01*
X41459Y762389D01*
X46410Y762389D01*
X46500Y762403D01*
X46591Y762411D01*
X46621Y762423D01*
X46652Y762428D01*
X46733Y762471D01*
X46817Y762507D01*
X46849Y762533D01*
X46870Y762544D01*
X46892Y762567D01*
X46948Y762612D01*
X55928Y771592D01*
X55981Y771666D01*
X56041Y771735D01*
X56053Y771766D01*
X56072Y771792D01*
X56099Y771879D01*
X56133Y771964D01*
X56137Y772004D01*
X56144Y772027D01*
X56143Y772059D01*
X56151Y772130D01*
X56151Y844272D01*
X57002Y846326D01*
X66194Y855518D01*
X68248Y856369D01*
X125150Y856369D01*
X125240Y856383D01*
X125331Y856391D01*
X125361Y856403D01*
X125392Y856408D01*
X125473Y856451D01*
X125557Y856487D01*
X125589Y856513D01*
X125610Y856524D01*
X125632Y856547D01*
X125688Y856592D01*
X195734Y926638D01*
X197788Y927489D01*
X221670Y927489D01*
X221760Y927503D01*
X221851Y927511D01*
X221881Y927523D01*
X221912Y927528D01*
X221993Y927571D01*
X222077Y927607D01*
X222109Y927633D01*
X222130Y927644D01*
X222152Y927667D01*
X222208Y927712D01*
X231188Y936692D01*
X231241Y936766D01*
X231301Y936835D01*
X231313Y936866D01*
X231332Y936892D01*
X231359Y936979D01*
X231393Y937064D01*
X231397Y937104D01*
X231404Y937127D01*
X231403Y937159D01*
X231411Y937230D01*
X231411Y939641D01*
X231397Y939731D01*
X231389Y939822D01*
X231377Y939852D01*
X231372Y939884D01*
X231329Y939964D01*
X231293Y940048D01*
X231267Y940080D01*
X231256Y940101D01*
X231233Y940123D01*
X231188Y940179D01*
X229247Y942120D01*
X227855Y945481D01*
X227855Y949119D01*
X229247Y952480D01*
X231820Y955053D01*
X235181Y956445D01*
X238819Y956445D01*
X242180Y955053D01*
X244753Y952480D01*
X246145Y949119D01*
X246145Y945481D01*
X244753Y942120D01*
X242812Y940179D01*
X242759Y940105D01*
X242699Y940036D01*
X242687Y940006D01*
X242668Y939979D01*
X242641Y939892D01*
X242607Y939808D01*
X242603Y939767D01*
X242596Y939744D01*
X242597Y939712D01*
X242589Y939641D01*
X242589Y933488D01*
X241738Y931434D01*
X227466Y917162D01*
X225412Y916311D01*
X201530Y916311D01*
X201440Y916297D01*
X201349Y916289D01*
X201319Y916277D01*
X201288Y916272D01*
X201207Y916229D01*
X201123Y916193D01*
X201091Y916167D01*
X201070Y916156D01*
X201048Y916133D01*
X200992Y916088D01*
X130946Y846042D01*
X128892Y845191D01*
X71990Y845191D01*
X71900Y845177D01*
X71809Y845169D01*
X71779Y845157D01*
X71748Y845152D01*
X71667Y845109D01*
X71583Y845073D01*
X71551Y845047D01*
X71530Y845036D01*
X71508Y845013D01*
X71452Y844968D01*
X67552Y841068D01*
X67499Y840994D01*
X67439Y840925D01*
X67427Y840894D01*
X67408Y840868D01*
X67381Y840781D01*
X67347Y840696D01*
X67343Y840656D01*
X67336Y840633D01*
X67337Y840601D01*
X67329Y840530D01*
X67329Y768388D01*
X66478Y766334D01*
X52206Y752062D01*
X50152Y751211D01*
X41459Y751211D01*
X41369Y751197D01*
X41278Y751189D01*
X41248Y751177D01*
X41216Y751172D01*
X41136Y751129D01*
X41052Y751093D01*
X41020Y751067D01*
X40999Y751056D01*
X40995Y751052D01*
X40976Y751032D01*
X40921Y750988D01*
X38980Y749047D01*
X35619Y747655D01*
X31981Y747655D01*
G37*
%LPD*%
%LPC*%
G36*
X411981Y747655D02*
X411981Y747655D01*
X408620Y749047D01*
X406047Y751620D01*
X404655Y754981D01*
X404655Y758619D01*
X406047Y761980D01*
X408620Y764553D01*
X411981Y765945D01*
X415619Y765945D01*
X418980Y764553D01*
X420921Y762612D01*
X420995Y762559D01*
X421064Y762499D01*
X421094Y762487D01*
X421121Y762468D01*
X421208Y762441D01*
X421292Y762407D01*
X421333Y762403D01*
X421356Y762396D01*
X421388Y762397D01*
X421459Y762389D01*
X426410Y762389D01*
X426500Y762403D01*
X426591Y762411D01*
X426621Y762423D01*
X426652Y762428D01*
X426733Y762471D01*
X426817Y762507D01*
X426849Y762533D01*
X426870Y762544D01*
X426892Y762567D01*
X426948Y762612D01*
X435928Y771592D01*
X435981Y771666D01*
X436041Y771735D01*
X436053Y771766D01*
X436072Y771792D01*
X436099Y771879D01*
X436133Y771964D01*
X436137Y772004D01*
X436144Y772027D01*
X436143Y772059D01*
X436151Y772130D01*
X436151Y844272D01*
X437002Y846326D01*
X446194Y855518D01*
X448248Y856369D01*
X505150Y856369D01*
X505240Y856383D01*
X505331Y856391D01*
X505361Y856403D01*
X505392Y856408D01*
X505473Y856451D01*
X505557Y856487D01*
X505589Y856513D01*
X505610Y856524D01*
X505632Y856547D01*
X505688Y856592D01*
X575734Y926638D01*
X577788Y927489D01*
X601670Y927489D01*
X601760Y927503D01*
X601851Y927511D01*
X601881Y927523D01*
X601912Y927528D01*
X601993Y927571D01*
X602077Y927607D01*
X602109Y927633D01*
X602130Y927644D01*
X602152Y927667D01*
X602208Y927712D01*
X611188Y936692D01*
X611241Y936766D01*
X611301Y936835D01*
X611313Y936866D01*
X611332Y936892D01*
X611359Y936979D01*
X611393Y937064D01*
X611397Y937104D01*
X611404Y937127D01*
X611403Y937159D01*
X611411Y937230D01*
X611411Y939641D01*
X611397Y939731D01*
X611389Y939822D01*
X611377Y939852D01*
X611372Y939884D01*
X611329Y939964D01*
X611293Y940048D01*
X611267Y940080D01*
X611256Y940101D01*
X611233Y940123D01*
X611188Y940179D01*
X609247Y942120D01*
X607855Y945481D01*
X607855Y949119D01*
X609247Y952480D01*
X611820Y955053D01*
X615181Y956445D01*
X618819Y956445D01*
X622180Y955053D01*
X624753Y952480D01*
X626145Y949119D01*
X626145Y945481D01*
X624753Y942120D01*
X622812Y940179D01*
X622759Y940105D01*
X622699Y940036D01*
X622687Y940006D01*
X622668Y939979D01*
X622641Y939892D01*
X622607Y939808D01*
X622603Y939767D01*
X622596Y939744D01*
X622597Y939712D01*
X622589Y939641D01*
X622589Y933488D01*
X621738Y931434D01*
X607466Y917162D01*
X605412Y916311D01*
X581530Y916311D01*
X581440Y916297D01*
X581349Y916289D01*
X581319Y916277D01*
X581288Y916272D01*
X581207Y916229D01*
X581123Y916193D01*
X581091Y916167D01*
X581070Y916156D01*
X581048Y916133D01*
X580992Y916088D01*
X510946Y846042D01*
X508892Y845191D01*
X451990Y845191D01*
X451900Y845177D01*
X451809Y845169D01*
X451779Y845157D01*
X451748Y845152D01*
X451667Y845109D01*
X451583Y845073D01*
X451551Y845047D01*
X451530Y845036D01*
X451508Y845013D01*
X451452Y844968D01*
X447552Y841068D01*
X447499Y840994D01*
X447439Y840925D01*
X447427Y840894D01*
X447408Y840868D01*
X447381Y840781D01*
X447347Y840696D01*
X447343Y840656D01*
X447336Y840633D01*
X447337Y840601D01*
X447329Y840530D01*
X447329Y768388D01*
X446478Y766334D01*
X432206Y752062D01*
X430152Y751211D01*
X421459Y751211D01*
X421369Y751197D01*
X421278Y751189D01*
X421248Y751177D01*
X421216Y751172D01*
X421136Y751129D01*
X421052Y751093D01*
X421020Y751067D01*
X420999Y751056D01*
X420995Y751052D01*
X420976Y751032D01*
X420921Y750988D01*
X418980Y749047D01*
X415619Y747655D01*
X411981Y747655D01*
G37*
%LPD*%
%LPC*%
G36*
X31981Y497655D02*
X31981Y497655D01*
X28620Y499047D01*
X26047Y501620D01*
X24655Y504981D01*
X24655Y508619D01*
X26047Y511980D01*
X28620Y514553D01*
X31981Y515945D01*
X35619Y515945D01*
X38980Y514553D01*
X40921Y512612D01*
X40995Y512559D01*
X41064Y512499D01*
X41094Y512487D01*
X41121Y512468D01*
X41208Y512441D01*
X41292Y512407D01*
X41333Y512403D01*
X41356Y512396D01*
X41388Y512397D01*
X41459Y512389D01*
X46410Y512389D01*
X46500Y512403D01*
X46591Y512411D01*
X46621Y512423D01*
X46652Y512428D01*
X46733Y512471D01*
X46817Y512507D01*
X46849Y512533D01*
X46870Y512544D01*
X46892Y512567D01*
X46948Y512612D01*
X55928Y521592D01*
X55981Y521666D01*
X56041Y521735D01*
X56053Y521766D01*
X56072Y521792D01*
X56099Y521879D01*
X56133Y521964D01*
X56137Y522004D01*
X56144Y522027D01*
X56143Y522059D01*
X56151Y522130D01*
X56151Y594272D01*
X57002Y596326D01*
X66194Y605518D01*
X68248Y606369D01*
X125150Y606369D01*
X125240Y606383D01*
X125331Y606391D01*
X125361Y606403D01*
X125392Y606408D01*
X125473Y606451D01*
X125557Y606487D01*
X125589Y606513D01*
X125610Y606524D01*
X125632Y606547D01*
X125688Y606592D01*
X195734Y676638D01*
X197788Y677489D01*
X221670Y677489D01*
X221760Y677503D01*
X221851Y677511D01*
X221881Y677523D01*
X221912Y677528D01*
X221993Y677571D01*
X222077Y677607D01*
X222109Y677633D01*
X222130Y677644D01*
X222152Y677667D01*
X222208Y677712D01*
X231188Y686692D01*
X231241Y686766D01*
X231301Y686835D01*
X231313Y686866D01*
X231332Y686892D01*
X231359Y686979D01*
X231393Y687064D01*
X231397Y687104D01*
X231404Y687127D01*
X231403Y687159D01*
X231411Y687230D01*
X231411Y689641D01*
X231397Y689731D01*
X231389Y689822D01*
X231377Y689852D01*
X231372Y689884D01*
X231329Y689964D01*
X231293Y690048D01*
X231267Y690080D01*
X231256Y690101D01*
X231233Y690123D01*
X231188Y690179D01*
X229247Y692120D01*
X227855Y695481D01*
X227855Y699119D01*
X229247Y702480D01*
X231820Y705053D01*
X235181Y706445D01*
X238819Y706445D01*
X242180Y705053D01*
X244753Y702480D01*
X246145Y699119D01*
X246145Y695481D01*
X244753Y692120D01*
X242812Y690179D01*
X242759Y690105D01*
X242699Y690036D01*
X242687Y690006D01*
X242668Y689979D01*
X242641Y689892D01*
X242607Y689808D01*
X242603Y689767D01*
X242596Y689744D01*
X242597Y689712D01*
X242589Y689641D01*
X242589Y683488D01*
X241738Y681434D01*
X227466Y667162D01*
X225412Y666311D01*
X201530Y666311D01*
X201440Y666297D01*
X201349Y666289D01*
X201319Y666277D01*
X201288Y666272D01*
X201207Y666229D01*
X201123Y666193D01*
X201091Y666167D01*
X201070Y666156D01*
X201048Y666133D01*
X200992Y666088D01*
X130946Y596042D01*
X128892Y595191D01*
X71990Y595191D01*
X71900Y595177D01*
X71809Y595169D01*
X71779Y595157D01*
X71748Y595152D01*
X71667Y595109D01*
X71583Y595073D01*
X71551Y595047D01*
X71530Y595036D01*
X71508Y595013D01*
X71452Y594968D01*
X67552Y591068D01*
X67499Y590994D01*
X67439Y590925D01*
X67427Y590894D01*
X67408Y590868D01*
X67381Y590781D01*
X67347Y590696D01*
X67343Y590656D01*
X67336Y590633D01*
X67337Y590601D01*
X67329Y590530D01*
X67329Y518388D01*
X66478Y516334D01*
X52206Y502062D01*
X50152Y501211D01*
X41459Y501211D01*
X41369Y501197D01*
X41278Y501189D01*
X41248Y501177D01*
X41216Y501172D01*
X41136Y501129D01*
X41052Y501093D01*
X41020Y501067D01*
X40999Y501056D01*
X40995Y501052D01*
X40976Y501032D01*
X40921Y500988D01*
X38980Y499047D01*
X35619Y497655D01*
X31981Y497655D01*
G37*
%LPD*%
%LPC*%
G36*
X411981Y497655D02*
X411981Y497655D01*
X408620Y499047D01*
X406047Y501620D01*
X404655Y504981D01*
X404655Y508619D01*
X406047Y511980D01*
X408620Y514553D01*
X411981Y515945D01*
X415619Y515945D01*
X418980Y514553D01*
X420921Y512612D01*
X420995Y512559D01*
X421064Y512499D01*
X421094Y512487D01*
X421121Y512468D01*
X421208Y512441D01*
X421292Y512407D01*
X421333Y512403D01*
X421356Y512396D01*
X421388Y512397D01*
X421459Y512389D01*
X426410Y512389D01*
X426500Y512403D01*
X426591Y512411D01*
X426621Y512423D01*
X426652Y512428D01*
X426733Y512471D01*
X426817Y512507D01*
X426849Y512533D01*
X426870Y512544D01*
X426892Y512567D01*
X426948Y512612D01*
X435928Y521592D01*
X435981Y521666D01*
X436041Y521735D01*
X436053Y521766D01*
X436072Y521792D01*
X436099Y521879D01*
X436133Y521964D01*
X436137Y522004D01*
X436144Y522027D01*
X436143Y522059D01*
X436151Y522130D01*
X436151Y594272D01*
X437002Y596326D01*
X446194Y605518D01*
X448248Y606369D01*
X505150Y606369D01*
X505240Y606383D01*
X505331Y606391D01*
X505361Y606403D01*
X505393Y606408D01*
X505473Y606451D01*
X505557Y606487D01*
X505589Y606513D01*
X505610Y606524D01*
X505632Y606547D01*
X505688Y606592D01*
X575734Y676638D01*
X577788Y677489D01*
X601670Y677489D01*
X601760Y677503D01*
X601851Y677511D01*
X601881Y677523D01*
X601912Y677528D01*
X601993Y677571D01*
X602077Y677607D01*
X602109Y677633D01*
X602130Y677644D01*
X602152Y677667D01*
X602208Y677712D01*
X611188Y686692D01*
X611241Y686766D01*
X611301Y686835D01*
X611313Y686865D01*
X611332Y686892D01*
X611359Y686979D01*
X611393Y687064D01*
X611397Y687104D01*
X611404Y687127D01*
X611403Y687159D01*
X611411Y687230D01*
X611411Y689641D01*
X611397Y689731D01*
X611389Y689822D01*
X611377Y689852D01*
X611372Y689884D01*
X611329Y689964D01*
X611293Y690048D01*
X611267Y690080D01*
X611256Y690101D01*
X611233Y690123D01*
X611188Y690179D01*
X609247Y692120D01*
X607855Y695481D01*
X607855Y699119D01*
X609247Y702480D01*
X611820Y705053D01*
X615181Y706445D01*
X618819Y706445D01*
X622180Y705053D01*
X624753Y702480D01*
X626145Y699119D01*
X626145Y695481D01*
X624753Y692120D01*
X622812Y690179D01*
X622759Y690105D01*
X622699Y690036D01*
X622687Y690006D01*
X622668Y689979D01*
X622641Y689892D01*
X622607Y689808D01*
X622603Y689767D01*
X622596Y689744D01*
X622597Y689712D01*
X622589Y689641D01*
X622589Y683488D01*
X621738Y681434D01*
X620059Y679755D01*
X607466Y667162D01*
X605412Y666311D01*
X581530Y666311D01*
X581440Y666297D01*
X581349Y666289D01*
X581319Y666277D01*
X581288Y666272D01*
X581207Y666229D01*
X581123Y666193D01*
X581091Y666167D01*
X581070Y666156D01*
X581048Y666133D01*
X580992Y666088D01*
X512625Y597721D01*
X510946Y596042D01*
X508892Y595191D01*
X451990Y595191D01*
X451900Y595177D01*
X451809Y595169D01*
X451779Y595157D01*
X451748Y595152D01*
X451667Y595109D01*
X451583Y595073D01*
X451551Y595047D01*
X451530Y595036D01*
X451508Y595013D01*
X451452Y594968D01*
X447552Y591068D01*
X447499Y590994D01*
X447439Y590925D01*
X447427Y590894D01*
X447408Y590868D01*
X447381Y590781D01*
X447347Y590696D01*
X447343Y590656D01*
X447336Y590633D01*
X447337Y590601D01*
X447329Y590530D01*
X447329Y518388D01*
X446478Y516334D01*
X432206Y502062D01*
X430152Y501211D01*
X421459Y501211D01*
X421369Y501197D01*
X421278Y501189D01*
X421248Y501177D01*
X421216Y501172D01*
X421136Y501129D01*
X421052Y501093D01*
X421020Y501067D01*
X420999Y501056D01*
X420995Y501052D01*
X420976Y501032D01*
X420921Y500988D01*
X418980Y499047D01*
X415619Y497655D01*
X411981Y497655D01*
G37*
%LPD*%
%LPC*%
G36*
X643344Y126517D02*
X643344Y126517D01*
X642897Y126964D01*
X642897Y144106D01*
X643344Y144553D01*
X664296Y144553D01*
X664831Y144018D01*
X664864Y143941D01*
X664884Y143919D01*
X664898Y143893D01*
X664966Y143829D01*
X665029Y143759D01*
X665055Y143744D01*
X665076Y143724D01*
X665161Y143684D01*
X665167Y143681D01*
X665167Y136632D01*
X665168Y136622D01*
X665168Y136618D01*
X665170Y136609D01*
X665168Y136593D01*
X665190Y136491D01*
X665207Y136389D01*
X665216Y136372D01*
X665220Y136352D01*
X665273Y136263D01*
X665322Y136172D01*
X665336Y136158D01*
X665346Y136141D01*
X665425Y136074D01*
X665500Y136003D01*
X665518Y135994D01*
X665533Y135981D01*
X665629Y135943D01*
X665723Y135899D01*
X665743Y135897D01*
X665761Y135889D01*
X665928Y135871D01*
X667452Y135871D01*
X667472Y135874D01*
X667491Y135872D01*
X667593Y135894D01*
X667695Y135911D01*
X667712Y135920D01*
X667732Y135924D01*
X667821Y135977D01*
X667912Y136026D01*
X667926Y136040D01*
X667943Y136050D01*
X668010Y136129D01*
X668081Y136204D01*
X668090Y136222D01*
X668103Y136237D01*
X668142Y136333D01*
X668185Y136427D01*
X668187Y136447D01*
X668195Y136465D01*
X668213Y136632D01*
X668213Y144022D01*
X668744Y144553D01*
X749386Y144553D01*
X749833Y144106D01*
X749833Y128234D01*
X749386Y127787D01*
X670014Y127787D01*
X669634Y128167D01*
X669599Y128192D01*
X669571Y128224D01*
X669500Y128264D01*
X669434Y128311D01*
X669393Y128323D01*
X669356Y128344D01*
X669276Y128359D01*
X669199Y128383D01*
X669156Y128382D01*
X669114Y128390D01*
X668964Y128377D01*
X668953Y128377D01*
X668951Y128376D01*
X668947Y128376D01*
X668213Y128230D01*
X668213Y135108D01*
X668210Y135128D01*
X668212Y135147D01*
X668190Y135249D01*
X668173Y135351D01*
X668164Y135368D01*
X668160Y135388D01*
X668107Y135477D01*
X668058Y135568D01*
X668044Y135582D01*
X668034Y135599D01*
X667955Y135666D01*
X667880Y135737D01*
X667862Y135746D01*
X667847Y135759D01*
X667751Y135797D01*
X667657Y135841D01*
X667637Y135843D01*
X667619Y135851D01*
X667452Y135869D01*
X665928Y135869D01*
X665908Y135866D01*
X665889Y135868D01*
X665787Y135846D01*
X665685Y135829D01*
X665668Y135820D01*
X665648Y135816D01*
X665559Y135763D01*
X665468Y135714D01*
X665454Y135700D01*
X665437Y135690D01*
X665370Y135611D01*
X665299Y135536D01*
X665290Y135518D01*
X665277Y135503D01*
X665238Y135407D01*
X665195Y135313D01*
X665193Y135293D01*
X665185Y135275D01*
X665167Y135108D01*
X665167Y128068D01*
X665094Y128017D01*
X665013Y127968D01*
X664994Y127946D01*
X664970Y127929D01*
X664915Y127853D01*
X664853Y127781D01*
X664842Y127754D01*
X664825Y127730D01*
X664797Y127641D01*
X664761Y127553D01*
X664757Y127516D01*
X664751Y127496D01*
X664751Y127463D01*
X664743Y127386D01*
X664743Y126964D01*
X664296Y126517D01*
X643344Y126517D01*
G37*
%LPD*%
%LPC*%
G36*
X643344Y306517D02*
X643344Y306517D01*
X642897Y306964D01*
X642897Y324106D01*
X643344Y324553D01*
X664296Y324553D01*
X664831Y324018D01*
X664864Y323941D01*
X664884Y323919D01*
X664898Y323893D01*
X664966Y323829D01*
X665029Y323759D01*
X665055Y323744D01*
X665076Y323724D01*
X665161Y323684D01*
X665167Y323681D01*
X665167Y316632D01*
X665168Y316622D01*
X665168Y316618D01*
X665170Y316609D01*
X665168Y316593D01*
X665190Y316491D01*
X665207Y316389D01*
X665216Y316372D01*
X665220Y316352D01*
X665273Y316263D01*
X665322Y316172D01*
X665336Y316158D01*
X665346Y316141D01*
X665425Y316074D01*
X665500Y316003D01*
X665518Y315994D01*
X665533Y315981D01*
X665629Y315943D01*
X665723Y315899D01*
X665743Y315897D01*
X665761Y315889D01*
X665928Y315871D01*
X667452Y315871D01*
X667472Y315874D01*
X667491Y315872D01*
X667593Y315894D01*
X667695Y315911D01*
X667712Y315920D01*
X667732Y315924D01*
X667821Y315977D01*
X667912Y316026D01*
X667926Y316040D01*
X667943Y316050D01*
X668010Y316129D01*
X668081Y316204D01*
X668090Y316222D01*
X668103Y316237D01*
X668142Y316333D01*
X668185Y316427D01*
X668187Y316447D01*
X668195Y316465D01*
X668213Y316632D01*
X668213Y324022D01*
X668744Y324553D01*
X749386Y324553D01*
X749833Y324106D01*
X749833Y308234D01*
X749386Y307787D01*
X670014Y307787D01*
X669634Y308167D01*
X669599Y308192D01*
X669571Y308224D01*
X669500Y308264D01*
X669434Y308311D01*
X669393Y308323D01*
X669356Y308344D01*
X669276Y308359D01*
X669199Y308383D01*
X669156Y308382D01*
X669114Y308390D01*
X668964Y308377D01*
X668953Y308377D01*
X668951Y308376D01*
X668947Y308376D01*
X668213Y308230D01*
X668213Y315108D01*
X668210Y315128D01*
X668212Y315147D01*
X668190Y315249D01*
X668173Y315351D01*
X668164Y315368D01*
X668160Y315388D01*
X668107Y315477D01*
X668058Y315568D01*
X668044Y315582D01*
X668034Y315599D01*
X667955Y315666D01*
X667880Y315737D01*
X667862Y315746D01*
X667847Y315759D01*
X667751Y315797D01*
X667657Y315841D01*
X667637Y315843D01*
X667619Y315851D01*
X667452Y315869D01*
X665928Y315869D01*
X665908Y315866D01*
X665889Y315868D01*
X665787Y315846D01*
X665685Y315829D01*
X665668Y315820D01*
X665648Y315816D01*
X665559Y315763D01*
X665468Y315714D01*
X665454Y315700D01*
X665437Y315690D01*
X665370Y315611D01*
X665299Y315536D01*
X665290Y315518D01*
X665277Y315503D01*
X665238Y315407D01*
X665195Y315313D01*
X665193Y315293D01*
X665185Y315275D01*
X665167Y315108D01*
X665167Y308068D01*
X665094Y308017D01*
X665013Y307968D01*
X664994Y307946D01*
X664970Y307929D01*
X664915Y307853D01*
X664853Y307781D01*
X664842Y307754D01*
X664825Y307730D01*
X664797Y307641D01*
X664761Y307553D01*
X664757Y307516D01*
X664751Y307496D01*
X664751Y307463D01*
X664743Y307386D01*
X664743Y306964D01*
X664296Y306517D01*
X643344Y306517D01*
G37*
%LPD*%
%LPC*%
G36*
X263344Y126517D02*
X263344Y126517D01*
X262897Y126964D01*
X262897Y144106D01*
X263344Y144553D01*
X284296Y144553D01*
X284831Y144018D01*
X284864Y143941D01*
X284884Y143919D01*
X284898Y143893D01*
X284966Y143829D01*
X285029Y143759D01*
X285055Y143744D01*
X285076Y143724D01*
X285161Y143684D01*
X285167Y143681D01*
X285167Y136632D01*
X285168Y136622D01*
X285168Y136618D01*
X285170Y136609D01*
X285168Y136593D01*
X285190Y136491D01*
X285207Y136389D01*
X285216Y136372D01*
X285220Y136352D01*
X285273Y136263D01*
X285322Y136172D01*
X285336Y136158D01*
X285346Y136141D01*
X285425Y136074D01*
X285500Y136003D01*
X285518Y135994D01*
X285533Y135981D01*
X285629Y135943D01*
X285723Y135899D01*
X285743Y135897D01*
X285761Y135889D01*
X285928Y135871D01*
X287452Y135871D01*
X287472Y135874D01*
X287491Y135872D01*
X287593Y135894D01*
X287695Y135911D01*
X287712Y135920D01*
X287732Y135924D01*
X287821Y135977D01*
X287912Y136026D01*
X287926Y136040D01*
X287943Y136050D01*
X288010Y136129D01*
X288081Y136204D01*
X288090Y136222D01*
X288103Y136237D01*
X288142Y136333D01*
X288185Y136427D01*
X288187Y136447D01*
X288195Y136465D01*
X288213Y136632D01*
X288213Y144022D01*
X288744Y144553D01*
X369386Y144553D01*
X369833Y144106D01*
X369833Y128234D01*
X369386Y127787D01*
X290014Y127787D01*
X289634Y128167D01*
X289599Y128192D01*
X289571Y128224D01*
X289500Y128264D01*
X289434Y128311D01*
X289393Y128323D01*
X289356Y128344D01*
X289276Y128359D01*
X289199Y128383D01*
X289156Y128382D01*
X289114Y128390D01*
X288964Y128377D01*
X288953Y128377D01*
X288951Y128376D01*
X288947Y128376D01*
X288213Y128230D01*
X288213Y135108D01*
X288210Y135128D01*
X288212Y135147D01*
X288190Y135249D01*
X288173Y135351D01*
X288164Y135368D01*
X288160Y135388D01*
X288107Y135477D01*
X288058Y135568D01*
X288044Y135582D01*
X288034Y135599D01*
X287955Y135666D01*
X287880Y135737D01*
X287862Y135746D01*
X287847Y135759D01*
X287751Y135797D01*
X287657Y135841D01*
X287637Y135843D01*
X287619Y135851D01*
X287452Y135869D01*
X285928Y135869D01*
X285908Y135866D01*
X285889Y135868D01*
X285787Y135846D01*
X285685Y135829D01*
X285668Y135820D01*
X285648Y135816D01*
X285559Y135763D01*
X285468Y135714D01*
X285454Y135700D01*
X285437Y135690D01*
X285370Y135611D01*
X285299Y135536D01*
X285290Y135518D01*
X285277Y135503D01*
X285238Y135407D01*
X285195Y135313D01*
X285193Y135293D01*
X285185Y135275D01*
X285167Y135108D01*
X285167Y128068D01*
X285094Y128017D01*
X285013Y127968D01*
X284994Y127946D01*
X284970Y127929D01*
X284915Y127853D01*
X284853Y127781D01*
X284842Y127754D01*
X284825Y127730D01*
X284797Y127641D01*
X284761Y127553D01*
X284757Y127516D01*
X284751Y127496D01*
X284751Y127463D01*
X284743Y127386D01*
X284743Y126964D01*
X284296Y126517D01*
X263344Y126517D01*
G37*
%LPD*%
%LPC*%
G36*
X453344Y126517D02*
X453344Y126517D01*
X452897Y126964D01*
X452897Y144106D01*
X453344Y144553D01*
X474296Y144553D01*
X474831Y144018D01*
X474864Y143941D01*
X474884Y143919D01*
X474898Y143893D01*
X474966Y143829D01*
X475029Y143759D01*
X475055Y143744D01*
X475076Y143724D01*
X475161Y143684D01*
X475167Y143681D01*
X475167Y136632D01*
X475168Y136622D01*
X475168Y136618D01*
X475170Y136609D01*
X475168Y136593D01*
X475190Y136491D01*
X475207Y136389D01*
X475216Y136372D01*
X475220Y136352D01*
X475273Y136263D01*
X475322Y136172D01*
X475336Y136158D01*
X475346Y136141D01*
X475425Y136074D01*
X475500Y136003D01*
X475518Y135994D01*
X475533Y135981D01*
X475629Y135943D01*
X475723Y135899D01*
X475743Y135897D01*
X475761Y135889D01*
X475928Y135871D01*
X477452Y135871D01*
X477472Y135874D01*
X477491Y135872D01*
X477593Y135894D01*
X477695Y135911D01*
X477712Y135920D01*
X477732Y135924D01*
X477821Y135977D01*
X477912Y136026D01*
X477926Y136040D01*
X477943Y136050D01*
X478010Y136129D01*
X478081Y136204D01*
X478090Y136222D01*
X478103Y136237D01*
X478142Y136333D01*
X478185Y136427D01*
X478187Y136447D01*
X478195Y136465D01*
X478213Y136632D01*
X478213Y144022D01*
X478744Y144553D01*
X559386Y144553D01*
X559833Y144106D01*
X559833Y128234D01*
X559386Y127787D01*
X480014Y127787D01*
X479634Y128167D01*
X479599Y128192D01*
X479571Y128224D01*
X479500Y128264D01*
X479434Y128311D01*
X479393Y128323D01*
X479356Y128344D01*
X479276Y128359D01*
X479199Y128383D01*
X479156Y128382D01*
X479114Y128390D01*
X478964Y128377D01*
X478953Y128377D01*
X478951Y128376D01*
X478947Y128376D01*
X478213Y128230D01*
X478213Y135108D01*
X478210Y135128D01*
X478212Y135147D01*
X478190Y135249D01*
X478173Y135351D01*
X478164Y135368D01*
X478160Y135388D01*
X478107Y135477D01*
X478058Y135568D01*
X478044Y135582D01*
X478034Y135599D01*
X477955Y135666D01*
X477880Y135737D01*
X477862Y135746D01*
X477847Y135759D01*
X477751Y135797D01*
X477657Y135841D01*
X477637Y135843D01*
X477619Y135851D01*
X477452Y135869D01*
X475928Y135869D01*
X475908Y135866D01*
X475889Y135868D01*
X475787Y135846D01*
X475685Y135829D01*
X475668Y135820D01*
X475648Y135816D01*
X475559Y135763D01*
X475468Y135714D01*
X475454Y135700D01*
X475437Y135690D01*
X475370Y135611D01*
X475299Y135536D01*
X475290Y135518D01*
X475277Y135503D01*
X475238Y135407D01*
X475195Y135313D01*
X475193Y135293D01*
X475185Y135275D01*
X475167Y135108D01*
X475167Y128068D01*
X475094Y128017D01*
X475013Y127968D01*
X474994Y127946D01*
X474970Y127929D01*
X474915Y127853D01*
X474853Y127781D01*
X474842Y127754D01*
X474825Y127730D01*
X474797Y127641D01*
X474761Y127553D01*
X474757Y127516D01*
X474751Y127496D01*
X474751Y127463D01*
X474743Y127386D01*
X474743Y126964D01*
X474296Y126517D01*
X453344Y126517D01*
G37*
%LPD*%
%LPC*%
G36*
X73344Y126517D02*
X73344Y126517D01*
X72897Y126964D01*
X72897Y144106D01*
X73344Y144553D01*
X94296Y144553D01*
X94831Y144018D01*
X94864Y143941D01*
X94884Y143919D01*
X94898Y143893D01*
X94966Y143829D01*
X95029Y143759D01*
X95055Y143744D01*
X95076Y143724D01*
X95161Y143684D01*
X95167Y143681D01*
X95167Y136632D01*
X95168Y136622D01*
X95168Y136618D01*
X95170Y136609D01*
X95168Y136593D01*
X95190Y136491D01*
X95207Y136389D01*
X95216Y136372D01*
X95220Y136352D01*
X95273Y136263D01*
X95322Y136172D01*
X95336Y136158D01*
X95346Y136141D01*
X95425Y136074D01*
X95500Y136003D01*
X95518Y135994D01*
X95533Y135981D01*
X95629Y135943D01*
X95723Y135899D01*
X95743Y135897D01*
X95761Y135889D01*
X95928Y135871D01*
X97452Y135871D01*
X97472Y135874D01*
X97491Y135872D01*
X97593Y135894D01*
X97695Y135911D01*
X97712Y135920D01*
X97732Y135924D01*
X97821Y135977D01*
X97912Y136026D01*
X97926Y136040D01*
X97943Y136050D01*
X98010Y136129D01*
X98081Y136204D01*
X98090Y136222D01*
X98103Y136237D01*
X98142Y136333D01*
X98185Y136427D01*
X98187Y136447D01*
X98195Y136465D01*
X98213Y136632D01*
X98213Y144022D01*
X98744Y144553D01*
X179386Y144553D01*
X179833Y144106D01*
X179833Y128234D01*
X179386Y127787D01*
X100014Y127787D01*
X99634Y128167D01*
X99599Y128192D01*
X99571Y128224D01*
X99500Y128264D01*
X99434Y128311D01*
X99393Y128323D01*
X99356Y128344D01*
X99276Y128359D01*
X99199Y128383D01*
X99156Y128382D01*
X99114Y128390D01*
X98964Y128377D01*
X98953Y128377D01*
X98951Y128376D01*
X98947Y128376D01*
X98213Y128230D01*
X98213Y135108D01*
X98210Y135128D01*
X98212Y135147D01*
X98190Y135249D01*
X98173Y135351D01*
X98164Y135368D01*
X98160Y135388D01*
X98107Y135477D01*
X98058Y135568D01*
X98044Y135582D01*
X98034Y135599D01*
X97955Y135666D01*
X97880Y135737D01*
X97862Y135746D01*
X97847Y135759D01*
X97751Y135797D01*
X97657Y135841D01*
X97637Y135843D01*
X97619Y135851D01*
X97452Y135869D01*
X95928Y135869D01*
X95908Y135866D01*
X95889Y135868D01*
X95787Y135846D01*
X95685Y135829D01*
X95668Y135820D01*
X95648Y135816D01*
X95559Y135763D01*
X95468Y135714D01*
X95454Y135700D01*
X95437Y135690D01*
X95370Y135611D01*
X95299Y135536D01*
X95290Y135518D01*
X95277Y135503D01*
X95238Y135407D01*
X95195Y135313D01*
X95193Y135293D01*
X95185Y135275D01*
X95167Y135108D01*
X95167Y128068D01*
X95094Y128017D01*
X95013Y127968D01*
X94994Y127946D01*
X94970Y127929D01*
X94915Y127853D01*
X94853Y127781D01*
X94842Y127754D01*
X94825Y127730D01*
X94797Y127641D01*
X94761Y127553D01*
X94757Y127516D01*
X94751Y127496D01*
X94751Y127463D01*
X94743Y127386D01*
X94743Y126964D01*
X94296Y126517D01*
X73344Y126517D01*
G37*
%LPD*%
%LPC*%
G36*
X453344Y306517D02*
X453344Y306517D01*
X452897Y306964D01*
X452897Y324106D01*
X453344Y324553D01*
X474296Y324553D01*
X474831Y324018D01*
X474864Y323941D01*
X474884Y323919D01*
X474898Y323893D01*
X474966Y323829D01*
X475029Y323759D01*
X475055Y323744D01*
X475076Y323724D01*
X475161Y323684D01*
X475167Y323681D01*
X475167Y316632D01*
X475168Y316622D01*
X475168Y316618D01*
X475170Y316609D01*
X475168Y316593D01*
X475190Y316491D01*
X475207Y316389D01*
X475216Y316372D01*
X475220Y316352D01*
X475273Y316263D01*
X475322Y316172D01*
X475336Y316158D01*
X475346Y316141D01*
X475425Y316074D01*
X475500Y316003D01*
X475518Y315994D01*
X475533Y315981D01*
X475629Y315943D01*
X475723Y315899D01*
X475743Y315897D01*
X475761Y315889D01*
X475928Y315871D01*
X477452Y315871D01*
X477472Y315874D01*
X477491Y315872D01*
X477593Y315894D01*
X477695Y315911D01*
X477712Y315920D01*
X477732Y315924D01*
X477821Y315977D01*
X477912Y316026D01*
X477926Y316040D01*
X477943Y316050D01*
X478010Y316129D01*
X478081Y316204D01*
X478090Y316222D01*
X478103Y316237D01*
X478142Y316333D01*
X478185Y316427D01*
X478187Y316447D01*
X478195Y316465D01*
X478213Y316632D01*
X478213Y324022D01*
X478744Y324553D01*
X559386Y324553D01*
X559833Y324106D01*
X559833Y308234D01*
X559386Y307787D01*
X480014Y307787D01*
X479634Y308167D01*
X479599Y308192D01*
X479571Y308224D01*
X479500Y308264D01*
X479434Y308311D01*
X479393Y308323D01*
X479356Y308344D01*
X479276Y308359D01*
X479199Y308383D01*
X479156Y308382D01*
X479114Y308390D01*
X478964Y308377D01*
X478953Y308377D01*
X478951Y308376D01*
X478947Y308376D01*
X478213Y308230D01*
X478213Y315108D01*
X478210Y315128D01*
X478212Y315147D01*
X478190Y315249D01*
X478173Y315351D01*
X478164Y315368D01*
X478160Y315388D01*
X478107Y315477D01*
X478058Y315568D01*
X478044Y315582D01*
X478034Y315599D01*
X477955Y315666D01*
X477880Y315737D01*
X477862Y315746D01*
X477847Y315759D01*
X477751Y315797D01*
X477657Y315841D01*
X477637Y315843D01*
X477619Y315851D01*
X477452Y315869D01*
X475928Y315869D01*
X475908Y315866D01*
X475889Y315868D01*
X475787Y315846D01*
X475685Y315829D01*
X475668Y315820D01*
X475648Y315816D01*
X475559Y315763D01*
X475468Y315714D01*
X475454Y315700D01*
X475437Y315690D01*
X475370Y315611D01*
X475299Y315536D01*
X475290Y315518D01*
X475277Y315503D01*
X475238Y315407D01*
X475195Y315313D01*
X475193Y315293D01*
X475185Y315275D01*
X475167Y315108D01*
X475167Y308068D01*
X475094Y308017D01*
X475013Y307968D01*
X474994Y307946D01*
X474970Y307929D01*
X474915Y307853D01*
X474853Y307781D01*
X474842Y307754D01*
X474825Y307730D01*
X474797Y307641D01*
X474761Y307553D01*
X474757Y307516D01*
X474751Y307496D01*
X474751Y307463D01*
X474743Y307386D01*
X474743Y306964D01*
X474296Y306517D01*
X453344Y306517D01*
G37*
%LPD*%
%LPC*%
G36*
X73344Y306517D02*
X73344Y306517D01*
X72897Y306964D01*
X72897Y324106D01*
X73344Y324553D01*
X94296Y324553D01*
X94831Y324018D01*
X94864Y323941D01*
X94884Y323919D01*
X94898Y323893D01*
X94966Y323829D01*
X95029Y323759D01*
X95055Y323744D01*
X95076Y323724D01*
X95161Y323684D01*
X95167Y323681D01*
X95167Y316632D01*
X95168Y316622D01*
X95168Y316618D01*
X95170Y316609D01*
X95168Y316593D01*
X95190Y316491D01*
X95207Y316389D01*
X95216Y316372D01*
X95220Y316352D01*
X95273Y316263D01*
X95322Y316172D01*
X95336Y316158D01*
X95346Y316141D01*
X95425Y316074D01*
X95500Y316003D01*
X95518Y315994D01*
X95533Y315981D01*
X95629Y315943D01*
X95723Y315899D01*
X95743Y315897D01*
X95761Y315889D01*
X95928Y315871D01*
X97452Y315871D01*
X97472Y315874D01*
X97491Y315872D01*
X97593Y315894D01*
X97695Y315911D01*
X97712Y315920D01*
X97732Y315924D01*
X97821Y315977D01*
X97912Y316026D01*
X97926Y316040D01*
X97943Y316050D01*
X98010Y316129D01*
X98081Y316204D01*
X98090Y316222D01*
X98103Y316237D01*
X98142Y316333D01*
X98185Y316427D01*
X98187Y316447D01*
X98195Y316465D01*
X98213Y316632D01*
X98213Y324022D01*
X98744Y324553D01*
X179386Y324553D01*
X179833Y324106D01*
X179833Y308234D01*
X179386Y307787D01*
X100014Y307787D01*
X99634Y308167D01*
X99599Y308192D01*
X99571Y308224D01*
X99500Y308264D01*
X99434Y308311D01*
X99393Y308323D01*
X99356Y308344D01*
X99276Y308359D01*
X99199Y308383D01*
X99156Y308382D01*
X99114Y308390D01*
X98964Y308377D01*
X98953Y308377D01*
X98951Y308376D01*
X98947Y308376D01*
X98213Y308230D01*
X98213Y315108D01*
X98210Y315128D01*
X98212Y315147D01*
X98190Y315249D01*
X98173Y315351D01*
X98164Y315368D01*
X98160Y315388D01*
X98107Y315477D01*
X98058Y315568D01*
X98044Y315582D01*
X98034Y315599D01*
X97955Y315666D01*
X97880Y315737D01*
X97862Y315746D01*
X97847Y315759D01*
X97751Y315797D01*
X97657Y315841D01*
X97637Y315843D01*
X97619Y315851D01*
X97452Y315869D01*
X95928Y315869D01*
X95908Y315866D01*
X95889Y315868D01*
X95787Y315846D01*
X95685Y315829D01*
X95668Y315820D01*
X95648Y315816D01*
X95559Y315763D01*
X95468Y315714D01*
X95454Y315700D01*
X95437Y315690D01*
X95370Y315611D01*
X95299Y315536D01*
X95290Y315518D01*
X95277Y315503D01*
X95238Y315407D01*
X95195Y315313D01*
X95193Y315293D01*
X95185Y315275D01*
X95167Y315108D01*
X95167Y308068D01*
X95094Y308017D01*
X95013Y307968D01*
X94994Y307946D01*
X94970Y307929D01*
X94915Y307853D01*
X94853Y307781D01*
X94842Y307754D01*
X94825Y307730D01*
X94797Y307641D01*
X94761Y307553D01*
X94757Y307516D01*
X94751Y307496D01*
X94751Y307463D01*
X94743Y307386D01*
X94743Y306964D01*
X94296Y306517D01*
X73344Y306517D01*
G37*
%LPD*%
%LPC*%
G36*
X263344Y306517D02*
X263344Y306517D01*
X262897Y306964D01*
X262897Y324106D01*
X263344Y324553D01*
X284296Y324553D01*
X284831Y324018D01*
X284864Y323941D01*
X284884Y323919D01*
X284898Y323893D01*
X284966Y323829D01*
X285029Y323759D01*
X285055Y323744D01*
X285076Y323724D01*
X285161Y323684D01*
X285167Y323681D01*
X285167Y316632D01*
X285168Y316622D01*
X285168Y316618D01*
X285170Y316609D01*
X285168Y316593D01*
X285190Y316491D01*
X285207Y316389D01*
X285216Y316372D01*
X285220Y316352D01*
X285273Y316263D01*
X285322Y316172D01*
X285336Y316158D01*
X285346Y316141D01*
X285425Y316074D01*
X285500Y316003D01*
X285518Y315994D01*
X285533Y315981D01*
X285629Y315943D01*
X285723Y315899D01*
X285743Y315897D01*
X285761Y315889D01*
X285928Y315871D01*
X287452Y315871D01*
X287472Y315874D01*
X287491Y315872D01*
X287593Y315894D01*
X287695Y315911D01*
X287712Y315920D01*
X287732Y315924D01*
X287821Y315977D01*
X287912Y316026D01*
X287926Y316040D01*
X287943Y316050D01*
X288010Y316129D01*
X288081Y316204D01*
X288090Y316222D01*
X288103Y316237D01*
X288142Y316333D01*
X288185Y316427D01*
X288187Y316447D01*
X288195Y316465D01*
X288213Y316632D01*
X288213Y324022D01*
X288744Y324553D01*
X369386Y324553D01*
X369833Y324106D01*
X369833Y308234D01*
X369386Y307787D01*
X290014Y307787D01*
X289634Y308167D01*
X289599Y308192D01*
X289571Y308224D01*
X289500Y308264D01*
X289434Y308311D01*
X289393Y308323D01*
X289356Y308344D01*
X289276Y308359D01*
X289199Y308383D01*
X289156Y308382D01*
X289114Y308390D01*
X288964Y308377D01*
X288953Y308377D01*
X288951Y308376D01*
X288947Y308376D01*
X288213Y308230D01*
X288213Y315108D01*
X288210Y315128D01*
X288212Y315147D01*
X288190Y315249D01*
X288173Y315351D01*
X288164Y315368D01*
X288160Y315388D01*
X288107Y315477D01*
X288058Y315568D01*
X288044Y315582D01*
X288034Y315599D01*
X287955Y315666D01*
X287880Y315737D01*
X287862Y315746D01*
X287847Y315759D01*
X287751Y315797D01*
X287657Y315841D01*
X287637Y315843D01*
X287619Y315851D01*
X287452Y315869D01*
X285928Y315869D01*
X285908Y315866D01*
X285889Y315868D01*
X285787Y315846D01*
X285685Y315829D01*
X285668Y315820D01*
X285648Y315816D01*
X285559Y315763D01*
X285468Y315714D01*
X285454Y315700D01*
X285437Y315690D01*
X285370Y315611D01*
X285299Y315536D01*
X285290Y315518D01*
X285277Y315503D01*
X285238Y315407D01*
X285195Y315313D01*
X285193Y315293D01*
X285185Y315275D01*
X285167Y315108D01*
X285167Y308068D01*
X285094Y308017D01*
X285013Y307968D01*
X284994Y307946D01*
X284970Y307929D01*
X284915Y307853D01*
X284853Y307781D01*
X284842Y307754D01*
X284825Y307730D01*
X284797Y307641D01*
X284761Y307553D01*
X284757Y307516D01*
X284751Y307496D01*
X284751Y307463D01*
X284743Y307386D01*
X284743Y306964D01*
X284296Y306517D01*
X263344Y306517D01*
G37*
%LPD*%
%LPC*%
G36*
X82068Y825379D02*
X82068Y825379D01*
X79267Y826539D01*
X77123Y828683D01*
X75963Y831484D01*
X75963Y834516D01*
X77123Y837317D01*
X79267Y839461D01*
X82068Y840621D01*
X97292Y840621D01*
X100093Y839461D01*
X102237Y837317D01*
X103397Y834516D01*
X103397Y831484D01*
X102237Y828683D01*
X100093Y826539D01*
X97292Y825379D01*
X82068Y825379D01*
G37*
%LPD*%
%LPC*%
G36*
X462068Y549979D02*
X462068Y549979D01*
X459267Y551139D01*
X457123Y553283D01*
X455963Y556084D01*
X455963Y559116D01*
X457123Y561917D01*
X459267Y564061D01*
X462068Y565221D01*
X477292Y565221D01*
X480093Y564061D01*
X482237Y561917D01*
X483397Y559116D01*
X483397Y556084D01*
X482237Y553283D01*
X480093Y551139D01*
X477292Y549979D01*
X462068Y549979D01*
G37*
%LPD*%
%LPC*%
G36*
X462068Y799979D02*
X462068Y799979D01*
X459267Y801139D01*
X457123Y803283D01*
X455963Y806084D01*
X455963Y809116D01*
X457123Y811917D01*
X459267Y814061D01*
X462068Y815221D01*
X477292Y815221D01*
X480093Y814061D01*
X482237Y811917D01*
X483397Y809116D01*
X483397Y806084D01*
X482237Y803283D01*
X480093Y801139D01*
X477292Y799979D01*
X462068Y799979D01*
G37*
%LPD*%
%LPC*%
G36*
X82068Y799979D02*
X82068Y799979D01*
X79267Y801139D01*
X77123Y803283D01*
X75963Y806084D01*
X75963Y809116D01*
X77123Y811917D01*
X79267Y814061D01*
X82068Y815221D01*
X97292Y815221D01*
X100093Y814061D01*
X102237Y811917D01*
X103397Y809116D01*
X103397Y806084D01*
X102237Y803283D01*
X100093Y801139D01*
X97292Y799979D01*
X82068Y799979D01*
G37*
%LPD*%
%LPC*%
G36*
X462068Y825379D02*
X462068Y825379D01*
X459267Y826539D01*
X457123Y828683D01*
X455963Y831484D01*
X455963Y834516D01*
X457123Y837317D01*
X459267Y839461D01*
X462068Y840621D01*
X477292Y840621D01*
X480093Y839461D01*
X482237Y837317D01*
X483397Y834516D01*
X483397Y831484D01*
X482237Y828683D01*
X480093Y826539D01*
X477292Y825379D01*
X462068Y825379D01*
G37*
%LPD*%
%LPC*%
G36*
X82068Y575379D02*
X82068Y575379D01*
X79267Y576539D01*
X77123Y578683D01*
X75963Y581484D01*
X75963Y584516D01*
X77123Y587317D01*
X79267Y589461D01*
X82068Y590621D01*
X97292Y590621D01*
X100093Y589461D01*
X102237Y587317D01*
X103397Y584516D01*
X103397Y581484D01*
X102237Y578683D01*
X100093Y576539D01*
X97292Y575379D01*
X82068Y575379D01*
G37*
%LPD*%
%LPC*%
G36*
X462068Y575379D02*
X462068Y575379D01*
X459267Y576539D01*
X457123Y578683D01*
X455963Y581484D01*
X455963Y584516D01*
X457123Y587317D01*
X459267Y589461D01*
X462068Y590621D01*
X477292Y590621D01*
X480093Y589461D01*
X482237Y587317D01*
X483397Y584516D01*
X483397Y581484D01*
X482237Y578683D01*
X480093Y576539D01*
X477292Y575379D01*
X462068Y575379D01*
G37*
%LPD*%
%LPC*%
G36*
X82068Y549979D02*
X82068Y549979D01*
X79267Y551139D01*
X77123Y553283D01*
X75963Y556084D01*
X75963Y559116D01*
X77123Y561917D01*
X79267Y564061D01*
X82068Y565221D01*
X97292Y565221D01*
X100093Y564061D01*
X102237Y561917D01*
X103397Y559116D01*
X103397Y556084D01*
X102237Y553283D01*
X100093Y551139D01*
X97292Y549979D01*
X82068Y549979D01*
G37*
%LPD*%
%LPC*%
G36*
X353291Y925709D02*
X353291Y925709D01*
X349930Y927101D01*
X347357Y929674D01*
X345965Y933035D01*
X345965Y936673D01*
X347357Y940034D01*
X349930Y942607D01*
X353291Y943999D01*
X356929Y943999D01*
X360290Y942607D01*
X362863Y940034D01*
X364255Y936673D01*
X364255Y933035D01*
X362863Y929674D01*
X360290Y927101D01*
X356929Y925709D01*
X353291Y925709D01*
G37*
%LPD*%
%LPC*%
G36*
X733291Y624909D02*
X733291Y624909D01*
X729930Y626301D01*
X727357Y628874D01*
X725965Y632235D01*
X725965Y635873D01*
X727357Y639234D01*
X729930Y641807D01*
X733291Y643199D01*
X736929Y643199D01*
X740290Y641807D01*
X742863Y639234D01*
X744255Y635873D01*
X744255Y632235D01*
X742863Y628874D01*
X740290Y626301D01*
X736929Y624909D01*
X733291Y624909D01*
G37*
%LPD*%
%LPC*%
G36*
X353291Y624909D02*
X353291Y624909D01*
X349930Y626301D01*
X347357Y628874D01*
X345965Y632235D01*
X345965Y635873D01*
X347357Y639234D01*
X349930Y641807D01*
X353291Y643199D01*
X356929Y643199D01*
X360290Y641807D01*
X362863Y639234D01*
X364255Y635873D01*
X364255Y632235D01*
X362863Y628874D01*
X360290Y626301D01*
X356929Y624909D01*
X353291Y624909D01*
G37*
%LPD*%
%LPC*%
G36*
X353291Y599509D02*
X353291Y599509D01*
X349930Y600901D01*
X347357Y603474D01*
X345965Y606835D01*
X345965Y610473D01*
X347357Y613834D01*
X349930Y616407D01*
X353291Y617799D01*
X356929Y617799D01*
X360290Y616407D01*
X362863Y613834D01*
X364255Y610473D01*
X364255Y606835D01*
X362863Y603474D01*
X360290Y600901D01*
X356929Y599509D01*
X353291Y599509D01*
G37*
%LPD*%
%LPC*%
G36*
X733291Y599509D02*
X733291Y599509D01*
X729930Y600901D01*
X727357Y603474D01*
X725965Y606835D01*
X725965Y610473D01*
X727357Y613834D01*
X729930Y616407D01*
X733291Y617799D01*
X736929Y617799D01*
X740290Y616407D01*
X742863Y613834D01*
X744255Y610473D01*
X744255Y606835D01*
X742863Y603474D01*
X740290Y600901D01*
X736929Y599509D01*
X733291Y599509D01*
G37*
%LPD*%
%LPC*%
G36*
X353291Y574109D02*
X353291Y574109D01*
X349930Y575501D01*
X347357Y578074D01*
X345965Y581435D01*
X345965Y585073D01*
X347357Y588434D01*
X349930Y591007D01*
X353291Y592399D01*
X356929Y592399D01*
X360290Y591007D01*
X362863Y588434D01*
X364255Y585073D01*
X364255Y581435D01*
X362863Y578074D01*
X360290Y575501D01*
X356929Y574109D01*
X353291Y574109D01*
G37*
%LPD*%
%LPC*%
G36*
X733291Y574109D02*
X733291Y574109D01*
X729930Y575501D01*
X727357Y578074D01*
X725965Y581435D01*
X725965Y585073D01*
X727357Y588434D01*
X729930Y591007D01*
X733291Y592399D01*
X736929Y592399D01*
X740290Y591007D01*
X742863Y588434D01*
X744255Y585073D01*
X744255Y581435D01*
X742863Y578074D01*
X740290Y575501D01*
X736929Y574109D01*
X733291Y574109D01*
G37*
%LPD*%
%LPC*%
G36*
X353291Y548709D02*
X353291Y548709D01*
X349930Y550101D01*
X347357Y552674D01*
X345965Y556035D01*
X345965Y559673D01*
X347357Y563034D01*
X349930Y565607D01*
X353291Y566999D01*
X356929Y566999D01*
X360290Y565607D01*
X362863Y563034D01*
X364255Y559673D01*
X364255Y556035D01*
X362863Y552674D01*
X360290Y550101D01*
X356929Y548709D01*
X353291Y548709D01*
G37*
%LPD*%
%LPC*%
G36*
X733291Y548709D02*
X733291Y548709D01*
X729930Y550101D01*
X727357Y552674D01*
X725965Y556035D01*
X725965Y559673D01*
X727357Y563034D01*
X729930Y565607D01*
X733291Y566999D01*
X736929Y566999D01*
X740290Y565607D01*
X742863Y563034D01*
X744255Y559673D01*
X744255Y556035D01*
X742863Y552674D01*
X740290Y550101D01*
X736929Y548709D01*
X733291Y548709D01*
G37*
%LPD*%
%LPC*%
G36*
X733291Y925709D02*
X733291Y925709D01*
X729930Y927101D01*
X727357Y929674D01*
X725965Y933035D01*
X725965Y936673D01*
X727357Y940034D01*
X729930Y942607D01*
X733291Y943999D01*
X736929Y943999D01*
X740290Y942607D01*
X742863Y940034D01*
X744255Y936673D01*
X744255Y933035D01*
X742863Y929674D01*
X740290Y927101D01*
X736929Y925709D01*
X733291Y925709D01*
G37*
%LPD*%
%LPC*%
G36*
X353291Y849509D02*
X353291Y849509D01*
X349930Y850901D01*
X347357Y853474D01*
X345965Y856835D01*
X345965Y860473D01*
X347357Y863834D01*
X349930Y866407D01*
X353291Y867799D01*
X356929Y867799D01*
X360290Y866407D01*
X362863Y863834D01*
X364255Y860473D01*
X364255Y856835D01*
X362863Y853474D01*
X360290Y850901D01*
X356929Y849509D01*
X353291Y849509D01*
G37*
%LPD*%
%LPC*%
G36*
X411981Y925455D02*
X411981Y925455D01*
X408620Y926847D01*
X406047Y929420D01*
X404655Y932781D01*
X404655Y936419D01*
X406047Y939780D01*
X408620Y942353D01*
X411981Y943745D01*
X415619Y943745D01*
X418980Y942353D01*
X421553Y939780D01*
X422945Y936419D01*
X422945Y932781D01*
X421553Y929420D01*
X418980Y926847D01*
X415619Y925455D01*
X411981Y925455D01*
G37*
%LPD*%
%LPC*%
G36*
X31981Y925455D02*
X31981Y925455D01*
X28620Y926847D01*
X26047Y929420D01*
X24655Y932781D01*
X24655Y936419D01*
X26047Y939780D01*
X28620Y942353D01*
X31981Y943745D01*
X35619Y943745D01*
X38980Y942353D01*
X41553Y939780D01*
X42945Y936419D01*
X42945Y932781D01*
X41553Y929420D01*
X38980Y926847D01*
X35619Y925455D01*
X31981Y925455D01*
G37*
%LPD*%
%LPC*%
G36*
X733291Y900309D02*
X733291Y900309D01*
X729930Y901701D01*
X727357Y904274D01*
X725965Y907635D01*
X725965Y911273D01*
X727357Y914634D01*
X729930Y917207D01*
X733291Y918599D01*
X736929Y918599D01*
X740290Y917207D01*
X742863Y914634D01*
X744255Y911273D01*
X744255Y907635D01*
X742863Y904274D01*
X740290Y901701D01*
X736929Y900309D01*
X733291Y900309D01*
G37*
%LPD*%
%LPC*%
G36*
X353291Y900309D02*
X353291Y900309D01*
X349930Y901701D01*
X347357Y904274D01*
X345965Y907635D01*
X345965Y911273D01*
X347357Y914634D01*
X349930Y917207D01*
X353291Y918599D01*
X356929Y918599D01*
X360290Y917207D01*
X362863Y914634D01*
X364255Y911273D01*
X364255Y907635D01*
X362863Y904274D01*
X360290Y901701D01*
X356929Y900309D01*
X353291Y900309D01*
G37*
%LPD*%
%LPC*%
G36*
X411981Y900055D02*
X411981Y900055D01*
X408620Y901447D01*
X406047Y904020D01*
X404655Y907381D01*
X404655Y911019D01*
X406047Y914380D01*
X408620Y916953D01*
X411981Y918345D01*
X415619Y918345D01*
X418980Y916953D01*
X421553Y914380D01*
X422945Y911019D01*
X422945Y907381D01*
X421553Y904020D01*
X418980Y901447D01*
X415619Y900055D01*
X411981Y900055D01*
G37*
%LPD*%
%LPC*%
G36*
X31981Y900055D02*
X31981Y900055D01*
X28620Y901447D01*
X26047Y904020D01*
X24655Y907381D01*
X24655Y911019D01*
X26047Y914380D01*
X28620Y916953D01*
X31981Y918345D01*
X35619Y918345D01*
X38980Y916953D01*
X41553Y914380D01*
X42945Y911019D01*
X42945Y907381D01*
X41553Y904020D01*
X38980Y901447D01*
X35619Y900055D01*
X31981Y900055D01*
G37*
%LPD*%
%LPC*%
G36*
X733291Y874909D02*
X733291Y874909D01*
X729930Y876301D01*
X727357Y878874D01*
X725965Y882235D01*
X725965Y885873D01*
X727357Y889234D01*
X729930Y891807D01*
X733291Y893199D01*
X736929Y893199D01*
X740290Y891807D01*
X742863Y889234D01*
X744255Y885873D01*
X744255Y882235D01*
X742863Y878874D01*
X740290Y876301D01*
X736929Y874909D01*
X733291Y874909D01*
G37*
%LPD*%
%LPC*%
G36*
X353291Y874909D02*
X353291Y874909D01*
X349930Y876301D01*
X347357Y878874D01*
X345965Y882235D01*
X345965Y885873D01*
X347357Y889234D01*
X349930Y891807D01*
X353291Y893199D01*
X356929Y893199D01*
X360290Y891807D01*
X362863Y889234D01*
X364255Y885873D01*
X364255Y882235D01*
X362863Y878874D01*
X360290Y876301D01*
X356929Y874909D01*
X353291Y874909D01*
G37*
%LPD*%
%LPC*%
G36*
X733291Y849509D02*
X733291Y849509D01*
X729930Y850901D01*
X727357Y853474D01*
X725965Y856835D01*
X725965Y860473D01*
X727357Y863834D01*
X729930Y866407D01*
X733291Y867799D01*
X736929Y867799D01*
X740290Y866407D01*
X742863Y863834D01*
X744255Y860473D01*
X744255Y856835D01*
X742863Y853474D01*
X740290Y850901D01*
X736929Y849509D01*
X733291Y849509D01*
G37*
%LPD*%
%LPC*%
G36*
X31981Y523055D02*
X31981Y523055D01*
X28620Y524447D01*
X26047Y527020D01*
X24655Y530381D01*
X24655Y534019D01*
X26047Y537380D01*
X28620Y539953D01*
X31981Y541345D01*
X35619Y541345D01*
X38980Y539953D01*
X41553Y537380D01*
X42945Y534019D01*
X42945Y530381D01*
X41553Y527020D01*
X38980Y524447D01*
X35619Y523055D01*
X31981Y523055D01*
G37*
%LPD*%
%LPC*%
G36*
X733291Y824109D02*
X733291Y824109D01*
X729930Y825501D01*
X727357Y828074D01*
X725965Y831435D01*
X725965Y835073D01*
X727357Y838434D01*
X729930Y841007D01*
X733291Y842399D01*
X736929Y842399D01*
X740290Y841007D01*
X742863Y838434D01*
X744255Y835073D01*
X744255Y831435D01*
X742863Y828074D01*
X740290Y825501D01*
X736929Y824109D01*
X733291Y824109D01*
G37*
%LPD*%
%LPC*%
G36*
X353291Y824109D02*
X353291Y824109D01*
X349930Y825501D01*
X347357Y828074D01*
X345965Y831435D01*
X345965Y835073D01*
X347357Y838434D01*
X349930Y841007D01*
X353291Y842399D01*
X356929Y842399D01*
X360290Y841007D01*
X362863Y838434D01*
X364255Y835073D01*
X364255Y831435D01*
X362863Y828074D01*
X360290Y825501D01*
X356929Y824109D01*
X353291Y824109D01*
G37*
%LPD*%
%LPC*%
G36*
X411981Y523055D02*
X411981Y523055D01*
X408620Y524447D01*
X406047Y527020D01*
X404655Y530381D01*
X404655Y534019D01*
X406047Y537380D01*
X408620Y539953D01*
X411981Y541345D01*
X415619Y541345D01*
X418980Y539953D01*
X421553Y537380D01*
X422945Y534019D01*
X422945Y530381D01*
X421553Y527020D01*
X418980Y524447D01*
X415619Y523055D01*
X411981Y523055D01*
G37*
%LPD*%
%LPC*%
G36*
X733291Y798709D02*
X733291Y798709D01*
X729930Y800101D01*
X727357Y802674D01*
X725965Y806035D01*
X725965Y809673D01*
X727357Y813034D01*
X729930Y815607D01*
X733291Y816999D01*
X736929Y816999D01*
X740290Y815607D01*
X742863Y813034D01*
X744255Y809673D01*
X744255Y806035D01*
X742863Y802674D01*
X740290Y800101D01*
X736929Y798709D01*
X733291Y798709D01*
G37*
%LPD*%
%LPC*%
G36*
X411981Y650055D02*
X411981Y650055D01*
X408620Y651447D01*
X406047Y654020D01*
X404655Y657381D01*
X404655Y661019D01*
X406047Y664380D01*
X408620Y666953D01*
X411981Y668345D01*
X415619Y668345D01*
X418980Y666953D01*
X421553Y664380D01*
X422945Y661019D01*
X422945Y657381D01*
X421553Y654020D01*
X418980Y651447D01*
X415619Y650055D01*
X411981Y650055D01*
G37*
%LPD*%
%LPC*%
G36*
X411981Y773055D02*
X411981Y773055D01*
X408620Y774447D01*
X406047Y777020D01*
X404655Y780381D01*
X404655Y784019D01*
X406047Y787380D01*
X408620Y789953D01*
X411981Y791345D01*
X415619Y791345D01*
X418980Y789953D01*
X421553Y787380D01*
X422945Y784019D01*
X422945Y780381D01*
X421553Y777020D01*
X418980Y774447D01*
X415619Y773055D01*
X411981Y773055D01*
G37*
%LPD*%
%LPC*%
G36*
X31981Y773055D02*
X31981Y773055D01*
X28620Y774447D01*
X26047Y777020D01*
X24655Y780381D01*
X24655Y784019D01*
X26047Y787380D01*
X28620Y789953D01*
X31981Y791345D01*
X35619Y791345D01*
X38980Y789953D01*
X41553Y787380D01*
X42945Y784019D01*
X42945Y780381D01*
X41553Y777020D01*
X38980Y774447D01*
X35619Y773055D01*
X31981Y773055D01*
G37*
%LPD*%
%LPC*%
G36*
X733291Y675709D02*
X733291Y675709D01*
X729930Y677101D01*
X727357Y679674D01*
X725965Y683035D01*
X725965Y686673D01*
X727357Y690034D01*
X729930Y692607D01*
X733291Y693999D01*
X736929Y693999D01*
X740290Y692607D01*
X742863Y690034D01*
X744255Y686673D01*
X744255Y683035D01*
X742863Y679674D01*
X740290Y677101D01*
X736929Y675709D01*
X733291Y675709D01*
G37*
%LPD*%
%LPC*%
G36*
X353291Y675709D02*
X353291Y675709D01*
X349930Y677101D01*
X347357Y679674D01*
X345965Y683035D01*
X345965Y686673D01*
X347357Y690034D01*
X349930Y692607D01*
X353291Y693999D01*
X356929Y693999D01*
X360290Y692607D01*
X362863Y690034D01*
X364255Y686673D01*
X364255Y683035D01*
X362863Y679674D01*
X360290Y677101D01*
X356929Y675709D01*
X353291Y675709D01*
G37*
%LPD*%
%LPC*%
G36*
X411981Y675455D02*
X411981Y675455D01*
X408620Y676847D01*
X406047Y679420D01*
X404655Y682781D01*
X404655Y686419D01*
X406047Y689780D01*
X408620Y692353D01*
X411981Y693745D01*
X415619Y693745D01*
X418980Y692353D01*
X421553Y689780D01*
X422945Y686419D01*
X422945Y682781D01*
X421553Y679420D01*
X418980Y676847D01*
X415619Y675455D01*
X411981Y675455D01*
G37*
%LPD*%
%LPC*%
G36*
X31981Y675455D02*
X31981Y675455D01*
X28620Y676847D01*
X26047Y679420D01*
X24655Y682781D01*
X24655Y686419D01*
X26047Y689780D01*
X28620Y692353D01*
X31981Y693745D01*
X35619Y693745D01*
X38980Y692353D01*
X41553Y689780D01*
X42945Y686419D01*
X42945Y682781D01*
X41553Y679420D01*
X38980Y676847D01*
X35619Y675455D01*
X31981Y675455D01*
G37*
%LPD*%
%LPC*%
G36*
X733291Y650309D02*
X733291Y650309D01*
X729930Y651701D01*
X727357Y654274D01*
X725965Y657635D01*
X725965Y661273D01*
X727357Y664634D01*
X729930Y667207D01*
X733291Y668599D01*
X736929Y668599D01*
X740290Y667207D01*
X742863Y664634D01*
X744255Y661273D01*
X744255Y657635D01*
X742863Y654274D01*
X740290Y651701D01*
X736929Y650309D01*
X733291Y650309D01*
G37*
%LPD*%
%LPC*%
G36*
X353291Y650309D02*
X353291Y650309D01*
X349930Y651701D01*
X347357Y654274D01*
X345965Y657635D01*
X345965Y661273D01*
X347357Y664634D01*
X349930Y667207D01*
X353291Y668599D01*
X356929Y668599D01*
X360290Y667207D01*
X362863Y664634D01*
X364255Y661273D01*
X364255Y657635D01*
X362863Y654274D01*
X360290Y651701D01*
X356929Y650309D01*
X353291Y650309D01*
G37*
%LPD*%
%LPC*%
G36*
X31981Y650055D02*
X31981Y650055D01*
X28620Y651447D01*
X26047Y654020D01*
X24655Y657381D01*
X24655Y661019D01*
X26047Y664380D01*
X28620Y666953D01*
X31981Y668345D01*
X35619Y668345D01*
X38980Y666953D01*
X41553Y664380D01*
X42945Y661019D01*
X42945Y657381D01*
X41553Y654020D01*
X38980Y651447D01*
X35619Y650055D01*
X31981Y650055D01*
G37*
%LPD*%
%LPC*%
G36*
X353291Y798709D02*
X353291Y798709D01*
X349930Y800101D01*
X347357Y802674D01*
X345965Y806035D01*
X345965Y809673D01*
X347357Y813034D01*
X349930Y815607D01*
X353291Y816999D01*
X356929Y816999D01*
X360290Y815607D01*
X362863Y813034D01*
X364255Y809673D01*
X364255Y806035D01*
X362863Y802674D01*
X360290Y800101D01*
X356929Y798709D01*
X353291Y798709D01*
G37*
%LPD*%
%LPC*%
G36*
X593123Y948823D02*
X593123Y948823D01*
X593123Y957346D01*
X593979Y957211D01*
X595500Y956716D01*
X596925Y955990D01*
X598219Y955050D01*
X599350Y953919D01*
X600290Y952625D01*
X601016Y951200D01*
X601511Y949679D01*
X601646Y948823D01*
X593123Y948823D01*
G37*
%LPD*%
%LPC*%
G36*
X213123Y948823D02*
X213123Y948823D01*
X213123Y957346D01*
X213979Y957211D01*
X215500Y956716D01*
X216925Y955990D01*
X218219Y955050D01*
X219350Y953919D01*
X220290Y952625D01*
X221016Y951200D01*
X221511Y949679D01*
X221646Y948823D01*
X213123Y948823D01*
G37*
%LPD*%
%LPC*%
G36*
X213123Y698823D02*
X213123Y698823D01*
X213123Y707346D01*
X213979Y707211D01*
X215500Y706716D01*
X216925Y705990D01*
X218219Y705050D01*
X219350Y703919D01*
X220290Y702625D01*
X221016Y701200D01*
X221511Y699679D01*
X221646Y698823D01*
X213123Y698823D01*
G37*
%LPD*%
%LPC*%
G36*
X593123Y698823D02*
X593123Y698823D01*
X593123Y707346D01*
X593979Y707211D01*
X595500Y706716D01*
X596925Y705990D01*
X598219Y705050D01*
X599350Y703919D01*
X600290Y702625D01*
X601016Y701200D01*
X601511Y699679D01*
X601646Y698823D01*
X593123Y698823D01*
G37*
%LPD*%
%LPC*%
G36*
X736633Y508577D02*
X736633Y508577D01*
X736633Y517100D01*
X737489Y516965D01*
X739010Y516470D01*
X740435Y515744D01*
X741729Y514804D01*
X742860Y513673D01*
X743800Y512379D01*
X744526Y510954D01*
X745021Y509433D01*
X745156Y508577D01*
X736633Y508577D01*
G37*
%LPD*%
%LPC*%
G36*
X356633Y508577D02*
X356633Y508577D01*
X356633Y517100D01*
X357489Y516965D01*
X359010Y516470D01*
X360435Y515744D01*
X361729Y514804D01*
X362860Y513673D01*
X363800Y512379D01*
X364526Y510954D01*
X365021Y509433D01*
X365156Y508577D01*
X356633Y508577D01*
G37*
%LPD*%
%LPC*%
G36*
X736633Y758577D02*
X736633Y758577D01*
X736633Y767100D01*
X737489Y766965D01*
X739010Y766470D01*
X740435Y765744D01*
X741729Y764804D01*
X742860Y763673D01*
X743800Y762379D01*
X744526Y760954D01*
X745021Y759433D01*
X745156Y758577D01*
X736633Y758577D01*
G37*
%LPD*%
%LPC*%
G36*
X356633Y758577D02*
X356633Y758577D01*
X356633Y767100D01*
X357489Y766965D01*
X359010Y766470D01*
X360435Y765744D01*
X361729Y764804D01*
X362860Y763673D01*
X363800Y762379D01*
X364526Y760954D01*
X365021Y759433D01*
X365156Y758577D01*
X356633Y758577D01*
G37*
%LPD*%
%LPC*%
G36*
X201554Y948823D02*
X201554Y948823D01*
X201689Y949679D01*
X202184Y951200D01*
X202910Y952625D01*
X203850Y953919D01*
X204981Y955050D01*
X206275Y955990D01*
X207700Y956716D01*
X209221Y957211D01*
X210077Y957346D01*
X210077Y948823D01*
X201554Y948823D01*
G37*
%LPD*%
%LPC*%
G36*
X736633Y505531D02*
X736633Y505531D01*
X745156Y505531D01*
X745021Y504675D01*
X744526Y503154D01*
X743800Y501729D01*
X742860Y500435D01*
X741729Y499304D01*
X740435Y498364D01*
X739010Y497638D01*
X737489Y497143D01*
X736633Y497008D01*
X736633Y505531D01*
G37*
%LPD*%
%LPC*%
G36*
X213123Y695777D02*
X213123Y695777D01*
X221646Y695777D01*
X221511Y694921D01*
X221016Y693400D01*
X220290Y691975D01*
X219350Y690681D01*
X218219Y689550D01*
X216925Y688610D01*
X215500Y687884D01*
X213979Y687389D01*
X213123Y687254D01*
X213123Y695777D01*
G37*
%LPD*%
%LPC*%
G36*
X593123Y695777D02*
X593123Y695777D01*
X601646Y695777D01*
X601511Y694921D01*
X601016Y693400D01*
X600290Y691975D01*
X599350Y690681D01*
X598219Y689550D01*
X596925Y688610D01*
X595500Y687884D01*
X593979Y687389D01*
X593123Y687254D01*
X593123Y695777D01*
G37*
%LPD*%
%LPC*%
G36*
X213123Y945777D02*
X213123Y945777D01*
X221646Y945777D01*
X221511Y944921D01*
X221016Y943400D01*
X220290Y941975D01*
X219350Y940681D01*
X218219Y939550D01*
X216925Y938610D01*
X215500Y937884D01*
X213979Y937389D01*
X213123Y937254D01*
X213123Y945777D01*
G37*
%LPD*%
%LPC*%
G36*
X581554Y948823D02*
X581554Y948823D01*
X581689Y949679D01*
X582184Y951200D01*
X582910Y952625D01*
X583850Y953919D01*
X584981Y955050D01*
X586275Y955990D01*
X587700Y956716D01*
X589221Y957211D01*
X590077Y957346D01*
X590077Y948823D01*
X581554Y948823D01*
G37*
%LPD*%
%LPC*%
G36*
X593123Y945777D02*
X593123Y945777D01*
X601646Y945777D01*
X601511Y944921D01*
X601016Y943400D01*
X600290Y941975D01*
X599350Y940681D01*
X598219Y939550D01*
X596925Y938610D01*
X595500Y937884D01*
X593979Y937389D01*
X593123Y937254D01*
X593123Y945777D01*
G37*
%LPD*%
%LPC*%
G36*
X345064Y758577D02*
X345064Y758577D01*
X345199Y759433D01*
X345694Y760954D01*
X346420Y762379D01*
X347360Y763673D01*
X348491Y764804D01*
X349785Y765744D01*
X351210Y766470D01*
X352731Y766965D01*
X353587Y767100D01*
X353587Y758577D01*
X345064Y758577D01*
G37*
%LPD*%
%LPC*%
G36*
X345064Y508577D02*
X345064Y508577D01*
X345199Y509433D01*
X345694Y510954D01*
X346420Y512379D01*
X347360Y513673D01*
X348491Y514804D01*
X349785Y515744D01*
X351210Y516470D01*
X352731Y516965D01*
X353587Y517100D01*
X353587Y508577D01*
X345064Y508577D01*
G37*
%LPD*%
%LPC*%
G36*
X725064Y508577D02*
X725064Y508577D01*
X725199Y509433D01*
X725694Y510954D01*
X726420Y512379D01*
X727360Y513673D01*
X728491Y514804D01*
X729785Y515744D01*
X731210Y516470D01*
X732731Y516965D01*
X733587Y517100D01*
X733587Y508577D01*
X725064Y508577D01*
G37*
%LPD*%
%LPC*%
G36*
X356633Y505531D02*
X356633Y505531D01*
X365156Y505531D01*
X365021Y504675D01*
X364526Y503154D01*
X363800Y501729D01*
X362860Y500435D01*
X361729Y499304D01*
X360435Y498364D01*
X359010Y497638D01*
X357489Y497143D01*
X356633Y497008D01*
X356633Y505531D01*
G37*
%LPD*%
%LPC*%
G36*
X201554Y698823D02*
X201554Y698823D01*
X201689Y699679D01*
X202184Y701200D01*
X202910Y702625D01*
X203850Y703919D01*
X204981Y705050D01*
X206275Y705990D01*
X207700Y706716D01*
X209221Y707211D01*
X210077Y707346D01*
X210077Y698823D01*
X201554Y698823D01*
G37*
%LPD*%
%LPC*%
G36*
X356633Y755531D02*
X356633Y755531D01*
X365156Y755531D01*
X365021Y754675D01*
X364526Y753154D01*
X363800Y751729D01*
X362860Y750435D01*
X361729Y749304D01*
X360435Y748364D01*
X359010Y747638D01*
X357489Y747143D01*
X356633Y747008D01*
X356633Y755531D01*
G37*
%LPD*%
%LPC*%
G36*
X736633Y755531D02*
X736633Y755531D01*
X745156Y755531D01*
X745021Y754675D01*
X744526Y753154D01*
X743800Y751729D01*
X742860Y750435D01*
X741729Y749304D01*
X740435Y748364D01*
X739010Y747638D01*
X737489Y747143D01*
X736633Y747008D01*
X736633Y755531D01*
G37*
%LPD*%
%LPC*%
G36*
X725064Y758577D02*
X725064Y758577D01*
X725199Y759433D01*
X725694Y760954D01*
X726420Y762379D01*
X727360Y763673D01*
X728491Y764804D01*
X729785Y765744D01*
X731210Y766470D01*
X732731Y766965D01*
X733587Y767100D01*
X733587Y758577D01*
X725064Y758577D01*
G37*
%LPD*%
%LPC*%
G36*
X581554Y698823D02*
X581554Y698823D01*
X581689Y699679D01*
X582184Y701200D01*
X582910Y702625D01*
X583850Y703919D01*
X584981Y705050D01*
X586275Y705990D01*
X587700Y706716D01*
X589221Y707211D01*
X590077Y707346D01*
X590077Y698823D01*
X581554Y698823D01*
G37*
%LPD*%
%LPC*%
G36*
X589221Y937389D02*
X589221Y937389D01*
X587700Y937884D01*
X586275Y938610D01*
X584981Y939550D01*
X583850Y940681D01*
X582910Y941975D01*
X582184Y943400D01*
X581689Y944921D01*
X581554Y945777D01*
X590077Y945777D01*
X590077Y937254D01*
X589221Y937389D01*
G37*
%LPD*%
%LPC*%
G36*
X209221Y937389D02*
X209221Y937389D01*
X207700Y937884D01*
X206275Y938610D01*
X204981Y939550D01*
X203850Y940681D01*
X202910Y941975D01*
X202184Y943400D01*
X201689Y944921D01*
X201554Y945777D01*
X210077Y945777D01*
X210077Y937254D01*
X209221Y937389D01*
G37*
%LPD*%
%LPC*%
G36*
X589221Y687389D02*
X589221Y687389D01*
X587700Y687884D01*
X586275Y688610D01*
X584981Y689550D01*
X583850Y690681D01*
X582910Y691975D01*
X582184Y693400D01*
X581689Y694921D01*
X581554Y695777D01*
X590077Y695777D01*
X590077Y687254D01*
X589221Y687389D01*
G37*
%LPD*%
%LPC*%
G36*
X209221Y687389D02*
X209221Y687389D01*
X207700Y687884D01*
X206275Y688610D01*
X204981Y689550D01*
X203850Y690681D01*
X202910Y691975D01*
X202184Y693400D01*
X201689Y694921D01*
X201554Y695777D01*
X210077Y695777D01*
X210077Y687254D01*
X209221Y687389D01*
G37*
%LPD*%
%LPC*%
G36*
X732731Y497143D02*
X732731Y497143D01*
X731210Y497638D01*
X729785Y498364D01*
X728491Y499304D01*
X727360Y500435D01*
X726420Y501729D01*
X725694Y503154D01*
X725199Y504675D01*
X725064Y505531D01*
X733587Y505531D01*
X733587Y497008D01*
X732731Y497143D01*
G37*
%LPD*%
%LPC*%
G36*
X352731Y497143D02*
X352731Y497143D01*
X351210Y497638D01*
X349785Y498364D01*
X348491Y499304D01*
X347360Y500435D01*
X346420Y501729D01*
X345694Y503154D01*
X345199Y504675D01*
X345064Y505531D01*
X353587Y505531D01*
X353587Y497008D01*
X352731Y497143D01*
G37*
%LPD*%
%LPC*%
G36*
X732731Y747143D02*
X732731Y747143D01*
X731210Y747638D01*
X729785Y748364D01*
X728491Y749304D01*
X727360Y750435D01*
X726420Y751729D01*
X725694Y753154D01*
X725199Y754675D01*
X725064Y755531D01*
X733587Y755531D01*
X733587Y747008D01*
X732731Y747143D01*
G37*
%LPD*%
%LPC*%
G36*
X352731Y747143D02*
X352731Y747143D01*
X351210Y747638D01*
X349785Y748364D01*
X348491Y749304D01*
X347360Y750435D01*
X346420Y751729D01*
X345694Y753154D01*
X345199Y754675D01*
X345064Y755531D01*
X353587Y755531D01*
X353587Y747008D01*
X352731Y747143D01*
G37*
%LPD*%
%LPC*%
G36*
X528128Y511709D02*
X528128Y511709D01*
X526710Y512296D01*
X525434Y513149D01*
X524349Y514234D01*
X523496Y515510D01*
X522909Y516928D01*
X522760Y517677D01*
X528877Y517677D01*
X528877Y511560D01*
X528128Y511709D01*
G37*
%LPD*%
%LPC*%
G36*
X528128Y761709D02*
X528128Y761709D01*
X526710Y762296D01*
X525434Y763149D01*
X524349Y764234D01*
X523496Y765510D01*
X522909Y766928D01*
X522760Y767677D01*
X528877Y767677D01*
X528877Y761560D01*
X528128Y761709D01*
G37*
%LPD*%
%LPC*%
G36*
X148128Y761709D02*
X148128Y761709D01*
X146710Y762296D01*
X145434Y763149D01*
X144349Y764234D01*
X143496Y765510D01*
X142909Y766928D01*
X142760Y767677D01*
X148877Y767677D01*
X148877Y761560D01*
X148128Y761709D01*
G37*
%LPD*%
%LPC*%
G36*
X148128Y511709D02*
X148128Y511709D01*
X146710Y512296D01*
X145434Y513149D01*
X144349Y514234D01*
X143496Y515510D01*
X142909Y516928D01*
X142760Y517677D01*
X148877Y517677D01*
X148877Y511560D01*
X148128Y511709D01*
G37*
%LPD*%
%LPC*%
G36*
X591599Y947299D02*
X591599Y947299D01*
X591599Y947301D01*
X591601Y947301D01*
X591601Y947299D01*
X591599Y947299D01*
G37*
%LPD*%
%LPC*%
G36*
X735109Y507053D02*
X735109Y507053D01*
X735109Y507055D01*
X735111Y507055D01*
X735111Y507053D01*
X735109Y507053D01*
G37*
%LPD*%
%LPC*%
G36*
X355109Y507053D02*
X355109Y507053D01*
X355109Y507055D01*
X355111Y507055D01*
X355111Y507053D01*
X355109Y507053D01*
G37*
%LPD*%
%LPC*%
G36*
X735109Y757053D02*
X735109Y757053D01*
X735109Y757055D01*
X735111Y757055D01*
X735111Y757053D01*
X735109Y757053D01*
G37*
%LPD*%
%LPC*%
G36*
X211599Y697299D02*
X211599Y697299D01*
X211599Y697301D01*
X211601Y697301D01*
X211601Y697299D01*
X211599Y697299D01*
G37*
%LPD*%
%LPC*%
G36*
X591599Y697299D02*
X591599Y697299D01*
X591599Y697301D01*
X591601Y697301D01*
X591601Y697299D01*
X591599Y697299D01*
G37*
%LPD*%
%LPC*%
G36*
X211599Y947299D02*
X211599Y947299D01*
X211599Y947301D01*
X211601Y947301D01*
X211601Y947299D01*
X211599Y947299D01*
G37*
%LPD*%
%LPC*%
G36*
X355109Y757053D02*
X355109Y757053D01*
X355109Y757055D01*
X355111Y757055D01*
X355111Y757053D01*
X355109Y757053D01*
G37*
%LPD*%
D10*
X0Y100000D02*
X0Y980000D01*
X770000Y980000D01*
X770000Y100000D01*
X0Y100000D01*
D11*
X8908Y736480D02*
X376700Y736226D01*
X376700Y969654D01*
X8908Y969400D01*
X8908Y736480D01*
X388908Y736480D02*
X756700Y736226D01*
X756700Y969654D01*
X388908Y969400D01*
X388908Y736480D01*
X190700Y109500D02*
X12700Y109500D01*
X190700Y109500D02*
X190300Y284000D01*
X12700Y284000D01*
X12700Y109500D01*
X202700Y109500D02*
X380700Y109500D01*
X380300Y284000D01*
X202700Y284000D01*
X202700Y109500D01*
X392700Y109500D02*
X570700Y109500D01*
X570300Y284000D01*
X392700Y284000D01*
X392700Y109500D01*
X582700Y109500D02*
X760700Y109500D01*
X760300Y284000D01*
X582700Y284000D01*
X582700Y109500D01*
X190700Y289500D02*
X12700Y289500D01*
X190700Y289500D02*
X190300Y464000D01*
X12700Y464000D01*
X12700Y289500D01*
X202700Y289500D02*
X380700Y289500D01*
X380300Y464000D01*
X202700Y464000D01*
X202700Y289500D01*
X392700Y289500D02*
X570700Y289500D01*
X570300Y464000D01*
X392700Y464000D01*
X392700Y289500D01*
X582700Y289500D02*
X760700Y289500D01*
X760300Y464000D01*
X582700Y464000D01*
X582700Y289500D01*
X376700Y486226D02*
X8908Y486480D01*
X376700Y486226D02*
X376700Y719654D01*
X8908Y719400D01*
X8908Y486480D01*
X388908Y486480D02*
X756700Y486226D01*
X756700Y719654D01*
X388908Y719400D01*
X388908Y486480D01*
D12*
X150400Y769200D03*
X165400Y769200D03*
X180400Y769200D03*
X195400Y769200D03*
X210400Y769200D03*
X225400Y769200D03*
X240400Y769200D03*
D13*
X237000Y947300D03*
X211600Y947300D03*
X186200Y947300D03*
X160800Y947300D03*
X355110Y757054D03*
X355110Y782454D03*
X355110Y807854D03*
X355110Y833254D03*
X355110Y858654D03*
X355110Y884054D03*
X355110Y909454D03*
X355110Y934854D03*
X33800Y756800D03*
X33800Y782200D03*
X33800Y807600D03*
X33800Y833000D03*
X33800Y858400D03*
X33800Y883800D03*
X33800Y909200D03*
X33800Y934600D03*
D14*
X83584Y833000D02*
X95776Y833000D01*
X95776Y807600D02*
X83584Y807600D01*
X83584Y782200D02*
X95776Y782200D01*
D12*
X530400Y769200D03*
X545400Y769200D03*
X560400Y769200D03*
X575400Y769200D03*
X590400Y769200D03*
X605400Y769200D03*
X620400Y769200D03*
D13*
X617000Y947300D03*
X591600Y947300D03*
X566200Y947300D03*
X540800Y947300D03*
X735110Y757054D03*
X735110Y782454D03*
X735110Y807854D03*
X735110Y833254D03*
X735110Y858654D03*
X735110Y884054D03*
X735110Y909454D03*
X735110Y934854D03*
X413800Y756800D03*
X413800Y782200D03*
X413800Y807600D03*
X413800Y833000D03*
X413800Y858400D03*
X413800Y883800D03*
X413800Y909200D03*
X413800Y934600D03*
D14*
X463584Y833000D02*
X475776Y833000D01*
X475776Y807600D02*
X463584Y807600D01*
X463584Y782200D02*
X475776Y782200D01*
D12*
X171690Y135870D03*
X156690Y135870D03*
X141690Y135870D03*
X126690Y135870D03*
X111690Y135870D03*
X96690Y135870D03*
X81690Y135870D03*
X361690Y135870D03*
X346690Y135870D03*
X331690Y135870D03*
X316690Y135870D03*
X301690Y135870D03*
X286690Y135870D03*
X271690Y135870D03*
X551690Y135870D03*
X536690Y135870D03*
X521690Y135870D03*
X506690Y135870D03*
X491690Y135870D03*
X476690Y135870D03*
X461690Y135870D03*
X741690Y135870D03*
X726690Y135870D03*
X711690Y135870D03*
X696690Y135870D03*
X681690Y135870D03*
X666690Y135870D03*
X651690Y135870D03*
X171690Y315870D03*
X156690Y315870D03*
X141690Y315870D03*
X126690Y315870D03*
X111690Y315870D03*
X96690Y315870D03*
X81690Y315870D03*
X361690Y315870D03*
X346690Y315870D03*
X331690Y315870D03*
X316690Y315870D03*
X301690Y315870D03*
X286690Y315870D03*
X271690Y315870D03*
X551690Y315870D03*
X536690Y315870D03*
X521690Y315870D03*
X506690Y315870D03*
X491690Y315870D03*
X476690Y315870D03*
X461690Y315870D03*
X741690Y315870D03*
X726690Y315870D03*
X711690Y315870D03*
X696690Y315870D03*
X681690Y315870D03*
X666690Y315870D03*
X651690Y315870D03*
X150400Y519200D03*
X165400Y519200D03*
X180400Y519200D03*
X195400Y519200D03*
X210400Y519200D03*
X225400Y519200D03*
X240400Y519200D03*
D13*
X237000Y697300D03*
X211600Y697300D03*
X186200Y697300D03*
X160800Y697300D03*
X355110Y507054D03*
X355110Y532454D03*
X355110Y557854D03*
X355110Y583254D03*
X355110Y608654D03*
X355110Y634054D03*
X355110Y659454D03*
X355110Y684854D03*
X33800Y506800D03*
X33800Y532200D03*
X33800Y557600D03*
X33800Y583000D03*
X33800Y608400D03*
X33800Y633800D03*
X33800Y659200D03*
X33800Y684600D03*
D14*
X83584Y583000D02*
X95776Y583000D01*
X95776Y557600D02*
X83584Y557600D01*
X83584Y532200D02*
X95776Y532200D01*
D12*
X530400Y519200D03*
X545400Y519200D03*
X560400Y519200D03*
X575400Y519200D03*
X590400Y519200D03*
X605400Y519200D03*
X620400Y519200D03*
D13*
X617000Y697300D03*
X591600Y697300D03*
X566200Y697300D03*
X540800Y697300D03*
X735110Y507054D03*
X735110Y532454D03*
X735110Y557854D03*
X735110Y583254D03*
X735110Y608654D03*
X735110Y634054D03*
X735110Y659454D03*
X735110Y684854D03*
X413800Y506800D03*
X413800Y532200D03*
X413800Y557600D03*
X413800Y583000D03*
X413800Y608400D03*
X413800Y633800D03*
X413800Y659200D03*
X413800Y684600D03*
D14*
X463584Y583000D02*
X475776Y583000D01*
X475776Y557600D02*
X463584Y557600D01*
X463584Y532200D02*
X475776Y532200D01*
D15*
X89934Y782454D02*
X89680Y782200D01*
X102634Y782454D02*
X355110Y782454D01*
D16*
X115080Y817760D03*
D15*
X115080Y794900D01*
X102634Y782454D01*
X89934Y782454D01*
D16*
X254526Y820046D03*
X127018Y808362D03*
D17*
X179016Y940116D02*
X186200Y947300D01*
X179016Y940116D02*
X127780Y888880D01*
X122700Y888880D01*
X40984Y840184D02*
X33800Y833000D01*
X40984Y840184D02*
X89680Y888880D01*
X122700Y888880D01*
X40984Y840184D02*
X32485Y837907D01*
X33800Y833000D01*
X38707Y831685D02*
X40984Y840184D01*
X38707Y831685D02*
X33800Y833000D01*
X179016Y940116D02*
X187515Y942393D01*
X186200Y947300D01*
X181293Y948615D02*
X179016Y940116D01*
X181293Y948615D02*
X186200Y947300D01*
X160800Y947300D02*
X153616Y940116D01*
X108984Y895484D01*
X86945Y895484D01*
X62561Y871100D01*
X26616Y814784D02*
X33800Y807600D01*
X28720Y871100D02*
X62561Y871100D01*
X26616Y814784D02*
X28893Y806285D01*
X33800Y807600D01*
X35115Y812507D02*
X26616Y814784D01*
X35115Y812507D02*
X33800Y807600D01*
X153616Y940116D02*
X162115Y942393D01*
X160800Y947300D01*
X155893Y948615D02*
X153616Y940116D01*
X155893Y948615D02*
X160800Y947300D01*
X28720Y871100D02*
X21100Y863480D01*
X21100Y820300D01*
X26616Y814784D01*
D15*
X198900Y921900D02*
X224300Y921900D01*
X237000Y934600D01*
X237000Y947300D01*
X198900Y921900D02*
X127780Y850780D01*
X61740Y843160D02*
X61740Y769500D01*
X69360Y850780D02*
X127780Y850780D01*
X69360Y850780D02*
X61740Y843160D01*
X49040Y756800D02*
X33800Y756800D01*
X49040Y756800D02*
X61740Y769500D01*
X469680Y782200D02*
X469934Y782454D01*
X482634Y782454D02*
X735110Y782454D01*
D16*
X495080Y817760D03*
D15*
X495080Y794900D01*
X482634Y782454D01*
X469934Y782454D01*
D16*
X634526Y820046D03*
X507018Y808362D03*
D17*
X559016Y940116D02*
X566200Y947300D01*
X559016Y940116D02*
X507780Y888880D01*
X502700Y888880D01*
X420984Y840184D02*
X413800Y833000D01*
X420984Y840184D02*
X469680Y888880D01*
X502700Y888880D01*
X420984Y840184D02*
X412485Y837907D01*
X413800Y833000D01*
X418707Y831685D02*
X420984Y840184D01*
X418707Y831685D02*
X413800Y833000D01*
X559016Y940116D02*
X567515Y942393D01*
X566200Y947300D01*
X561293Y948615D02*
X559016Y940116D01*
X561293Y948615D02*
X566200Y947300D01*
X540800Y947300D02*
X533616Y940116D01*
X488984Y895484D01*
X466945Y895484D01*
X442561Y871100D01*
X406616Y814784D02*
X413800Y807600D01*
X408720Y871100D02*
X442561Y871100D01*
X406616Y814784D02*
X408893Y806285D01*
X413800Y807600D01*
X415115Y812507D02*
X406616Y814784D01*
X415115Y812507D02*
X413800Y807600D01*
X533616Y940116D02*
X542115Y942393D01*
X540800Y947300D01*
X535893Y948615D02*
X533616Y940116D01*
X535893Y948615D02*
X540800Y947300D01*
X408720Y871100D02*
X401100Y863480D01*
X401100Y820300D01*
X406616Y814784D01*
D15*
X578900Y921900D02*
X604300Y921900D01*
X617000Y934600D01*
X617000Y947300D01*
X578900Y921900D02*
X507780Y850780D01*
X441740Y843160D02*
X441740Y769500D01*
X449360Y850780D02*
X507780Y850780D01*
X449360Y850780D02*
X441740Y843160D01*
X429040Y756800D02*
X413800Y756800D01*
X429040Y756800D02*
X441740Y769500D01*
D18*
X88900Y173000D03*
X38100Y198400D03*
D19*
X35806Y133366D03*
X162806Y260366D03*
D18*
X278900Y173000D03*
X228100Y198400D03*
D19*
X225806Y133366D03*
X352806Y260366D03*
D18*
X468900Y173000D03*
X418100Y198400D03*
D19*
X415806Y133366D03*
X542806Y260366D03*
D18*
X658900Y173000D03*
X608100Y198400D03*
D19*
X605806Y133366D03*
X732806Y260366D03*
D18*
X88900Y353000D03*
X38100Y378400D03*
D19*
X35806Y313366D03*
X162806Y440366D03*
D18*
X278900Y353000D03*
X228100Y378400D03*
D19*
X225806Y313366D03*
X352806Y440366D03*
D18*
X468900Y353000D03*
X418100Y378400D03*
D19*
X415806Y313366D03*
X542806Y440366D03*
D18*
X658900Y353000D03*
X608100Y378400D03*
D19*
X605806Y313366D03*
X732806Y440366D03*
D15*
X89934Y532454D02*
X89680Y532200D01*
X102634Y532454D02*
X355110Y532454D01*
D16*
X115080Y567760D03*
D15*
X115080Y544900D01*
X102634Y532454D01*
X89934Y532454D01*
D16*
X254526Y570046D03*
X127018Y558362D03*
D17*
X179016Y690116D02*
X186200Y697300D01*
X179016Y690116D02*
X127780Y638880D01*
X122700Y638880D01*
X40984Y590184D02*
X33800Y583000D01*
X40984Y590184D02*
X89680Y638880D01*
X122700Y638880D01*
X40984Y590184D02*
X32485Y587907D01*
X33800Y583000D01*
X38707Y581685D02*
X40984Y590184D01*
X38707Y581685D02*
X33800Y583000D01*
X179016Y690116D02*
X187515Y692393D01*
X186200Y697300D01*
X181293Y698615D02*
X179016Y690116D01*
X181293Y698615D02*
X186200Y697300D01*
X160800Y697300D02*
X153616Y690116D01*
X108984Y645484D01*
X86945Y645484D01*
X62561Y621100D01*
X26616Y564784D02*
X33800Y557600D01*
X28720Y621100D02*
X62561Y621100D01*
X26616Y564784D02*
X28893Y556285D01*
X33800Y557600D01*
X35115Y562507D02*
X26616Y564784D01*
X35115Y562507D02*
X33800Y557600D01*
X153616Y690116D02*
X162115Y692393D01*
X160800Y697300D01*
X155893Y698615D02*
X153616Y690116D01*
X155893Y698615D02*
X160800Y697300D01*
X28720Y621100D02*
X21100Y613480D01*
X21100Y570300D01*
X26616Y564784D01*
D15*
X198900Y671900D02*
X224300Y671900D01*
X237000Y684600D01*
X237000Y697300D01*
X198900Y671900D02*
X127780Y600780D01*
X61740Y593160D02*
X61740Y519500D01*
X69360Y600780D02*
X127780Y600780D01*
X69360Y600780D02*
X61740Y593160D01*
X49040Y506800D02*
X33800Y506800D01*
X49040Y506800D02*
X61740Y519500D01*
X469680Y532200D02*
X469934Y532454D01*
X482634Y532454D02*
X735110Y532454D01*
D16*
X495080Y567760D03*
D15*
X495080Y544900D01*
X482634Y532454D01*
X469934Y532454D01*
D16*
X634526Y570046D03*
X507018Y558362D03*
D17*
X559016Y690116D02*
X566200Y697300D01*
X559016Y690116D02*
X507780Y638880D01*
X502700Y638880D01*
X420984Y590184D02*
X413800Y583000D01*
X420984Y590184D02*
X469680Y638880D01*
X502700Y638880D01*
X420984Y590184D02*
X412485Y587907D01*
X413800Y583000D01*
X418707Y581685D02*
X420984Y590184D01*
X418707Y581685D02*
X413800Y583000D01*
X559016Y690116D02*
X567515Y692393D01*
X566200Y697300D01*
X561293Y698615D02*
X559016Y690116D01*
X561293Y698615D02*
X566200Y697300D01*
X540800Y697300D02*
X533616Y690116D01*
X488984Y645484D01*
X466945Y645484D01*
X442561Y621100D01*
X406616Y564784D02*
X413800Y557600D01*
X408720Y621100D02*
X442561Y621100D01*
X406616Y564784D02*
X408893Y556285D01*
X413800Y557600D01*
X415115Y562507D02*
X406616Y564784D01*
X415115Y562507D02*
X413800Y557600D01*
X533616Y690116D02*
X542115Y692393D01*
X540800Y697300D01*
X535893Y698615D02*
X533616Y690116D01*
X535893Y698615D02*
X540800Y697300D01*
X408720Y621100D02*
X401100Y613480D01*
X401100Y570300D01*
X406616Y564784D01*
D15*
X578900Y671900D02*
X604300Y671900D01*
X617000Y684600D01*
X617000Y697300D01*
X578900Y671900D02*
X507780Y600780D01*
X441740Y593160D02*
X441740Y519500D01*
X449360Y600780D02*
X507780Y600780D01*
X449360Y600780D02*
X441740Y593160D01*
X429040Y506800D02*
X413800Y506800D01*
X429040Y506800D02*
X441740Y519500D01*
M02*
