M48
;GenerationSoftware,Autodesk,EAGLE,9.1.1*%
;CreationDate,2018-08-10T14:22:36Z*%
FMAT,2
ICI,OFF
METRIC,TZ,000.000
T6C0.350
T5C0.400
T4C0.700
T3C0.813
T2C1.016
T1C3.200
%
G90
M71
T1
X35281Y26037
X41581Y13337
X54281Y26037
X22581Y31337
X35281Y44037
X60581Y13337
X73281Y26037
X60581Y31337
X3581Y13337
X16281Y26037
X73281Y44037
X3581Y31337
X22581Y13337
X16281Y44037
X41581Y31337
X54281Y44037
T2
X56620Y69730
X59160Y69730
X61700Y69730
X41380Y63380
X41380Y65920
X41380Y68460
X3380Y68460
X3380Y65920
X3380Y63380
X16080Y94730
X3380Y60840
X3380Y58300
X3380Y55760
X3380Y53220
X3380Y50680
X35511Y68485
X35511Y65945
X73511Y85865
X35511Y63405
X35511Y60865
X35511Y58325
X35511Y55785
X35511Y53245
X35511Y50705
X16080Y69730
X18620Y69730
X21160Y69730
X23700Y69730
X73511Y88405
X73511Y90945
X73511Y93485
X41380Y75680
X41380Y78220
X41380Y80760
X41380Y83300
X23700Y94730
X21160Y94730
X18620Y94730
X3380Y85840
X35511Y75705
X35511Y78245
X35511Y80785
X35511Y83325
X35511Y85865
X35511Y88405
X35511Y90945
X35511Y93485
X3380Y75680
X3380Y78220
X3380Y80760
X3380Y83300
X3380Y88380
X3380Y90920
X3380Y93460
X41380Y85840
X41380Y88380
X41380Y90920
X41380Y93460
X61700Y94730
X59160Y94730
X56620Y94730
X54080Y94730
X73511Y75705
X73511Y78245
X73511Y80785
X73511Y83325
X54080Y69730
X73511Y50705
X73511Y53245
X73511Y55785
X73511Y58325
X73511Y60865
X73511Y63405
X73511Y65945
X73511Y68485
X41380Y50680
X41380Y53220
X41380Y55760
X41380Y58300
X41380Y60840
T3
X8968Y53220
X8968Y55760
X8968Y58300
X46968Y83300
X46968Y80760
X46968Y78220
X46968Y53220
X8968Y83300
X8968Y80760
X8968Y78220
X46968Y58300
X46968Y55760
T4
X11169Y13587
X9669Y13587
X22540Y51920
X36169Y13587
X34669Y13587
X33169Y13587
X31669Y13587
X30169Y13587
X28669Y13587
X27169Y13587
X55169Y13587
X53669Y13587
X52169Y13587
X50669Y13587
X49169Y13587
X47669Y13587
X46169Y13587
X74169Y13587
X72669Y13587
X71169Y13587
X69669Y13587
X68169Y13587
X66669Y13587
X65169Y13587
X17169Y31587
X15669Y31587
X14169Y31587
X12669Y31587
X11169Y31587
X9669Y31587
X8169Y31587
X36169Y31587
X34669Y31587
X33169Y31587
X31669Y31587
X30169Y31587
X28669Y31587
X27169Y31587
X55169Y31587
X53669Y31587
X52169Y31587
X50669Y31587
X49169Y31587
X47669Y31587
X46169Y31587
X74169Y31587
X72669Y31587
X71169Y31587
X69669Y31587
X68169Y31587
X66669Y31587
X65169Y31587
X15040Y51920
X16540Y51920
X18040Y51920
X19540Y51920
X21040Y51920
X24040Y51920
X53040Y51920
X54540Y51920
X57540Y51920
X59040Y51920
X60540Y51920
X62040Y51920
X8169Y13587
X15040Y76920
X16540Y76920
X18040Y76920
X19540Y76920
X21040Y76920
X22540Y76920
X24040Y76920
X53040Y76920
X54540Y76920
X56040Y76920
X57540Y76920
X59040Y76920
X60540Y76920
X62040Y76920
X17169Y13587
X15669Y13587
X14169Y13587
X12669Y13587
X56040Y51920
T5
X22810Y37840
X60810Y37840
X65890Y35300
X41810Y37840
X46890Y35300
X27890Y35300
X3810Y37840
X8890Y35300
X60810Y19840
X65890Y17300
X41810Y19840
X46890Y17300
X22810Y19840
X27890Y17300
X3810Y19840
X8890Y17300
T6
X63453Y57005
X49508Y56776
X12702Y55836
X25453Y57005
X49508Y81776
X12702Y80836
X25453Y82005
X11508Y56776
X50702Y80836
X63453Y82005
X11508Y81776
X50702Y55836
M30